<?xml version="1.0" standalone="no"?>
<!DOCTYPE svg PUBLIC "-//W3C//DTD SVG 1.1//EN" "http://www.w3.org/Graphics/SVG/1.1/DTD/svg11.dtd" >
<svg>
<metadata>
Created by FontForge 20110222 at Mon Mar  7 03:39:10 2011
 By www-data
(c) 2001, Peter Ramsey &#38; Apostrophic Lab. All rights reserved. For more works by the designers visit www.apostrophiclab.com
</metadata>
<defs>
<font id="DistroMix" horiz-adv-x="640" >
  <font-face 
    font-family="Distro Mix"
    font-weight="400"
    font-stretch="normal"
    units-per-em="1000"
    panose-1="2 0 6 3 2 0 0 2 0 3"
    ascent="800"
    descent="-200"
    x-height="464"
    cap-height="723"
    bbox="-62 -253 1107 988"
    underline-thickness="24"
    underline-position="-36"
    unicode-range="U+0020-2122"
  />
    <missing-glyph />
    <glyph glyph-name="space" unicode=" " horiz-adv-x="225" 
 />
    <glyph glyph-name="space" unicode="&#xa0;" horiz-adv-x="225" 
 />
    <glyph glyph-name="exclam" unicode="!" horiz-adv-x="246" 
d="M126 713q-18 0 -28.5 -10.5t-16 -28t-7.5 -41t-2 -49.5v-226q0 -59 11 -96.5t43 -37.5q38 0 49.5 37t11.5 97v226q0 27 -2 50.5t-8.5 41t-18.5 27.5t-32 10zM131 145q-37 0 -56.5 -24t-19.5 -59q0 -32 20 -56t56 -24q41 0 61 22.5t20 57.5q0 36 -22 59.5t-59 23.5z" />
    <glyph glyph-name="quotedbl" unicode="&#x22;" horiz-adv-x="365" 
d="M108 722q-16 0 -27.5 -11t-18.5 -28.5t-10 -38.5t-3 -40q0 -20 3.5 -38.5t10.5 -33t18.5 -23.5t27.5 -9q19 0 32 10t21.5 25.5t12 35.5t3.5 41t-4 40.5t-13 35t-22 25t-31 9.5zM274 723q-17 0 -29 -11t-20 -28t-11.5 -36.5t-3.5 -36.5q0 -21 4 -41t12.5 -35.5t21.5 -25.5
t30 -10t28.5 10.5t18.5 26.5t10 35t3 36q0 21 -4 42t-12 37.5t-20 26.5t-28 10z" />
    <glyph glyph-name="numbersign" unicode="#" horiz-adv-x="609" 
d="M256 624q-3 27 -11 36.5t-16 9.5q-16 0 -27 -13.5t-20 -32t-16 -37t-14 -28.5q-9 -13 -20.5 -23.5t-22 -21t-18 -23.5t-7.5 -31q0 -15 6.5 -28t14 -25t14 -25t6.5 -28t-11 -28.5t-24 -26.5t-24 -27t-11 -32q0 -14 6 -25t14 -22t15.5 -22t11.5 -23q3 -9 4.5 -25.5
t5.5 -32.5t11.5 -28t22.5 -12q16 0 26 18.5t20.5 42.5t25 47.5t40.5 32.5q13 5 22.5 7t16.5 2q23 0 37.5 -10.5t22.5 -26.5t13 -35t10 -35t11.5 -26.5t19.5 -10.5q18 0 26 9.5t15 24.5q8 17 15 38.5t21 39.5q8 10 20 18.5t22.5 18t18 20.5t7.5 27q0 12 -7 22t-16 21t-16 24
t-7 32q0 24 11.5 39t25.5 27t25.5 24.5t11.5 30.5q0 15 -6.5 26t-14.5 22t-17 22.5t-13 26.5q-3 10 -5 26.5t-6.5 33t-12.5 28.5t-22 12t-23.5 -13t-17 -30t-13.5 -35.5t-12 -28.5q-11 -17 -31 -30.5t-46 -13.5q-24 0 -40 8.5t-25.5 23.5t-14.5 34t-8 40zM244 355
q0 32 23.5 49t52.5 17q32 0 52 -19t20 -42q0 -15 -7.5 -27.5t-20 -21t-28 -13t-31.5 -4.5q-29 0 -45 19t-16 42z" />
    <glyph glyph-name="dollar" unicode="$" horiz-adv-x="500" 
d="M239 759q-8 0 -18 -5.5t-20.5 -12.5t-20.5 -15t-17 -12q-3 -2 -13 -7t-22.5 -11.5t-25.5 -14.5t-22 -17q-8 -9 -21.5 -22t-26.5 -32.5t-22.5 -45.5t-9.5 -60q0 -47 14.5 -78t35.5 -52t46.5 -35.5t46.5 -29t35.5 -32t14.5 -44.5q0 -22 -12.5 -34t-29.5 -12q-11 0 -23 2.5
t-28 2.5q-15 0 -31 -4.5t-28.5 -14.5t-20.5 -26t-8 -39q0 -33 22 -52.5t52.5 -32t61.5 -22t49 -21.5q9 -6 21 -13.5t23 -7.5q4 0 12.5 3.5t17.5 8t17 9.5t13 8q18 12 34.5 21t31.5 16.5t28.5 16t24.5 19.5l20.5 20.5t27 33t23 46.5t9.5 63q0 48 -15 80t-37.5 53t-49 35
t-49 27.5t-37.5 30t-15 42.5q0 25 17.5 38.5t57.5 13.5q11 0 24.5 5t25 14.5t19.5 24t8 33.5q0 22 -14.5 39t-35.5 29t-45 21t-42 17q-6 2 -14.5 7.5t-18.5 11t-20.5 9.5t-19.5 4z" />
    <glyph glyph-name="percent" unicode="%" horiz-adv-x="893" 
d="M642 658q0 16 -9 26.5t-26 10.5q-7 0 -15 -4.5t-15 -11t-13 -13.5t-9 -11q-12 -16 -26.5 -39.5t-27.5 -45t-21.5 -36.5l-8.5 -15q-24 -39 -39.5 -57.5t-25.5 -27t-15.5 -11t-8.5 -9.5q-6 -12 -6 -20q0 -7 -2 -20t-9.5 -35.5t-28.5 -64.5q-4 -9 -14 -27.5t-23 -41.5
t-26.5 -48.5t-24.5 -48t-18.5 -39t-7.5 -23.5q0 -5 -1.5 -17t3.5 -18q8 -8 14 -10.5t15 -2.5q18 0 38 22t39 51.5t34.5 58.5t26.5 43q20 27 42.5 48.5t46.5 44.5q-2 -16 -3 -29.5t-1 -26.5q0 -45 9.5 -77t25.5 -60q10 -18 28 -35t39.5 -29.5t46.5 -20t51 -7.5
q36 0 67.5 15.5t55 41t37 58t13.5 67.5q0 36 -13 69.5t-37 59t-56.5 41t-71.5 15.5q-48 0 -95.5 -19.5t-86.5 -46.5q4 13 4.5 19.5t1.5 15.5t5.5 26t15.5 51q12 35 32.5 69t38.5 66q2 4 11 18.5t18.5 33.5t17.5 39.5t8 37.5zM189 712q-40 0 -73 -15.5t-56.5 -42t-36.5 -61.5
t-13 -74q0 -29 12.5 -59.5t36.5 -55.5t58 -41.5t78 -16.5q45 0 93 18.5t82 44.5q8 14 12 32.5t4 39.5q0 37 -11 78t-34.5 75t-61 56t-90.5 22zM120 532q0 32 21 50t51 18q33 0 51.5 -24t18.5 -52q0 -30 -19 -47.5t-49 -17.5q-36 0 -55 23t-19 50zM598 164q0 29 20 49.5
t49 20.5q33 0 53.5 -22.5t20.5 -50.5q0 -29 -23 -49t-51 -20q-14 0 -26.5 6.5t-22 16.5t-15 23t-5.5 26z" />
    <glyph glyph-name="ampersand" unicode="&#x26;" horiz-adv-x="593" 
d="M452 572q0 40 -15 69t-40 47.5t-58 27t-69 8.5q-37 0 -71.5 -9.5t-61.5 -29t-43 -49.5t-16 -71q0 -33 6 -51t13.5 -32.5t14 -31t6.5 -45.5q0 -22 -8.5 -38t-21.5 -29.5t-28.5 -28t-28.5 -34t-21.5 -46t-8.5 -65.5q0 -37 16.5 -70.5t46.5 -59t71.5 -40.5t91.5 -15t81.5 10
t54 22.5t41.5 22.5t43 10q23 0 37 -6t25 -12.5t23 -12.5t32 -6q31 0 31 20q0 14 -8.5 26t-18 26.5t-18 32t-8.5 43.5q0 29 9 51t19.5 38.5t19.5 28.5t9 21q0 12 -6 24.5t-19 12.5q-19 0 -33 -10.5t-27.5 -23.5t-30 -23.5t-40.5 -10.5q-22 0 -39 9.5t-29 24.5t-18.5 33
t-6.5 35q0 31 16 52t35 42t35 46.5t16 66.5zM105 179q0 33 10 56.5t25 38.5t32 22t31 7q24 0 51 -15t50.5 -37.5t38.5 -49t15 -50.5q0 -18 -8.5 -36t-24 -32t-37.5 -22.5t-49 -8.5q-35 0 -60 12t-41.5 31t-24.5 41t-8 43zM173 551q0 23 8 40.5t21.5 29.5t30 18t33.5 6
q26 0 43.5 -7.5t28 -20.5t14.5 -29t4 -33q0 -24 -7.5 -42.5t-20 -31t-28.5 -19t-34 -6.5q-21 0 -38 8t-29.5 21.5t-19 30.5t-6.5 35z" />
    <glyph glyph-name="quotesingle" unicode="'" horiz-adv-x="210" 
d="M108 720q-15 0 -25 -11.5t-16 -28.5t-8.5 -37t-2.5 -37q0 -15 3 -34t9 -35.5t16 -28t24 -11.5q17 0 27.5 11.5t16.5 28t8.5 35.5t2.5 34q0 19 -3.5 39.5t-10 37t-17 27t-24.5 10.5z" />
    <glyph glyph-name="parenleft" unicode="(" horiz-adv-x="335" 
d="M318 645q0 20 -9 37.5t-23 30.5t-31.5 20.5t-33.5 7.5q-29 0 -55 -21t-48 -55.5t-39.5 -79t-30 -91t-19 -92t-6.5 -82.5q0 -42 7 -89.5t20 -93.5t31 -88t39.5 -74t46 -51t50.5 -19q16 0 33.5 6.5t32 17.5t24 27t9.5 35q0 37 -14 66t-30.5 63.5t-30 80t-13.5 114.5
q0 68 14 119.5t31 90.5t31 68t14 52z" />
    <glyph glyph-name="parenright" unicode=")" horiz-adv-x="335" 
d="M80 -52q0 -12 6 -19.5t15 -7.5q12 0 27.5 17.5t30.5 47.5t29.5 69t25.5 81.5t17.5 86t6.5 82.5q0 78 -14.5 153t-36 134.5t-45.5 96t-43 36.5q-16 0 -16 -28q0 -15 15 -44.5t32.5 -77t32.5 -115.5t15 -162q0 -61 -15.5 -120.5t-33.5 -107.5t-33.5 -81t-15.5 -41z" />
    <glyph glyph-name="asterisk" unicode="*" horiz-adv-x="413" 
d="M208 710q-12 0 -25 -9.5t-25 -21.5t-21.5 -24t-14.5 -17q-7 -7 -23 -12t-33 -12.5t-30 -19.5t-13 -32q0 -15 7.5 -28.5t16.5 -25t16.5 -22t7.5 -19.5v-54q0 -21 14.5 -39.5t31.5 -18.5q18 0 30.5 3.5t21.5 8t16.5 8.5t16.5 4q8 0 17.5 -4t20.5 -9t25 -9t31 -4
q12 0 20.5 6.5t14.5 16t8.5 20.5t2.5 20v51q0 17 7.5 29t17 23t17 21.5t7.5 24.5q0 19 -14 31t-32.5 19.5t-36 12.5t-24.5 12q-5 5 -11.5 16.5t-16 23.5t-21.5 21t-27 9z" />
    <glyph glyph-name="plus" unicode="+" horiz-adv-x="577" 
d="M360 369q-24 24 -31 55t-9.5 58t-7.5 46t-24 19q-15 0 -18.5 -19t-6.5 -46.5t-11 -58t-31 -53.5q-20 -20 -47.5 -24.5t-52.5 -5.5t-42 -4.5t-17 -21.5q0 -19 17.5 -23t43 -6t55 -8.5t52.5 -29.5q19 -20 25 -48.5t8 -55t6.5 -45.5t22.5 -19q16 0 20.5 19t6.5 45.5t7.5 55
t24.5 46.5q22 22 52 29t56 9.5t44.5 6.5t18.5 20q0 19 -18.5 24t-44.5 7t-53.5 6.5t-45.5 21.5z" />
    <glyph glyph-name="comma" unicode="," horiz-adv-x="198" 
d="M125 119q-24 0 -41 -19t-27.5 -45.5t-15.5 -54.5t-5 -46q0 -23 7 -43.5t30 -20.5t41.5 20.5t31 48.5t19 57.5t6.5 46.5q0 24 -10 40t-36 16z" />
    <glyph glyph-name="hyphen" unicode="-" horiz-adv-x="521" 
d="M407 388h-289q-17 0 -34 -5t-30.5 -15t-21.5 -24.5t-8 -33.5q0 -18 8.5 -32.5t22 -24.5t30 -15.5t33.5 -5.5h289q36 0 63 21.5t27 55.5q0 19 -8.5 34t-21.5 25t-29 15t-31 5z" />
    <glyph glyph-name="period" unicode="." horiz-adv-x="232" 
d="M116 223q-26 0 -48 -10.5t-38.5 -28t-25.5 -40t-9 -47.5q0 -26 10 -47.5t27 -37t39 -24.5t47 -9q23 0 44.5 8.5t38 24t26.5 38.5t10 53q0 25 -10 46.5t-27 38t-38.5 26t-45.5 9.5z" />
    <glyph glyph-name="slash" unicode="/" horiz-adv-x="294" 
d="M280 625q11 29 11.5 47t-5.5 25q-8 0 -19.5 -14t-23.5 -44l-232 -573q-1 -2 -2.5 -8.5t-1.5 -14.5q0 -7 1.5 -14t5.5 -11q8 0 18.5 13.5t18.5 31.5z" />
    <glyph glyph-name="zero" unicode="0" horiz-adv-x="600" 
d="M301 730q-81 0 -132.5 -32.5t-81 -85t-41 -118t-11.5 -131.5q0 -67 12 -133.5t43 -119.5t83 -86t133 -33q54 0 94.5 15.5t70 43t49 64t31 78.5t16 86.5t4.5 88.5q0 71 -13.5 136.5t-45 116t-83.5 80.5t-128 30zM291 606q45 0 75 -20.5t47.5 -54t24.5 -76.5t7 -87
q0 -34 -5 -78t-20 -83t-42.5 -65.5t-73.5 -26.5q-44 0 -72.5 25.5t-45 63t-22.5 80t-6 75.5q0 45 8 89.5t24.5 79.5t41.5 56.5t59 21.5z" />
    <glyph glyph-name="one" unicode="1" horiz-adv-x="388" 
d="M293 628q0 38 -15.5 65.5t-45.5 27.5q-18 0 -41 -10t-47.5 -26t-48 -35.5t-42 -38t-29.5 -34t-11 -23.5q0 -11 8 -15.5t21 -4.5q9 0 21 4t25.5 9t27.5 9t26 4q38 0 50 -33t12 -101v-326q0 -17 1.5 -35t6.5 -32.5t13.5 -23.5t23.5 -9q13 0 21.5 9.5t13.5 24.5t7 32.5
t2 33.5v528z" />
    <glyph glyph-name="two" unicode="2" horiz-adv-x="510" 
d="M280 732q-34 0 -60.5 -6t-47 -15t-35.5 -20.5t-25 -21.5q-14 -14 -19 -24t-5 -18q0 -12 8.5 -17.5t16.5 -5.5q11 0 25.5 12.5t35 27t46.5 27t59 12.5q26 0 52 -10t47 -27.5t34 -42t13 -53.5t-5.5 -52.5t-15.5 -42.5t-23 -34.5t-28 -30.5l-179 -177l-37.5 -37.5t-40.5 -44
t-32 -43t-13 -34.5q0 -28 17 -41t38 -13h265q30 0 52 4.5t22 12.5q0 10 -16.5 13.5t-41.5 3.5h-62q-24 0 -47.5 3t-41.5 12.5t-29.5 27t-11.5 45.5q0 17 6.5 34t21.5 32l158 153q18 18 38 40t36.5 47t27.5 53t11 57q0 48 -16 84.5t-44.5 61t-68 36.5t-85.5 12z" />
    <glyph glyph-name="three" unicode="3" horiz-adv-x="483" 
d="M228 728q-52 0 -92 -13.5t-67.5 -34t-42 -44.5t-14.5 -45q0 -15 7.5 -28t19.5 -23.5t27.5 -16.5t32.5 -6q20 0 36.5 6.5t31 14t28.5 14t30 6.5q23 0 35 -12t12 -31q0 -18 -9 -29t-23 -19t-30 -15t-30 -17.5t-23 -25.5t-9 -40q0 -22 10.5 -35.5t26.5 -23t35 -16.5
t35 -16.5t26.5 -23.5t10.5 -36q0 -23 -18.5 -41t-45.5 -18q-17 0 -33.5 9t-33 20.5t-34.5 20.5t-37 9q-14 0 -29.5 -4.5t-29 -14t-22.5 -25.5t-9 -38q0 -27 18.5 -52.5t50.5 -45.5t75 -32.5t91 -12.5q53 0 96.5 19t75 49.5t49 69t17.5 78.5t-9 67t-19.5 46t-19 33t-8.5 28
t6 27t13.5 28.5t14 35.5t6.5 49q0 51 -19.5 89.5t-51.5 64t-73 38.5t-85 13z" />
    <glyph glyph-name="four" unicode="4" horiz-adv-x="541" 
d="M350 715q-39 0 -64.5 -9.5t-50.5 -35.5t-55.5 -72.5t-78.5 -120.5q-23 -35 -43.5 -66.5t-37 -61t-26 -57.5t-9.5 -55q0 -25 9 -47.5t23 -37.5q9 -9 18.5 -15t25.5 -9.5t41 -5.5t64 -2q27 0 46.5 -3.5t28.5 -12.5q11 -11 17.5 -28.5t18.5 -34.5t33 -29.5t62 -12.5
q36 0 56.5 15.5t31.5 35.5t16 38.5t11 24.5q9 9 20.5 19.5t21 23t16 29t6.5 39.5q0 34 -11.5 52t-25.5 32t-25.5 30t-11.5 46v181q0 83 -31.5 116.5t-95.5 33.5z" />
    <glyph glyph-name="five" unicode="5" horiz-adv-x="494" 
d="M418 680q0 10 -10 17t-26.5 11t-38 6t-43.5 2h-81q-59 0 -91.5 -3.5t-49.5 -20.5q-14 -14 -18 -39.5t-4 -68.5v-124q0 -26 4.5 -42t13.5 -24.5t22 -11.5t29 -3h55q103 0 151.5 -45.5t48.5 -126.5q0 -26 -10.5 -50.5t-30.5 -43.5t-48 -31t-62 -12q-29 0 -49.5 8.5t-37 19
t-31.5 19.5t-33 9q-20 0 -30 -7.5t-10 -30.5q0 -11 11.5 -28.5t34 -33.5t56.5 -27.5t80 -11.5q62 0 108.5 19.5t78 53t47.5 79t16 96.5q0 34 -13 73t-40 71.5t-70 54t-103 21.5q-13 0 -29.5 4.5t-31 16t-24.5 31t-10 49.5q0 10 4 26t18.5 30t43 24.5t78.5 10.5h19
q58 0 82 6.5t24 26.5z" />
    <glyph glyph-name="six" unicode="6" horiz-adv-x="534" 
d="M316 710q-13 0 -32.5 -23t-39.5 -55l-95 -147q-24 -36 -43.5 -68t-33.5 -63.5t-21.5 -66t-7.5 -76.5q0 -66 26 -108.5t63 -67.5t77.5 -34.5t69.5 -9.5q47 0 90 15.5t76 44.5t52.5 69.5t19.5 90.5q0 54 -14.5 92.5t-51.5 76.5q-20 19 -43 29t-46 16.5t-43.5 13.5t-33.5 20
q-9 9 -15 23t-6 35q0 34 11.5 62t25 49.5t25 36t11.5 22.5q0 23 -21 23zM294 406q33 0 63.5 -13.5t54 -38t38 -58.5t14.5 -74q0 -38 -14 -71.5t-37.5 -58.5t-54.5 -39t-65 -14q-43 0 -77.5 15.5t-58.5 42t-37 60.5t-13 71q0 34 14.5 66t39.5 57t59.5 40t73.5 15z" />
    <glyph glyph-name="seven" unicode="7" horiz-adv-x="467" 
d="M91 716q-40 0 -61.5 -17t-21.5 -40q0 -24 14.5 -36.5t35.5 -18.5t44 -6.5t39 -0.5q66 0 95 -5.5t41 -17.5q13 -13 13 -39q0 -12 -8.5 -38t-25.5 -59l-126 -259q-17 -36 -32 -70.5t-15 -55.5q0 -25 11.5 -39t37.5 -14q22 0 39 10t29.5 25.5t22.5 34.5t18 36l197 417
q11 23 22 52t11 55q0 23 -10 40t-21 28q-7 6 -24.5 10t-42.5 5.5t-54.5 2t-60.5 0.5h-167z" />
    <glyph glyph-name="eight" unicode="8" horiz-adv-x="521" 
d="M259 728q-44 0 -84.5 -13t-72 -38t-50 -62t-18.5 -84q0 -27 5.5 -47t11.5 -36.5t11.5 -31.5t5.5 -31q0 -20 -8.5 -34.5t-18 -33t-18 -44.5t-8.5 -69q0 -44 18.5 -82t52 -67t80 -45.5t102.5 -16.5q59 0 103.5 20.5t74.5 52.5t45.5 71t15.5 76t-8.5 60.5t-19 41.5t-19 33
t-8.5 36q0 17 5 31.5t11.5 30.5t11.5 36t5 47q0 48 -18.5 85.5t-49.5 62.5t-72 38t-86 13zM260 296q27 0 47.5 -18.5t20.5 -47.5q0 -31 -21 -48t-47 -17t-46.5 18t-20.5 47q0 26 20.5 46t46.5 20zM260 560q18 0 30 -13.5t12 -31.5q0 -17 -13 -29.5t-29 -12.5q-15 0 -30 10
t-15 32q0 17 12.5 31t32.5 14z" />
    <glyph glyph-name="nine" unicode="9" horiz-adv-x="517" 
d="M509 492q0 51 -16.5 94.5t-48 75.5t-76 50t-100.5 18q-39 0 -82 -11.5t-79.5 -39t-60.5 -72.5t-24 -111q0 -51 16.5 -91t38.5 -62q30 -30 52.5 -40t42 -15t38 -11.5t39.5 -27.5q7 -6 11.5 -16.5t4.5 -21.5q0 -21 -11.5 -44t-26 -46t-26 -44t-11.5 -36t8 -22.5t22 -7.5
q20 0 41.5 19.5t41 46t35.5 54.5t27 45q17 27 42 62.5t47.5 76t38.5 85.5t16 92zM109 497q0 27 12 54t32 48.5t47.5 35t58.5 13.5q33 0 61 -13.5t48 -35t31.5 -48.5t11.5 -54q0 -26 -10.5 -54t-30.5 -51t-49 -38t-66 -15q-28 0 -54.5 12t-46.5 33t-32.5 50t-12.5 63z" />
    <glyph glyph-name="colon" unicode=":" horiz-adv-x="264" 
d="M130 481q-27 0 -42 -18t-15 -44q0 -23 16 -42.5t48 -19.5q27 0 44.5 16.5t17.5 45.5q0 28 -17 45t-52 17zM138 134q-28 0 -45.5 -16t-17.5 -46q0 -23 14 -42t43 -19q27 0 48 16.5t21 46.5q0 23 -15.5 41.5t-47.5 18.5z" />
    <glyph glyph-name="semicolon" unicode=";" horiz-adv-x="336" 
d="M200 119q-25 0 -43 -19.5t-30 -46.5t-18 -55.5t-6 -47.5q0 -23 9.5 -44t32.5 -21q20 0 34.5 16t21.5 29q4 7 11 23t14 35.5t12.5 41t5.5 39.5q0 21 -9.5 35.5t-34.5 14.5zM190 474q-29 0 -46.5 -18.5t-17.5 -47.5q0 -23 15 -41.5t47 -18.5q28 0 46.5 16.5t18.5 45.5
q0 24 -15.5 44t-47.5 20z" />
    <glyph glyph-name="less" unicode="&#x3c;" horiz-adv-x="536" 
d="M462 530q-17 0 -51.5 -11.5t-72.5 -28.5l-142 -65q-20 -9 -47.5 -20.5t-52.5 -26.5t-43 -35t-18 -46q0 -20 25 -41t59.5 -39.5t70.5 -33.5t59 -23t25 -9q18 -11 41.5 -23.5t48.5 -23.5t49.5 -18t45.5 -7q29 0 37 12t8 23q0 14 -6 26q-10 20 -29 34.5t-44 25.5l-60 26
q-37 16 -64 35t-27 51q0 19 23 36.5t55 31.5l65 30q17 8 31.5 15t22.5 13q11 10 20.5 27t9.5 33q0 14 -11.5 23t-27.5 9z" />
    <glyph glyph-name="equal" unicode="=" horiz-adv-x="532" 
d="M151 237q-43 0 -68.5 -12t-25.5 -41q0 -26 27 -39t67 -13h253q50 0 74.5 12t24.5 40t-22.5 40.5t-76.5 12.5h-253zM151 458q-43 0 -68.5 -12.5t-25.5 -41.5q0 -26 27 -38.5t67 -12.5h253q50 0 74.5 12t24.5 39q0 29 -22.5 41.5t-76.5 12.5h-253z" />
    <glyph glyph-name="greater" unicode="&#x3e;" horiz-adv-x="535" 
d="M93 556q-42 0 -64 -24.5t-22 -68.5q0 -32 11.5 -54t29 -37t37.5 -24.5t37.5 -17t29 -14.5t11.5 -16q0 -8 -11.5 -14t-29 -13.5t-38 -18t-38 -26t-29 -38.5t-11.5 -55q0 -39 25 -63.5t63 -24.5q14 0 38 7t54 18t65 25t70 29q31 13 69 26t71 32t55.5 47t22.5 71
q0 41 -20.5 68t-52.5 45.5t-71.5 32.5t-77.5 30q-23 10 -54.5 23.5t-63 25.5t-60 20.5t-46.5 8.5z" />
    <glyph glyph-name="question" unicode="?" horiz-adv-x="487" 
d="M225 724q-30 0 -66.5 -10t-69 -28.5t-54.5 -46t-22 -62.5q0 -21 12 -36t41 -15q24 0 41 10.5t32.5 23t32 23t37.5 10.5q32 0 55.5 -23.5t23.5 -55.5q0 -33 -20.5 -61.5t-44.5 -56t-44.5 -57t-20.5 -63.5q0 -14 3 -28.5t10 -26.5t17 -20t25 -8t28 13.5t24.5 31.5
t20.5 36.5t15 29.5q15 24 40 48.5t43 47.5q23 28 35 62t12 69q0 43 -16.5 78.5t-45 61t-65.5 39.5t-79 14zM213 157q-14 0 -24.5 -8t-21.5 -20q-15 -18 -26.5 -31t-11.5 -38q0 -18 7.5 -33t19.5 -26.5t26 -17.5t28 -6q16 0 31.5 6.5t27 17.5t18.5 26t7 33q0 15 -3 24
t-9 16.5t-13.5 14t-16.5 16.5q-10 11 -17.5 18.5t-21.5 7.5z" />
    <glyph glyph-name="at" unicode="@" horiz-adv-x="915" 
d="M837 383q0 81 -26.5 146t-75.5 110.5t-117 69.5t-151 24q-88 0 -158 -32t-118.5 -87t-74 -129t-25.5 -157q0 -39 4 -72t14.5 -63t28 -59t44.5 -60q30 -35 68 -59t77.5 -39t77 -22t66.5 -7q18 0 44.5 3t55 9.5t56.5 17t50 25t36 34t14 43.5t3.5 37t13.5 29q23 34 40.5 59
t29 50.5t17.5 55t6 73.5zM189 369q0 67 19 120t55.5 90t88.5 57t118 20q48 0 80 -7t53.5 -17t35 -21.5t22.5 -20.5q5 -5 6.5 -12.5t1.5 -15.5q0 -7 1 -14t4 -12q11 -5 17.5 -8t16.5 -12q26 -25 38.5 -65t12.5 -83q0 -26 -4 -51t-11.5 -44.5t-19 -31.5t-26.5 -12
q-14 0 -24.5 8.5t-17 21t-9.5 26.5t-3 26q0 25 5 49t10.5 46t10.5 42.5t5 39.5q0 11 -1.5 20t-6.5 16q-8 11 -26 16t-54 5q-29 0 -49.5 2t-36.5 5t-28.5 5t-24.5 2q-27 0 -53.5 -8.5t-50.5 -23t-44 -34.5t-33 -43q-18 -31 -27 -57t-13 -47q0 -4 -0.5 -15t-2 -23t-5 -21.5
t-9.5 -9.5q-7 0 -11 12.5t-6.5 29t-3 31t-0.5 19.5zM354 325q0 23 6.5 46t19.5 41.5t32 30t44 11.5q23 0 39.5 -9.5t27 -25t15.5 -35t5 -40.5q0 -23 -6 -46t-19 -41.5t-32 -30.5t-45 -12q-21 0 -37.5 10.5t-27.5 26.5t-16.5 35.5t-5.5 38.5zM421 107q20 5 40 14.5t41 9.5
q14 0 37 -5t45 -12.5t38 -17.5t16 -20q0 -8 -5.5 -17t-19.5 -16.5t-38 -12t-61 -4.5q-18 0 -50 3.5t-63 12.5t-54.5 23.5t-24.5 35.5q4 2 14.5 3.5t19.5 1.5t18 -1.5t17 -1.5t15.5 1t14.5 3z" />
    <glyph glyph-name="A" unicode="A" 
d="M394 661q-17 21 -33 30.5t-41 9.5t-46.5 -13.5t-32.5 -36.5q-6 -12 -17 -35.5t-25 -55.5l-158 -362q-6 -14 -14 -33t-15 -39t-12 -39.5t-5 -35.5q0 -22 13 -36.5t36 -14.5q20 0 35.5 9.5t28 24t23 31t19.5 30.5q8 11 22.5 24t27.5 19q6 3 14 5.5t22 4.5t35 3t52 1
q53 0 80.5 -5t36.5 -9q14 -6 21.5 -13.5t15.5 -19.5q14 -18 24.5 -37t22.5 -34t28.5 -24.5t43.5 -9.5q20 0 35.5 11.5t15.5 41.5q0 17 -6 38.5t-13.5 41t-14.5 35.5t-10 22l-162 372q-17 39 -29.5 66t-17.5 33zM248 336q0 10 5 30.5t14 40t21 34.5t26 15q16 0 29 -13.5
t22.5 -32.5t14.5 -39t5 -33q0 -32 -18 -48.5t-50 -16.5q-39 0 -54 18.5t-15 44.5z" />
    <glyph glyph-name="B" unicode="B" horiz-adv-x="572" 
d="M524 555q0 51 -20 83t-53.5 50t-78.5 25t-94 7h-137q-52 0 -74 -23.5t-22 -71.5v-494q0 -45 6.5 -71t18.5 -39t29.5 -16.5t40.5 -3.5h102q39 0 78 3.5t73.5 10.5t61.5 18.5t44 28.5q6 6 16 15t19 24t15.5 37t6.5 54q0 44 -14.5 71t-32 46.5t-32 35.5t-14.5 38
q0 32 9.5 48.5t21 31.5t21 34.5t9.5 57.5zM141 210q0 74 34 100.5t103 26.5q57 0 93 -13t55.5 -32.5t26.5 -42t7 -40.5q0 -40 -17.5 -66.5t-45 -42t-62 -22t-67.5 -6.5q-71 0 -99 34t-28 104zM141 532q0 33 9.5 55.5t26 35.5t38 18.5t44.5 5.5q51 0 83 -12t51 -29.5
t26 -38.5t7 -39q0 -25 -9 -46.5t-29.5 -37.5t-52.5 -25.5t-77 -9.5q-26 0 -47.5 6.5t-37 20.5t-24 37.5t-8.5 58.5z" />
    <glyph glyph-name="C" unicode="C" horiz-adv-x="587" 
d="M357 736q-74 0 -142 -25.5t-120.5 -74t-83.5 -119.5t-31 -162q0 -88 31.5 -157t85 -116.5t123 -72.5t144.5 -25q45 0 88.5 12t77.5 33t55 48.5t21 57.5q0 24 -13 45t-32 36.5t-41 24.5t-40 9q-17 0 -33.5 -9t-34 -19.5t-35 -19t-35.5 -8.5q-25 0 -49.5 13t-43.5 35
t-30.5 52t-11.5 63q0 30 9.5 59.5t27.5 53t44 38.5t60 15q16 0 30.5 -6.5t28.5 -14t29.5 -14t32.5 -6.5q19 0 40.5 9.5t40 25t31 36.5t12.5 45q0 33 -21 58.5t-55 43t-76 27t-84 9.5z" />
    <glyph glyph-name="D" unicode="D" horiz-adv-x="682" 
d="M288 724h-118q-41 0 -66 -3.5t-38 -17t-17 -39t-4 -68.5v-508q0 -29 6.5 -46t18.5 -26t28 -12t35 -3h114q45 0 88.5 3.5t85.5 15.5t83 35.5t81 63.5q17 17 34.5 41t31.5 54t23 66t9 77q0 74 -22 140.5t-70 117t-123 80t-180 29.5zM139 634q26 26 53.5 34.5t69.5 8.5
q106 0 175 -29.5t108.5 -75t55 -100t15.5 -104.5q0 -77 -27 -137t-74 -101t-111 -62t-138 -21q-23 0 -41 2t-32.5 6.5t-27 12t-24.5 19.5q-24 24 -30.5 66t-6.5 93v183q0 28 1 60t5 60.5t11 51t18 33.5z" />
    <glyph glyph-name="E" unicode="E" horiz-adv-x="517" 
d="M133 718q-51 0 -73.5 -39.5t-22.5 -102.5v-417q0 -56 8 -86t26 -48q7 -7 16.5 -12t23.5 -8.5t35.5 -5t52.5 -1.5q36 0 78 1t79.5 3t66.5 3.5t41 3.5q22 2 36 15.5t14 36.5q0 34 -32.5 46.5t-83.5 12.5h-79q-29 0 -55 3t-45.5 13t-31 30t-11.5 54q0 27 10 43.5t28 26.5
t42.5 13.5t53.5 3.5h57q18 0 37 2.5t35 9.5t26.5 19.5t10.5 31.5q0 17 -10.5 28t-27 17.5t-35.5 9t-36 2.5h-53q-23 0 -46.5 2.5t-43 11t-32 25t-12.5 45.5q0 28 10 45.5t27.5 27t40 12.5t47.5 3h78q29 0 54 4.5t42 18.5q10 8 14 17t4 18q0 14 -7 26t-14 18q-8 6 -28.5 9.5
t-48.5 5t-61 2t-66 0.5h-139z" />
    <glyph glyph-name="F" unicode="F" horiz-adv-x="474" 
d="M476 666q0 26 -27 33t-78 7h-214q-26 0 -44.5 -4t-31.5 -14.5t-19 -29.5t-6 -50v-518q0 -48 12.5 -68.5t32.5 -20.5q26 0 37 22t11 68v60q0 51 8.5 80.5t25.5 46.5q19 19 57.5 23t95.5 4h26q15 0 31.5 1.5t30 6t22.5 12t9 20.5q0 12 -8 19.5t-21.5 11.5t-30.5 5.5
t-35 1.5h-61q-49 0 -76.5 8.5t-45.5 26.5q-20 20 -23.5 45.5t-3.5 48.5q0 40 12.5 63t32.5 34.5t44.5 14.5t48.5 3h87q18 0 36.5 1.5t32.5 5.5t23 11.5t9 20.5z" />
    <glyph glyph-name="G" unicode="G" horiz-adv-x="701" 
d="M390 737q-85 0 -154.5 -29t-119.5 -80.5t-77.5 -122t-27.5 -154.5q0 -57 20.5 -121.5t66.5 -120t120 -92t182 -36.5q34 0 73.5 4t75.5 12t65.5 19.5t45.5 27.5q13 13 19.5 42t6.5 70v97q0 40 -3.5 66.5t-15 41.5t-33 21t-56.5 6q-40 0 -63 -8.5t-23 -20.5q0 -11 20 -17
t43.5 -19.5t43.5 -42t20 -84.5q0 -59 -20.5 -93t-52.5 -51t-71 -22t-75 -5q-84 0 -144.5 32.5t-99.5 80.5t-57.5 104t-18.5 103q0 87 27.5 152t72 108t99.5 64.5t111 21.5q42 0 72.5 -6.5t52.5 -14.5t37.5 -14.5t26.5 -6.5t19 6t8 18q0 11 -12.5 22.5t-39 20.5t-67 15
t-97.5 6z" />
    <glyph glyph-name="H" unicode="H" horiz-adv-x="659" 
d="M137 585q0 19 -1.5 41.5t-6.5 41t-14 31t-25 12.5q-29 0 -37.5 -31.5t-8.5 -80.5v-489q0 -22 2 -41.5t7 -34t14 -23t23 -8.5q27 0 37 33t10 84v49q0 36 4.5 66t18 51.5t38 33t65.5 11.5h149q38 0 61.5 -10t36.5 -28.5t17.5 -46t4.5 -61.5v-65q0 -35 2.5 -57.5t8.5 -36
t15 -19t21 -5.5q26 0 36 28t10 88v499q0 39 -9 67.5t-38 28.5q-16 0 -25.5 -10.5t-14 -28t-5.5 -39.5t-1 -46q0 -34 -3 -66t-14 -56.5t-33 -39.5t-60 -15h-164q-40 0 -64 14.5t-36.5 38.5t-16.5 55t-4 65z" />
    <glyph glyph-name="I" unicode="I" horiz-adv-x="236" 
d="M117 723q-44 0 -66 -35t-22 -89v-490q0 -19 5.5 -38.5t16.5 -35t28.5 -25.5t41.5 -10q21 0 37.5 10t27 25.5t16 35t5.5 38.5v493q0 63 -26 92t-64 29z" />
    <glyph glyph-name="J" unicode="J" horiz-adv-x="429" 
d="M389 622q0 11 -2 25.5t-7 27t-13.5 21.5t-21.5 9q-17 0 -26.5 -9.5t-14 -22.5t-5.5 -27t-1 -24v-366q0 -13 -2.5 -43t-13.5 -60.5t-34 -53.5t-65 -23q-31 0 -47 6.5t-27 14t-22.5 14t-33.5 6.5h-3q-11 0 -20 -9.5t-9 -27.5q0 -20 15 -37t38.5 -29.5t51 -19.5t52.5 -7
q48 0 87 15t66.5 42.5t42.5 67t15 88.5v422z" />
    <glyph glyph-name="K" unicode="K" horiz-adv-x="592" 
d="M500 714q-27 0 -49.5 -9.5t-41 -23.5t-34.5 -30l-29 -29t-26.5 -29t-27 -29.5t-27.5 -22.5t-28 -9q-32 0 -32 87q0 36 -23 65t-67 29q-24 0 -40.5 -10.5t-26.5 -28.5t-14.5 -41.5t-4.5 -50.5v-434q0 -33 3.5 -60t14 -45.5t28.5 -29t47 -10.5q39 0 61 30.5t22 91.5
q0 18 1 35t4.5 31t9.5 22.5t16 8.5q13 0 27.5 -11.5t28 -27t25.5 -31t21 -24.5q19 -19 36.5 -41t38.5 -40.5t47.5 -31t62.5 -12.5q34 0 59 12t25 47q0 20 -17.5 46.5t-43.5 55.5t-57 60t-57 60t-43.5 54.5t-17.5 43.5q0 11 7 24t16.5 25.5t20.5 23.5l20 20q5 4 17.5 16
t29 27.5t34 33.5t32.5 36t24.5 34t9.5 27q0 28 -20.5 46.5t-61.5 18.5z" />
    <glyph glyph-name="L" unicode="L" horiz-adv-x="437" 
d="M152 624q0 44 -13.5 60.5t-30.5 16.5q-20 0 -33 -19t-13 -62v-517q0 -20 4 -38.5t14 -32.5t27.5 -23t44.5 -9h205q42 0 66.5 8t23.5 32q0 22 -24 34t-66 12h-69q-26 0 -50.5 8t-43.5 24t-30.5 41t-11.5 60v405z" />
    <glyph glyph-name="M" unicode="M" horiz-adv-x="847" 
d="M323 392l-62 174q-15 42 -27 68.5t-28 42.5q-14 14 -33.5 20.5t-49.5 6.5q-29 0 -45.5 -11.5t-25 -27t-10.5 -32.5t-2 -27v-506q0 -15 1.5 -32t6.5 -30.5t13.5 -22.5t22.5 -9q18 0 30 21t12 44v233q0 85 10.5 132t34.5 47q16 0 30 -14t26.5 -36.5t23.5 -51t21 -56.5
l48 -133q12 -33 22.5 -66.5t22.5 -60.5t27 -44t35 -17q18 0 31.5 15.5t25 41t22.5 58.5t24 69l46 128q13 35 25.5 66t24.5 53.5t24.5 35.5t25.5 13q26 0 37 -40.5t11 -133.5v-227q0 -8 1.5 -20.5t6 -25.5t13.5 -22t23 -9t22 8.5t12.5 19.5t5.5 22t1 16v510q0 38 -4.5 62
t-15 37.5t-26.5 18t-38 4.5q-30 0 -49.5 -8t-34 -24.5t-25.5 -41.5t-23 -59l-67 -181q-11 -29 -21.5 -55t-22.5 -45.5t-25.5 -31t-29.5 -11.5q-18 0 -33.5 13.5t-28 34.5t-23 47t-19.5 50z" />
    <glyph glyph-name="N" unicode="N" horiz-adv-x="719" 
d="M132 706q-32 0 -50.5 -12t-29 -32t-13.5 -46t-3 -55v-493q0 -28 19 -48.5t46 -20.5q21 0 35 12t22 34.5t11 54.5t3 71v139q0 11 1.5 29t6 35.5t13 30t22.5 12.5q13 0 31 -18t35 -41t31.5 -46t20.5 -32l116 -185q19 -29 37.5 -52t30.5 -31q13 -9 27.5 -16.5t49.5 -7.5
q28 0 46 12t27.5 33.5t13 52t3.5 67.5v451q0 14 -4 30t-12.5 29.5t-22 22.5t-33.5 9q-16 0 -28 -11t-20.5 -30.5t-12.5 -45t-4 -53.5v-221q0 -14 -9 -27t-30 -13q-13 0 -30 16t-35 40.5t-36 52.5t-33 52l-111 172q-22 34 -54 56.5t-77 22.5z" />
    <glyph glyph-name="O" unicode="O" horiz-adv-x="774" 
d="M388 736q-86 0 -156.5 -26.5t-120.5 -76t-77 -120.5t-27 -159q0 -76 24.5 -143.5t72.5 -118.5t118.5 -80.5t162.5 -29.5q77 0 146 27t121 76.5t82.5 118.5t30.5 152q0 74 -22 143t-68 121.5t-117 84t-170 31.5zM382 692q67 0 124.5 -24t100.5 -68.5t67.5 -107
t24.5 -139.5q0 -57 -20 -115t-59 -105.5t-98 -77t-137 -29.5q-69 0 -125.5 27t-97.5 72t-63.5 104t-22.5 124q0 84 26 147.5t68.5 106t97.5 64t114 21.5z" />
    <glyph glyph-name="P" unicode="P" horiz-adv-x="529" 
d="M527 509q0 66 -27 105t-70.5 60t-97 27.5t-106.5 6.5h-33q-48 0 -78 -3t-46 -16t-21.5 -38t-5.5 -69v-453q0 -66 8.5 -94.5t35.5 -28.5q16 0 25.5 9t14 23.5t5.5 32.5t1 35v65q0 33 7 59t24.5 44t47 27t74.5 9q50 0 94 10.5t77 34t52 61.5t19 93zM134 514q0 39 11.5 63
t29.5 37t39 17t39 4q20 0 49 -5t55.5 -18.5t45.5 -38t19 -63.5q0 -38 -16 -63.5t-40.5 -40.5t-55 -21.5t-58.5 -6.5q-54 0 -86 31t-32 105z" />
    <glyph glyph-name="Q" unicode="Q" horiz-adv-x="763" 
d="M377 727q-83 0 -151.5 -29.5t-117 -81t-75.5 -121.5t-27 -152q0 -75 30 -139t80.5 -111t117 -73.5t140.5 -26.5q17 0 46.5 4t54.5 4q23 0 44 -3.5t37 -10.5q15 -7 24 -14.5t17.5 -14t18.5 -11t25 -4.5q5 0 11.5 3.5t6.5 9.5q0 9 -6 27t-6 53q0 29 17.5 57.5t38 64t38 81
t17.5 107.5q0 73 -18 130t-48 99t-69.5 71t-82 47t-85 26t-78.5 8zM375 684q70 0 128 -25t99.5 -68.5t64.5 -104t23 -130.5q0 -26 -5.5 -60.5t-18.5 -65t-35 -52t-56 -21.5q-24 0 -39.5 6.5t-27 14.5t-22.5 14.5t-27 6.5q-5 0 -7.5 -5t-2.5 -11q0 -11 3.5 -26.5t3.5 -26.5
q0 -50 -28 -68.5t-72 -18.5q-65 0 -117.5 28t-89.5 72.5t-57 99.5t-20 110q0 73 24 133.5t65 104.5t96.5 68.5t117.5 24.5z" />
    <glyph glyph-name="R" unicode="R" horiz-adv-x="571" 
d="M215 712q-38 0 -62.5 -2t-40.5 -5.5t-25 -9t-16 -12.5q-18 -18 -25 -49t-7 -84v-408q0 -75 16 -109t54 -34q20 0 32.5 10t19 26.5t9 38.5t2.5 45q0 75 14 116t46 41q31 0 54 -21.5t41 -52.5t32.5 -64t28.5 -56q23 -36 51 -61.5t68 -25.5q17 0 31 9.5t14 36.5
q0 33 -16 61.5t-34.5 56.5t-34.5 56.5t-16 62.5q0 27 16 46.5t35.5 42.5t35.5 55t16 84q0 60 -30.5 108t-89.5 71q-40 15 -98.5 21t-120.5 6zM176 501q0 48 30 70.5t73 22.5q30 0 53.5 -8t39.5 -21t24.5 -30t8.5 -34q0 -24 -13 -40.5t-32.5 -27.5t-42 -16t-42.5 -5
q-26 0 -44.5 7.5t-30.5 20t-18 28.5t-6 33z" />
    <glyph glyph-name="S" unicode="S" horiz-adv-x="497" 
d="M418 671q0 16 -11.5 28t-31 20t-46.5 12t-58 4q-30 0 -72.5 -9t-81.5 -32.5t-66.5 -63.5t-27.5 -102q0 -60 25 -95.5t63 -58t81.5 -37.5t81.5 -33t63 -45.5t25 -74.5q0 -51 -39 -84t-102 -33q-28 0 -47 5t-33.5 11.5t-28 12t-31.5 5.5q-10 0 -24.5 -7.5t-14.5 -29.5
q0 -20 16.5 -34.5t42.5 -24.5t56.5 -15t59.5 -5q53 0 99 14.5t80.5 41.5t54 66.5t19.5 90.5q0 46 -15 78.5t-38.5 55.5t-54.5 38t-62.5 27.5t-62 24.5t-54.5 27.5t-38.5 37t-14.5 53.5q0 28 10 49t28 35t42 21.5t51 7.5q33 0 47 -3t22.5 -6t17.5 -6t32 -3q16 0 27 11t11 25z
" />
    <glyph glyph-name="T" unicode="T" horiz-adv-x="524" 
d="M108 718q-20 0 -41.5 -3.5t-39.5 -13t-30 -25.5t-12 -40q0 -26 13 -42.5t30 -25.5t34 -12.5t26 -3.5q50 0 68 -23.5t18 -74.5v-321q0 -66 24.5 -99.5t64.5 -33.5q48 0 68.5 34.5t20.5 98.5v323q0 29 6 47.5t17 29t26.5 14.5t35.5 4q18 0 36 4.5t33 14.5t24 25.5t9 38.5
q0 24 -11 40t-29 25.5t-41 14t-48 4.5h-302z" />
    <glyph glyph-name="U" unicode="U" horiz-adv-x="637" 
d="M131 329v251q0 21 -2 43.5t-7 41.5t-14 31.5t-22 12.5q-16 0 -25.5 -11t-15 -29t-7 -41t-1.5 -48v-279q0 -94 26 -154.5t67 -95.5t90.5 -48.5t97.5 -13.5q46 0 96.5 13t93 48.5t70 98.5t27.5 164v267q0 23 -1.5 46t-6.5 41t-14.5 29.5t-25.5 11.5q-14 0 -23 -12.5
t-14 -31t-7 -41t-2 -43.5v-282q0 -56 -14 -97t-39 -68t-60.5 -40.5t-77.5 -13.5q-55 0 -91.5 18.5t-58 51.5t-30.5 79t-9 101z" />
    <glyph glyph-name="V" unicode="V" horiz-adv-x="582" 
d="M23 694q-14 0 -19.5 -7.5t-5.5 -18.5t4 -25t9 -28.5t11 -28t10 -23.5l156 -389q6 -14 13.5 -43t19.5 -58.5t29.5 -51.5t41.5 -22q16 0 29 13.5t24 36t22 52.5t25 64l157 392q6 14 12.5 30t12.5 31.5t10 30t4 24.5q0 17 -12 17q-14 0 -27 -15.5t-25.5 -40.5t-24.5 -56.5
t-23 -62.5l-63 -183q-10 -29 -21 -56t-24.5 -48t-30 -33.5t-37.5 -12.5q-23 0 -40.5 13.5t-31.5 35t-25 49t-20 55.5l-61 179q-12 36 -24.5 68.5t-25 57.5t-25 39.5t-24.5 14.5z" />
    <glyph glyph-name="W" unicode="W" horiz-adv-x="915" 
d="M49 698q-18 0 -29.5 -6t-17.5 -15.5t-8.5 -21t-2.5 -22.5q0 -32 9 -69.5t21 -76t25.5 -76t22.5 -68.5q8 -27 20 -73t26 -94.5t29.5 -91t30.5 -60.5q11 -14 29 -19t35 -5q23 0 38 11.5t27 31.5q12 19 20.5 43t16 49.5t13 50t11.5 44.5q4 13 12.5 43.5t20.5 61t27.5 54
t32.5 23.5q15 0 29.5 -24t26.5 -55t20.5 -61t11.5 -42q4 -17 12 -44.5t17 -57t19.5 -55.5t20.5 -39q15 -20 33.5 -29.5t37.5 -9.5q30 0 53 24q10 12 20.5 35t21 52.5t20.5 63.5t18.5 66t16 60.5t13.5 48.5q8 28 20.5 66t24.5 78.5t21 78t9 63.5q0 20 -5 32.5t-13 19.5
t-17.5 9.5t-19.5 2.5q-21 0 -38 -18t-29.5 -45.5t-22 -60.5t-16.5 -64q-4 -15 -11.5 -46t-18 -62.5t-24.5 -55t-31 -23.5q-15 0 -27 16.5t-21.5 38.5t-16 44t-10.5 32q-7 20 -13 43.5t-12.5 47.5t-13.5 47.5t-16 43.5q-14 31 -34.5 48t-55.5 17q-30 0 -47.5 -14t-30.5 -39
q-14 -27 -22.5 -59.5t-17.5 -64.5q-3 -9 -8 -27.5t-12.5 -41.5t-16.5 -46.5t-19.5 -43.5t-21 -32.5t-21.5 -12.5t-20.5 12.5t-18 32.5t-16 43.5t-13 46t-9.5 40t-6 24.5q-8 34 -18 67t-22.5 58.5t-29.5 41t-39 15.5z" />
    <glyph glyph-name="X" unicode="X" horiz-adv-x="610" 
d="M500 718q-55 0 -86 -22t-50 -48.5t-31 -48.5t-28 -22q-13 0 -22.5 10.5t-19 26.5t-21.5 34.5t-30.5 34.5t-44.5 26.5t-63 10.5q-23 0 -44 -5t-37 -15.5t-25.5 -26.5t-9.5 -38q0 -16 11 -37.5t27 -46t35.5 -49.5t35.5 -49.5t27 -46t11 -37.5q0 -14 -12 -35.5t-29.5 -47.5
t-38 -55t-38 -57.5t-29.5 -54.5t-12 -47q0 -31 29.5 -52.5t80.5 -21.5q39 0 66.5 13t46.5 32t32 42t23.5 42t20.5 32t24 13q15 0 26.5 -13t22.5 -32.5t24.5 -42.5t33.5 -42.5t49 -32.5t72 -13q21 0 40.5 5.5t34 15.5t23.5 24t9 31q0 22 -12 49t-30.5 56.5t-40 59t-40 55.5
t-30.5 47.5t-12 34.5q0 14 10.5 34t26.5 43t34.5 48t34.5 50t26.5 49.5t10.5 45.5q0 37 -33.5 55.5t-78.5 18.5z" />
    <glyph glyph-name="Y" unicode="Y" horiz-adv-x="528" 
d="M40 707q-29 0 -41.5 -10t-12.5 -36q0 -31 12 -50t28 -42l89 -136q21 -32 38.5 -62.5t27.5 -57.5q9 -23 12 -58t3 -70v-65q0 -20 3 -41.5t11 -39t21.5 -28.5t34.5 -11q18 0 30 10.5t19.5 27.5t11 38.5t3.5 43.5v65q0 35 3 67.5t14 63.5q10 27 26 55t35 57l74 111
q9 13 19.5 27t19.5 29t15 31t6 33q0 25 -16.5 35t-38.5 10q-24 0 -45 -15.5t-39.5 -38.5t-35.5 -50.5t-33.5 -50.5t-33 -38.5t-34.5 -15.5q-21 0 -37.5 15.5t-32 39.5t-31 51t-33.5 51t-40.5 39.5t-51.5 15.5z" />
    <glyph glyph-name="Z" unicode="Z" horiz-adv-x="545" 
d="M526 655q0 22 -8.5 35.5t-27 20t-48.5 8.5t-73 2l-163 -1q-47 0 -79 -1t-52 -5.5t-29 -12.5t-9 -23q0 -13 9.5 -21t23 -12t28.5 -5t27 -1h93q30 0 55 -2t43.5 -9t29 -20t10.5 -35q0 -17 -15 -44t-42 -62l-220 -278q-29 -37 -48 -68t-19 -56q0 -22 8 -35t25 -20t43 -9
t61 -2h212q78 0 117 6t39 32q0 14 -8.5 22t-23.5 12.5t-35 6t-43 1.5h-96q-26 0 -49.5 2t-41.5 8t-28.5 17.5t-10.5 30.5q0 28 17 55.5t46 63.5l222 280q27 35 43.5 63.5t16.5 55.5z" />
    <glyph glyph-name="bracketleft" unicode="[" horiz-adv-x="327" 
d="M175 744q-21 0 -44 -12t-31 -33q-8 -20 -10.5 -42.5t-2.5 -45.5v-640q0 -54 18.5 -87t66.5 -33q9 0 21.5 2.5t24.5 7.5t20 13t8 19q0 15 -6 28.5t-14.5 27t-16 27.5t-10.5 31q-2 9 -3 19.5t-1 21.5v464q0 15 0.5 33t5.5 50q3 18 10 32t15 26.5t14 24.5t6 24q0 24 -22 33
t-49 9z" />
    <glyph glyph-name="backslash" unicode="\" horiz-adv-x="316" 
d="M46 734q-34 0 -51.5 -21t-17.5 -53q0 -8 3.5 -17.5t8.5 -23.5l218 -551q5 -13 12.5 -27.5t18.5 -27t24.5 -21t30.5 -8.5q29 0 45 19t16 54q0 11 -6.5 29t-11.5 31l-213 539q-12 31 -30.5 54.5t-46.5 23.5z" />
    <glyph glyph-name="bracketright" unicode="]" horiz-adv-x="316" 
d="M100 716q0 -9 7 -19t15.5 -25.5t15.5 -39t7 -58.5v-562v-3q0 -34 -8 -55.5t-17 -35.5t-17 -23.5t-8 -18.5q0 -28 46 -28q42 0 52.5 31t10.5 98v640q0 25 -0.5 48t-6 40.5t-18 28t-35.5 10.5q-27 0 -35.5 -8.5t-8.5 -19.5z" />
    <glyph glyph-name="asciicircum" unicode="^" horiz-adv-x="544" 
d="M445 494l-62 110q-11 19 -21 38.5t-22 35t-27 25.5t-34 10q-20 0 -35 -12t-27.5 -30t-23 -38.5t-20.5 -36.5l-62 -102q-13 -21 -21 -39.5t-8 -29.5q0 -13 14 -13q23 0 34.5 16.5t23.5 33.5l38 58q8 12 16.5 23.5t18.5 20.5t22.5 14.5t29.5 5.5q16 0 28.5 -5t22 -14
t17.5 -20.5t16 -23.5l39 -61q13 -20 26.5 -34.5t38.5 -14.5q10 0 10 11t-9.5 30.5t-22.5 41.5z" />
    <glyph glyph-name="underscore" unicode="_" horiz-adv-x="460" 
d="M-5 -172q-5 0 -13 -1.5t-15 -6t-12 -12.5t-5 -21q0 -12 5 -19.5t11.5 -12t14.5 -6t14 -1.5h473q13 0 28 8t15 31q0 26 -14.5 33.5t-28.5 7.5h-473z" />
    <glyph glyph-name="grave" unicode="`" horiz-adv-x="271" 
d="M273 240q0 5 -8 19.5t-18.5 30.5t-21.5 31t-17 22q-11 13 -23 20.5t-32 7.5q-8 0 -20.5 0.5t-26 1.5t-26.5 1.5t-22 0.5q-23 0 -41.5 -9t-18.5 -25q0 -7 14.5 -20.5t34.5 -29.5t40.5 -32t33.5 -29q17 -17 76 -17q39 0 57.5 6t18.5 21z" />
    <glyph glyph-name="a" unicode="a" horiz-adv-x="466" 
d="M440 283q0 99 -46 149t-131 50q-43 0 -78 -7t-59.5 -16.5t-37.5 -18.5t-13 -12t4 -4.5t7 -1.5q18 0 51 10t84 10q14 0 34.5 -5.5t39 -17t32 -29t13.5 -40.5q0 -22 -11.5 -38t-28.5 -27t-38 -16.5t-39 -5.5q-34 0 -70.5 -5.5t-66.5 -20.5t-49.5 -41t-19.5 -68t17.5 -67.5
t40 -39.5t45 -18.5t33.5 -4.5t26 2.5t31 7t30 11.5t24 17q-23 -3 -49 1.5t-48 16.5t-36.5 32t-14.5 47q0 30 16 51t37.5 34.5t42.5 20t31 6.5q13 0 30.5 -6t33.5 -17.5t26.5 -27.5t10.5 -37q0 -23 -7.5 -42.5t-17 -35t-19 -25.5t-12.5 -13q8 -8 21.5 -13t27.5 -7.5
t26.5 -3.5t19.5 -1h1q31 0 43.5 20.5t12.5 45.5v201z" />
    <glyph glyph-name="b" unicode="b" horiz-adv-x="573" 
d="M85 753q-21 0 -25.5 -28t-4.5 -75v-544q0 -20 1.5 -37t6 -29t13.5 -19t23 -7t24.5 3l21 6t22.5 6t27 3q26 0 41 -7t32 -15q14 -7 35 -12.5t58 -5.5q43 0 80 21t64 53t42 70t15 72q0 66 -17.5 115.5t-47 82.5t-67.5 50t-78 17q-30 0 -47.5 -4.5t-31 -9.5t-27 -9.5
t-34.5 -4.5q-14 0 -31 5.5t-31.5 18t-24 33t-9.5 50.5v99q0 48 -6 75t-24 27zM282 440q54 0 92 -15t65 -39q34 -32 49 -74t15 -85q0 -44 -14 -78t-40 -59q-32 -32 -76.5 -48t-95.5 -16q-28 0 -51 11.5t-42 29.5q-17 17 -30.5 38t-22.5 42.5t-13.5 42t-4.5 37.5q0 36 13 74
t35.5 69t53.5 50.5t67 19.5z" />
    <glyph glyph-name="c" unicode="c" horiz-adv-x="441" 
d="M264 496q-45 0 -91 -15.5t-83.5 -48.5t-61 -83.5t-23.5 -120.5q0 -66 25.5 -112.5t64 -76t82.5 -43t80 -13.5q78 0 122.5 26t44.5 66q0 37 -27.5 56.5t-60.5 19.5q-13 0 -20 -1.5t-13.5 -4t-15 -4t-24.5 -1.5q-19 0 -35 9.5t-28 23.5t-18.5 31.5t-6.5 33.5t6.5 33.5
t18.5 31.5t28 23.5t35 9.5q13 0 22 -1.5t17 -3.5t16.5 -3.5t19.5 -1.5q38 0 63 19.5t25 57.5q0 23 -13 40.5t-35 29t-51.5 17.5t-62.5 6z" />
    <glyph glyph-name="d" unicode="d" horiz-adv-x="572" 
d="M482 748q-38 0 -52 -31t-14 -80q0 -30 -1 -50t-2 -32.5t-3 -19.5t-3 -11q-10 -23 -24.5 -33.5t-39.5 -10.5q-26 0 -50.5 7t-41.5 7q-52 0 -95 -20.5t-74 -56t-48.5 -83t-17.5 -101.5q0 -66 27.5 -125t84.5 -95q23 -16 55.5 -25t68.5 -9q31 0 51 4t35.5 9t29 9t31.5 4
q20 0 38 -2.5t34 -2.5q17 0 30.5 6t24.5 24q12 21 13.5 48.5t1.5 50.5v525q0 17 -2.5 34t-9 30.5t-18 21.5t-29.5 8zM150 234q0 29 9 54t26.5 44t41.5 29.5t54 10.5q31 0 55 -12.5t40.5 -32.5t25 -45t8.5 -51q0 -60 -37.5 -95.5t-96.5 -35.5q-32 0 -55.5 11.5t-39 30.5
t-23.5 43t-8 49z" />
    <glyph glyph-name="e" unicode="e" horiz-adv-x="495" 
d="M162 446q-19 -9 -41.5 -25t-42 -40.5t-33 -58.5t-13.5 -80q0 -52 18 -95.5t51 -75t80.5 -49t106.5 -17.5q45 0 73 10.5t40 21.5q2 2 4.5 6t2.5 12h-12q-7 -2 -16.5 -7t-24 -10t-33.5 -8.5t-45 -3.5q-27 0 -53.5 8t-48.5 24t-35.5 39.5t-13.5 54.5q0 25 9.5 42t24 28.5
t30 17.5t27.5 10q-38 7 -65 32.5t-27 66.5q0 25 9 51.5t28 45.5zM314 473q21 -6 40 -17t33.5 -26t23.5 -34.5t9 -42.5q0 -39 -17.5 -59t-47.5 -39q17 -5 36 -10t42 -5q28 0 45 10t17 43q0 18 -7 43t-21 49.5t-34 45.5t-46 32q-14 6 -26 8t-25 2h-22z" />
    <glyph glyph-name="f" unicode="f" horiz-adv-x="376" 
d="M275 742q-41 0 -75 -13.5t-58.5 -38.5t-38.5 -59t-14 -75q0 -29 -13 -48.5t-29 -35.5t-29 -32t-13 -37q0 -27 12 -41t26.5 -27.5t26.5 -32.5t12 -55v-149q0 -39 22 -69t65 -30q19 0 34 8.5t26 23t17 32t6 35.5v135q0 31 8 50t19.5 31t25.5 19.5t25.5 15.5t19.5 19.5
t8 32.5q0 30 -15.5 44.5t-34 25t-34 23.5t-15.5 39q0 19 8.5 31.5t21.5 21t28.5 15.5t28.5 15.5t21.5 20t8.5 30.5t-8.5 33.5t-23 23.5t-32.5 13.5t-37 4.5z" />
    <glyph glyph-name="g" unicode="g" horiz-adv-x="558" 
d="M228 486q-37 0 -74 -15t-67 -45.5t-48.5 -76t-18.5 -106.5q0 -53 18.5 -96t49 -73.5t69 -47t79.5 -16.5q19 0 34 4t30 9.5t30.5 9.5t35.5 4q27 0 44 -8t26 -21t12 -30t3 -36q0 -21 -10 -48t-33.5 -51t-61.5 -40t-94 -16q-29 0 -54 5t-45.5 11t-35 11t-23.5 5
q-4 0 -8 -3.5t-4 -10.5q0 -5 6 -14.5t25 -19t54 -17t92 -7.5t104.5 15.5t82.5 48.5t54.5 85t19.5 125v351q0 44 -6 68.5t-30 24.5q-17 0 -29 -3l-24 -6t-27 -6t-36 -3q15 -15 33 -34t33.5 -43t25.5 -53.5t10 -66.5q0 -36 -14.5 -73t-39 -66.5t-55.5 -48.5t-64 -19
q-48 0 -89 16.5t-70.5 44t-46 63t-16.5 73.5q0 58 22 99t55 66.5t72 37.5t73 12q7 0 15.5 -0.5t17.5 -1.5q-14 14 -40 23.5t-62 9.5z" />
    <glyph glyph-name="h" unicode="h" horiz-adv-x="571" 
d="M146 650q0 49 -12 69.5t-33 20.5q-11 0 -19 -7.5t-13 -20t-7 -28t-2 -30.5v-574q0 -38 11.5 -59t31.5 -21q13 0 21.5 7.5t13 19.5t6.5 27.5t2 31.5v143q0 29 12 65t39 64l12.5 12.5t16 12t23 9.5t33.5 4q45 0 76.5 -14.5t50.5 -40t27.5 -60.5t8.5 -77v-121q0 -45 12 -64
t33 -19t31 23.5t10 62.5v179q0 30 -6 66t-25 67t-53.5 52t-92.5 21q-29 0 -46.5 -4t-30.5 -9.5t-25 -9.5t-30 -4q-32 0 -54 24.5t-22 67.5v114z" />
    <glyph glyph-name="i" unicode="i" horiz-adv-x="238" 
d="M115 493q-20 0 -33.5 -11.5t-21.5 -30t-11 -42t-3 -47.5v-247q0 -20 3.5 -40t11.5 -37t21 -27.5t33 -10.5q23 0 38 10.5t23.5 27.5t12 37t3.5 40v247q0 23 -4 46.5t-13 42t-23.5 30.5t-36.5 12zM114 669q-19 0 -32.5 -13t-13.5 -32q0 -20 13 -33.5t33 -13.5t33.5 13
t13.5 33q0 19 -13.5 32.5t-33.5 13.5z" />
    <glyph glyph-name="j" unicode="j" horiz-adv-x="235" 
d="M135 472q-19 0 -24 -23t-5 -52v-395q0 -72 -13.5 -110t-31.5 -56q-12 -12 -23.5 -18.5t-21.5 -11.5t-16 -11.5t-6 -16.5q0 -8 12.5 -12t26.5 -4q40 0 65 22.5t39.5 55t19.5 68.5t5 63v423q0 35 -6 56.5t-21 21.5zM134 677q-28 0 -41 -16t-13 -36q0 -21 14 -39.5t40 -18.5
q27 0 42.5 19t15.5 41q0 20 -13.5 35t-44.5 15z" />
    <glyph glyph-name="k" unicode="k" horiz-adv-x="446" 
d="M108 699q-14 0 -21.5 -6.5t-11.5 -17.5t-5 -25.5t-1 -30.5v-546q0 -32 10 -53.5t31 -21.5q12 0 20 8.5t12.5 20.5t6 23.5t1.5 17.5q0 24 4 47t11.5 40t17.5 27.5t22 10.5q13 0 21.5 -4t15 -11t13.5 -18t16 -24l53 -75q21 -29 45 -50t53 -21q26 0 26 24q0 17 -15 36.5
t-33 43.5l-49 66q-19 25 -25 51.5t-6 52.5q0 23 14 45.5t32 43.5l27 32q13 14 21.5 26.5t8.5 22.5q0 9 -5.5 15t-22.5 6q-14 0 -30 -10.5t-33 -27.5l-31 -30q-23 -23 -46 -41t-46 -18q-31 0 -46 33t-15 90v165q0 40 -8 61.5t-32 21.5z" />
    <glyph glyph-name="l" unicode="l" horiz-adv-x="219" 
d="M158 620q0 50 -10 76t-32 26q-26 0 -35 -25.5t-9 -76.5v-527q0 -43 9 -68t35 -25q23 0 32.5 26t9.5 67v527z" />
    <glyph glyph-name="m" unicode="m" horiz-adv-x="814" 
d="M631 480q-34 0 -54 -8t-35 -17t-29.5 -17t-37.5 -8q-22 0 -41.5 8t-39.5 17t-41.5 17t-48.5 8t-45.5 -5.5t-32.5 -11.5t-26.5 -11.5t-27.5 -5.5q-14 0 -24 2t-19 4.5t-18.5 4.5t-21.5 2q-32 0 -43 -22t-11 -61v-306q0 -35 11 -52.5t31 -17.5q21 0 31.5 21.5t10.5 50.5
v139q0 39 7.5 74.5t23 62.5t38.5 43t53 16q25 0 48 -8t41 -29t28.5 -56t10.5 -89v-150q0 -33 11 -54t31 -21q24 0 34 21.5t10 53.5v148q0 30 5.5 62.5t19 59.5t35.5 44t54 17q39 0 65.5 -15.5t42.5 -41.5t22.5 -60.5t6.5 -73.5l1 -148q0 -25 9 -46t29 -21q24 0 34.5 23.5
t10.5 50.5v204q0 39 -9.5 75.5t-29 64.5t-49.5 45t-71 17z" />
    <glyph glyph-name="n" unicode="n" horiz-adv-x="535" 
d="M351 476q-24 0 -42 -3t-30.5 -8t-22 -11t-16.5 -11q45 0 83.5 -10.5t67 -35t45 -64t16.5 -97.5v-155q0 -82 31 -82q15 0 21 37.5t6 95.5v136q0 61 -13.5 101t-36 64t-51 33.5t-58.5 9.5zM88 450q-10 0 -18 -3.5t-14 -14.5t-9.5 -32t-3.5 -55v-254q0 -50 11 -70.5
t19 -20.5t13 9t8 24t4.5 34.5t1.5 40.5v102q0 48 9 83.5t22 61t28 43t28 30.5q-19 3 -31.5 6.5t-22.5 7t-20 6t-25 2.5z" />
    <glyph glyph-name="o" unicode="o" horiz-adv-x="549" 
d="M276 509q-45 0 -93 -16.5t-87.5 -49.5t-65 -83t-25.5 -117q0 -59 22.5 -108t60 -84t86.5 -54t103 -19t102.5 20t85 56t58.5 85t22 107q0 57 -22.5 105.5t-59.5 83.5t-86 54.5t-101 19.5zM272 340q45 0 70 -28.5t25 -67.5q0 -17 -5.5 -34t-17 -30.5t-29 -22.5t-40.5 -9
q-24 0 -41.5 9t-29.5 23.5t-18 31.5t-6 32q0 18 6.5 35t18.5 30.5t29 22t38 8.5z" />
    <glyph glyph-name="p" unicode="p" horiz-adv-x="574" 
d="M340 497q-32 0 -54 -6t-38.5 -12.5t-31 -12.5t-32.5 -6q-15 0 -24 2.5t-16.5 5t-17 5t-24.5 2.5q-23 0 -39 -17.5t-16 -52.5v-542q0 -13 1 -27t5.5 -26t13.5 -19.5t24 -7.5q14 0 22.5 9t13 23t6 31.5t1.5 34.5v41q0 20 4 39t13 33.5t22.5 23.5t32.5 9q18 0 32 -4t28 -8.5
t30 -8.5t39 -4q46 0 87 18t71.5 50.5t48 78t17.5 101.5q0 64 -20.5 110.5t-53 77t-71 45t-74.5 14.5zM291 425q34 0 65.5 -12t56.5 -34.5t40 -55.5t15 -75q0 -36 -13 -67.5t-36.5 -54.5t-56 -36.5t-71.5 -13.5q-33 0 -61.5 15t-49 39.5t-32.5 56t-12 64.5t12.5 64t33.5 55.5
t49 39.5t60 15z" />
    <glyph glyph-name="q" unicode="q" horiz-adv-x="560" 
d="M225 479q-35 0 -72 -14.5t-67.5 -44.5t-50 -75t-19.5 -106q0 -59 18 -104.5t47.5 -77t66 -48t74.5 -16.5q30 0 47.5 4.5t30.5 10t26 10t34 4.5q24 0 41 -7t28 -18q19 -19 26 -47.5t7 -63.5q0 -18 1 -39t4.5 -39t9.5 -30.5t15 -12.5t14.5 11t8.5 30t4 43t1 50v462
q0 18 -1.5 35t-6 29.5t-14 20.5t-24.5 8h-1q-17 0 -23.5 -2t-13 -4.5t-20 -4.5t-45.5 -2q-19 0 -33.5 6t-30.5 13t-35 13t-47 6zM302 440q37 0 66.5 -22t50 -53.5t31.5 -67t11 -62.5q0 -30 -12 -65.5t-33.5 -67t-53 -52.5t-70.5 -21q-53 0 -94 18t-69.5 46.5t-43.5 64
t-15 71.5q0 39 12 76.5t39 67.5t71.5 48.5t109.5 18.5z" />
    <glyph glyph-name="r" unicode="r" horiz-adv-x="369" 
d="M295 494q-12 0 -23 -3l-22 -6t-23 -6t-26 -3q-22 0 -38.5 4t-33.5 4q-26 0 -46.5 -16.5t-28.5 -41.5q-5 -15 -6 -53t-1 -86v-188q0 -45 15.5 -72t49.5 -27q19 0 31 10t19.5 24.5t10.5 32t3 32.5v98q0 15 2 35t6.5 39.5t12 37t19.5 29.5q13 13 25.5 20t25 12t26.5 9t30 10
q45 17 45 52q0 15 -7 25t-17.5 16.5t-23.5 9t-25 2.5z" />
    <glyph glyph-name="s" unicode="s" horiz-adv-x="435" 
d="M213 534q-101 0 -157 -47.5t-56 -136.5q0 -42 13.5 -64t30 -35.5t30 -23.5t13.5 -27q0 -10 -11.5 -18.5t-26 -18t-26 -21.5t-11.5 -29q0 -29 14.5 -51.5t40.5 -37.5t62.5 -23t80.5 -8q47 0 87 10t69 32t45.5 57t16.5 85q0 43 -17.5 69t-38 42.5t-38 27t-17.5 23.5
q0 7 11 14.5t24.5 18t25 25t11.5 35.5q0 15 -10 33t-31 33.5t-54.5 25.5t-80.5 10z" />
    <glyph glyph-name="t" unicode="t" horiz-adv-x="315" 
d="M211 516q-14 13 -20.5 30t-13 32t-15.5 25t-26 10t-25.5 -10.5t-14.5 -25.5t-12.5 -32t-18.5 -29q-15 -15 -33.5 -31.5t-18.5 -35.5q0 -15 12 -26.5t27 -26t27 -35t12 -54.5v-129q0 -36 5.5 -69.5t21 -60t42.5 -42t69 -15.5q21 0 39.5 7t18.5 25q0 11 -6.5 18t-16 13
t-21 12.5t-20.5 15.5q-23 23 -32.5 46t-9.5 50v130q0 39 17 60t37 34t37 22t17 24q0 12 -5.5 17.5t-15.5 11t-24.5 13.5t-32.5 26z" />
    <glyph glyph-name="u" unicode="u" horiz-adv-x="510" 
d="M82 475q-17 0 -29 -16.5t-12 -51.5v-227q0 -100 43.5 -148.5t118.5 -48.5q30 0 48.5 5.5t32 12t26.5 12t33 5.5q16 0 26 -2t18.5 -4t18.5 -4t26 -2q28 0 38 28t10 79v259q0 21 -1.5 40t-6 33t-13 22t-23.5 8q-14 0 -22.5 -8.5t-13.5 -22t-7 -29t-2 -28.5v-148
q0 -31 -7 -63t-21.5 -58.5t-37 -43.5t-53.5 -17q-45 0 -73.5 15t-45 46t-23 76.5t-6.5 107.5v97q0 36 -10.5 56t-31.5 20z" />
    <glyph glyph-name="v" unicode="v" horiz-adv-x="427" 
d="M28 470q-16 0 -24 -7.5t-8 -28.5q0 -11 7 -34.5t18 -51.5l84 -215q10 -27 19.5 -51t21.5 -41.5t27.5 -28t38.5 -10.5t38.5 8.5t27.5 25.5t22 41t22 56l80 214q23 58 23 83q0 17 -5.5 25.5t-21.5 8.5q-14 0 -25 -9t-19.5 -23t-15.5 -31.5t-13 -34.5l-30 -77
q-7 -20 -15 -38.5t-17 -33t-20.5 -23.5t-26.5 -9t-27.5 9t-22 24t-18 34.5t-15.5 40.5l-28 78q-7 19 -14 36.5t-16 31.5t-20.5 22.5t-26.5 8.5z" />
    <glyph glyph-name="w" unicode="w" horiz-adv-x="723" 
d="M372 464q-28 0 -42.5 -22t-23 -54.5t-14.5 -70.5t-17 -70.5t-31 -54.5t-55 -22q-27 0 -46.5 21.5t-33 50.5t-21.5 58.5t-12 45.5q-6 20 -11.5 39.5t-13 34.5t-16.5 24.5t-21 9.5q-13 0 -13 -18q0 -15 7.5 -41.5t18.5 -55.5l46 -132q11 -31 20.5 -66.5t21 -66t27 -50.5
t39.5 -20q28 0 42.5 21.5t23.5 53.5t16 69t18.5 69t32.5 53.5t57 21.5q35 0 56.5 -21t34.5 -53t21.5 -69t19 -69t25.5 -53t41 -21t43 24t28.5 58t19.5 70.5t16 60.5l46 139q7 20 11.5 40t4.5 31q0 8 -3.5 12t-8.5 4q-8 0 -16 -14.5t-15.5 -35.5t-14.5 -45.5l-13 -45.5
q-4 -14 -10 -36.5t-17 -44t-27.5 -37t-41.5 -15.5q-35 0 -55 21.5t-32 54.5t-20 70.5t-18.5 70.5t-27 54.5t-46.5 21.5z" />
    <glyph glyph-name="x" unicode="x" horiz-adv-x="442" 
d="M78 467q-14 0 -21.5 -4t-7.5 -16q0 -19 13.5 -40t29.5 -44.5t29.5 -50.5t13.5 -59q0 -25 -17.5 -56t-39 -61t-39 -55t-17.5 -38q0 -19 5 -26t23 -7q23 0 42 19.5t38 43t40 43t49 19.5t50 -19.5t41 -43t37.5 -43t39.5 -19.5q15 0 24.5 4t9.5 20q0 19 -17.5 45t-38.5 55.5
t-38.5 60.5t-17.5 60q0 31 12.5 57.5t27 49.5t27 43t12.5 37q0 22 -24 22q-20 0 -35 -15t-30.5 -32.5t-33.5 -32.5t-43 -15t-42.5 15.5t-33 33.5t-31.5 33.5t-37 15.5z" />
    <glyph glyph-name="y" unicode="y" horiz-adv-x="459" 
d="M54 477q-23 0 -37.5 -11.5t-14.5 -36.5q0 -9 2 -17.5t4 -16.5q27 -77 53 -136t46.5 -106.5t33.5 -86.5t13 -74q0 -46 -23 -73t-62 -45q-28 -13 -45 -24.5t-17 -33.5q0 -34 22.5 -46t53.5 -12q32 0 62 10t53 33q28 28 56 80t53 120l108 294q4 12 11 26.5t13.5 30t11 32.5
t4.5 33q0 20 -9.5 39.5t-32.5 19.5q-16 0 -29.5 -6.5t-24 -17t-18.5 -23t-14 -25.5q-6 -14 -14 -39.5t-18 -51t-23 -44.5t-30 -19q-21 0 -37 18t-28 43t-21 51t-17 42q-15 30 -35 51.5t-50 21.5z" />
    <glyph glyph-name="z" unicode="z" horiz-adv-x="423" 
d="M130 506q-52 0 -81 -18.5t-29 -54.5q0 -22 10.5 -36.5t27.5 -23.5q11 -6 26 -9t28.5 -7t23 -10.5t9.5 -19.5q0 -8 -6.5 -19.5t-16.5 -24.5t-22 -26.5t-24 -25.5q-13 -13 -26.5 -28t-24.5 -32t-18 -36.5t-7 -42.5q0 -43 33 -67.5t89 -24.5h176q27 0 49.5 3.5t39.5 12.5
t26.5 23.5t9.5 36.5q0 29 -24.5 49.5t-63.5 20.5q-10 0 -21 2.5t-20 6.5t-14.5 9.5t-5.5 11.5q0 15 11 31t27 33.5t35 36.5t35 41t27 46.5t11 53.5q0 28 -10.5 45t-29 26.5t-43.5 13t-53 3.5h-154z" />
    <glyph glyph-name="braceleft" unicode="{" horiz-adv-x="380" 
d="M277 749q-22 0 -39 -6.5t-35 -18.5q-39 -27 -49 -60.5t-10 -74.5v-79q0 -38 -11 -77q-5 -19 -16 -33.5t-21.5 -28.5t-18.5 -29t-8 -35q0 -18 8 -33t19 -29.5t21 -29.5t15 -32q8 -33 9.5 -66t0.5 -67q0 -35 5.5 -67.5t30.5 -65.5q39 -51 104 -51q14 0 30 11t16 26
q0 14 -15 32.5t-41 47.5q-14 15 -18.5 41t-5.5 56t-1 60q0 31 -3 55q-3 28 -14.5 55t-11.5 56q0 21 3 35.5t7.5 26.5t8.5 23t6 26q3 27 3.5 54t1 53.5t3.5 50.5t12 44q6 12 16.5 22.5t21 21.5t18.5 23t8 26q0 20 -14 28.5t-36 8.5z" />
    <glyph glyph-name="bar" unicode="|" horiz-adv-x="275" 
d="M135 720q-17 0 -23.5 -35.5t-6.5 -95.5v-475q0 -54 6.5 -84.5t23.5 -30.5q23 0 28 31t5 84v475q0 60 -5.5 95.5t-27.5 35.5z" />
    <glyph glyph-name="braceright" unicode="}" horiz-adv-x="380" 
d="M214 678q-9 20 -20.5 34t-23.5 22.5t-23 12.5t-19 4q-17 0 -17 -10q0 -7 11 -17t24 -28t23.5 -46.5t10.5 -71.5v-77q0 -13 0.5 -23l1 -20t2.5 -21t5 -24q3 -16 8 -29t10.5 -26.5t9 -29t3.5 -36.5q0 -19 -6 -38t-12.5 -39.5t-12.5 -43t-6 -48.5v-84q0 -21 -2 -44.5
t-7 -45.5t-14 -40t-24 -28q-8 -7 -15 -16.5t-7 -17.5t10 -8q9 0 26 7q25 11 40 27t22.5 36.5t10 43.5t2.5 49v81q0 17 1 33.5t4 33.5q6 37 20 59t28 36t24.5 25t10.5 27q0 11 -8.5 21t-20 21.5t-23.5 25t-19 31.5q-12 33 -15 68t-3 68v66q0 24 -2 44t-8 36z" />
    <glyph glyph-name="asciitilde" unicode="~" horiz-adv-x="535" 
d="M170 407q-30 0 -54 -11t-41 -27t-26 -34t-9 -33q0 -10 4.5 -21t12.5 -20t19 -15t24 -6q15 0 25 1.5t18 3l16 3t19 1.5q19 0 39.5 -7.5t42 -16t45.5 -16t50 -7.5q24 0 47 8t40.5 22.5t28.5 34t11 43.5q0 26 -18.5 43t-43.5 17q-16 0 -36.5 -4t-36.5 -4t-36 7t-43 15.5
t-48 15.5t-50 7z" />
    <glyph glyph-name="quotesinglbase" unicode="&#x201a;" horiz-adv-x="260" 
d="M234 89q0 31 -12.5 44.5t-42.5 13.5q-22 0 -39 -20.5t-28 -47.5t-17 -54t-6 -41q0 -40 10.5 -54.5t41.5 -14.5q12 0 28.5 21.5t30.5 50.5t24 58t10 44z" />
    <glyph glyph-name="florin" unicode="&#x192;" horiz-adv-x="524" 
d="M376 480q4 15 6.5 33t7.5 33q6 16 14.5 27t16.5 18q6 6 15 8.5t18.5 4.5t19 4.5t16.5 7.5q27 24 27 49q0 22 -26 38.5t-62 16.5q-40 0 -75 -19t-56 -53q-6 -9 -13 -32t-14 -49t-13 -50.5t-8 -36.5q-6 -29 -24 -42.5t-38 -23t-35.5 -20.5t-15.5 -35q0 -33 12 -47.5
t24.5 -24t21.5 -22t3 -41.5l-31 -152q-7 -30 -21 -52.5t-23 -31.5q-6 -6 -16 -9.5t-20.5 -6.5l-21 -6t-16.5 -9q-14 -11 -20.5 -23.5t-6.5 -24.5q0 -11 8.5 -20.5t22.5 -16t32 -10.5t36 -4q39 0 68.5 19.5t49.5 53.5q6 9 14.5 29.5t17 43.5t15.5 45.5t9 34.5l31 159
q3 18 15.5 28.5t28.5 17t34 11t33 11t25 17.5t10 31q0 22 -8 35t-20 20.5t-25.5 12t-24 10.5t-16.5 15.5t-2 27.5z" />
    <glyph glyph-name="quotedblbase" unicode="&#x201e;" horiz-adv-x="443" 
d="M148 144q-32 0 -54.5 -26t-36.5 -60t-20.5 -68.5t-6.5 -50.5q0 -33 17.5 -57t52.5 -24q21 0 36 9t27 19.5t21.5 19.5t19.5 9t16.5 -9t15.5 -19.5t23.5 -19t41.5 -8.5q26 0 47.5 25.5t36.5 60t23 70t8 54.5q0 32 -18.5 52.5t-47.5 20.5q-24 0 -40.5 -7.5t-28.5 -16
t-20.5 -16t-17.5 -7.5t-16 7.5t-17 17t-24.5 17t-37.5 7.5z" />
    <glyph glyph-name="ellipsis" unicode="&#x2026;" horiz-adv-x="452" 
d="M110 25q0 12 -9.5 21.5t-20.5 9.5q-13 0 -20.5 -9.5t-7.5 -21.5q0 -11 8.5 -19.5t19.5 -8.5t20.5 8.5t9.5 19.5zM249 25q0 12 -9.5 21.5t-20.5 9.5q-13 0 -20.5 -9.5t-7.5 -21.5q0 -11 8.5 -19.5t19.5 -8.5t20.5 8.5t9.5 19.5zM389 25q0 12 -9.5 21.5t-20.5 9.5
q-13 0 -20.5 -9.5t-7.5 -21.5q0 -11 8.5 -19.5t19.5 -8.5t20.5 8.5t9.5 19.5z" />
    <glyph glyph-name="dagger" unicode="&#x2020;" horiz-adv-x="562" 
d="M286 -146q-1 5 -1 9v43v84t1 105q0 55 1 111t4 103t9.5 80.5t18.5 44.5q28 28 61 35t62 9q15 2 23 2t20 1q0 16 -16 19.5t-39 5.5q-27 2 -54.5 7t-47.5 25q-28 28 -35.5 61.5t-10.5 63.5q-2 18 -4 31t-10 17l-10 -12q1 -1 1 -3q0 -4 -0.5 -11t-1.5 -16q-3 -31 -11 -66
t-37 -64q-24 -24 -54 -29t-56 -6q-4 0 -8 -0.5t-7 -0.5q-13 -1 -21 -5.5l-8 -4.5q0 -11 10 -11t26 -2q1 0 3 -0.5t4 -0.5q28 -2 60 -8.5t60 -34.5q11 -11 18.5 -44t12 -79t7 -101t4.5 -110q1 -27 2 -52.5t2 -49.5q2 -49 3 -86t2 -51q0 -9 1 -14t8 -5z" />
    <glyph glyph-name="daggerdbl" unicode="&#x2021;" horiz-adv-x="600" 
d="M427 302l2 -1q-12 13 -16 26.5t-6 27.5q1 1 1 8q2 17 4.5 33.5t7.5 21.5q10 10 28.5 13t36.5 5q2 0 4 0.5t4 0.5q25 3 46.5 6.5t37.5 13t25 27t9 47.5q0 34 -10.5 53.5t-28.5 29t-42 12.5t-51 5q-17 1 -32 2t-18 4q-10 10 -13.5 30.5t-7.5 40.5v4q-2 26 -6 49t-14 39.5
t-28.5 26t-50.5 9.5q-29 0 -46.5 -9t-26.5 -25t-13 -37.5t-6 -46.5q-2 -21 -6 -43.5t-17 -35.5q-5 -5 -22.5 -7t-33.5 -3q-26 -1 -48 -3t-39 -11t-26.5 -27.5t-9.5 -52.5q0 -33 9 -51t24.5 -27.5t37.5 -13t48 -5.5h3q1 0 2 -0.5t2 -0.5t2 -0.5t3 -0.5l26 -4t23 -7
q17 -26 20 -48v-1q-2 -21 -7 -41t-16 -31q-5 -5 -22.5 -7t-33.5 -3q-26 -1 -48 -3t-39 -11t-26.5 -27.5t-9.5 -52.5q0 -33 9 -51t24.5 -27.5t37.5 -13t48 -5.5h3q1 0 2 -0.5t2 -0.5t2 -0.5t3 -0.5q16 -2 32 -4.5t25 -11.5q5 -5 8 -34t5 -61v-5q0 -2 0.5 -3.5t0.5 -3.5
q2 -34 5.5 -65.5t13 -55.5t28 -38t51.5 -14t51 14t27 37.5t11.5 54.5t4.5 66q0 2 0.5 3.5t0.5 3.5v3l2 32t2.5 29.5t2.5 22t3 10.5q11 11 30 14.5t36 5.5q2 0 3.5 0.5t3.5 0.5q25 3 46.5 6.5t37.5 13t25 27t9 47.5q0 34 -10.5 53.5t-28.5 29t-42 12.5t-51 5q-14 1 -27 1.5
t-20 2.5q-1 0 -1 1q-2 0 -2 1z" />
    <glyph glyph-name="perthousand" unicode="&#x2030;" horiz-adv-x="1115" 
d="M1107 180q0 39 -14 73.5t-39 61t-61 41.5t-79 15q-46 0 -82.5 -16t-62.5 -45q-29 29 -65.5 44.5t-71.5 15.5q-26 0 -42 -3t-27 -4q-14 0 -19 5.5t-5 14.5q0 8 4 21t11 26l73 134q10 17 15 34.5t5 29.5q0 29 -18.5 45.5t-38.5 16.5q-32 0 -56 -24t-41 -54
q-6 -11 -13.5 -26.5t-16.5 -30t-20 -25t-23 -10.5q-10 0 -16.5 11.5t-14.5 29t-19.5 38.5t-30.5 40q-7 7 -19 16.5t-29.5 18.5t-40 15.5t-49.5 6.5q-31 0 -64 -12.5t-60 -37t-44.5 -60.5t-17.5 -83t18 -83t45.5 -61.5t61.5 -38.5t67 -13q26 0 45 5t30 5q12 0 18 -8t6 -16
q0 -9 -7 -22l-88 -169q-15 -32 -15 -51q0 -23 17 -42t40 -19q16 0 28.5 6t21.5 13.5t15 15t9 10.5q13 16 25 37.5t23 40t21.5 31.5t21.5 13q8 0 15.5 -12.5t16.5 -30.5t19.5 -37t23.5 -32q4 -5 15 -15.5t28 -21.5t40 -19t52 -8q42 0 81 16.5t67 46.5q26 -26 61 -41t77 -15
q41 0 76 14.5t61 40t41 61t15 76.5zM946 180q0 -14 -10 -24.5t-23 -10.5q-14 0 -24 10.5t-10 24.5t9.5 24t24.5 10q13 0 23 -10t10 -24zM206 534q16 0 24.5 -9.5t8.5 -24.5q0 -14 -9.5 -21t-26.5 -7q-11 0 -19 8t-8 21q0 14 7.5 23.5t22.5 9.5zM632 208q17 0 25 -9.5
t8 -24.5q0 -28 -36 -28q-10 0 -18 8t-8 21q0 14 7 23.5t22 9.5z" />
    <glyph glyph-name="Scaron" unicode="&#x160;" horiz-adv-x="497" 
d="M418 671q0 16 -11.5 28t-31 20t-46.5 12t-58 4q-30 0 -72.5 -9t-81.5 -32.5t-66.5 -63.5t-27.5 -102q0 -60 25 -95.5t63 -58t81.5 -37.5t81.5 -33t63 -45.5t25 -74.5q0 -51 -39 -84t-102 -33q-28 0 -47 5t-33.5 11.5t-28 12t-31.5 5.5q-10 0 -24.5 -7.5t-14.5 -29.5
q0 -20 16.5 -34.5t42.5 -24.5t56.5 -15t59.5 -5q53 0 99 14.5t80.5 41.5t54 66.5t19.5 90.5q0 46 -15 78.5t-38.5 55.5t-54.5 38t-62.5 27.5t-62 24.5t-54.5 27.5t-38.5 37t-14.5 53.5q0 28 10 49t28 35t42 21.5t51 7.5q33 0 47 -3t22.5 -6t17.5 -6t32 -3q16 0 27 11t11 25z
M136 872q-7 0 -7 -9t10.5 -26.5t27 -35t36 -30.5t38.5 -13t37.5 13.5t33 31t23 35.5t8.5 27q0 7 -4 7q-15 0 -27.5 -10t-23.5 -21.5t-22.5 -21.5t-24.5 -10q-12 0 -24.5 10t-25.5 21.5t-26.5 21.5t-28.5 10z" />
    <glyph glyph-name="guilsinglleft" unicode="&#x2039;" horiz-adv-x="429" 
d="M33 316q0 -21 11.5 -40t29 -35.5t38.5 -30.5t39 -25l118 -69q23 -14 44 -22t33 -8q16 0 26.5 7t17 17t9 21.5t2.5 20.5q0 35 -21.5 57.5t-47 39t-47 31t-21.5 35.5q0 15 10 27t25.5 22.5t33 21t33 24t25.5 31t10 42.5q0 28 -14 45t-45 17q-9 0 -29 -8t-44 -22l-120 -70
q-20 -11 -40.5 -24.5t-37 -29.5t-27.5 -34.5t-11 -40.5z" />
    <glyph glyph-name="OE" unicode="&#x152;" horiz-adv-x="977" 
d="M942 667q0 23 -22.5 31.5t-70.5 8.5h-232q-35 0 -60 -5q-79 32 -171 32q-89 0 -158 -30t-116 -82.5t-71.5 -123t-24.5 -152.5q0 -73 26 -139t74 -116t116.5 -79.5t153.5 -29.5q44 0 84 7.5t77 21.5q14 -5 35.5 -6.5t53.5 -1.5h202q59 0 90.5 6.5t31.5 28.5q0 27 -32 35.5
t-83 8.5h-113q-27 0 -51 4.5t-41.5 17t-28 35.5t-10.5 59q0 45 9 71t26 39t41 16.5t54 3.5h83q21 0 40.5 1t34.5 4.5t23.5 11t8.5 20.5q0 27 -28.5 34t-78.5 7h-75q-26 0 -50.5 2.5t-43.5 13t-30.5 31.5t-11.5 57q0 40 10 63.5t28.5 35.5t44.5 15t57 3h65q28 0 52.5 1
t42.5 5.5t28.5 12t10.5 21.5zM116 346q0 75 23 132.5t60.5 96.5t86.5 59t100 20q63 0 121 -25q-1 -131 -1 -221t-0.5 -149.5t-0.5 -92.5v-50t0.5 -22t0.5 -7q-56 -25 -120 -25q-65 0 -115 26t-84.5 67.5t-52.5 92t-18 98.5z" />
    <glyph glyph-name="quoteleft" unicode="&#x2018;" horiz-adv-x="244" 
d="M149 721q-20 0 -37 -21.5t-29 -50t-19 -58t-7 -44.5q0 -25 11 -41.5t38 -16.5q22 0 39 19t28.5 45.5t17 54.5t5.5 45q0 29 -10.5 48.5t-36.5 19.5z" />
    <glyph glyph-name="quoteright" unicode="&#x2019;" horiz-adv-x="202" 
d="M127 734q-21 0 -38 -13.5t-30 -34t-22.5 -45.5t-15.5 -48.5t-9 -42t-3 -25.5q0 -38 23 -55t51 -17q24 0 45 18.5t36 48t24 66t9 71.5q0 48 -19 62.5t-51 14.5z" />
    <glyph glyph-name="quotedblleft" unicode="&#x201c;" horiz-adv-x="420" 
d="M59 570q0 -22 7.5 -29t24.5 -7q16 0 28.5 17.5t21 41t12.5 47t4 35.5q0 23 -6 34.5t-22 11.5q-10 0 -22 -19t-22.5 -44t-18 -50t-7.5 -38zM205 570q0 -22 7.5 -29t24.5 -7q16 0 28.5 17.5t21 41t12.5 47t4 35.5q0 46 -28 46q-10 0 -22 -19t-22.5 -44t-18 -50t-7.5 -38z
" />
    <glyph glyph-name="quotedblright" unicode="&#x201d;" horiz-adv-x="443" 
d="M286 480q23 0 42 21t32.5 50t21 59.5t7.5 48.5q0 22 -10.5 40t-35.5 18q-20 0 -38 -11t-29 -26q-5 -7 -12 -21.5t-13 -33.5t-10.5 -39.5t-4.5 -39.5q0 -27 11 -46.5t39 -19.5zM76 479q23 0 43 20.5t35 49t23.5 59t8.5 51.5q0 27 -16.5 42.5t-41.5 15.5q-19 0 -32 -11
t-24 -26q-5 -7 -11.5 -21.5t-12.5 -33.5t-10 -39.5t-4 -39.5q0 -31 10.5 -49t31.5 -18z" />
    <glyph glyph-name="bullet" unicode="&#x2022;" horiz-adv-x="529" 
d="M423 310q0 36 -14 68t-38 56t-55.5 38t-67.5 14t-67.5 -14t-54.5 -38t-36 -56t-13 -68t13.5 -67.5t36.5 -55t54 -37t67 -13.5t68 13.5t55.5 37t37.5 55t14 67.5z" />
    <glyph glyph-name="endash" unicode="&#x2013;" horiz-adv-x="617" 
d="M134 318q-27 0 -48 -6t-21 -23t21.5 -20.5t47.5 -3.5h350q26 0 48.5 5t22.5 19q0 9 -6.5 14.5t-16.5 9t-22.5 4.5t-25.5 1h-350z" />
    <glyph glyph-name="emdash" unicode="&#x2014;" horiz-adv-x="681" 
d="M95 318q-27 0 -48 -6t-21 -23t21.5 -20.5t47.5 -3.5h496q26 0 48.5 5t22.5 19q0 18 -22.5 23.5t-48.5 5.5h-496z" />
    <glyph glyph-name="tilde" unicode="&#x2dc;" horiz-adv-x="385" 
d="M388 334q0 21 -15.5 28.5t-33.5 7.5q-16 0 -28.5 -5t-23 -10.5t-20.5 -10.5t-22 -5q-11 0 -21 5t-22.5 11.5t-29 11.5t-41.5 5q-38 0 -63.5 -16.5t-41 -37t-22 -39t-6.5 -21.5q0 -21 14.5 -28.5t35.5 -7.5q20 0 31 5.5t19.5 11.5t17.5 11.5t25 5.5q10 0 21.5 -6t25 -12.5
t30 -12.5t36.5 -6q30 0 54.5 12t42 29.5t27.5 37.5t10 36z" />
    <glyph glyph-name="trademark" unicode="&#x2122;" horiz-adv-x="1007" 
d="M541 715q-28 0 -51 -14t-32 -42q-4 -11 -5.5 -35t-1.5 -54q0 -29 1 -61t3 -60.5t3.5 -50t3.5 -29.5q1 -14 14 -30t28 -16q19 0 30 9.5t20 21t17.5 21t23.5 9.5q13 0 25 -9.5t24 -21.5t26 -21.5t32 -9.5q17 0 30.5 9.5t25 21.5t22 21.5t22.5 9.5q14 0 22.5 -9.5t16.5 -21
t17.5 -21t25.5 -9.5q26 0 33 13t13 35q3 11 5.5 31.5t5 46.5t3.5 55t1 56q0 33 -2 60t-6 41q-9 26 -33 41t-52 15q-22 0 -38 -12.5t-29 -30.5t-23 -40t-19.5 -40t-19 -30.5t-21.5 -12.5q-15 0 -26 12t-20.5 30.5t-19.5 39.5t-23 39.5t-30.5 30.5t-41.5 12zM222 721
q-15 0 -33 -0.5t-35.5 -3t-33.5 -6.5t-27 -11q-16 -11 -16 -28q0 -8 7.5 -19t18 -22t21 -21t16.5 -16q11 -11 16.5 -25.5t7.5 -31t2 -32.5v-30v-21q0 -12 1 -27.5t3 -31.5t6 -30q6 -17 15 -28t24 -11q38 0 48 39q7 23 8 53.5t1 56.5q0 11 1 28t3.5 35t7.5 33.5t13 23.5
q7 7 18 16t21.5 19t18 21t7.5 22t-5.5 19.5t-13.5 13.5q-12 7 -28 10t-33 4t-33 1h-27z" />
    <glyph glyph-name="scaron" unicode="&#x161;" horiz-adv-x="398" 
d="M201 508q-30 0 -64.5 -11.5t-63.5 -33t-48 -53.5t-19 -72q0 -44 16 -72t35.5 -46t35.5 -29t16 -23q0 -5 -13.5 -10t-30 -14t-30 -24t-13.5 -42q0 -18 9 -36t30.5 -32.5t56.5 -23.5t86 -9q49 0 87 16.5t64 42t39.5 56t13.5 58.5q0 37 -16 64.5t-35.5 47.5t-35.5 34t-16 26
q0 7 9.5 15t20.5 18t20.5 23.5t9.5 33.5t-13 37.5t-35.5 30.5t-52.5 20.5t-63 7.5zM367 671q0 17 -10 23t-45 6q-33 0 -45.5 -3.5t-17.5 -8.5t-9.5 -11.5t-10.5 -13.5t-13 -11.5t-15 -4.5q-9 0 -16.5 5t-13.5 11.5t-11.5 13.5t-9.5 12q-5 5 -17.5 8t-45.5 3
q-35 0 -44.5 -5.5t-9.5 -22.5q0 -8 6.5 -18.5t16 -21.5t20 -21.5l17.5 -17.5q22 -23 53.5 -37.5t54.5 -14.5q25 0 54 16t48 35q6 6 17 17.5t21.5 23.5t18 22.5t7.5 15.5z" />
    <glyph glyph-name="guilsinglright" unicode="&#x203a;" horiz-adv-x="304" 
d="M123 445h1q-18 11 -35.5 19t-29.5 8q-31 0 -31 -31q0 -29 14 -42t32 -25l46 -29q14 -9 25 -18t11 -25q0 -15 -12 -25t-26 -20l-42 -28q-2 -2 -4 -3t-4 -3q-15 -11 -27 -22t-12 -34q0 -33 32 -33q12 0 29 6.5t34 17.5l76 46q5 3 9.5 6t9.5 5q13 7 27 15.5t25.5 19t18.5 23
t7 29.5q0 18 -6.5 31t-17 23t-24 18t-28.5 16h1q-4 2 -8.5 4.5t-8.5 4.5z" />
    <glyph glyph-name="oe" unicode="&#x153;" horiz-adv-x="840" 
d="M598 536q-48 0 -89.5 -12.5t-75.5 -35.5q-35 23 -78 36t-89 13q-78 0 -132 -27t-87.5 -68.5t-48.5 -89.5t-15 -90q0 -63 23.5 -114t63.5 -86t92 -54t108 -19q39 0 79 11.5t76 34.5q42 -29 89 -42t88 -13q53 0 99 18t74 46q15 14 19.5 32t4.5 43v38q0 11 5.5 19.5
t13.5 19.5q6 8 11 15.5t9 18t6.5 24.5t2.5 35q0 53 -19 98.5t-53 78.5t-79.5 51.5t-97.5 18.5zM264 316q15 0 25 -5t16 -13.5t8 -18.5t2 -19q0 -18 -14.5 -33.5t-34.5 -15.5q-16 0 -33 15.5t-17 38.5q0 17 14 34t34 17z" />
    <glyph glyph-name="Ydieresis" unicode="&#x178;" horiz-adv-x="544" 
d="M65 715q-38 0 -61.5 -17t-23.5 -48q0 -23 17 -53.5t40 -67.5l117 -187q28 -45 28 -116v-120q0 -17 5 -35.5t15.5 -34t27 -26t39.5 -10.5q22 0 39 9.5t28.5 24.5t17.5 34t6 38v120q0 40 8.5 69.5t21.5 48.5l117 185q23 37 40 68t17 51q0 27 -20.5 46.5t-62.5 19.5
q-29 0 -51.5 -14.5t-40.5 -35.5t-33 -46.5t-28.5 -46.5t-26 -35.5t-26.5 -14.5t-27 14.5t-26.5 36t-28.5 46.5t-33.5 46.5t-42 36t-52.5 14.5zM452 817q0 22 -8 39.5t-21 29.5t-29 18t-32 6q-20 0 -32 -5.5t-20.5 -12.5t-16.5 -12.5t-18 -5.5t-17.5 5.5t-17 11.5t-23 11.5
t-35.5 5.5q-41 0 -62.5 -24.5t-21.5 -61.5q0 -36 21.5 -59.5t62.5 -23.5q22 0 35.5 5.5t23 11.5t17 11.5t18.5 5.5q10 0 17.5 -5.5t16 -12t20.5 -12t32 -5.5q16 0 32 5t29 15t21 25t8 34zM198 822q0 -14 -16 -14q-7 0 -10.5 4.5t-3.5 9.5q0 6 3.5 10.5t11.5 4.5q15 0 15 -15
zM378 822q0 -14 -16 -14q-7 0 -10.5 4.5t-3.5 9.5q0 6 3 10.5t11 4.5q16 0 16 -15z" />
    <glyph glyph-name="exclamdown" unicode="&#xa1;" horiz-adv-x="246" 
d="M126 -212q20 0 33 10t21 27t11.5 40.5t3.5 50.5v227q0 60 -15.5 96.5t-53.5 36.5q-32 0 -46.5 -37.5t-14.5 -95.5v-227q0 -26 3 -49.5t10 -41t18.5 -27.5t29.5 -10zM130 369q29 0 47.5 19t18.5 48q0 28 -17 46t-49 18q-29 0 -45 -19.5t-16 -44.5q0 -29 16 -48t45 -19z
" />
    <glyph glyph-name="cent" unicode="&#xa2;" horiz-adv-x="604" 
d="M327 545q-20 0 -40 -15.5t-46 -33.5q-24 -17 -51 -33.5t-44 -32.5q-33 -29 -54.5 -77t-21.5 -123q0 -51 15 -89t36.5 -65.5t46.5 -46t45 -30.5q16 -10 29.5 -23.5t26.5 -25.5t27.5 -20.5t33.5 -8.5q15 0 24.5 6.5t17.5 15.5t16 18.5t21 15.5q16 7 33 17t30.5 21.5t22 25
t8.5 28.5q0 33 -21 50.5t-43 27.5q-8 3 -20.5 6.5t-24 12.5t-20 26.5t-8.5 50.5t9.5 49.5t23 24.5t29 11t26.5 11q19 12 33.5 25t14.5 42q0 15 -7.5 28.5t-19 24.5t-24 19t-21.5 11q-10 4 -21.5 13t-25 18.5t-27.5 17t-29 7.5z" />
    <glyph glyph-name="sterling" unicode="&#xa3;" horiz-adv-x="492" 
d="M333 718q-61 0 -104.5 -21t-66.5 -44q-36 -36 -48 -67.5t-16 -59t-7 -50t-21 -40.5q-6 -6 -15 -15.5t-16.5 -20t-13 -22t-5.5 -22.5q0 -22 11 -35t24 -26t24 -31.5t11 -50.5q0 -24 -11.5 -39.5t-26 -30t-26 -29.5t-11.5 -37q0 -23 9.5 -38t25 -23.5t35.5 -12t41 -3.5h231
q17 0 36 3.5t35.5 12t27.5 22.5t11 35t-10 35.5t-26 22.5t-36 11.5t-39 3.5q-26 0 -43.5 3.5t-31.5 12.5q-8 5 -17 20t-9 38q0 19 6.5 32t16.5 21.5t22 13.5t22 9q6 2 16 6t19 11t16 17.5t7 25.5q0 28 -14.5 40t-34.5 20q-12 4 -24 8.5t-22 11.5t-16 17t-6 27q0 14 7.5 27.5
t18.5 24t23.5 17t21.5 6.5q14 0 37 -2.5t38 -2.5q31 0 57 20.5t26 59.5q0 24 -18 41t-43.5 27.5t-52.5 15t-45 4.5z" />
    <glyph glyph-name="currency" unicode="&#xa4;" horiz-adv-x="674" 
d="M92 488q-27 0 -48 -9.5t-21 -27.5q0 -16 18.5 -23t42.5 -8q-2 -17 -3 -34.5t-1 -35.5q0 -19 1.5 -38t6.5 -39h-25q-27 0 -48 -9.5t-21 -27.5q0 -16 21.5 -23.5t47.5 -7.5h45q18 -43 47 -82.5t71 -70t98 -48.5t128 -18q56 0 96.5 10t67 24.5t39.5 29.5t13 26q0 18 -8 30.5
t-31 12.5q-21 0 -37.5 -8.5t-35.5 -18t-44.5 -18t-62.5 -8.5q-78 0 -136.5 39.5t-92.5 99.5h149q26 0 48.5 8.5t22.5 22.5q0 18 -22.5 27.5t-48.5 9.5h-177q-13 42 -13 89q0 15 1.5 29.5t3.5 28.5h214q26 0 48.5 8.5t22.5 22.5q0 18 -22.5 27.5t-48.5 9.5h-194
q17 39 43.5 70.5t59 53t69.5 33t76 11.5q31 0 53 -6t39.5 -13.5t32 -13.5t30.5 -6q40 0 40 38q0 13 -14.5 27.5t-40 26t-62 19t-79.5 7.5q-63 0 -119.5 -16t-102 -47.5t-79 -77.5t-51.5 -106h-7z" />
    <glyph glyph-name="currency" unicode="&#x20ac;" horiz-adv-x="674" 
d="M92 488q-27 0 -48 -9.5t-21 -27.5q0 -16 18.5 -23t42.5 -8q-2 -17 -3 -34.5t-1 -35.5q0 -19 1.5 -38t6.5 -39h-25q-27 0 -48 -9.5t-21 -27.5q0 -16 21.5 -23.5t47.5 -7.5h45q18 -43 47 -82.5t71 -70t98 -48.5t128 -18q56 0 96.5 10t67 24.5t39.5 29.5t13 26q0 18 -8 30.5
t-31 12.5q-21 0 -37.5 -8.5t-35.5 -18t-44.5 -18t-62.5 -8.5q-78 0 -136.5 39.5t-92.5 99.5h149q26 0 48.5 8.5t22.5 22.5q0 18 -22.5 27.5t-48.5 9.5h-177q-13 42 -13 89q0 15 1.5 29.5t3.5 28.5h214q26 0 48.5 8.5t22.5 22.5q0 18 -22.5 27.5t-48.5 9.5h-194
q17 39 43.5 70.5t59 53t69.5 33t76 11.5q31 0 53 -6t39.5 -13.5t32 -13.5t30.5 -6q40 0 40 38q0 13 -14.5 27.5t-40 26t-62 19t-79.5 7.5q-63 0 -119.5 -16t-102 -47.5t-79 -77.5t-51.5 -106h-7z" />
    <glyph glyph-name="yen" unicode="&#xa5;" horiz-adv-x="561" 
d="M55 707q-29 0 -41.5 -10t-12.5 -36q0 -31 12.5 -49t29.5 -40q10 -13 23.5 -28t25.5 -31t20.5 -31.5t8.5 -28.5q0 -12 -7.5 -19.5t-16.5 -14.5t-16.5 -16t-7.5 -24t16 -23.5t35.5 -16t35.5 -17t16 -25.5t-16 -25t-35.5 -17.5t-35.5 -18.5t-16 -29q0 -20 21.5 -28t47.5 -12
t47.5 -8.5t21.5 -17.5v-28q0 -21 3 -41t10.5 -36t21 -26t34.5 -10q18 0 30 9t19.5 25t11 36t3.5 43v28q0 14 21.5 17.5t47 6.5t47 11t21.5 31q0 19 -15.5 29.5t-34 19t-34 17t-15.5 24.5q0 17 15.5 26t34 16.5t34 16t15.5 23.5q0 14 -8 22.5t-17.5 16t-17.5 15t-8 20.5
q0 11 6.5 23.5t16 25t20 24.5t17.5 21q7 10 18.5 22t22 26.5t18.5 30.5t8 33q0 25 -17 35t-39 10q-24 0 -44.5 -15.5t-39 -38.5t-35.5 -50.5t-33.5 -50.5t-33 -38.5t-34.5 -15.5q-21 0 -37.5 15.5t-32 39.5t-31 51t-33.5 51t-40.5 39.5t-51.5 15.5z" />
    <glyph glyph-name="brokenbar" unicode="&#xa6;" horiz-adv-x="216" 
d="M181 115q0 31 -3 59t-11 50t-22.5 35t-38.5 13q-22 0 -36 -13t-22.5 -35t-12 -50t-3.5 -59t5 -59t14 -49.5t23 -34.5t32 -13q23 0 37.5 13t23 34.5t11.5 49.5t3 59zM181 564q0 31 -3 59t-11 50t-22.5 35t-38.5 13q-22 0 -36 -13t-22.5 -35t-12 -50t-3.5 -59
q0 -30 5 -58.5t14 -50t23 -34.5t32 -13q23 0 37.5 13t23 34.5t11.5 50t3 58.5z" />
    <glyph glyph-name="section" unicode="&#xa7;" horiz-adv-x="497" 
d="M283 731q-38 0 -76.5 -9.5t-70.5 -30.5t-52 -54t-20 -79q0 -23 6 -40t12.5 -32t12.5 -29t6 -29q0 -14 -9.5 -28t-21.5 -30.5t-21.5 -36t-9.5 -43.5q0 -49 26.5 -81t62.5 -52.5t73.5 -32.5t59.5 -21q13 -6 26.5 -13.5t24 -17.5t17 -22.5t6.5 -27.5q0 -18 -10 -30t-25 -19
t-32 -10t-31 -3q-22 0 -40.5 9.5t-35 21t-31 21t-27.5 9.5q-20 0 -34 -11.5t-14 -31.5q0 -11 11 -30.5t32.5 -39.5t53 -34.5t73.5 -14.5q48 0 90 8.5t74 31.5q29 22 48 56t19 77q0 20 -4 34t-8.5 25.5t-8.5 24t-4 29.5q0 14 8 32.5t17 39t17 43t8 43.5q0 46 -22 76.5
t-55 50.5t-71.5 34t-71.5 27t-55 29t-22 41q0 16 8.5 28.5t22.5 21.5t31 13.5t34 4.5q15 0 29 -5.5t26 -11.5t22.5 -11.5t20.5 -5.5q21 0 37 12t16 35q0 16 -12.5 32t-33 28.5t-47.5 20.5t-55 8zM269 228q-15 0 -33.5 4.5t-34 13.5t-26.5 22t-11 30q0 32 24.5 47.5
t59.5 15.5q21 0 40 -4.5t33.5 -14.5t23.5 -24.5t9 -33.5q0 -14 -8 -24.5t-20.5 -17.5t-27.5 -10.5t-29 -3.5z" />
    <glyph glyph-name="dieresis" unicode="&#xa8;" horiz-adv-x="533" 
d="M445 287q0 22 -8 39.5t-21 29.5t-29 18t-32 6q-19 0 -31 -5.5t-21 -12.5t-16.5 -12.5t-17.5 -5.5q-11 0 -18.5 5.5t-17 11.5t-23 11.5t-35.5 5.5q-41 0 -62.5 -24.5t-21.5 -61.5q0 -36 21.5 -59.5t62.5 -23.5q22 0 35.5 5.5t23 11.5t17.5 11.5t18 5.5t17.5 -5.5t16.5 -12
t21 -12t31 -5.5q16 0 32 5t29 15t21 25t8 34zM191 292q0 -14 -16 -14q-7 0 -10.5 4.5t-3.5 9.5q0 6 3.5 10.5t11.5 4.5q15 0 15 -15zM371 292q0 -14 -16 -14q-7 0 -10 4.5t-3 9.5q0 6 2.5 10.5t10.5 4.5q16 0 16 -15z" />
    <glyph glyph-name="copyright" unicode="&#xa9;" horiz-adv-x="875" 
d="M790 369q0 58 -16.5 107t-44.5 88t-64.5 68.5t-77.5 49t-83.5 29.5t-81.5 10q-54 0 -117 -22.5t-117 -67.5t-90 -112.5t-36 -157.5q0 -70 27 -135.5t75 -116.5t114.5 -81.5t146.5 -30.5q73 0 139 26.5t116.5 75.5t80 117.5t29.5 152.5zM424 700q78 0 139 -32t102.5 -82.5
t63 -111.5t21.5 -120q0 -61 -25 -121.5t-68.5 -108.5t-103 -78t-128.5 -30q-65 0 -122.5 29t-101 76.5t-68.5 107.5t-25 122q0 70 23 133.5t65 111.5t100 76t128 28zM427 551q-53 0 -85.5 -18.5t-51 -46.5t-25 -59.5t-6.5 -57.5q0 -40 10 -76t31 -63.5t54 -43.5t78 -16
q21 0 41 4.5t36 11.5t25.5 15t9.5 14q0 4 -3 8.5t-8 4.5q-6 0 -13 -5t-17.5 -10.5t-24.5 -10.5t-35 -5q-30 0 -55 13.5t-43 36t-28 51.5t-10 60q0 33 9 63t25.5 53t39.5 36.5t51 13.5q21 0 37.5 -4.5t29.5 -10.5t23 -10.5t16 -4.5q5 0 9 3t4 11q0 14 -34.5 28.5t-89.5 14.5z
" />
    <glyph glyph-name="guillemotleft" unicode="&#xab;" horiz-adv-x="448" 
d="M330 174l42 -28l-2 1q1 -1 2 -1.5t2 -1.5l1.5 -1.5t2.5 -1.5v-1h1v1h1q6 -5 10 -8.5t5 -6.5l16 2q0 5 7 6v16q-6 1 -15.5 5.5t-20.5 11.5l-74 43q-11 11 -17.5 23.5t-6.5 30.5q0 22 9.5 36t24.5 25l3 2l58 32h1q13 8 24 14t17 8l-2 15q-5 0 -7 8l-15 1q-2 -8 -8.5 -13.5
t-14.5 -10.5l-45 -29q-5 -4 -9 -7t-9 -6v-1l-20 -10l-14 -8q-23 -12 -40.5 -24t-17.5 -32q0 -17 19.5 -30.5t39.5 -24.5l2 -1t3 -1q5 -2 8 -4t5 -4l-2 5l8 3l-6 -8q10 -8 18 -14t16 -11zM138 175l42 -28l-2 1q1 -1 2 -1.5t2 -1.5l1.5 -1.5t2.5 -1.5l1 -1v2l1 -1
q6 -5 10 -8.5t5 -6.5l16 2q0 5 7 6v16q-6 1 -15.5 5.5t-20.5 11.5l-74 43q-11 11 -17.5 23.5t-6.5 30.5q0 22 9.5 36t24.5 25l1 1q1 0 2 1l58 32h1q13 8 24 14t17 8l-2 15q-5 0 -7 8l-15 1q-2 -8 -8.5 -13.5t-14.5 -10.5l-45 -29q-5 -4 -9 -7t-9 -6v-1l-20 -10l-14 -8
q-23 -12 -40.5 -24t-17.5 -32q0 -17 19.5 -30.5t39.5 -24.5l2 -1t3 -1q5 -2 8 -4t5 -4l-2 5l8 3l-6 -8q10 -8 18 -14t16 -11z" />
    <glyph glyph-name="logicalnot" unicode="&#xac;" horiz-adv-x="1024" 
d="M41 -4h824q33 0 59 8.5t44 23.5t27.5 34.5t9.5 41.5q0 43 -22.5 68t-59.5 37q25 12 40.5 34.5t15.5 53.5q0 17 -4 31.5t-15 27.5h3v140h-47l-4 -93h-292v188h-231v125h53v48h-415l-9 -106h49l4 58h109v-313h-139v-407zM230 356v360h108v-173h232v-139h-53v-48h2l75 -186
h-192l-20 -47h230l32 -79h-554v312h140zM699 44h-3l-128 312h266q30 0 48 -6.5t28.5 -16t14 -20t3.5 -18.5q0 -28 -25 -46.5t-60 -18.5h-114v-48h103q8 0 28 -1.5t40.5 -8t36.5 -21t16 -40.5t-12.5 -39.5t-32 -20t-42 -7.5t-43.5 -1h-124v1zM914 623h46l-3 140h-294v-221
h153v-51h47v151h-47v-52h-103v125h193zM338 405l13 -178h48l12 178h-73z" />
    <glyph glyph-name="registered" unicode="&#xae;" horiz-adv-x="829" 
d="M410 733q-73 0 -140 -27t-118.5 -76.5t-82.5 -120t-31 -156.5q0 -72 28 -138.5t78 -117.5t118.5 -81.5t149.5 -30.5q80 0 148 30.5t117.5 83t77 122t27.5 146.5t-30.5 143.5t-82 116t-119 78t-140.5 28.5zM587 513q8 0 21 -13t25.5 -35t21.5 -51.5t9 -62.5q0 -30 -8 -58
t-21 -49t-28 -33.5t-29 -12.5q-9 0 -18 8t-16.5 22t-12 32.5t-4.5 39.5t8 35t17.5 30t17.5 37.5t8 56.5q0 17 2 31.5t7 22.5zM232 507q11 0 18.5 -29t7.5 -89v-53q0 -35 -2.5 -59t-6.5 -39t-8.5 -21.5t-8.5 -6.5q-9 0 -21.5 11t-24.5 30.5t-20.5 47t-8.5 61.5q0 28 7.5 54.5
t18.5 47t24.5 33t24.5 12.5zM504 141q0 -6 -7 -14.5t-18.5 -15.5t-27 -12t-32.5 -5q-48 0 -75 17.5t-27 32.5q0 7 10.5 20t24.5 25t29.5 21t25.5 9q13 0 29.5 -8t31.5 -20t25.5 -25.5t10.5 -24.5zM421 477q17 0 26 -8.5t9 -17.5q0 -11 -8.5 -21t-27.5 -10q-15 0 -26.5 7.5
t-11.5 18.5q0 15 9 23t30 8zM437 616q19 0 32 -6t13 -15q0 -6 -12.5 -10.5t-32.5 -4.5q-38 0 -38 15q0 7 9 14t29 7z" />
    <glyph glyph-name="macron" unicode="&#xaf;" horiz-adv-x="306" 
d="M309 303q0 37 -12.5 52t-41.5 15h-207q-15 0 -25 -3t-15.5 -10.5t-7.5 -21t-2 -35.5q0 -21 2 -33t8 -18.5t16 -8.5t27 -2h202q35 0 45.5 13t10.5 52zM233 306q0 -13 -11.5 -17.5t-29.5 -4.5h-80q-20 0 -28.5 6t-8.5 17t11.5 16t30.5 5h72q22 0 33 -4.5t11 -17.5z" />
    <glyph glyph-name="acute" unicode="&#xb4;" horiz-adv-x="271" 
d="M273 339q0 16 -18.5 25t-41.5 9q-9 0 -22 -0.5t-26.5 -1.5t-26.5 -1.5t-20 -0.5q-20 0 -32 -7.5t-23 -19.5q-6 -7 -17 -22t-21.5 -31.5t-18.5 -30.5t-8 -19q0 -16 19 -22t57 -6q30 0 48.5 4.5t28.5 13.5q12 12 33 28t40.5 32t34 29.5t14.5 20.5z" />
    <glyph glyph-name="paragraph" unicode="&#xb6;" horiz-adv-x="533" 
d="M473 37v600q0 27 -16 49.5t-54 22.5h-145q-95 0 -149.5 -41t-54.5 -128q0 -36 15 -64.5t36.5 -48t46.5 -29.5t46 -10q6 0 12.5 -6t12 -15t9 -19.5t3.5 -19.5v-291q0 -21 11 -40t31 -19q21 0 29 19.5t8 39.5v502q0 28 11.5 51.5t31.5 23.5q16 0 26.5 -22t10.5 -53v-502
q0 -21 11 -40t29 -19q23 0 31 18t8 41z" />
    <glyph glyph-name="periodcentered" unicode="&#xb7;" horiz-adv-x="196" 
d="M146 323q0 19 -14 32.5t-31 13.5q-19 0 -31 -14t-12 -32q0 -17 13 -30t30 -13t31 13t14 30z" />
    <glyph glyph-name="periodcentered" unicode="&#x2219;" horiz-adv-x="196" 
d="M146 323q0 19 -14 32.5t-31 13.5q-19 0 -31 -14t-12 -32q0 -17 13 -30t30 -13t31 13t14 30z" />
    <glyph glyph-name="ordmasculine" unicode="&#xba;" horiz-adv-x="592" 
d="M556 151q0 15 -8.5 22t-19 13t-19 15t-8.5 29q0 16 8.5 31t19 30t19 31.5t8.5 36.5q0 19 -8.5 35.5t-19 31.5t-19 30t-8.5 31q0 19 8.5 28.5t19 15.5t19 13t8.5 23q0 20 -17 36.5t-37 16.5q-15 0 -22 -8.5t-13 -18.5t-15.5 -18.5t-28.5 -8.5q-16 0 -30.5 8.5t-29.5 18.5
t-31.5 18.5t-35.5 8.5q-20 0 -36 -8.5t-31 -18.5t-29.5 -18.5t-30.5 -8.5q-20 0 -29 8.5t-15 18.5t-13 18.5t-22 8.5q-24 0 -39 -18t-15 -41q0 -12 8.5 -18t19 -12.5t19 -16t8.5 -27.5q0 -16 -8.5 -31t-19 -30t-19 -31.5t-8.5 -35.5q0 -20 8.5 -36.5t19 -31.5t19 -29.5
t8.5 -30.5q0 -20 -8.5 -29t-19 -15t-19 -13t-8.5 -22q0 -22 16 -39t39 -17q15 0 21.5 8.5t12.5 19t15 19t29 8.5q16 0 30.5 -8.5t29.5 -19t31 -19t36 -8.5q19 0 35.5 8.5t31.5 19t29.5 19t30.5 8.5q19 0 28 -8.5t15 -19t13.5 -19t22.5 -8.5q22 0 38 17t16 38zM442 359
q0 -31 -11 -59t-30.5 -49t-46.5 -33.5t-58 -12.5q-32 0 -58.5 12.5t-46 33.5t-30.5 49t-11 59q0 30 11 57.5t30.5 48.5t46.5 33.5t58 12.5t57.5 -12.5t46 -33.5t31 -48.5t11.5 -57.5z" />
    <glyph glyph-name="guillemotright" unicode="&#xbb;" horiz-adv-x="463" 
d="M89 402q-16 10 -30.5 17t-22.5 7t-8 -8q0 -18 11 -28t25 -20l45 -29q19 -12 33 -24.5t14 -37.5q0 -24 -15.5 -38t-32.5 -26l-42 -28q-13 -9 -25 -17.5t-12 -25.5q0 -10 9 -10q8 0 22 6t29 15l76 46q12 7 27 15t28 17t22 20.5t9 25.5q0 15 -7.5 25.5t-19 19.5t-25.5 16.5
t-28 15.5zM281 403q-16 10 -30.5 17t-22.5 7t-8 -8q0 -18 11 -28t25 -20l45 -29q19 -12 33 -24.5t14 -37.5q0 -24 -15.5 -38t-32.5 -26l-42 -28q-13 -9 -25 -17.5t-12 -25.5q0 -10 9 -10q8 0 22 6t29 15l76 46q12 7 27 15t28 17t22 20.5t9 25.5q0 15 -7.5 25.5t-19 19.5
t-25.5 16.5t-28 15.5z" />
    <glyph glyph-name="questiondown" unicode="&#xbf;" horiz-adv-x="475" 
d="M28 93q0 -44 18 -80t48.5 -61.5t72 -39.5t89.5 -14q53 0 93 17.5t67 41.5t41 49t14 39q0 35 -16.5 48.5t-39.5 13.5q-26 0 -44 -12t-35 -27q-14 -13 -32 -25t-44 -12q-25 0 -41.5 9t-26.5 21.5t-14.5 27.5t-4.5 27q0 37 22.5 68t48.5 60q26 30 47.5 59t21.5 64
q0 26 -12 48.5t-43 22.5q-30 0 -45.5 -20t-29.5 -49q-8 -17 -17.5 -34t-22.5 -29q-2 -2 -4 -3.5t-4 -3.5v1q-13 -12 -31 -31t-35 -44.5t-29 -58.5t-12 -73zM264 666q-32 0 -50.5 -20.5t-18.5 -44.5q0 -26 17 -46.5t52 -20.5q32 0 48 20.5t16 46.5q0 24 -14.5 44.5
t-49.5 20.5z" />
    <glyph glyph-name="Agrave" unicode="&#xc0;" 
d="M442 523q-17 38 -29.5 70t-26 55.5t-29.5 36.5t-39 13q-21 0 -35.5 -12.5t-27.5 -34t-24.5 -51t-26.5 -62.5l-121 -277q-8 -17 -22 -47.5t-28 -63.5t-24.5 -63.5t-10.5 -47.5q0 -22 10 -30t31 -8q16 0 29 15t25 35.5t22.5 40.5t20.5 31q15 15 29 23t30.5 12t38 5t51.5 1
h68q26 0 46 -1t36.5 -5t30 -12t27.5 -21q16 -17 27.5 -38.5t22.5 -40.5t25.5 -32.5t38.5 -13.5q22 0 28.5 13.5t6.5 20.5v1q0 15 -9.5 42.5t-22 59t-26.5 62t-23 51.5zM208 317q0 11 8 43t22.5 66.5t33.5 61t42 26.5q16 0 30.5 -12.5t26.5 -31.5t21.5 -42t16 -44.5t10 -38
t3.5 -23.5q0 -41 -23.5 -65t-82.5 -24q-51 0 -79.5 19.5t-28.5 64.5zM267 893q0 -13 7.5 -38.5t18 -50.5t23 -43.5t21.5 -18.5q17 0 23 10t6 36q0 12 -4.5 35.5t-12.5 46.5t-21 40.5t-29 17.5q-32 0 -32 -35z" />
    <glyph glyph-name="Aacute" unicode="&#xc1;" 
d="M442 523q-17 38 -29.5 70t-26 55.5t-29.5 36.5t-39 13q-21 0 -35.5 -12.5t-27.5 -34t-24.5 -51t-26.5 -62.5l-121 -277q-8 -17 -22 -47.5t-28 -63.5t-24.5 -63.5t-10.5 -47.5q0 -22 10 -30t31 -8q16 0 29 15t25 35.5t22.5 40.5t20.5 31q15 15 29 23t30.5 12t38 5t51.5 1
h68q26 0 46 -1t36.5 -5t30 -12t27.5 -21q16 -17 27.5 -38.5t22.5 -40.5t25.5 -32.5t38.5 -13.5q22 0 28.5 13.5t6.5 20.5v1q0 15 -9.5 42.5t-22 59t-26.5 62t-23 51.5zM208 317q0 11 8 43t22.5 66.5t33.5 61t42 26.5q16 0 30.5 -12.5t26.5 -31.5t21.5 -42t16 -44.5t10 -38
t3.5 -23.5q0 -41 -23.5 -65t-82.5 -24q-51 0 -79.5 19.5t-28.5 64.5zM366 895q0 35 -32 35q-17 0 -29.5 -17.5t-20.5 -40.5t-12.5 -46.5t-4.5 -35.5q0 -26 6 -36t23 -10q9 0 21.5 18.5t23 43.5t18 50.5t7.5 38.5z" />
    <glyph glyph-name="Acircumflex" unicode="&#xc2;" horiz-adv-x="663" 
d="M486 555q-5 12 -9.5 24t-9.5 23q-13 32 -24.5 58t-25.5 45t-32.5 29t-43.5 10q-23 0 -40 -10t-30.5 -28t-25 -43t-23.5 -54q-4 -9 -7.5 -19t-8.5 -20l-121 -277v1q-2 -5 -4.5 -10l-5.5 -11q-10 -21 -23.5 -50.5t-25.5 -59.5t-20 -57t-8 -44q0 -35 15.5 -48t48.5 -13
q15 0 27.5 8t23 20.5t20 28t17.5 31.5q14 29 25 41q12 12 24 19t27.5 10t35 4t46.5 1h68q24 0 42 -1t32.5 -4t26.5 -9.5t23 -17.5q10 -10 18 -24l16 -28q8 -15 16.5 -29.5t19.5 -26t25.5 -18t34.5 -6.5q19 0 30.5 7t17.5 16t8 18.5t2 15.5v1q0 14 -7 37.5t-17.5 51t-23 55.5
t-22.5 52q-4 8 -7 15.5t-6 13.5v-1zM254 340q0 6 3 21.5t8 35t12.5 40t17 38t20 28.5t22.5 11q19 0 34.5 -23t27 -52.5t17.5 -57t6 -36.5q0 -30 -18 -48t-65 -18q-41 0 -63 14.5t-22 46.5zM441 740q16 0 23 9t7 23q0 10 -12.5 31.5t-32.5 43t-44 37.5t-46 16
q-24 0 -46.5 -16t-40 -38t-28 -43.5t-10.5 -32.5q0 -10 8 -20t19 -10q23 0 38.5 13t29.5 27q8 8 16.5 15.5t13.5 7.5t13 -7t18 -16q16 -14 33.5 -27t40.5 -13z" />
    <glyph glyph-name="Atilde" unicode="&#xc3;" horiz-adv-x="625" 
d="M413 502q-4 8 -6.5 15t-5.5 15q-2 3 -3.5 9t-3.5 9v-1q-11 27 -20.5 48.5t-20 37.5t-22.5 24.5t-28 8.5q-28 0 -46 -31.5t-38 -80.5l-6 -15q-2 -6 -5 -12.5t-5 -12.5l-122 -278v1q-1 -2 -2 -4.5t-2 -4.5l1 1l-6 -13q-9 -21 -22 -49t-24.5 -55.5t-19.5 -52t-8 -37.5
q0 -23 26 -23q14 0 28 22t27 46q7 14 15 27t16 21l1 1q16 16 31.5 25.5t33.5 14t40.5 5.5t53.5 1h68q27 0 48 -1.5t39 -6t33 -13t30 -23.5q14 -14 23.5 -29.5t17.5 -30.5q12 -23 25.5 -41.5t37.5 -18.5q13 0 16.5 7.5t3.5 11.5v1q0 11 -7 32t-17 46.5t-21.5 52t-21.5 49.5
q-1 2 -1 3t-1 3v-1l-10 20v2zM178 302q0 8 4 26.5t12 42t19 49t24.5 46.5t29 34.5t32.5 13.5q18 0 34.5 -13.5t30 -34t24.5 -45t18.5 -47.5t11.5 -41.5t4 -25.5q0 -47 -27 -75.5t-94 -28.5q-58 0 -90.5 23.5t-32.5 75.5zM360 767q-18 0 -36 6v-1q-9 5 -18.5 9t-22.5 8
q-24 13 -51 13h-6q-3 0 -8 -1h-1q-20 -4 -29 -18q-5 0 -6 -1.5t-1 -7.5l6 6q-3 -8 -3 -15q19 3 23 5h-1q10 3 24 6h-1q5 1 10.5 1.5t11.5 0.5q14 0 29 -5v-1h1q2 -2 8 -2q5 -4 11 -5q7 -4 11 -5.5t7 -2.5v1q11 -6 23 -10.5t28 -4.5h5q4 0 9 1h1q11 0 21 18h2q5 0 8 3l-4 8
q2 5 3 10t3 11l-14 -14l-6 -1v-5q0 1 -0.5 0.5l-0.5 -0.5v-1q-12 -3 -23 -5v-1h-13zM318 758l5 9l-2 -10zM187 766l1 1v-1h-1z" />
    <glyph glyph-name="Adieresis" unicode="&#xc4;" horiz-adv-x="641" 
d="M323 716q-40 0 -72.5 -18t-46.5 -49l-50 -112.5l-52 -117t-49 -113.5t-41 -100t-28.5 -77.5t-10.5 -45.5q0 -34 26 -59t82 -25q38 0 60.5 9.5t36.5 24.5t23 31.5t19.5 31.5t27 24.5t44.5 9.5h64q23 0 36.5 -9.5t24 -24.5t20.5 -31.5t25 -31.5t37.5 -24.5t58.5 -9.5
q34 0 55.5 8t33.5 21.5t16.5 30t4.5 33.5q0 10 -11 42t-29.5 77.5t-42 100.5t-49 113t-51 114.5t-46.5 104.5q-14 30 -47.5 51t-68.5 21zM495 816q0 22 -8 39.5t-21 29.5t-29 18t-32 6q-19 0 -31 -5.5t-21 -12.5t-16.5 -12.5t-17.5 -5.5q-11 0 -18.5 5.5t-17 11.5t-23 11.5
t-35.5 5.5q-41 0 -62.5 -24.5t-21.5 -61.5q0 -36 21.5 -59.5t62.5 -23.5q22 0 35.5 5.5t23 11.5t17.5 11.5t18 5.5t17.5 -5.5t16.5 -12t21 -12t31 -5.5q16 0 32 5t29 15t21 25t8 34zM241 821q0 -14 -16 -14q-7 0 -10.5 4.5t-3.5 9.5q0 6 3.5 10.5t11.5 4.5q15 0 15 -15z
M421 821q0 -14 -16 -14q-7 0 -10 4.5t-3 9.5q0 6 2.5 10.5t10.5 4.5q16 0 16 -15z" />
    <glyph glyph-name="Aring" unicode="&#xc5;" 
d="M442 523q-17 38 -29.5 70t-26 55.5t-29.5 36.5t-39 13q-21 0 -35.5 -12.5t-27.5 -34t-24.5 -51t-26.5 -62.5l-121 -277q-8 -17 -22 -47.5t-28 -63.5t-24.5 -63.5t-10.5 -47.5q0 -22 10 -30t31 -8q16 0 29 15t25 35.5t22.5 40.5t20.5 31q15 15 29 23t30.5 12t38 5t51.5 1
h68q26 0 46 -1t36.5 -5t30 -12t27.5 -21q16 -17 27.5 -38.5t22.5 -40.5t25.5 -32.5t38.5 -13.5q22 0 28.5 13.5t6.5 20.5v1q0 15 -9.5 42.5t-22 59t-26.5 62t-23 51.5zM208 317q0 11 8 43t22.5 66.5t33.5 61t42 26.5q16 0 30.5 -12.5t26.5 -31.5t21.5 -42t16 -44.5t10 -38
t3.5 -23.5q0 -41 -23.5 -65t-82.5 -24q-51 0 -79.5 19.5t-28.5 64.5zM311 869q-29 0 -45.5 -16t-16.5 -42q0 -11 5.5 -26t14.5 -28.5t20 -22.5t22 -9q10 0 22.5 10t23 24t17.5 29t7 26q0 24 -20.5 39.5t-49.5 15.5zM287 802q0 11 8 19t16 8q9 0 18.5 -8t9.5 -21q0 -9 -9 -17
t-19 -8t-17 7.5t-7 19.5z" />
    <glyph glyph-name="AE" unicode="&#xc6;" horiz-adv-x="1066" 
d="M770 736q-23 0 -47 1.5t-48 1.5q-35 0 -67.5 -6.5t-55.5 -29.5q-5 -5 -18.5 -22.5t-32.5 -42.5t-42 -55.5l-46 -61t-45 -59.5t-39 -51q-10 -13 -33.5 -42.5t-53 -67.5t-61 -80t-57.5 -78.5t-43 -63t-17 -35.5q0 -15 10 -15q18 0 67 56q21 24 39.5 44.5t47.5 35.5t74.5 23
t120.5 8h3q16 0 38.5 -1.5t45.5 -10t42.5 -26.5t30.5 -50q4 -15 7 -33t11 -33.5t25 -26t50 -10.5q62 1 123 1.5t123 0.5q36 0 59.5 5t23.5 25q0 8 -11 12t-28 6t-37.5 2.5t-39.5 0.5q-66 0 -110 4.5t-70.5 19t-37.5 42.5t-11 75q0 63 17 95t42.5 45.5t54 14.5t51.5 2t47 1
t43.5 2t32 7.5t12.5 16.5q0 8 -4 12.5t-16 6.5t-34 2.5t-59 0.5h-25q-58 0 -90.5 15.5t-48.5 38t-19.5 47.5t-3.5 45q0 44 14 71t38.5 41.5t56.5 19t67 4.5q20 0 39 -0.5t36 -0.5q32 0 51.5 4t19.5 19q0 9 -9.5 15t-25 9.5t-36 4.5t-41.5 1q-29 0 -56 -1.5t-44 -1.5z
M527 521q17 0 29 -13t19.5 -34.5t11 -48t3.5 -53.5q0 -39 -10 -64.5t-29 -40.5t-47 -21t-65 -6q-24 0 -40 7.5t-25.5 19t-13.5 25t-4 25.5q0 34 18 70t44 66t55.5 49t53.5 19z" />
    <glyph glyph-name="Ccedilla" unicode="&#xc7;" horiz-adv-x="616" 
d="M371 735q-88 0 -157 -30t-116.5 -82.5t-72.5 -123t-25 -152.5q0 -57 17 -109t47 -95t71.5 -76t91.5 -53q11 -9 19 -15.5t14 -12.5q8 -8 14 -20.5t10.5 -27t7 -29t2.5 -24.5q0 -5 -4 -11.5t-8.5 -15t-8.5 -19.5t-4 -26q0 -28 25.5 -41t67.5 -13q21 0 43.5 8t41 22t31 33.5
t12.5 43.5q0 19 -3.5 29.5t-7 18.5l-7 16t-3.5 23q0 7 6.5 14.5t15.5 15.5t19.5 17.5t18.5 20.5q44 23 64.5 50.5t20.5 47.5q0 33 -20.5 59t-63.5 26q-21 0 -40 -8t-38 -17t-39 -17t-42 -8q-24 0 -56 10.5t-60.5 34.5t-48.5 64t-20 100q0 55 18.5 94t46 63.5t59.5 35.5
t58 11t44.5 -5.5t34.5 -12t30.5 -12t33.5 -5.5q38 0 62 22t24 55q0 24 -16 47t-45.5 40.5t-71.5 28t-93 10.5z" />
    <glyph glyph-name="Egrave" unicode="&#xc8;" horiz-adv-x="516" 
d="M362 719h-198q-29 0 -54.5 -5t-44.5 -18t-30 -37t-11 -61v-467q0 -37 7.5 -62t24.5 -40.5t45 -22t69 -6.5h229q15 0 36.5 3t41.5 12t34.5 25t14.5 42q0 48 -38 65.5t-122 17.5h-66q-51 0 -71 14t-20 45t17 45t66 14h57q31 0 57.5 3.5t45 13.5t29 26t10.5 42
q0 23 -7.5 38.5t-25.5 25.5t-48 14t-75 4h-48q-13 0 -26.5 2t-24 8t-17.5 16.5t-7 27.5q0 24 24 35.5t60 11.5h52q37 0 67.5 3t51.5 12.5t32.5 26t11.5 43.5q0 28 -14.5 44.5t-37 25t-48.5 11t-49 2.5zM383 773q0 5 -8 19.5t-18.5 30.5t-21.5 31t-17 22q-11 13 -23 20.5
t-32 7.5q-8 0 -20.5 0.5t-26 1.5t-26.5 1.5t-22 0.5q-23 0 -41.5 -9t-18.5 -25q0 -7 14.5 -20.5t34.5 -29.5t40.5 -32t33.5 -29q17 -17 76 -17q39 0 57.5 6t18.5 21z" />
    <glyph glyph-name="Eacute" unicode="&#xc9;" horiz-adv-x="549" 
d="M138 719q-27 0 -49 -10.5t-37 -27.5t-23.5 -39.5t-8.5 -47.5v-455q0 -69 28.5 -104.5t94.5 -35.5h281q25 0 47.5 5t39.5 17.5t27.5 33.5t10.5 52q0 37 -14 60.5t-36.5 36.5t-52.5 17.5t-61 4.5h-49q-12 0 -23.5 2.5t-11.5 7.5q3 3 13 5.5t23 4t25 2.5t20 1q27 0 52 4.5
t44 17.5t30.5 35t11.5 57q0 31 -11.5 53t-27.5 36.5t-33 21t-28 6.5q8 7 27 12.5t38.5 17.5t34.5 35t15 66q0 45 -32.5 76.5t-88.5 31.5h-276zM451 897q0 16 -18.5 25t-41.5 9q-9 0 -22 -0.5t-26.5 -1.5t-26.5 -1.5t-20 -0.5q-20 0 -32 -7.5t-23 -19.5q-6 -7 -17 -22
t-21.5 -31.5t-18.5 -30.5t-8 -19q0 -16 18.5 -22t57.5 -6q58 0 76 18q13 12 33.5 28t40.5 32t34.5 29.5t14.5 20.5z" />
    <glyph glyph-name="Ecircumflex" unicode="&#xca;" horiz-adv-x="488" 
d="M448 651q0 14 -19 19.5t-59 5.5h-232q-31 0 -50 -3t-29 -12q-13 -13 -15.5 -39.5t-2.5 -66.5v-451q0 -36 3 -55.5t14 -30.5t34 -13.5t65 -2.5h202q51 0 79 3.5t28 16.5q0 17 -27.5 23t-72.5 6h-113q-30 0 -57 5t-46.5 19.5t-31 40t-11.5 66.5q0 51 10 80t29 43.5t46 18
t60 3.5h83q37 0 64.5 3.5t27.5 18.5q0 17 -24.5 21.5t-67.5 4.5h-75q-29 0 -56 3t-48 15t-34 36t-13 65q0 46 11.5 72t31.5 39.5t48.5 17t63.5 3.5h65q51 0 85 4t34 21zM355 773q-5 1 -12 6t-14 11q-15 18 -36.5 34.5t-40.5 16.5q-16 0 -31.5 -11t-28.5 -25l-13 -13
q-7 -7 -13.5 -12.5t-13.5 -6.5l-1 -15q12 -3 14 -11h16q1 9 7 22.5t17 25.5h-1q11 10 22.5 17.5t25.5 7.5q16 0 29 -10t27 -23v1q2 -3 10 -9q15 -20 15 -28h16q0 4 6 6v16z" />
    <glyph glyph-name="Edieresis" unicode="&#xcb;" horiz-adv-x="503" 
d="M478 666q0 23 -22.5 31.5t-70.5 8.5h-232q-35 0 -56 -4t-33 -15q-16 -16 -19.5 -45t-3.5 -72v-451q0 -38 4.5 -60.5t17.5 -35.5q14 -14 39.5 -17.5t69.5 -3.5h202q59 0 90.5 6.5t31.5 28.5q0 27 -32 35.5t-83 8.5h-113q-27 0 -51 4.5t-41.5 17t-28 35.5t-10.5 59
q0 45 9 71t26 39t41 16.5t54 3.5h83q21 0 40.5 1t34.5 4.5t23.5 11t8.5 20.5q0 27 -28.5 34t-78.5 7h-75q-26 0 -50.5 2.5t-43.5 13t-30.5 31.5t-11.5 57q0 40 10 63.5t28.5 35.5t44.5 15t57 3h65q28 0 52.5 1t42.5 5.5t28.5 12t10.5 21.5zM378 846q-20 0 -29.5 -11
t-9.5 -25q0 -15 10 -27.5t29 -12.5q20 0 31.5 12.5t11.5 27.5q0 14 -10 25t-33 11zM159 846q-20 0 -29.5 -11t-9.5 -25q0 -15 10 -27.5t29 -12.5q20 0 31 12.5t11 27.5q0 14 -10 25t-32 11z" />
    <glyph glyph-name="Igrave" unicode="&#xcc;" horiz-adv-x="227" 
d="M112 723q-44 0 -66 -35t-22 -89v-490q0 -19 5.5 -38.5t16.5 -35t28.5 -25.5t41.5 -10q21 0 37.5 10t27 25.5t16 35t5.5 38.5v493q0 63 -26 92t-64 29zM234 776q0 5 -8 19.5t-18.5 30.5t-21.5 31t-17 22q-11 13 -23 20.5t-32 7.5q-8 0 -20.5 0.5t-26 1.5t-26.5 1.5
t-22 0.5q-23 0 -41.5 -9t-18.5 -25q0 -7 14.5 -20.5t34.5 -29.5t40.5 -32t33.5 -29q17 -17 76 -17q39 0 57.5 6t18.5 21z" />
    <glyph glyph-name="Iacute" unicode="&#xcd;" horiz-adv-x="226" 
d="M136 613q0 11 -1 23.5t-4 23t-9.5 17.5t-16.5 7q-11 0 -17.5 -7t-9.5 -18t-3.5 -23.5t-0.5 -22.5v-528q0 -38 5.5 -61.5t26.5 -23.5q11 0 17 7t9 18.5t3.5 27t0.5 32.5v528zM148 907q0 20 -17 20q-13 0 -22.5 -15.5t-16 -36t-10 -41.5t-3.5 -32q0 -18 2.5 -24.5
t11.5 -6.5q7 0 17 16.5t18 39t14 45.5t6 35z" />
    <glyph glyph-name="Icircumflex" unicode="&#xce;" horiz-adv-x="241" 
d="M166 628q0 13 -1 28.5t-5.5 28t-14 21t-25.5 8.5t-25.5 -8.5t-14 -21.5t-5.5 -28t-1 -28v-528q0 -44 8 -72t39 -28q16 0 25 8t13.5 21.5t5.5 31.5t1 39v528zM211 775q7 0 7 9t-10.5 26.5t-27 35t-36 30.5t-38.5 13q-20 0 -38 -13.5t-32.5 -31t-23 -35.5t-8.5 -27
q0 -7 4 -7q15 0 27.5 10t23.5 21.5t22.5 21.5t24.5 10q12 0 24.5 -10t25.5 -21.5t26.5 -21.5t28.5 -10z" />
    <glyph glyph-name="Idieresis" unicode="&#xcf;" horiz-adv-x="264" 
d="M212 651q0 17 -2 36.5t-8.5 35.5t-20.5 26.5t-38 10.5t-38 -11t-21 -27.5t-8.5 -35.5t-1.5 -35v-528q0 -27 2.5 -50t10 -39t21 -25t36.5 -9q24 0 37.5 9.5t20 26.5t8.5 39t2 48v528zM206 904q-32 0 -47 -18.5t-15 -40.5q0 -24 16 -43.5t46 -19.5q31 0 48.5 19.5
t17.5 43.5q0 22 -15.5 40.5t-50.5 18.5zM78 905q-32 0 -47 -18.5t-15 -40.5q0 -24 16 -43.5t46 -19.5q32 0 48.5 19.5t16.5 43.5q0 22 -15.5 40.5t-49.5 18.5z" />
    <glyph glyph-name="Eth" unicode="&#xd0;" horiz-adv-x="733" 
d="M202 718q-33 0 -55 -13t-35 -35.5t-18 -53.5t-5 -66v-110q-17 0 -33.5 -5.5t-30 -15.5t-21.5 -24.5t-8 -32.5t8.5 -32.5t21.5 -24.5t29.5 -15.5t33.5 -5.5v-130q0 -76 26 -115.5t94 -39.5h153q69 0 139 20.5t127 63.5t93 110.5t36 161.5q0 70 -18 124t-48.5 94.5t-70 68
t-83 44.5t-87.5 24.5t-84 7.5h-164zM379 440h-57q2 23 14 38t39 15q28 0 53.5 -10t45 -28t31.5 -43t12 -55t-11.5 -54.5t-31 -42t-46 -27t-55.5 -9.5q-24 0 -37 13.5t-14 46.5h57q36 0 63 21.5t27 55.5q0 19 -8.5 34t-21.5 25t-29 15t-31 5z" />
    <glyph glyph-name="Ntilde" unicode="&#xd1;" horiz-adv-x="742" 
d="M479 347l-176 274q-30 47 -49.5 72.5t-36.5 37.5q-21 16 -39.5 18.5t-44.5 2.5q-36 0 -55.5 -14t-28.5 -36.5t-10.5 -50.5t-1.5 -55v-485q0 -47 17 -77t51 -30q22 0 35.5 12t21 29t10.5 37t3 36v262q0 59 7 83t19 24q15 0 34 -19.5t40 -51.5l206 -323q19 -30 35 -49.5
t32.5 -31t34.5 -16.5t41 -5q29 0 48 9.5t30 25.5t15.5 36.5t4.5 43.5v489q0 31 -3.5 57t-11.5 45t-21.5 30t-33.5 11t-33 -9.5t-21 -25t-11.5 -35.5t-3.5 -41l1 -170q0 -98 -4.5 -140t-22.5 -42t-36.5 19t-41.5 54v-1zM472 858h-6q-13 0 -25.5 5t-25.5 10q-17 8 -35 14
t-42 6h-11q-5 0 -10 -1h1q-38 -5 -52 -25t-14 -40q0 -2 0.5 -4.5t0.5 -4.5q4 -21 13.5 -29t26.5 -8q2 0 5.5 0.5t5.5 0.5q5 1 9 2t11 3q4 2 8 2.5t8 1.5q5 1 10 1.5t7 0.5q15 0 26.5 -5t22.5 -10q15 -8 31 -14t38 -6h10q6 0 11 1h-1q23 3 42.5 21.5t19.5 44.5v8
q-5 21 -14.5 29t-24.5 8h-5q-5 -2 -11 -3.5t-11 -3.5q-3 -2 -7 -2.5t-9 -1.5z" />
    <glyph glyph-name="Ograve" unicode="&#xd2;" horiz-adv-x="774" 
d="M769 346q0 103 -31.5 176.5t-84 120.5t-122 69t-145.5 22q-89 0 -158 -30t-116 -82.5t-71.5 -123t-24.5 -152.5q0 -73 26 -139t74 -116t116.5 -79.5t153.5 -29.5q82 0 152 26t121.5 73.5t80.5 114.5t29 150zM116 346q0 75 23 132.5t60.5 96.5t86.5 59t100 20
q60 0 112 -20.5t90 -60t60 -97t22 -130.5q0 -57 -21 -108.5t-58.5 -90.5t-89.5 -62t-115 -23q-65 0 -115 26t-84.5 67.5t-52.5 92t-18 98.5zM345 953q0 -13 7.5 -38.5t18 -50.5t23 -43.5t21.5 -18.5q17 0 23 10t6 36q0 12 -4.5 35.5t-12.5 46.5t-21 40.5t-29 17.5
q-32 0 -32 -35z" />
    <glyph glyph-name="Oacute" unicode="&#xd3;" horiz-adv-x="716" 
d="M362 736q-83 0 -154 -27t-122.5 -76.5t-80.5 -120t-29 -156.5q0 -83 30 -151.5t82.5 -117.5t123.5 -76t153 -27q81 0 150 28t119 77.5t78.5 118.5t28.5 152q0 94 -33 164.5t-86.5 117.5t-121.5 70.5t-138 23.5zM358 511q33 0 59.5 -11.5t44.5 -32t28 -48.5t10 -61
t-11 -60.5t-29.5 -47t-44 -30t-55.5 -10.5q-29 0 -55 10.5t-45.5 30t-30.5 48t-11 64.5q0 32 10 59t28.5 47t44.5 31t57 11zM501 914q0 16 -18.5 25t-41.5 9q-9 0 -22 -0.5t-26.5 -1.5t-26.5 -1.5t-20 -0.5q-20 0 -32 -7.5t-23 -19.5q-6 -7 -17 -22t-21.5 -31.5t-18.5 -30.5
t-8 -19q0 -16 18.5 -22t57.5 -6q58 0 76 18q13 12 33.5 28t40.5 32t34.5 29.5t14.5 20.5z" />
    <glyph glyph-name="Ocircumflex" unicode="&#xd4;" horiz-adv-x="797" 
d="M815 369q0 109 -33 186.5t-89 127.5t-129.5 73.5t-154.5 23.5q-95 0 -168 -31.5t-123 -87t-76 -130.5t-26 -162q0 -78 27.5 -148t79 -123t124 -84.5t162.5 -31.5q87 0 161 27.5t128.5 78t85.5 122t31 159.5zM162 369q0 69 21 122t55.5 89.5t79 55t91.5 18.5
q55 0 102.5 -19t83 -56t55.5 -90t20 -120q0 -53 -19 -100.5t-53.5 -83t-82.5 -56.5t-106 -21q-59 0 -105 24t-77.5 62t-48 84t-16.5 91zM517 796q16 0 23 9t7 23q0 10 -12.5 31.5t-32.5 43t-44 37.5t-46 16q-24 0 -46.5 -16t-40 -38t-28 -43.5t-10.5 -32.5q0 -10 8 -20
t19 -10q23 0 38.5 13t29.5 27q8 8 16.5 15.5t13.5 7.5t13 -7t18 -16q16 -14 33.5 -27t40.5 -13z" />
    <glyph glyph-name="Otilde" unicode="&#xd5;" horiz-adv-x="759" 
d="M739 331q0 99 -30 169.5t-81 116t-117.5 66.5t-139.5 21q-85 0 -151 -29t-111.5 -79t-69 -118.5t-23.5 -146.5q0 -70 25 -133.5t71 -111.5t112 -76t147 -28q79 0 146 24.5t116.5 70.5t77.5 110t28 144zM86 331q0 78 24 138.5t64 101.5t91.5 62t105.5 21q63 0 117.5 -21.5
t95 -63t63.5 -101.5t23 -137q0 -60 -22 -114.5t-61.5 -95.5t-94.5 -65t-121 -24q-69 0 -122 27.5t-89 71t-55 96.5t-19 104zM438 826q-18 0 -36 6v-1q-9 5 -18.5 9t-22.5 8q-24 13 -51 13h-6q-3 0 -8 -1h-1q-20 -4 -29 -18q-5 0 -6 -1.5t-1 -7.5l6 6q-3 -8 -3 -15q19 3 23 5
h-1q10 3 24 6h-1q5 1 10.5 1.5t11.5 0.5q14 0 29 -5v-1h1q2 -2 8 -2q5 -4 11 -5q7 -4 11 -5.5t7 -2.5v1q11 -6 23 -10.5t28 -4.5h5q4 0 9 1h1q11 0 21 18h2q5 0 8 3l-4 8q2 5 3 10t3 11l-14 -14l-6 -1v-5q0 1 -0.5 0.5l-0.5 -0.5v-1q-12 -3 -23 -5v-1h-13zM396 817l5 9
l-2 -10zM265 825l1 1v-1h-1z" />
    <glyph glyph-name="Odieresis" unicode="&#xd6;" horiz-adv-x="716" 
d="M362 736q-83 0 -154 -27t-122.5 -76.5t-80.5 -120t-29 -156.5q0 -83 30 -151.5t82.5 -117.5t123.5 -76t153 -27q81 0 150 28t119 77.5t78.5 118.5t28.5 152q0 94 -33 164.5t-86.5 117.5t-121.5 70.5t-138 23.5zM358 511q33 0 59.5 -11.5t44.5 -32t28 -48.5t10 -61
t-11 -60.5t-29.5 -47t-44 -30t-55.5 -10.5q-29 0 -55 10.5t-45.5 30t-30.5 48t-11 64.5q0 32 10 59t28.5 47t44.5 31t57 11zM538 858q0 22 -8 39.5t-21 29.5t-29 18t-32 6q-19 0 -31 -5.5t-21 -12.5t-16.5 -12.5t-17.5 -5.5q-11 0 -18.5 5.5t-17 11.5t-23 11.5t-35.5 5.5
q-41 0 -62.5 -24.5t-21.5 -61.5q0 -36 21.5 -59.5t62.5 -23.5q22 0 35.5 5.5t23 11.5t17.5 11.5t18 5.5t17.5 -5.5t16.5 -12t21 -12t31 -5.5q16 0 32 5t29 15t21 25t8 34zM284 863q0 -14 -16 -14q-7 0 -10.5 4.5t-3.5 9.5q0 6 3.5 10.5t11.5 4.5q15 0 15 -15zM464 863
q0 -14 -16 -14q-7 0 -10 4.5t-3 9.5q0 6 2.5 10.5t10.5 4.5q16 0 16 -15z" />
    <glyph glyph-name="multiply" unicode="&#xd7;" horiz-adv-x="401" 
d="M380 413q16 17 27.5 32t11.5 33q0 17 -14 31l2 -2q-12 15 -30 15q-16 0 -29.5 -8.5t-30.5 -20.5h1q-20 -14 -45 -28.5t-54 -14.5h-5q-23 2 -41.5 17.5t-33.5 31.5q-16 16 -29.5 27.5t-31.5 11.5q-8 0 -14.5 -2t-14.5 -10l1 2q-16 -13 -16 -35q0 -15 8 -28.5t21 -30.5
q14 -18 26.5 -40t12.5 -48v-6q-2 -22 -17.5 -42t-32.5 -37q-16 -17 -28 -32.5t-12 -33.5q0 -8 2 -14t8 -13q13 -16 32 -16q16 0 32 9.5t34 23.5t38.5 26.5t39.5 12.5h6q26 -2 48 -19.5t40 -34.5q16 -15 30.5 -26t31.5 -11q9 0 14 2.5t11 7.5q17 14 17 36q0 17 -10.5 34
t-23.5 34h1q-13 18 -25 36.5t-12 34.5v3q2 28 19.5 51t34.5 41z" />
    <glyph glyph-name="Oslash" unicode="&#xd8;" horiz-adv-x="774" 
d="M581 715q11 29 11.5 47t-5.5 25q-8 0 -19.5 -14t-23.5 -44l-8 -19q-71 24 -150 24q-89 0 -158 -30t-116 -82.5t-71.5 -123t-24.5 -152.5q0 -54 14.5 -105t42 -94.5t67.5 -78t90 -55.5l-16 -36q-1 -2 -2.5 -8.5t-1.5 -13.5q0 -8 1.5 -15t5.5 -11q8 0 18.5 13.5t18.5 31.5
l11 26q55 -18 121 -18q82 0 152 26t121.5 73.5t80.5 114.5t29 150q0 69 -14.5 124.5t-41 99t-62.5 74.5t-79 51zM116 346q0 75 23 132.5t60.5 96.5t86.5 59t100 20q60 0 115 -22l-237 -541q-36 19 -63.5 48t-46.5 63t-28.5 71t-9.5 73zM670 346q0 -57 -21 -108.5
t-58.5 -90.5t-89.5 -62t-115 -23q-24 0 -45.5 3.5t-41.5 10.5l237 538q61 -37 97.5 -104.5t36.5 -163.5z" />
    <glyph glyph-name="Ugrave" unicode="&#xd9;" horiz-adv-x="659" 
d="M526 718q-59 0 -90 -31t-31 -103v-255q0 -54 -19.5 -83t-54.5 -29q-38 0 -57 26t-19 88v256q0 35 -9.5 60t-25.5 41t-38 23.5t-47 7.5q-56 0 -85.5 -35t-29.5 -91v-282q0 -76 21.5 -136.5t62 -102.5t100 -64.5t134.5 -22.5q77 0 134 27.5t94.5 73.5t55.5 106.5t18 127.5
v256q0 41 -8.5 68t-24 43.5t-36.5 23.5t-45 7zM429 783q0 5 -8 19.5t-18.5 30.5t-21.5 31t-17 22q-11 13 -23 20.5t-32 7.5q-8 0 -20.5 0.5t-26 1.5t-26.5 1.5t-22 0.5q-23 0 -41.5 -9t-18.5 -25q0 -7 14.5 -20.5t34.5 -29.5t40.5 -32t33.5 -29q17 -17 76 -17q39 0 57.5 6
t18.5 21z" />
    <glyph glyph-name="Uacute" unicode="&#xda;" horiz-adv-x="622" 
d="M101 314v251q0 18 -1 38t-4.5 37t-9.5 28t-15 11q-11 0 -17.5 -9.5t-10.5 -25.5t-5 -36.5t-1 -42.5v-279q0 -89 24.5 -146.5t63 -91t86 -46.5t92.5 -13q43 0 91 12.5t88 46t66.5 94t26.5 156.5v267q0 20 -1 40.5t-4.5 36.5t-10 26t-17.5 10q-10 0 -16 -11t-9.5 -27.5
t-4.5 -36.5t-1 -38v-282q0 -60 -15 -104t-42 -73t-65 -43t-84 -14h-2q-59 0 -97.5 20t-62 55t-33 84t-9.5 106zM364 863q0 20 -17 20q-13 0 -22.5 -15.5t-16 -36t-10 -41.5t-3.5 -32q0 -18 2.5 -24.5t11.5 -6.5q7 0 17 16.5t18 39t14 45.5t6 35z" />
    <glyph glyph-name="Ucircumflex" unicode="&#xdb;" horiz-adv-x="637" 
d="M131 329v251q0 21 -2 43.5t-7 41.5t-14 31.5t-22 12.5q-16 0 -25.5 -11t-15 -29t-7 -41t-1.5 -48v-279q0 -94 26 -154.5t67 -95.5t90.5 -48.5t97.5 -13.5q46 0 96.5 13t93 48.5t70 98.5t27.5 164v267q0 23 -1.5 46t-6.5 41t-14.5 29.5t-25.5 11.5q-14 0 -23 -12.5
t-14 -31t-7 -41t-2 -43.5v-282q0 -56 -14 -97t-39 -68t-60.5 -40.5t-77.5 -13.5q-55 0 -91.5 18.5t-58 51.5t-30.5 79t-9 101zM417 735q7 0 7 9t-10.5 26.5t-27 35t-36 30.5t-38.5 13q-20 0 -38 -13.5t-32.5 -31t-23 -35.5t-8.5 -27q0 -7 4 -7q15 0 27.5 10t23.5 21.5
t22.5 21.5t24.5 10q12 0 24.5 -10t25.5 -21.5t26.5 -21.5t28.5 -10z" />
    <glyph glyph-name="Udieresis" unicode="&#xdc;" horiz-adv-x="660" 
d="M177 352v251q0 24 -3 51t-10.5 49.5t-21 37t-33.5 14.5q-23 0 -37.5 -13t-22 -34t-10 -48.5t-2.5 -56.5v-279q0 -101 28 -165.5t72.5 -102.5t98.5 -52.5t105 -14.5q49 0 104 14t100.5 52t75.5 105.5t30 175.5v267q0 27 -2.5 54t-10 48.5t-21.5 35t-37 13.5
q-21 0 -34.5 -14.5t-21 -36.5t-10.5 -49t-3 -51v-282q0 -50 -12.5 -87t-34.5 -61t-53 -36t-68 -12h-2q-47 0 -78.5 17t-50.5 47t-27 71.5t-8 91.5zM455 864q-32 0 -47 -18.5t-15 -40.5q0 -24 16 -43.5t46 -19.5q31 0 48.5 19.5t17.5 43.5q0 22 -15.5 40.5t-50.5 18.5z
M236 864q-32 0 -47 -18.5t-15 -40.5q0 -24 16 -43.5t46 -19.5q32 0 48.5 19.5t16.5 43.5q0 22 -15.5 40.5t-49.5 18.5z" />
    <glyph glyph-name="Yacute" unicode="&#xdd;" horiz-adv-x="513" 
d="M255 434q-21 0 -38 9t-32 24t-27.5 35t-24.5 42l-24 41v1q-20 36 -43 63t-52 27q-11 0 -14.5 -8t-3.5 -17q0 -14 13.5 -38t35.5 -55h-1l83 -120q37 -54 63.5 -111t26.5 -108v-160q0 -25 8.5 -40.5t22.5 -15.5q16 0 24 18t8 41v165q0 23 7.5 49t20 54t29.5 56.5t36 55.5
l86 126h-1q20 28 32.5 50.5t12.5 35.5q0 12 -5.5 15t-10.5 3q-23 0 -45 -24.5t-42 -57.5l-27 -46q-13 -22 -26.5 -42t-27.5 -35t-30 -24t-34 -9zM307 839q0 20 -17 20q-13 0 -22.5 -15.5t-16 -36t-10 -41.5t-3.5 -32q0 -18 2.5 -24.5t11.5 -6.5q7 0 17 16.5t18 39t14 45.5
t6 35z" />
    <glyph glyph-name="Thorn" unicode="&#xde;" horiz-adv-x="514" 
d="M100 619q0 10 -1 23t-4 24.5t-9 19.5t-15 8q-8 0 -13.5 -8t-8.5 -19.5t-4.5 -24.5t-1.5 -23l-1 -531q0 -28 1.5 -44t4.5 -24.5t8.5 -11t14.5 -2.5q10 0 16.5 8t9.5 20t4 27t1 30q0 47 13 62t47 15q7 0 14.5 -0.5t17.5 -1.5h5q4 0 7 -0.5t7 -0.5q12 -1 26 -1.5t31 -0.5
q46 0 87.5 10t72.5 31.5t49 56.5t18 86v2q0 60 -26 96t-67 55t-92 25t-101 6q-5 0 -9 -0.5t-8 -0.5h-15q-3 0 -6 -0.5t-6 -0.5h-10q-26 0 -40.5 8t-16.5 36v46zM104 352q0 44 13 71t33 41.5t43.5 19t44.5 4.5t52.5 -5.5t61 -21t50 -43t20.5 -70.5q0 -42 -17.5 -70.5
t-44.5 -45.5t-59.5 -24t-63.5 -7q-30 0 -55 8t-42 26t-26.5 47t-9.5 70z" />
    <glyph glyph-name="agrave" unicode="&#xe0;" horiz-adv-x="479" 
d="M242 499q-25 -1 -56.5 -8.5t-49.5 -18.5q-11 -6 -14.5 -11.5t-3.5 -10.5t1.5 -8t1.5 -5q0 -1 -0.5 -1.5l-0.5 -0.5q27 1 53.5 3.5t49.5 2.5q38 0 66.5 -11.5t43.5 -47.5q3 -8 5.5 -16.5t2.5 -16.5q0 -14 -8 -26q-12 -20 -31.5 -28.5t-43 -11.5t-48.5 -4t-47 -4
q-11 -2 -26.5 -7t-31.5 -12t-29 -15t-20 -14q-6 -5 -15 -18t-12 -19q-2 -7 -6 -20.5t-4 -17.5q-1 -5 -1.5 -9.5t-0.5 -9.5q0 -33 13 -56.5t34.5 -39t49.5 -23t58 -7.5q40 0 76 12q0 2 -0.5 6.5t-0.5 9.5v5q-17 6 -39.5 11.5t-39.5 15.5q-16 9 -30 30t-14 50v8t1 8
q3 16 16 30.5t31.5 26t41 18.5t44.5 7q5 0 11 -0.5t11 -1.5q29 -6 46.5 -30.5t17.5 -56.5q0 -22 -11 -46q-4 -8 -16.5 -19t-15.5 -19q0 -1 -0.5 -2t-0.5 -3q0 -4 1 -8t1 -8t-1 -5q14 -5 27 -8.5t32 -7.5q10 -2 19.5 -5.5t20.5 -3.5q9 0 18 3q10 4 16.5 21t10.5 41.5t5.5 54
t1.5 59.5q0 45 -2.5 84.5t-4.5 59.5t-11.5 45t-20.5 40q-11 16 -30 29t-42 22t-47.5 14t-46.5 5h-5zM185 693q0 -13 7.5 -38.5t18 -50.5t23 -43.5t21.5 -18.5q17 0 23 10t6 36q0 12 -4.5 35.5t-12.5 46.5t-21 40.5t-29 17.5q-32 0 -32 -35z" />
    <glyph glyph-name="aacute" unicode="&#xe1;" horiz-adv-x="471" 
d="M239 507q-43 0 -77 -9t-58 -23.5t-37 -32t-13 -34.5t8 -29t18 -21t18 -16.5t8 -14.5q0 -10 -6 -16t-16 -14l-25 -22q-10 -8 -21 -19t-20 -26.5t-14.5 -36t-5.5 -47.5q0 -36 14.5 -65.5t39 -50.5t56.5 -33t66 -12q18 0 32.5 4t28.5 8.5t29 8.5t34 4q8 0 21 -3t24 -3h24
q39 0 62 27.5t23 80.5v191q0 54 -19.5 92.5t-50 63.5t-68.5 36.5t-75 11.5zM430 686q0 16 -18.5 25t-41.5 9q-9 0 -22 -0.5t-26.5 -1.5t-26.5 -1.5t-20 -0.5q-20 0 -32 -7.5t-23 -19.5q-6 -7 -17 -22t-21.5 -31.5t-18.5 -30.5t-8 -19q0 -16 18.5 -22t57.5 -6q58 0 76 18
q13 12 33.5 28t40.5 32t34.5 29.5t14.5 20.5zM236 204q12 0 22 -9t10 -20t-11 -21.5t-28 -10.5q-12 0 -23.5 8.5t-11.5 19.5q0 9 12 21t30 12zM237 346q0 -7 -11.5 -13.5t-38.5 -6.5q-14 0 -24 3.5t-10 8.5t17.5 13.5t37.5 8.5q29 0 29 -14z" />
    <glyph glyph-name="acircumflex" unicode="&#xe2;" horiz-adv-x="474" 
d="M184 446q6 2 7 2q4 1 15 1q31 0 65.5 -13t56.5 -37l3 -3v1q8 -10 14.5 -21.5t6.5 -31.5v-8q0 -5 -6 -13.5t-11 -11.5l-34 34v-76q-8 -7 -20 -12q-20 5 -40 5q-26 0 -53 -10q-6 -2 -12 -4.5t-11 -4.5h-7q-23 -2 -35 -6q-9 -3 -20.5 -8.5t-22.5 -13t-20 -15.5t-14 -16l1 2
q-17 -28 -17 -57q0 -21 7 -40.5t18.5 -35.5t26.5 -27.5t30 -16.5q15 -4 37 -4q15 0 28.5 2t25.5 4q3 -1 7 -1l3 3h1q1 0 1.5 0.5t1.5 0.5l1 1h8v28l-4 -4q-4 2 -6 2q-8 0 -12 -14h-1q-21 3 -34.5 10t-33.5 27l-1 1v-1q-15 17 -21.5 31.5t-6.5 30.5t5 32t13 33l3 1l6 -1l5 8
l30 19h-15q4 2 7.5 3.5t5.5 3.5q1 0 0.5 -1t0.5 -1t6 5q3 0 6 0.5t5 0.5h9t8 1q22 1 42 2.5t39 7.5q29 -8 50 -26.5t25 -45.5q1 -5 1 -16q0 -29 -10.5 -50.5t-21.5 -37.5l1 2q-1 -1 -2.5 -3.5t-2.5 -4.5l1 2q-2 -2 -4 -6l-14 -14q4 -4 5 -4q0 -7 1 -10.5t9 -3.5q7 0 19 12h4
q0 -2 11 -2q-1 0 -1.5 0.5l-0.5 0.5q-5 0 -8 1h-1q0 2 9 11l5 1v-15l6 -1h-1q17 -5 34 -5q19 0 25 10q7 11 9.5 46.5t2.5 83.5q0 31 -1 62.5t-3 58.5t-4.5 47.5t-5.5 29.5v1q-5 16 -19 36.5t-26 31.5v2q-22 17 -58.5 25.5t-76.5 8.5q-22 0 -44 -3q-2 0 -8 -2h-5l-2 -1h-4
l-3 -3l-12 -4l-12 -4q-2 3 -5.5 6.5t-8.5 9.5v-24l-1 -8q1 0 1 -4h2v-3l5 3h9v4h5v1h7q0 1 -4 1l24 8l-1 1h2zM192 618l-14 -14q-7 -7 -13.5 -12.5t-13.5 -6.5l-1 -15q12 -3 14 -11h16q1 9 7 22.5t17 25.5h-1q11 10 22.5 17.5t25.5 7.5q16 0 29 -10t27 -23v1q2 -3 10 -9
q13 -18 15 -29l16 1q0 4 6 6v16q-5 1 -12 6t-14 11q-15 18 -36.5 34.5t-40.5 16.5q-16 0 -31 -10.5t-28 -24.5zM182 448l-1 2l1 -1v-1l3 -1l-1 -1zM325 53v1l0.5 -0.5t1.5 -0.5v-1q-2 0 -2 1z" />
    <glyph glyph-name="atilde" unicode="&#xe3;" horiz-adv-x="521" 
d="M251 541q-27 -2 -59 -15t-57 -27v-52q4 0 4 9q2 -4 4.5 -8t10.5 -11q4 0 12.5 -0.5t12.5 -0.5h16h11t10 1h-2q5 1 11 1.5t12 1.5q12 2 24 3t23 1q18 0 36 -6l-1 1q6 -3 13 -8t14 -12t12 -14t6 -13v-3q0 -5 -2 -8.5t-4 -7.5q-1 -2 -1.5 -2.5t-1.5 -2.5q-7 -15 -18.5 -23
t-26 -12t-31 -5.5t-33.5 -2.5q-22 -2 -44.5 -4t-46.5 -11v1q-9 -3 -24 -12t-29.5 -20t-27 -22.5t-16.5 -20.5v1q-10 -17 -14 -35t-4 -36q0 -25 7.5 -48.5t20.5 -43t30 -34.5t36 -22h-1q31 -12 66 -12q27 0 58 6.5t57 14.5v21q0 2 -0.5 5.5t-0.5 6.5q5 -2 12 -5t26 -12
q11 -5 24 -10t24 -7q6 -1 13 -1.5t17 -0.5q23 0 43.5 8t31.5 29q7 14 10.5 56.5t3.5 92.5q0 29 -1 58.5t-2.5 55.5t-4 46.5t-5.5 31.5q-4 13 -11.5 29t-17.5 31t-21.5 28t-22.5 21q-23 16 -61 24t-79 8h-22q-10 0 -20 -2h1zM377 683h-6q-13 0 -25.5 5t-25.5 10q-17 8 -35 14
t-42 6h-11q-5 0 -10 -1h1q-38 -5 -52 -25t-14 -40q0 -2 0.5 -4.5t0.5 -4.5q4 -21 13.5 -29t26.5 -8q2 0 5.5 0.5t5.5 0.5q5 1 9 2t11 3q4 2 8 2.5t8 1.5q5 1 10 1.5t7 0.5q15 0 26.5 -5t22.5 -10q15 -8 31 -14t38 -6h10q6 0 11 1h-1q23 3 42.5 21.5t19.5 44.5v8
q-5 21 -14.5 29t-24.5 8h-5q-5 -2 -11 -3.5t-11 -3.5q-3 -2 -7 -2.5t-9 -1.5zM313 80q-18 8 -26.5 10.5t-14.5 4.5q-15 5 -31 10t-28 13q0 4 -3 13q-4 4 -8 7t-8 5v-2q0 -1 1 -3q-1 2 -1.5 2.5t-1.5 2.5q-4 11 -4 19q0 22 15.5 39.5t28.5 24.5q14 8 29 13t32 5q25 0 48 -17
q12 -8 17 -19t5 -22q0 -16 -5.5 -31.5t-14.5 -29.5v-1h-1l1 1q-6 -3 -12 -8t-8 -10t-2.5 -8.5t-0.5 -6.5v-7t2 -8q-1 1 -9 -5v8zM212 119q-4 2 -5 4q2 -2 3 -2.5t2 -1.5z" />
    <glyph glyph-name="adieresis" unicode="&#xe4;" horiz-adv-x="506" 
d="M225 495q-17 -2 -37.5 -10t-37.5 -16v-32q29 2 52.5 5t43.5 3q21 0 40 -5t40 -19q9 -6 18 -10t14 -12q4 -5 3 -10.5t2 -10.5v1h1q1 0 3 -5t2 -7v-7q0 -19 -8 -31t-19 -20q-14 -12 -30 -17t-34.5 -7.5t-39.5 -3.5t-45 -4q-26 -4 -52.5 -16.5t-43.5 -26.5
q-21 -17 -35 -44.5t-14 -59.5q0 -15 4 -30.5t13 -30.5q16 -26 52 -46t81 -20q26 0 48 7q12 4 16.5 7t6 7t3 9.5t6.5 14.5q-19 4 -33 6.5t-25 7t-21 11t-22 17.5q-13 12 -18 25.5t-5 27.5q0 18 8 34.5t20.5 30.5t29 24t34.5 13q7 2 13 2h14q43 0 72.5 -23.5t29.5 -62.5
q0 -8 -1 -12q-2 -18 -15 -39.5t-22 -35.5l-11 -5q0 -1 -0.5 -2t-0.5 -2q0 -3 1 -6.5t1 -6.5t-1 -4q16 -6 22 -9t21 -7q11 -3 24.5 -5.5t26.5 -2.5q14 0 26 3.5t19 14.5q8 13 11 50t3 83q0 31 -1 63t-3 59.5t-4.5 49t-5.5 31.5q-5 19 -19.5 43.5t-28.5 36.5q-11 9 -28.5 16.5
t-38 13t-43.5 8t-44 2.5q-22 0 -38 -3zM380 718q-20 0 -29.5 -11t-9.5 -25q0 -15 10 -27.5t29 -12.5q20 0 31.5 12.5t11.5 27.5q0 14 -10 25t-33 11zM161 718q-20 0 -29.5 -11t-9.5 -25q0 -15 10 -27.5t29 -12.5q20 0 31 12.5t11 27.5q0 14 -10 25t-32 11z" />
    <glyph glyph-name="aring" unicode="&#xe5;" horiz-adv-x="514" 
d="M260 537q-51 0 -90.5 -10.5t-66.5 -27t-41 -37t-14 -41.5q0 -17 4.5 -29.5t10.5 -22.5t10.5 -18.5t4.5 -16.5q0 -14 -13 -26t-28.5 -29.5t-28.5 -43t-13 -67.5q0 -46 18 -80t46.5 -56t64.5 -32.5t72 -10.5t61 8.5t51 8.5q14 0 32 -3t51 -3q25 0 46.5 9t36.5 24
q8 8 13.5 19.5t9.5 30t5.5 46.5t1.5 69q0 74 -9.5 136t-36 107t-74 70.5t-124.5 25.5zM378 655q0 43 -29 70.5t-72 27.5t-72 -28t-29 -71q0 -21 8 -39t22 -31t32 -20t39 -7q43 0 72 27t29 71zM307 656q0 -12 -8.5 -20t-20.5 -8q-11 0 -20 8t-9 20t8.5 20t20.5 8q11 0 20 -8
t9 -20z" />
    <glyph glyph-name="ae" unicode="&#xe6;" horiz-adv-x="1059" 
d="M528 449q-26 0 -43.5 5t-34 10.5t-36.5 10.5t-51 5q-58 0 -97 -10.5t-39 -29.5q0 -4 4.5 -6.5t9.5 -2.5q14 0 37 8t48 8q17 0 38.5 -5.5t40.5 -18.5t32 -33t13 -50q0 -26 -10.5 -35.5t-20.5 -19.5q-17 -17 -42 -20.5t-50 -3.5h-2q-56 0 -94 -9.5t-61 -27.5t-33.5 -44.5
t-10.5 -61.5q0 -22 12.5 -43.5t32.5 -38t46 -26.5t52 -10q42 0 68.5 8t48 17.5t42.5 17.5t53 8q33 0 54.5 -7.5t43 -17t47 -17t66.5 -7.5q23 0 47.5 4t45 11.5t33.5 17t13 20.5q0 20 -16 20q-11 0 -22 -5t-24 -10.5t-30 -10.5t-39 -5q-26 0 -49.5 8t-41.5 22.5t-28.5 34.5
t-10.5 43q0 42 33.5 66.5t99.5 24.5q31 0 47.5 -3t27.5 -6t22.5 -6t33.5 -3t36 6t22.5 15t12 20t3.5 21q0 35 -15.5 70t-42.5 63t-64.5 45.5t-81.5 17.5q-38 0 -57 -5.5t-33.5 -11.5t-32.5 -11.5t-53 -5.5zM684 440q19 0 40 -5t39 -16.5t29.5 -30.5t11.5 -47q0 -37 -26 -61
t-80 -24q-21 0 -43 4t-39.5 14.5t-29 28t-11.5 44.5q0 38 31 65.5t78 27.5zM355 236q4 0 20 -3t32.5 -12t30 -25.5t13.5 -43.5q0 -14 -6 -32.5t-18.5 -36t-33 -29.5t-48.5 -12q-29 0 -51 8.5t-36.5 21.5t-21.5 29.5t-7 33.5q0 21 13.5 39.5t33 32t41 21.5t38.5 8z" />
    <glyph glyph-name="ccedilla" unicode="&#xe7;" horiz-adv-x="414" 
d="M262 504q-50 0 -96.5 -21t-82 -56t-57 -82.5t-21.5 -99.5q0 -31 8 -62t25 -63q14 -26 33.5 -45t40.5 -37.5t40 -39.5t31 -50q8 -17 21 -40t13 -46q0 -17 -7.5 -31t-7.5 -32q0 -11 13.5 -16.5t27.5 -5.5q16 0 33 4.5t30.5 13.5t22.5 23t9 33q0 15 -4.5 27.5t-10 24t-10 23
t-4.5 24.5q0 17 14 31q7 7 19.5 15.5t24.5 19t21 22t9 25.5q0 16 -8.5 26t-21 15t-26.5 7t-26 2q-14 0 -26 -1t-21 -1q-62 0 -96.5 39t-34.5 99q0 62 35.5 97t95.5 35q20 0 36.5 -3t31.5 -3q23 0 43.5 13.5t20.5 39.5q0 21 -15.5 35.5t-37.5 23.5t-45.5 13t-39.5 4z" />
    <glyph glyph-name="egrave" unicode="&#xe8;" horiz-adv-x="473" 
d="M247 215q20 0 40 2t37 8q6 -1 12 -1t11 -1q1 0 3 -0.5t4 -0.5q21 -3 37 -3q32 0 50 13.5t18 36.5q0 37 -13 68t-35.5 54.5t-52.5 38.5t-64 20q-29 10 -59 10q-28 0 -53.5 -10.5t-45.5 -27.5q-55 -29 -85.5 -81t-30.5 -125v-2q0 -44 19.5 -83t52 -68.5t74.5 -46.5t87 -17
h2q35 0 59.5 5t40 11.5t22.5 13.5t7 12q0 6 -1 9.5t-8 3.5q-12 0 -24 -4t-24 -9q-17 -6 -35 -12t-42 -6q-23 0 -48 7.5t-46 21.5t-35 35t-14 49q0 33 23 54t56 32q38 -7 61 -7zM105 327q0 47 38 80q56 29 129 29q2 0 5 -0.5t5 -0.5h7q38 -12 65.5 -40t27.5 -70
q0 -32 -17 -52t-44 -31q-17 2 -36.5 3.5t-42.5 1.5q-24 0 -58 -7q-33 14 -56 34.5t-23 52.5zM203 662q0 -12 6 -35t14 -45.5t17.5 -39t17.5 -16.5q9 0 11.5 6.5t2.5 24.5q0 11 -3.5 32t-10 41.5t-16 36t-22.5 15.5q-17 0 -17 -20z" />
    <glyph glyph-name="eacute" unicode="&#xe9;" horiz-adv-x="511" 
d="M535 307q0 49 -18.5 89.5t-49.5 70t-71.5 45.5t-85.5 16q-65 0 -118 -18t-91.5 -52.5t-59.5 -86t-21 -117.5v-2q0 -52 23 -98t60.5 -80.5t86.5 -54.5t101 -20h2q45 0 77 9t52 22t29 26.5t9 22.5q0 25 -10.5 38t-36.5 13q-16 0 -31 -5t-30 -11q-14 -5 -29 -10t-35 -5
q-17 0 -35 5t-34 14.5t-26 23.5t-10 32q0 17 9.5 28t24 17.5t31.5 9t32 2.5q32 0 56.5 -3t43.5 -5q13 -2 24 -3t25 -1q51 0 78.5 24t27.5 64zM360 701q0 31 -12.5 44.5t-42.5 13.5q-22 0 -39 -20.5t-28 -47.5t-17 -54t-6 -41q0 -40 10.5 -54.5t41.5 -14.5q12 0 28.5 21.5
t30.5 50.5t24 58t10 44zM181 365q0 15 7.5 29.5t20 25.5t29.5 17.5t35 6.5q19 0 38.5 -5.5t35.5 -16t25.5 -25.5t9.5 -34q0 -30 -28.5 -43t-68.5 -13q-15 0 -33.5 2.5t-34 9t-26 17.5t-10.5 29z" />
    <glyph glyph-name="ecircumflex" unicode="&#xea;" horiz-adv-x="488" 
d="M489 284q0 44 -16.5 80.5t-44.5 62.5t-64.5 40.5t-76.5 14.5q-60 0 -109 -16.5t-84.5 -49t-54.5 -79.5t-19 -108q0 -48 21 -90t56 -73t80 -49t93 -18q39 0 66.5 6.5t44.5 15.5t25 19t8 16q0 14 -5 21t-19 7q-15 0 -28.5 -5t-28.5 -10.5t-31.5 -10.5t-36.5 -5t-42.5 6.5
t-41.5 18.5t-31.5 30.5t-12.5 42.5t11.5 39.5t29.5 24.5t39 12.5t40 3.5q29 0 51 -2t39 -4t31 -4t28 -2q40 0 61.5 18t21.5 47zM135 342q0 20 9.5 38.5t25 32.5t36.5 22.5t44 8.5q24 0 47.5 -7t42 -20.5t30.5 -32.5t12 -44q0 -21 -9.5 -36t-26 -24.5t-38.5 -14t-46 -4.5
q-19 0 -41 3.5t-41 12.5t-32 25t-13 40zM366 541q7 0 7 9t-10.5 26.5t-27 35t-36 30.5t-38.5 13q-20 0 -38 -13.5t-32.5 -31t-23 -35.5t-8.5 -27q0 -7 4 -7q15 0 27.5 10t23.5 21.5t22.5 21.5t24.5 10q12 0 24.5 -10t25.5 -21.5t26.5 -21.5t28.5 -10z" />
    <glyph glyph-name="edieresis" unicode="&#xeb;" horiz-adv-x="501" 
d="M272 502q-50 0 -98 -18.5t-85.5 -52t-60.5 -81t-23 -105.5q0 -73 27.5 -123.5t69 -82t89 -46t86.5 -14.5q36 0 68.5 11t57.5 28t40 37.5t15 40.5q0 12 -3.5 18.5t-7.5 11t-7.5 8t-3.5 10.5q0 13 10 22.5t22.5 22.5t22.5 32t10 51q0 39 -15.5 80t-45 74t-72 54.5
t-96.5 21.5zM437 622q0 22 -8 39.5t-21 29.5t-29 18t-32 6q-20 0 -32 -5.5t-20.5 -12.5t-16.5 -12.5t-18 -5.5t-17.5 5.5t-17 11.5t-23 11.5t-35.5 5.5q-41 0 -62.5 -24.5t-21.5 -61.5q0 -36 21.5 -59.5t62.5 -23.5q22 0 35.5 5.5t23 11.5t17 11.5t18.5 5.5q10 0 17.5 -5.5
t16 -12t20.5 -12t32 -5.5q16 0 32 5t29 15t21 25t8 34zM255 321q19 0 33 -7.5t14 -18.5t-12.5 -16.5t-34.5 -5.5q-13 0 -27 5t-14 18q0 8 8.5 16.5t32.5 8.5zM220 158q14 0 21.5 -4.5t7.5 -9.5q0 -14 -30 -14q-10 0 -19 3t-9 11q0 5 7.5 9.5t21.5 4.5zM183 627
q0 -14 -16 -14q-7 0 -10.5 4.5t-3.5 9.5q0 6 3.5 10.5t11.5 4.5q15 0 15 -15zM363 627q0 -14 -16 -14q-7 0 -10.5 4.5t-3.5 9.5q0 6 3 10.5t11 4.5q16 0 16 -15z" />
    <glyph glyph-name="igrave" unicode="&#xec;" horiz-adv-x="218" 
d="M155 389q0 12 -1.5 27.5t-6.5 29.5t-13.5 23.5t-22.5 9.5q-13 0 -21 -9.5t-12.5 -23.5t-6 -29.5t-1.5 -27.5v-308q0 -10 1.5 -23.5t6 -25.5t12.5 -20.5t21 -8.5t21.5 8t13.5 20t7 25.5t2 24.5v308zM54 683q0 -13 7.5 -38.5t18 -50.5t23 -43.5t21.5 -18.5q17 0 23 10t6 36
q0 12 -4.5 35.5t-12.5 46.5t-21 40.5t-29 17.5q-32 0 -32 -35z" />
    <glyph glyph-name="iacute" unicode="&#xed;" horiz-adv-x="241" 
d="M201 412q0 15 -2.5 34.5t-10 37t-20.5 29.5t-34 12t-33.5 -12t-19 -29.5t-9 -37t-2.5 -34.5v-308q0 -13 2.5 -30.5t9 -33t19 -26.5t33.5 -11q20 0 33 10.5t20.5 26.5t10.5 33t3 31v308zM210 706q0 31 -12.5 44.5t-42.5 13.5q-22 0 -39 -20.5t-28 -47.5t-17 -54t-6 -41
q0 -40 10.5 -54.5t41.5 -14.5q12 0 28.5 21.5t30.5 50.5t24 58t10 44z" />
    <glyph glyph-name="icircumflex" unicode="&#xee;" horiz-adv-x="218" 
d="M155 389q0 12 -1.5 27.5t-6.5 29.5t-13.5 23.5t-22.5 9.5q-13 0 -21 -9.5t-12.5 -23.5t-6 -29.5t-1.5 -27.5v-308q0 -10 1.5 -23.5t6 -25.5t12.5 -20.5t21 -8.5t21.5 8t13.5 20t7 25.5t2 24.5v308zM210 549q7 0 7 9t-10.5 26.5t-27 35t-36 30.5t-38.5 13q-20 0 -38 -13.5
t-32.5 -31t-23 -35.5t-8.5 -27q0 -7 4 -7q15 0 27.5 10t23.5 21.5t22.5 21.5t24.5 10q12 0 24.5 -10t25.5 -21.5t26.5 -21.5t28.5 -10z" />
    <glyph glyph-name="idieresis" unicode="&#xef;" horiz-adv-x="228" 
d="M29 111q0 -51 22 -81.5t63 -30.5q44 0 64 30.5t20 81.5v271q0 27 -5 45t-11.5 30t-14 19t-11.5 12q-11 12 -24 15.5t-26 1t-23 -7.5t-13 -9l-12 -12t-13.5 -18.5t-11 -30t-4.5 -45.5v-271zM292 622q0 22 -8 39.5t-21 29.5t-29 18t-32 6q-20 0 -32 -5.5t-20.5 -12.5
t-16.5 -12.5t-18 -5.5t-17.5 5.5t-17 11.5t-23 11.5t-35.5 5.5q-41 0 -62.5 -24.5t-21.5 -61.5q0 -36 21.5 -59.5t62.5 -23.5q22 0 35.5 5.5t23 11.5t17 11.5t18.5 5.5q10 0 17.5 -5.5t16 -12t20.5 -12t32 -5.5q16 0 32 5t29 15t21 25t8 34zM38 627q0 -14 -16 -14
q-7 0 -10.5 4.5t-3.5 9.5q0 6 3.5 10.5t11.5 4.5q15 0 15 -15zM218 627q0 -14 -16 -14q-7 0 -10.5 4.5t-3.5 9.5q0 6 3 10.5t11 4.5q16 0 16 -15z" />
    <glyph glyph-name="eth" unicode="&#xf0;" horiz-adv-x="557" 
d="M413 625q11 20 11 34t-5.5 23.5t-17.5 18.5q-8 5 -16 7t-16 2q-14 0 -29 -5q-20 23 -41.5 36.5t-44.5 13.5q-30 0 -40.5 -14.5t-10.5 -39.5q0 -20 9.5 -38.5t22.5 -38.5q0 -1 2 -3q-2 -2 -2.5 -3t-1.5 -2q-19 -30 -19 -48q0 -23 27 -41q3 -2 6.5 -3t10.5 -1q8 0 17 3
q-3 -18 -18.5 -25.5t-36.5 -13.5q-26 -8 -55 -20t-57 -40q-12 -12 -24.5 -28t-23 -38t-17.5 -51t-7 -66q0 -54 19 -100t53.5 -80t83.5 -53.5t108 -19.5q62 0 111 18t83.5 51.5t53 80.5t18.5 105q0 40 -9 76.5t-24 69.5t-34 64.5t-39 63.5q-3 5 -5.5 9.5t-5.5 9.5v-1l-47 73
q6 6 10 12zM427 254q0 -27 -10 -51.5t-27.5 -43t-41 -29.5t-50.5 -11t-50 10.5t-40.5 28t-27.5 40.5t-10 49q0 38 14 64t33.5 41.5t41 22.5t36.5 7q29 0 53.5 -12t42 -31t27 -41.5t9.5 -43.5z" />
    <glyph glyph-name="ntilde" unicode="&#xf1;" horiz-adv-x="549" 
d="M512 279q0 61 -14.5 101t-38.5 64t-56 33.5t-67 9.5q-39 0 -59.5 -6t-35 -12.5t-28.5 -12.5t-40 -6q-15 0 -22 2t-14 4.5t-18 4.5t-33 2q-24 0 -35.5 -29.5t-10.5 -70.5v-291q0 -32 12 -51t28 -19q26 0 36.5 23.5t10.5 62.5v155q0 36 9 67t25.5 54.5t40.5 36.5t55 13
q32 0 63 -7t55 -29.5t38.5 -65.5t14.5 -114v-123q0 -73 41 -73q13 0 21.5 9t13 23t6.5 31.5t2 34.5v179zM346 620q-21 -3 -39 3t-35.5 14t-37.5 14t-45 2q-29 -5 -38 -19.5t-7 -28.5q2 -12 8.5 -15t15.5 -1t18 4.5t19 4.5q27 4 45 -2t34 -14t33 -14t43 -2q17 2 31 15.5
t11 33.5q-2 11 -6.5 14t-12.5 2q-8 -2 -17.5 -5.5t-19.5 -5.5z" />
    <glyph glyph-name="ograve" unicode="&#xf2;" horiz-adv-x="529" 
d="M520 238q0 60 -21.5 106.5t-57 78.5t-82 48.5t-96.5 16.5q-49 0 -95 -17t-81.5 -49t-57 -78.5t-21.5 -105.5q0 -57 20.5 -103t55.5 -78t81.5 -49t97.5 -17q59 0 106.5 20.5t81 55t51.5 79t18 92.5zM98 238q0 36 12.5 68t34.5 55.5t52.5 37.5t65.5 14q34 0 64 -12.5
t52.5 -36t36 -55.5t13.5 -71q0 -38 -14 -69t-37 -53.5t-53 -35t-62 -12.5q-38 0 -68.5 15t-52 39t-33 54.5t-11.5 61.5zM209 691q0 -13 7.5 -38.5t18 -50.5t23 -43.5t21.5 -18.5q17 0 23 10t6 36q0 12 -4.5 35.5t-12.5 46.5t-21 40.5t-29 17.5q-32 0 -32 -35z" />
    <glyph glyph-name="oacute" unicode="&#xf3;" horiz-adv-x="514" 
d="M490 223q0 56 -20 100t-54 74t-77.5 45.5t-90.5 15.5q-46 0 -89 -16t-76.5 -46t-54 -74t-20.5 -99q0 -54 19.5 -97t52.5 -73t76.5 -46t91.5 -16q56 0 100.5 19.5t76 51.5t48.5 74t17 87zM68 223q0 39 14 74t38 60.5t57 40.5t71 15q37 0 69.5 -14t57.5 -39t39.5 -60
t14.5 -77q0 -41 -15 -75t-40.5 -58.5t-58 -38t-67.5 -13.5q-41 0 -74.5 16t-57 42.5t-36 59.5t-12.5 67zM279 672q0 20 -17 20q-13 0 -22.5 -15.5t-16 -36t-10 -41.5t-3.5 -32q0 -18 2.5 -24.5t11.5 -6.5q7 0 17 16.5t18 39t14 45.5t6 35z" />
    <glyph glyph-name="ocircumflex" unicode="&#xf4;" horiz-adv-x="540" 
d="M271 509q-45 0 -93 -16.5t-87.5 -49.5t-65 -83t-25.5 -117q0 -59 22.5 -108t60 -84t86.5 -54t103 -19t102.5 20t85 56t58.5 85t22 107q0 57 -22.5 105.5t-59.5 83.5t-86 54.5t-101 19.5zM453 582q0 7 -6.5 19.5t-16 25t-20 24.5t-17.5 19q-5 6 -12 13t-16.5 14
t-21.5 11.5t-28 4.5h-68q-12 0 -22 -1.5t-19 -6t-19 -13t-23 -21.5q-6 -6 -17 -18.5t-21.5 -26.5t-18 -26t-7.5 -17q0 -17 19 -23t54 -6q33 0 46 2t18 7q9 9 17.5 20.5t25.5 11.5q16 0 25 -13t14 -21q2 -5 22 -6t52 -1q23 0 41.5 5.5t18.5 22.5zM268 340q44 0 69 -28.5
t25 -67.5q0 -17 -5.5 -34t-17 -30.5t-29 -22.5t-40.5 -9t-41 9t-30 23.5t-18 31.5t-6 32q0 18 6.5 35t18.5 30.5t29.5 22t38.5 8.5z" />
    <glyph glyph-name="otilde" unicode="&#xf5;" horiz-adv-x="529" 
d="M520 238q0 60 -21.5 106.5t-57 78.5t-82 48.5t-96.5 16.5q-49 0 -95 -17t-81.5 -49t-57 -78.5t-21.5 -105.5q0 -57 20.5 -103t55.5 -78t81.5 -49t97.5 -17q59 0 106.5 20.5t81 55t51.5 79t18 92.5zM98 238q0 36 12.5 68t34.5 55.5t52.5 37.5t65.5 14q34 0 64 -12.5
t52.5 -36t36 -55.5t13.5 -71q0 -38 -14 -69t-37 -53.5t-53 -35t-62 -12.5q-38 0 -68.5 15t-52 39t-33 54.5t-11.5 61.5zM332 609q-21 -3 -39 3t-35.5 14t-37.5 14t-45 2q-29 -5 -38 -19.5t-7 -28.5q2 -12 8.5 -15t15.5 -1t18 4.5t19 4.5q27 4 45 -2t34 -14t33 -14t43 -2
q17 2 31 15.5t11 33.5q-2 11 -6.5 14t-12.5 2q-8 -2 -17.5 -5.5t-19.5 -5.5z" />
    <glyph glyph-name="odieresis" unicode="&#xf6;" horiz-adv-x="534" 
d="M266 537q-78 0 -132 -27t-87.5 -68.5t-48.5 -89.5t-15 -90q0 -63 23.5 -114t63.5 -86t92 -54t108 -19q49 0 99 18t90.5 53.5t66 87t25.5 118.5q0 62 -23 112t-62 85.5t-91 54.5t-109 19zM442 649q0 22 -8 39.5t-21 29.5t-29 18t-32 6q-19 0 -31 -5.5t-21 -12.5
t-16.5 -12.5t-17.5 -5.5q-11 0 -18.5 5.5t-17 11.5t-23 11.5t-35.5 5.5q-41 0 -62.5 -24.5t-21.5 -61.5q0 -36 21.5 -59.5t62.5 -23.5q22 0 35.5 5.5t23 11.5t17.5 11.5t18 5.5t17.5 -5.5t16.5 -12t21 -12t31 -5.5q16 0 32 5t29 15t21 25t8 34zM264 316q15 0 25 -5t16 -13.5
t8 -18.5t2 -19q0 -18 -14.5 -33.5t-34.5 -15.5q-16 0 -33 15.5t-17 38.5q0 17 14 34t34 17zM188 654q0 -14 -16 -14q-7 0 -10.5 4.5t-3.5 9.5q0 6 3.5 10.5t11.5 4.5q15 0 15 -15zM368 654q0 -14 -16 -14q-7 0 -10 4.5t-3 9.5q0 6 2.5 10.5t10.5 4.5q16 0 16 -15z" />
    <glyph glyph-name="oslash" unicode="&#xf8;" horiz-adv-x="552" 
d="M440 517q14 37 14 60q0 24 -20 44q-17 0 -37.5 -17t-35.5 -55l-10 -22q-17 3 -33 5t-32 2q-53 0 -103 -18.5t-89 -54t-62.5 -86t-23.5 -114.5q0 -85 39 -145t101 -93l-17 -43q-3 -5 -5.5 -15.5t-2.5 -21.5t5 -23.5t16 -23.5q17 0 37 18t30 41l17 42q28 -6 58 -6
q64 0 116 22.5t88.5 60t56 86t19.5 101.5q0 85 -37.5 144.5t-97.5 91.5zM144 261q0 31 11 58.5t30 48.5t45 33t56 12q5 0 9 -0.5t9 -1.5l-107 -265q-26 21 -39.5 52t-13.5 63zM429 261q0 -32 -12 -59t-32 -46.5t-46 -30.5t-53 -11h-10l106 260q22 -20 34.5 -49t12.5 -64z
" />
    <glyph glyph-name="ugrave" unicode="&#xf9;" horiz-adv-x="533" 
d="M105 521q-26 0 -45 -21.5t-19 -69.5v-227q0 -112 50 -166t135 -54q38 0 58.5 7t37.5 15q11 5 20.5 9t23.5 4t22 -1.5t16 -3.5q10 -3 21.5 -5t29.5 -2q42 0 56.5 33.5t14.5 96.5v259q0 26 -2 49t-8.5 40t-20 27t-36.5 10q-21 0 -34.5 -11t-21 -27.5t-10 -36t-2.5 -36.5
v-148q0 -27 -5.5 -55t-17.5 -51.5t-30 -38t-43 -14.5q-38 0 -62 13.5t-38 41.5t-19.5 69.5t-5.5 97.5v97q0 48 -16.5 73.5t-48.5 25.5zM197 703q0 -15 10 -44t24 -58t30.5 -50.5t28.5 -21.5q31 0 41.5 14.5t10.5 54.5q0 14 -6 41t-17 54t-28 47.5t-39 20.5
q-30 0 -42.5 -13.5t-12.5 -44.5z" />
    <glyph glyph-name="uacute" unicode="&#xfa;" horiz-adv-x="510" 
d="M82 475q-17 0 -29 -16.5t-12 -51.5v-227q0 -100 43.5 -148.5t118.5 -48.5q30 0 48.5 5.5t32 12t26.5 12t33 5.5q16 0 26 -2t18.5 -4t18.5 -4t26 -2q28 0 38 28t10 79v259q0 21 -1.5 40t-6 33t-13 22t-23.5 8q-14 0 -22.5 -8.5t-13.5 -22t-7 -29t-2 -28.5v-148
q0 -31 -7 -63t-21.5 -58.5t-37 -43.5t-53.5 -17q-45 0 -73.5 15t-45 46t-23 76.5t-6.5 107.5v97q0 36 -10.5 56t-31.5 20zM307 687q0 35 -32 35q-17 0 -29.5 -17.5t-20.5 -40.5t-12.5 -46.5t-4.5 -35.5q0 -26 6 -36t23 -10q9 0 21.5 18.5t23 43.5t18 50.5t7.5 38.5z" />
    <glyph glyph-name="ucircumflex" unicode="&#xfb;" horiz-adv-x="561" 
d="M426 526q-53 0 -85.5 -31.5t-32.5 -92.5v-145q0 -37 -28 -37q-15 0 -23.5 12.5t-8.5 30.5v136q0 60 -29 93.5t-86 33.5q-30 0 -51.5 -10t-35 -26.5t-20 -38t-6.5 -45.5v-181q0 -60 16 -104.5t44 -73.5t66 -43.5t83 -14.5q11 0 29.5 3.5t37.5 7.5t35.5 7.5t23.5 3.5
q14 0 26 -6t32 -6q37 0 61.5 8.5t39.5 28t21 50t6 74.5v210q0 83 -27.5 119.5t-87.5 36.5zM457 616q0 7 -6.5 19.5t-16 25t-20 24.5t-17.5 19q-5 6 -12 13t-16.5 14t-21.5 11.5t-28 4.5h-68q-12 0 -22 -1.5t-19 -6t-19 -13t-23 -21.5q-6 -6 -17 -18.5t-21.5 -26.5t-18 -26
t-7.5 -17q0 -17 19 -23t54 -6q33 0 46 2t18 7q9 9 17.5 20.5t25.5 11.5q16 0 25 -13t14 -21q2 -5 22 -6t52 -1q23 0 41.5 5.5t18.5 22.5z" />
    <glyph glyph-name="udieresis" unicode="&#xfc;" horiz-adv-x="536" 
d="M115 491q-36 0 -61 -31t-25 -86v-174q0 -64 19 -106.5t48.5 -68t64 -36t64.5 -10.5q22 0 40 3.5t32 8t26.5 8.5t24.5 4q18 0 32 -3q8 -1 16.5 -2t19.5 -1q15 0 31 5.5t29.5 18.5t22 34.5t8.5 53.5v279q0 21 -6 39.5t-17 33t-27 23t-37 8.5t-37 -9.5t-27 -25.5
t-16.5 -35.5t-5.5 -40.5v-118q0 -21 -3 -41t-10.5 -35t-20.5 -24.5t-33 -9.5q-32 0 -49.5 32t-17.5 78v118q0 20 -4.5 40t-14.5 35.5t-26.5 25t-39.5 9.5zM440 622q0 22 -8 39.5t-21 29.5t-29 18t-32 6q-20 0 -32 -5.5t-20.5 -12.5t-16.5 -12.5t-18 -5.5t-17.5 5.5t-17 11.5
t-23 11.5t-35.5 5.5q-41 0 -62.5 -24.5t-21.5 -61.5q0 -36 21.5 -59.5t62.5 -23.5q22 0 35.5 5.5t23 11.5t17 11.5t18.5 5.5q10 0 17.5 -5.5t16 -12t20.5 -12t32 -5.5q16 0 32 5t29 15t21 25t8 34zM186 627q0 -14 -16 -14q-7 0 -10.5 4.5t-3.5 9.5q0 6 3.5 10.5t11.5 4.5
q15 0 15 -15zM366 627q0 -14 -16 -14q-7 0 -10.5 4.5t-3.5 9.5q0 6 3 10.5t11 4.5q16 0 16 -15z" />
    <glyph glyph-name="yacute" unicode="&#xfd;" horiz-adv-x="489" 
d="M413 511q-34 0 -57 -11t-38 -27.5t-24 -35.5t-15.5 -35.5t-12.5 -27.5t-15 -11q-8 0 -14.5 11t-14.5 28t-18.5 36t-26.5 36t-38.5 28t-54.5 11q-28 0 -48.5 -7.5t-33.5 -19.5t-19 -28t-6 -33q0 -18 11 -49.5t27 -70t35.5 -80t35.5 -79.5t27 -69t11 -48q0 -13 -8 -23.5
t-19.5 -18t-25 -11.5t-24.5 -4t-23.5 -8t-23 -21.5t-17.5 -31.5t-7 -38q0 -51 41 -76.5t110 -25.5q43 0 81 17.5t63 42.5q13 13 27 37t27.5 53t26.5 61t24 61t20 53t14 36q11 27 28.5 69.5t34 86t28.5 80.5t12 54q0 45 -27 67t-73 22zM431 715q0 16 -18.5 25t-41.5 9
q-9 0 -22 -0.5t-26.5 -1.5t-26.5 -1.5t-20 -0.5q-20 0 -32 -7.5t-23 -19.5q-6 -7 -17 -22t-21.5 -31.5t-18.5 -30.5t-8 -19q0 -16 18.5 -22t57.5 -6q58 0 76 18q13 12 33.5 28t40.5 32t34.5 29.5t14.5 20.5z" />
    <glyph glyph-name="thorn" unicode="&#xfe;" horiz-adv-x="574" 
d="M340 497q-41 1 -71 -11t-52 -25.5t-38 -22t-29 0.5q-8 5 -10 30t-1 58.5t2 71.5t-0.5 70t-9 53t-23.5 21q-23 0 -39 -17.5t-16 -52.5l-4 -810q0 -13 1 -27t5 -26t12.5 -19.5t23.5 -7.5q14 0 22.5 9t13 23t6 31.5t1.5 34.5v41q0 20 4 39t13 33.5t22.5 23.5t32.5 9
q18 0 32 -4t28 -8.5t30 -8.5t39 -4q46 0 87 18t71.5 50.5t48 78t17.5 101.5q0 64 -20.5 110.5t-53 77t-71 45t-74.5 14.5zM291 425q34 0 65.5 -12t56.5 -34.5t40 -55.5t15 -75q0 -36 -13 -67.5t-36.5 -54.5t-56 -36.5t-71.5 -13.5q-33 0 -61.5 15t-49 39.5t-32.5 56
t-12 64.5t12.5 64t33.5 55.5t49 39.5t60 15z" />
    <glyph glyph-name="ydieresis" unicode="&#xff;" horiz-adv-x="482" 
d="M65 520q-29 0 -40.5 -19.5t-11.5 -42.5q0 -20 9.5 -44t21.5 -53l-1 1q2 -6 5 -12.5t5 -12.5l103 -245q12 -27 16.5 -49.5t4.5 -43.5q0 -17 -5 -31.5t-12 -26.5t-14.5 -20.5t-12.5 -14.5h1q-11 -11 -27 -19t-31 -14q-25 -11 -42.5 -22.5t-17.5 -37.5q0 -21 20 -39.5
t58 -18.5q43 0 74.5 13t56 39.5t45 67t41.5 96.5l151 394q27 70 27 95q0 19 -12 36t-39 17q-21 0 -36.5 -10t-26 -26t-17.5 -34.5t-13 -35.5v1l-30 -85q-11 -32 -24 -54t-32 -22q-17 0 -31.5 22.5t-25.5 50.5l-35 88v-1q-8 21 -17.5 41.5t-21.5 36t-27 25.5t-36 10zM360 666
q-32 0 -47 -18.5t-15 -40.5q0 -24 16 -43.5t46 -19.5q31 0 48.5 19.5t17.5 43.5q0 22 -15.5 40.5t-50.5 18.5zM141 666q-32 0 -47 -18.5t-15 -40.5q0 -24 16 -43.5t46 -19.5q32 0 48.5 19.5t16.5 43.5q0 22 -15.5 40.5t-49.5 18.5z" />
  </font>
</defs>
</svg>
