<?xml version="1.0" standalone="no"?>
<!DOCTYPE svg PUBLIC "-//W3C//DTD SVG 1.1//EN" "http://www.w3.org/Graphics/SVG/1.1/DTD/svg11.dtd" >
<svg>
<metadata>
Created by FontForge 20110222 at Mon Mar  7 03:49:58 2011
 By www-data
(c) 2001, Peter Ramsey &#38; Apostrophic Lab. All rights reserved. For more works by the designers visit www.apostrophiclab.com
</metadata>
<defs>
<font id="Distro" horiz-adv-x="529" >
  <font-face 
    font-family="Distro"
    font-weight="400"
    font-stretch="normal"
    units-per-em="1000"
    panose-1="2 0 6 3 2 0 0 2 0 3"
    ascent="800"
    descent="-200"
    x-height="467"
    cap-height="714"
    bbox="-50 -250 1005 988"
    underline-thickness="24"
    underline-position="-36"
    unicode-range="U+0020-2122"
  />
    <missing-glyph />
    <glyph glyph-name="space" unicode=" " horiz-adv-x="225" 
 />
    <glyph glyph-name="space" unicode="&#xa0;" horiz-adv-x="225" 
 />
    <glyph glyph-name="exclam" unicode="!" horiz-adv-x="246" 
d="M169 630q0 13 -2 28.5t-6.5 28.5t-12.5 22t-21 9q-14 0 -22.5 -9t-12.5 -22.5t-5 -29t-1 -27.5v-301q0 -17 2 -34t6.5 -30.5t12.5 -22.5t20 -9t20.5 9t13 23t6.5 31t2 33v301zM127 0q18 0 31.5 11.5t13.5 29.5q0 19 -13 32t-32 13q-18 0 -30.5 -13.5t-12.5 -31.5
q0 -17 13 -29t30 -12z" />
    <glyph glyph-name="quotedbl" unicode="&#x22;" horiz-adv-x="340" 
d="M83 551q10 0 16 8.5t9.5 21.5t5 29.5t1.5 31.5q0 35 -6.5 57t-23.5 22q-19 0 -25 -22t-6 -57q0 -15 1.5 -31t5 -29.5t9 -22t13.5 -8.5zM244 551q10 0 16 8.5t9.5 21.5t5 29.5t1.5 31.5q0 35 -6.5 57t-23.5 22q-19 0 -25 -22t-6 -57q0 -15 1.5 -31t5 -29.5t9 -22
t13.5 -8.5z" />
    <glyph glyph-name="numbersign" unicode="#" horiz-adv-x="609" 
d="M345 480q-24 0 -46.5 14t-39.5 36t-27.5 49.5t-10.5 54.5q-15 -34 -31 -62.5t-27 -38.5q-18 -18 -37.5 -32.5t-19.5 -32.5q0 -11 9 -22.5t19.5 -25t19.5 -29.5t9 -35q0 -24 -14 -41.5t-30.5 -31.5t-30 -26.5t-13.5 -26.5q0 -9 11 -25t24.5 -35t25 -40t11.5 -39
q7 16 21 39t34 44t45.5 35.5t57.5 14.5q30 0 53 -17t39 -39.5t24 -45.5t8 -34q20 39 35.5 60t25.5 32q3 3 12 9.5t18.5 14.5t16.5 16.5t7 14.5q0 15 -9 27t-20 24.5t-20 27.5t-9 35q0 22 14 40.5t30.5 33.5t30.5 27.5t14 23.5q0 14 -11 27t-24 29t-24 38t-11 55
q-8 -15 -24 -39.5t-37 -47.5t-46 -39.5t-53 -16.5zM205 353q0 22 16.5 42.5t38.5 36t43.5 25t31.5 9.5q19 0 38.5 -10.5t35 -26t25.5 -34.5t10 -36q0 -26 -16.5 -48t-38 -37.5t-43.5 -24t-33 -8.5t-29.5 8t-36 22.5t-30 35t-12.5 46.5z" />
    <glyph glyph-name="dollar" unicode="$" horiz-adv-x="538" 
d="M361 707q-17 7 -28 17t-19 18t-15 14t-17 6q-7 0 -14.5 -7.5t-17 -18.5t-21.5 -22.5t-28 -18.5q-33 -15 -60 -30.5t-46.5 -36t-30.5 -48.5t-11 -69q0 -43 16.5 -71.5t40.5 -47.5t50 -31.5t45 -23.5q16 -9 27.5 -21.5t21.5 -24t19 -20t20 -8.5q13 0 18 1.5t9 3t9.5 3
t19.5 1.5q23 0 39 -8t25.5 -21t13.5 -30t4 -34q0 -18 -7.5 -32t-19.5 -23t-26.5 -14t-27.5 -5q-18 0 -27 3.5t-14.5 8t-10.5 8t-15 3.5q-11 0 -17 -5.5t-12.5 -12t-18 -12t-34.5 -5.5q-18 0 -29 3t-19.5 6t-15 6t-15.5 3q-20 0 -33 -9.5t-13 -26.5q0 -15 12.5 -27
t30.5 -21.5t37.5 -16t33.5 -9.5q25 -5 37.5 -13t19.5 -15.5t14 -13t22 -5.5q10 0 18 6.5t17.5 15.5t22 19t30.5 17q86 31 123 79.5t37 101.5q0 39 -10.5 67t-27 47.5t-36 32.5t-37.5 20.5t-32 12.5t-19 8q-14 9 -24 22.5t-19 26.5t-18 22t-22 9q-7 0 -22.5 -6t-29.5 -6
t-28.5 3t-26.5 12t-19.5 26t-7.5 45q0 18 6.5 29.5t17 19t23 10.5t24.5 3q14 0 23 -4t16 -9t13 -9t15 -4t17.5 7t17.5 16t19 16t23 7q7 0 21.5 -2.5t25.5 -2.5q20 0 32 8t12 31q0 14 -8.5 22t-22.5 13t-31.5 9t-34.5 12z" />
    <glyph glyph-name="percent" unicode="%" horiz-adv-x="893" 
d="M391 536q0 36 -13 68t-35.5 56.5t-53.5 38.5t-67 14q-35 0 -65 -14.5t-52 -39t-34.5 -56.5t-12.5 -67q0 -33 13.5 -61.5t36 -50t52.5 -33.5t62 -12q34 0 64.5 11.5t53.5 32.5t37 49.5t14 63.5zM848 157q0 25 -10.5 54.5t-31.5 55t-51.5 42.5t-70.5 17q-38 0 -68.5 -13
t-53 -35.5t-34.5 -54t-12 -68.5q0 -32 13 -61t35.5 -52t52.5 -36.5t64 -13.5t64.5 12t53 34t36 52.5t13.5 66.5zM571 149q0 52 29 86.5t80 34.5q49 0 81 -31.5t32 -80.5q0 -47 -28.5 -79t-84.5 -32q-25 0 -45 9t-34.5 24t-22 33t-7.5 36zM113 536q0 24 8 46t22.5 38.5
t34.5 26.5t44 10q22 0 42.5 -10t36.5 -26.5t25 -38.5t9 -46q0 -21 -9 -39.5t-24.5 -32.5t-36 -22t-43.5 -8q-22 0 -41.5 8t-34.5 22t-24 32.5t-9 39.5zM603 588l18 32t15 29.5t8 23.5t-2 14q-5 0 -14.5 -10.5t-19 -25t-19 -30t-14.5 -25.5l-263 -467q-3 -6 -12.5 -21
t-18.5 -32.5t-14 -32.5t0 -20q7 0 17 10.5t19.5 24t17 26l10.5 17.5z" />
    <glyph glyph-name="ampersand" unicode="&#x26;" horiz-adv-x="593" 
d="M452 572q0 40 -15 69t-40 47.5t-58 27t-69 8.5q-37 0 -71.5 -9.5t-61.5 -29t-43 -49.5t-16 -71q0 -33 6 -51t13.5 -32.5t14 -31t6.5 -45.5q0 -22 -8.5 -38t-21.5 -29.5t-28.5 -28t-28.5 -34t-21.5 -46t-8.5 -65.5q0 -37 16.5 -70.5t46.5 -59t71.5 -40.5t91.5 -15t81.5 10
t54 22.5t41.5 22.5t43 10q23 0 37 -6t25 -12.5t23 -12.5t32 -6q31 0 31 20q0 14 -8.5 26t-18 26.5t-18 32t-8.5 43.5q0 29 9 51t19.5 38.5t19.5 28.5t9 21q0 12 -6 24.5t-19 12.5q-19 0 -33 -10.5t-27.5 -23.5t-30 -23.5t-40.5 -10.5q-22 0 -39 9.5t-29 24.5t-18.5 33
t-6.5 35q0 31 16 52t35 42t35 46.5t16 66.5zM105 179q0 33 10 56.5t25 38.5t32 22t31 7q24 0 51 -15t50.5 -37.5t38.5 -49t15 -50.5q0 -18 -8.5 -36t-24 -32t-37.5 -22.5t-49 -8.5q-35 0 -60 12t-41.5 31t-24.5 41t-8 43zM173 551q0 23 8 40.5t21.5 29.5t30 18t33.5 6
q26 0 43.5 -7.5t28 -20.5t14.5 -29t4 -33q0 -24 -7.5 -42.5t-20 -31t-28.5 -19t-34 -6.5q-21 0 -38 8t-29.5 21.5t-19 30.5t-6.5 35z" />
    <glyph glyph-name="quotesingle" unicode="'" horiz-adv-x="210" 
d="M138 590v85q0 23 -8.5 34.5t-18.5 11.5q-13 0 -21 -12t-8 -34v-85q0 -17 8 -30t19 -13q14 0 21.5 13.5t7.5 29.5z" />
    <glyph glyph-name="parenleft" unicode="(" horiz-adv-x="310" 
d="M237 690q0 26 -20 26q-13 0 -28 -17.5t-30 -47.5t-29.5 -69t-25.5 -81.5t-17.5 -86t-6.5 -82.5q0 -78 14.5 -153t36 -134t45.5 -95.5t43 -36.5q9 0 12.5 7.5t3.5 18.5q0 16 -15 45.5t-32.5 77t-32.5 116t-15 161.5q0 61 15 120.5t33.5 107.5t33.5 81t15 42z" />
    <glyph glyph-name="parenright" unicode=")" horiz-adv-x="335" 
d="M80 -52q0 -12 6 -19.5t15 -7.5q12 0 27.5 17.5t30.5 47.5t29.5 69t25.5 81.5t17.5 86t6.5 82.5q0 78 -14.5 153t-36 134.5t-45.5 96t-43 36.5q-16 0 -16 -28q0 -15 15 -44.5t32.5 -77t32.5 -115.5t15 -162q0 -61 -15.5 -120.5t-33.5 -107.5t-33.5 -81t-15.5 -41z" />
    <glyph glyph-name="asterisk" unicode="*" horiz-adv-x="413" 
d="M202 657q-8 0 -15.5 -7t-15.5 -16.5l-16 -19t-15 -13.5q-6 -3 -17 -6.5t-21.5 -7.5t-18 -8t-7.5 -10q0 -15 4 -23.5t10 -15.5t12 -15.5t10 -23.5q2 -8 2 -21q0 -12 1 -24t4.5 -20.5t13.5 -8.5q11 0 25 5.5t41 5.5t43.5 -7.5t27.5 -7.5q9 0 13 9.5t5 22.5t1.5 27t3.5 23
q4 11 10 19.5t11.5 16.5t9.5 16t4 18q0 6 -9 11t-21 10l-24 10t-18 11q-7 6 -14 15t-14 16.5t-13.5 13t-12.5 5.5z" />
    <glyph glyph-name="plus" unicode="+" horiz-adv-x="577" 
d="M360 369q-24 24 -31 55t-9.5 58t-7.5 46t-24 19q-15 0 -18.5 -19t-6.5 -46.5t-11 -58t-31 -53.5q-20 -20 -47.5 -24.5t-52.5 -5.5t-42 -4.5t-17 -21.5q0 -19 17.5 -23t43 -6t55 -8.5t52.5 -29.5q19 -20 25 -48.5t8 -55t6.5 -45.5t22.5 -19q16 0 20.5 19t6.5 45.5t7.5 55
t24.5 46.5q22 22 52 29t56 9.5t44.5 6.5t18.5 20q0 19 -18.5 24t-44.5 7t-53.5 6.5t-45.5 21.5z" />
    <glyph glyph-name="comma" unicode="," horiz-adv-x="198" 
d="M75 -88q16 0 30 20.5t23.5 46.5t15 50.5t5.5 33.5q0 41 -30 41q-18 0 -31 -20t-22 -46.5t-13 -53.5t-4 -41t6.5 -22.5t19.5 -8.5z" />
    <glyph glyph-name="hyphen" unicode="-" horiz-adv-x="567" 
d="M134 347q-27 0 -48 -9.5t-21 -26.5t21.5 -24t47.5 -7h318q26 0 48.5 8.5t22.5 22.5q0 18 -22.5 27t-48.5 9h-318z" />
    <glyph glyph-name="period" unicode="." horiz-adv-x="196" 
d="M140 41q0 19 -14 32.5t-31 13.5q-19 0 -31 -14t-12 -32q0 -17 13 -30t30 -13t31 13t14 30z" />
    <glyph glyph-name="slash" unicode="/" horiz-adv-x="294" 
d="M280 625q11 29 11.5 47t-5.5 25q-8 0 -19.5 -14t-23.5 -44l-232 -573q-1 -2 -2.5 -8.5t-1.5 -14.5q0 -7 1.5 -14t5.5 -11q8 0 18.5 13.5t18.5 31.5z" />
    <glyph glyph-name="zero" unicode="0" horiz-adv-x="600" 
d="M563 349q0 78 -13.5 147.5t-44.5 121.5t-81.5 82t-124.5 30q-70 0 -119 -29t-80 -80t-45 -121t-14 -151q0 -95 19 -163t53 -111.5t81.5 -64t104.5 -20.5q56 0 104.5 20t84 63t55.5 111t20 165zM126 349q0 51 7.5 103.5t27 96t53 71t85.5 27.5q51 0 85.5 -27.5t55.5 -70.5
t30 -96t9 -104t-9 -101t-30 -89t-55.5 -63t-85.5 -24q-48 0 -81 22.5t-53.5 60.5t-29.5 88t-9 106z" />
    <glyph glyph-name="one" unicode="1" horiz-adv-x="388" 
d="M293 628q0 38 -15.5 65.5t-45.5 27.5q-18 0 -41 -10t-47.5 -26t-48 -35.5t-42 -38t-29.5 -34t-11 -23.5q0 -11 8 -15.5t21 -4.5q9 0 21 4t25.5 9t27.5 9t26 4q38 0 50 -33t12 -101v-326q0 -17 1.5 -35t6.5 -32.5t13.5 -23.5t23.5 -9q13 0 21.5 9.5t13.5 24.5t7 32.5
t2 33.5v528z" />
    <glyph glyph-name="two" unicode="2" horiz-adv-x="510" 
d="M489 533q0 96 -60 146.5t-161 50.5q-52 0 -89.5 -14t-61.5 -34t-35.5 -41t-11.5 -34q0 -20 8 -29t29 -9t36.5 11.5t33 26t39.5 26t55 11.5q31 0 54 -10.5t38 -27t22.5 -36t7.5 -37.5q0 -27 -13.5 -55.5t-35 -57t-47 -55.5t-49.5 -49.5t-43.5 -39.5t-28.5 -26
q-20 -20 -44 -42t-46 -45.5t-36.5 -48t-14.5 -48.5q0 -18 6.5 -30.5t17 -20.5t24 -11.5t26.5 -3.5h261q38 0 66 6.5t28 29.5q0 20 -26.5 27t-62.5 7h-36q-24 0 -47 1.5t-41 7.5t-29 16.5t-11 28.5q0 28 20.5 56t51.5 57t67 61t67 68t51.5 77.5t20.5 89.5z" />
    <glyph glyph-name="three" unicode="3" horiz-adv-x="488" 
d="M439 562q0 31 -14.5 61t-42 53.5t-66 37.5t-86.5 14q-42 0 -75.5 -8t-57.5 -21.5t-37 -30t-13 -32.5q0 -14 7.5 -24.5t29.5 -10.5q23 0 38 8t29.5 17.5t32.5 17.5t48 8q23 0 44.5 -8t37.5 -23t26 -36t10 -47q0 -36 -11 -57t-27 -33t-35 -19t-35 -13t-27 -15.5t-11 -26.5
q0 -16 12 -24.5t30.5 -15t39.5 -14.5t39.5 -22t30.5 -37.5t12 -61.5q0 -21 -8 -44t-24.5 -42t-42 -31.5t-59.5 -12.5q-37 0 -59.5 10t-38.5 22.5t-31 22.5t-37 10q-17 0 -27.5 -8t-10.5 -31q0 -18 15.5 -36.5t42.5 -33.5t63.5 -24.5t79.5 -9.5t84 14t72.5 39t50.5 60.5
t19 78.5q0 47 -12 73.5t-27 44.5t-27 34.5t-12 43.5q0 28 9.5 46t20.5 36t20.5 41t9.5 60z" />
    <glyph glyph-name="four" unicode="4" horiz-adv-x="540" 
d="M425 606q0 56 -10.5 82.5t-50.5 26.5q-35 0 -55.5 -16t-39.5 -47l-198 -320q-5 -9 -13.5 -19.5t-16 -24t-13 -30.5t-5.5 -38q0 -19 9 -29.5t24.5 -16t37.5 -6.5t48 -1h59q39 0 63.5 -8.5t45.5 -29.5q15 -15 21 -36t10.5 -40.5t12.5 -33t28 -13.5q19 0 27.5 14t13.5 33
t9.5 39t16.5 31q9 9 21.5 19t23.5 20t18.5 20.5t7.5 21.5q0 15 -7 24t-17.5 16t-23 15.5t-23 23.5t-17.5 39t-7 63v221zM157 308q0 23 14 55t33.5 60.5t41 48.5t35.5 20q33 0 45 -32t12 -88q0 -25 -4.5 -47.5t-15 -40t-29 -27.5t-46.5 -10q-45 0 -65.5 19t-20.5 42z" />
    <glyph glyph-name="five" unicode="5" horiz-adv-x="494" 
d="M418 680q0 10 -10 17t-26.5 11t-38 6t-43.5 2h-81q-59 0 -91.5 -3.5t-49.5 -20.5q-14 -14 -18 -39.5t-4 -68.5v-124q0 -26 4.5 -42t13.5 -24.5t22 -11.5t29 -3h55q103 0 151.5 -45.5t48.5 -126.5q0 -26 -10.5 -50.5t-30.5 -43.5t-48 -31t-62 -12q-29 0 -49.5 8.5t-37 19
t-31.5 19.5t-33 9q-20 0 -30 -7.5t-10 -30.5q0 -11 11.5 -28.5t34 -33.5t56.5 -27.5t80 -11.5q62 0 108.5 19.5t78 53t47.5 79t16 96.5q0 34 -13 73t-40 71.5t-70 54t-103 21.5q-13 0 -29.5 4.5t-31 16t-24.5 31t-10 49.5q0 10 4 26t18.5 30t43 24.5t78.5 10.5h19
q58 0 82 6.5t24 26.5z" />
    <glyph glyph-name="six" unicode="6" horiz-adv-x="534" 
d="M353 678q0 14 -5.5 22.5t-22.5 8.5q-26 0 -51.5 -24t-47.5 -59l-77 -123q-21 -33 -41 -65t-36 -66t-26 -71t-10 -78q0 -53 16.5 -96t48 -73t76.5 -46.5t102 -16.5q54 0 98.5 17.5t76 48.5t49 73t17.5 91q0 34 -6 60.5t-16 46.5t-21.5 34.5t-21.5 25.5q-29 28 -59.5 39
t-56.5 19t-42.5 21t-16.5 45q0 26 11.5 48.5t25 43t25 39t11.5 35.5zM129 231q0 25 11.5 51.5t31.5 48.5t48.5 36.5t63.5 14.5q18 0 43.5 -8t48.5 -26.5t39.5 -48.5t16.5 -75q0 -30 -12 -57.5t-32 -48.5t-48 -33t-59 -12q-32 0 -59.5 12.5t-48 34.5t-32.5 50.5t-12 60.5z
" />
    <glyph glyph-name="seven" unicode="7" horiz-adv-x="467" 
d="M366 721h-246q-12 0 -29 -1t-33.5 -5.5t-28 -13t-11.5 -22.5t8 -21.5t20 -11.5t27 -5t29 -1h120q22 0 41 -4t33 -13.5t22 -25t8 -37.5q0 -10 -3.5 -22t-8.5 -25t-11 -26t-12 -25l-179 -368q-5 -9 -11.5 -23t-6.5 -27q0 -18 5.5 -31t25.5 -13q25 0 41.5 14.5t34.5 52.5
l204 430q21 45 37.5 84.5t16.5 75.5t-28.5 50t-64.5 14z" />
    <glyph glyph-name="eight" unicode="8" horiz-adv-x="515" 
d="M458 562q0 49 -21 81t-52 51t-66.5 26.5t-63.5 7.5q-33 0 -69.5 -8.5t-66.5 -29.5t-50 -56t-20 -88q0 -31 8.5 -48.5t18.5 -33t18.5 -35t8.5 -55.5q0 -22 -11.5 -39.5t-26 -37.5t-26 -46t-11.5 -65q0 -40 15 -75.5t43.5 -62.5t71 -42.5t98.5 -15.5q59 0 102 18t71 46.5
t41.5 63.5t13.5 68q0 42 -12.5 69.5t-27.5 47.5t-27.5 37t-12.5 38q0 27 8.5 45t18.5 36t18.5 41.5t8.5 61.5zM116 212q0 32 11 57t30 42.5t44.5 27t54.5 9.5q33 0 59 -10.5t44 -29t27 -43t9 -52.5q0 -21 -8 -45.5t-24.5 -45.5t-42 -34.5t-59.5 -13.5q-36 0 -63.5 11.5
t-45.5 30.5t-27 44t-9 52zM137 540q0 21 8.5 42.5t24 39t36.5 28.5t46 11q27 0 49 -10t37.5 -27.5t23.5 -40t8 -46.5q0 -30 -11.5 -51.5t-29 -35.5t-37.5 -21t-37 -7q-19 0 -40 7.5t-38 22.5t-28.5 37t-11.5 51z" />
    <glyph glyph-name="nine" unicode="9" horiz-adv-x="517" 
d="M509 492q0 51 -16.5 94.5t-48 75.5t-76 50t-100.5 18q-39 0 -82 -11.5t-79.5 -39t-60.5 -72.5t-24 -111q0 -51 16.5 -91t38.5 -62q30 -30 52.5 -40t42 -15t38 -11.5t39.5 -27.5q7 -6 11.5 -16.5t4.5 -21.5q0 -21 -11.5 -44t-26 -46t-26 -44t-11.5 -36t8 -22.5t22 -7.5
q20 0 41.5 19.5t41 46t35.5 54.5t27 45q17 27 42 62.5t47.5 76t38.5 85.5t16 92zM109 497q0 27 12 54t32 48.5t47.5 35t58.5 13.5q33 0 61 -13.5t48 -35t31.5 -48.5t11.5 -54q0 -26 -10.5 -54t-30.5 -51t-49 -38t-66 -15q-28 0 -54.5 12t-46.5 33t-32.5 50t-12.5 63z" />
    <glyph glyph-name="colon" unicode=":" horiz-adv-x="264" 
d="M179 74q0 14 -10 30.5t-33 16.5q-21 0 -32.5 -14.5t-11.5 -32.5q0 -14 12.5 -26.5t31.5 -12.5q20 0 31.5 14t11.5 25zM179 416q0 14 -10 30.5t-33 16.5q-21 0 -32.5 -14.5t-11.5 -32.5q0 -14 12.5 -26.5t31.5 -12.5q20 0 31.5 14t11.5 25z" />
    <glyph glyph-name="semicolon" unicode=";" horiz-adv-x="273" 
d="M84 -102q16 0 29.5 19.5t23.5 45t15.5 49t5.5 32.5q0 26 -6.5 33.5t-19.5 7.5q-18 0 -31 -19t-22 -45t-13 -52t-4 -39q0 -16 4.5 -24t17.5 -8zM170 412q0 17 -10.5 32t-33.5 15q-21 0 -32 -14.5t-11 -32.5q0 -14 12.5 -26.5t30.5 -12.5q20 0 32 12t12 27z" />
    <glyph glyph-name="less" unicode="&#x3c;" horiz-adv-x="536" 
d="M439 447q26 13 38 23.5t12 29.5q0 12 -17 12q-14 0 -44.5 -11t-65 -26t-68.5 -30.5t-54 -25.5l-22 -11q-29 -12 -58.5 -22t-54 -22.5t-40 -28.5t-15.5 -39q0 -19 21.5 -35t51 -29.5t60.5 -24t49 -18.5q2 -1 21.5 -10.5t52.5 -24t65.5 -29t59.5 -24.5t36 -10
q10 0 16.5 4.5t6.5 12.5q0 9 -10.5 21.5t-36.5 27.5q-18 11 -54 24.5t-71 30.5t-61.5 38.5t-26.5 49.5t18.5 47.5t48 35t67 30.5t75.5 34z" />
    <glyph glyph-name="equal" unicode="=" horiz-adv-x="532" 
d="M122 433q-27 0 -48 -9.5t-21 -27.5q0 -17 21.5 -24t47.5 -7h306q26 0 48.5 8.5t22.5 22.5q0 18 -22.5 27.5t-48.5 9.5h-306zM122 218q-27 0 -48 -9.5t-21 -27.5q0 -16 21.5 -23.5t47.5 -7.5h306q26 0 48.5 8.5t22.5 22.5q0 18 -22.5 27.5t-48.5 9.5h-306z" />
    <glyph glyph-name="greater" unicode="&#x3e;" horiz-adv-x="535" 
d="M102 449q38 -19 75.5 -34t67 -30.5t48 -35t18.5 -47.5q0 -19 -12.5 -34.5t-32 -29t-43.5 -24.5t-47.5 -20.5t-44.5 -18t-33 -15.5q-26 -16 -36.5 -28.5t-10.5 -21.5q0 -8 7 -12.5t16 -4.5t36.5 10.5t60 24.5t65.5 29t52.5 24.5t21.5 10.5q18 7 49 17.5t60 24t50.5 29.5
t21.5 35q0 23 -15.5 39t-40 28.5t-54.5 22.5t-58 22l-22 11t-54 25.5t-68.5 30.5t-65 26t-44.5 11q-16 0 -16 -12q0 -19 11.5 -29.5t37.5 -23.5z" />
    <glyph glyph-name="question" unicode="?" horiz-adv-x="487" 
d="M426 553q0 39 -16 70.5t-44 54t-65 35t-80 12.5q-47 0 -83 -15t-60 -35t-36.5 -41t-12.5 -33q0 -22 9.5 -30.5t23.5 -8.5q22 0 37.5 12t31.5 26t35.5 26t50.5 12t52.5 -11t34 -27.5t18 -35.5t5.5 -34q0 -41 -22 -73.5t-48 -62t-48 -57t-22 -58.5q0 -18 7 -33t25 -15
q17 0 27.5 13t20.5 31.5t21.5 40.5t29.5 40q10 10 28 27t36 42t31 57t13 71zM213 3q21 0 33.5 13t12.5 29q0 17 -11.5 30.5t-34.5 13.5q-20 0 -30.5 -13.5t-10.5 -30.5q0 -16 9 -29t32 -13z" />
    <glyph glyph-name="at" unicode="@" horiz-adv-x="915" 
d="M561 528q-15 0 -27 2l-24 4t-25.5 4t-32.5 2q-47 0 -83.5 -19.5t-61.5 -53.5t-37.5 -79t-12.5 -96q0 -21 5 -49t19 -53t40 -42.5t67 -17.5q27 0 42.5 4.5t26.5 10t21.5 10t26.5 4.5h1q22 0 39 -5t33.5 -11t35 -11t43.5 -5q15 0 28.5 5t24.5 12t17.5 15t6.5 13
q-31 0 -51 9t-32 26t-16.5 40.5t-4.5 52.5q0 28 4 50t9.5 41.5t9.5 40t4 45.5q0 32 -17 41.5t-48 9.5h-31zM327 328q0 43 12.5 75.5t32.5 54t44.5 32t49.5 10.5q26 0 48 -15.5t37.5 -39.5t24.5 -53t9 -57q0 -22 -12 -50.5t-28.5 -53.5t-34 -42t-29.5 -17q-45 0 -74.5 14
t-47.5 36.5t-25 50.5t-7 55zM648 680q-9 6 -15.5 14.5t-21.5 17t-43.5 14.5t-81.5 6q-83 0 -144 -20.5t-104.5 -54t-71 -76t-43.5 -85t-22 -82t-6 -67.5q0 -37 6.5 -80.5t23 -86.5t44.5 -83t71.5 -71t103.5 -49.5t140 -18.5h23q17 0 30 2.5t13 7.5q-3 3 -15 5t-26 3t-25 1.5
l-11 0.5q-79 0 -142 28t-107.5 77.5t-68 116.5t-23.5 144q0 48 9 96.5t29 93t51.5 81.5t76.5 62q36 20 83 25t101 5q27 0 62 -6.5t72 -21t72 -37.5t63 -55.5t45 -76t17 -99.5q0 -31 -3 -55t-7 -42t-7 -30.5t-3 -19.5q0 -10 11 -10q6 0 13 12t13 33.5t10 50.5t4 63
q0 77 -24.5 128.5t-57.5 82t-65.5 43.5t-48.5 13z" />
    <glyph glyph-name="A" unicode="A" horiz-adv-x="640" 
d="M442 523q-17 38 -29.5 70t-26 55.5t-29.5 36.5t-39 13q-21 0 -35.5 -12.5t-27.5 -34t-24.5 -51t-26.5 -62.5l-121 -277q-8 -17 -22 -47.5t-28 -63.5t-24.5 -63.5t-10.5 -47.5q0 -22 10 -30t31 -8q16 0 29 15t25 35.5t22.5 40.5t20.5 31q15 15 29 23t30.5 12t38 5t51.5 1
h68q26 0 46 -1t36.5 -5t30 -12t27.5 -21q16 -17 27.5 -38.5t22.5 -40.5t25.5 -32.5t38.5 -13.5q22 0 28.5 13.5t6.5 20.5v1q0 15 -9.5 42.5t-22 59t-26.5 62t-23 51.5zM208 317q0 11 8 43t22.5 66.5t33.5 61t42 26.5q16 0 30.5 -12.5t26.5 -31.5t21.5 -42t16 -44.5t10 -38
t3.5 -23.5q0 -41 -23.5 -65t-82.5 -24q-51 0 -79.5 19.5t-28.5 64.5z" />
    <glyph glyph-name="B" unicode="B" horiz-adv-x="572" 
d="M524 555q0 51 -20 83t-53.5 50t-78.5 25t-94 7h-137q-52 0 -74 -23.5t-22 -71.5v-494q0 -45 6.5 -71t18.5 -39t29.5 -16.5t40.5 -3.5h102q39 0 78 3.5t73.5 10.5t61.5 18.5t44 28.5q6 6 16 15t19 24t15.5 37t6.5 54q0 44 -14.5 71t-32 46.5t-32 35.5t-14.5 38
q0 32 9.5 48.5t21 31.5t21 34.5t9.5 57.5zM141 210q0 74 34 100.5t103 26.5q57 0 93 -13t55.5 -32.5t26.5 -42t7 -40.5q0 -40 -17.5 -66.5t-45 -42t-62 -22t-67.5 -6.5q-71 0 -99 34t-28 104zM141 532q0 33 9.5 55.5t26 35.5t38 18.5t44.5 5.5q51 0 83 -12t51 -29.5
t26 -38.5t7 -39q0 -25 -9 -46.5t-29.5 -37.5t-52.5 -25.5t-77 -9.5q-26 0 -47.5 6.5t-37 20.5t-24 37.5t-8.5 58.5z" />
    <glyph glyph-name="C" unicode="C" horiz-adv-x="620" 
d="M593 655q0 13 -14.5 27.5t-40 26t-62 19t-79.5 7.5q-80 0 -147.5 -25.5t-117.5 -74.5t-78 -121t-28 -164q0 -57 20 -121t64 -118t115 -89.5t173 -35.5q56 0 96.5 10t67 24.5t39.5 29.5t13 26q0 18 -8 30.5t-31 12.5q-21 0 -37.5 -8.5t-35.5 -18t-44.5 -18t-62.5 -8.5
q-62 0 -112 26t-85 68t-54 95t-19 107q0 67 23 121.5t61.5 92.5t87.5 59t101 21q31 0 53 -6t39.5 -13.5t32 -13.5t30.5 -6q40 0 40 38z" />
    <glyph glyph-name="D" unicode="D" horiz-adv-x="682" 
d="M579 614q-33 33 -70 53.5t-77 32.5t-82 16.5t-84 4.5h-132q-32 0 -51 -8t-29.5 -21.5t-13.5 -31.5t-3 -39v-505q0 -27 3 -48.5t13 -36.5t27 -23t46 -8h121q47 0 91 4.5t85.5 17.5t80.5 36.5t77 61.5q16 16 32.5 39t29 53t20.5 67.5t8 84.5q0 85 -22.5 144t-69.5 106z
M129 485q0 37 5 66t18.5 48.5t38.5 29.5t65 10q67 0 125.5 -15.5t101 -48.5t67 -85.5t24.5 -127.5q0 -71 -26 -124t-70 -88t-101.5 -52t-120.5 -17q-38 0 -63 9t-39 26.5t-19.5 43.5t-5.5 61v264z" />
    <glyph glyph-name="E" unicode="E" horiz-adv-x="503" 
d="M478 666q0 23 -22.5 31.5t-70.5 8.5h-232q-35 0 -56 -4t-33 -15q-16 -16 -19.5 -45t-3.5 -72v-451q0 -38 4.5 -60.5t17.5 -35.5q14 -14 39.5 -17.5t69.5 -3.5h202q59 0 90.5 6.5t31.5 28.5q0 27 -32 35.5t-83 8.5h-113q-27 0 -51 4.5t-41.5 17t-28 35.5t-10.5 59
q0 45 9 71t26 39t41 16.5t54 3.5h83q21 0 40.5 1t34.5 4.5t23.5 11t8.5 20.5q0 27 -28.5 34t-78.5 7h-75q-26 0 -50.5 2.5t-43.5 13t-30.5 31.5t-11.5 57q0 40 10 63.5t28.5 35.5t44.5 15t57 3h65q28 0 52.5 1t42.5 5.5t28.5 12t10.5 21.5z" />
    <glyph glyph-name="F" unicode="F" horiz-adv-x="474" 
d="M476 666q0 26 -27 33t-78 7h-214q-26 0 -44.5 -4t-31.5 -14.5t-19 -29.5t-6 -50v-518q0 -48 12.5 -68.5t32.5 -20.5q26 0 37 22t11 68v60q0 51 8.5 80.5t25.5 46.5q19 19 57.5 23t95.5 4h26q15 0 31.5 1.5t30 6t22.5 12t9 20.5q0 12 -8 19.5t-21.5 11.5t-30.5 5.5
t-35 1.5h-61q-49 0 -76.5 8.5t-45.5 26.5q-20 20 -23.5 45.5t-3.5 48.5q0 40 12.5 63t32.5 34.5t44.5 14.5t48.5 3h87q18 0 36.5 1.5t32.5 5.5t23 11.5t9 20.5z" />
    <glyph glyph-name="G" unicode="G" horiz-adv-x="701" 
d="M612 651q0 25 -21.5 41.5t-54.5 26.5t-71.5 14.5t-71.5 4.5q-83 0 -153 -28t-120.5 -78t-79 -119t-28.5 -152q0 -76 18.5 -133.5t49 -100t69.5 -70.5t81 -45t83.5 -24t76.5 -7q34 0 73 4t75 11.5t66 19.5t46 28q32 31 32 106v139q0 38 -8.5 60.5t-23 34t-32.5 14.5t-36 3
q-22 0 -44.5 -1.5t-41 -5.5t-30 -11t-11.5 -18q0 -17 9.5 -25t24 -14t31 -11.5t31 -18.5t24 -35t9.5 -60q0 -21 -6 -45.5t-26 -45.5t-57 -35t-98 -14q-62 0 -114.5 23t-90.5 63.5t-59.5 94.5t-21.5 117q0 70 23.5 125t62 92.5t88 57.5t102.5 20q43 0 68 -5.5t42 -12.5
t31.5 -12.5t35.5 -5.5h2q19 0 32.5 7t13.5 26z" />
    <glyph glyph-name="H" unicode="H" horiz-adv-x="659" 
d="M137 585q0 19 -1.5 41.5t-6.5 41t-14 31t-25 12.5q-29 0 -37.5 -31.5t-8.5 -80.5v-489q0 -22 2 -41.5t7 -34t14 -23t23 -8.5q27 0 37 33t10 84v49q0 36 4.5 66t18 51.5t38 33t65.5 11.5h149q38 0 61.5 -10t36.5 -28.5t17.5 -46t4.5 -61.5v-65q0 -35 2.5 -57.5t8.5 -36
t15 -19t21 -5.5q26 0 36 28t10 88v499q0 39 -9 67.5t-38 28.5q-16 0 -25.5 -10.5t-14 -28t-5.5 -39.5t-1 -46q0 -34 -3 -66t-14 -56.5t-33 -39.5t-60 -15h-164q-40 0 -64 14.5t-36.5 38.5t-16.5 55t-4 65z" />
    <glyph glyph-name="I" unicode="I" horiz-adv-x="241" 
d="M166 628q0 13 -1 28.5t-5.5 28t-14 21t-25.5 8.5t-25.5 -8.5t-14 -21.5t-5.5 -28t-1 -28v-528q0 -44 8 -72t39 -28q16 0 25 8t13.5 21.5t5.5 31.5t1 39v528z" />
    <glyph glyph-name="J" unicode="J" horiz-adv-x="429" 
d="M389 622q0 11 -2 25.5t-7 27t-13.5 21.5t-21.5 9q-17 0 -26.5 -9.5t-14 -22.5t-5.5 -27t-1 -24v-366q0 -13 -2.5 -43t-13.5 -60.5t-34 -53.5t-65 -23q-31 0 -47 6.5t-27 14t-22.5 14t-33.5 6.5h-3q-11 0 -20 -9.5t-9 -27.5q0 -20 15 -37t38.5 -29.5t51 -19.5t52.5 -7
q48 0 87 15t66.5 42.5t42.5 67t15 88.5v422z" />
    <glyph glyph-name="K" unicode="K" horiz-adv-x="578" 
d="M140 576q0 23 -1.5 43t-7 34.5t-15.5 23t-27 8.5q-12 0 -20 -9t-12.5 -21.5t-6 -27t-1.5 -25.5v-522q0 -36 11 -58t34 -22q13 0 21.5 7t13.5 18t7 24.5t2 26.5q0 63 2.5 104.5t8.5 66.5t16.5 35.5t27.5 10.5q25 0 45 -13t38.5 -33t36.5 -43.5t39 -45.5t44.5 -50.5
t48.5 -54t49 -43.5t47 -18q16 0 28.5 5t12.5 19q0 19 -15 38.5t-29 36.5q-38 44 -76.5 84t-70.5 74.5t-52 63.5t-20 52q0 34 18.5 61t41.5 50q7 7 22.5 21.5t34.5 33t39 38.5t36.5 38t27 32t10.5 21q0 20 -9.5 25t-17.5 5q-24 0 -48.5 -16t-49.5 -40t-50 -51.5t-49 -51.5
q-16 -16 -32 -32.5t-32.5 -29.5t-32 -21.5t-29.5 -8.5q-21 0 -33 12.5t-17.5 32.5t-7 44t-1.5 48z" />
    <glyph glyph-name="L" unicode="L" horiz-adv-x="437" 
d="M153 624q0 44 -14 60.5t-31 16.5q-20 0 -33 -19t-13 -62v-517q0 -20 4 -38.5t14 -32.5t27.5 -23t44.5 -9h205q42 0 66 9t24 32t-24 32.5t-66 9.5h-63q-26 0 -51 4.5t-45 18.5t-32.5 41t-12.5 72v405z" />
    <glyph glyph-name="M" unicode="M" horiz-adv-x="847" 
d="M323 392l-62 174q-15 42 -27 68.5t-28 42.5q-14 14 -33.5 20.5t-49.5 6.5q-29 0 -45.5 -11.5t-25 -27t-10.5 -32.5t-2 -27v-506q0 -15 1.5 -32t6.5 -30.5t13.5 -22.5t22.5 -9q18 0 30 21t12 44v233q0 85 10.5 132t34.5 47q16 0 30 -14t26.5 -36.5t23.5 -51t21 -56.5
l48 -133q12 -33 22.5 -66.5t22.5 -60.5t27 -44t35 -17q18 0 31.5 15.5t25 41t22.5 58.5t24 69l46 128q13 35 25.5 66t24.5 53.5t24.5 35.5t25.5 13q26 0 37 -40.5t11 -133.5v-227q0 -8 1.5 -20.5t6 -25.5t13.5 -22t23 -9t22 8.5t12.5 19.5t5.5 22t1 16v510q0 38 -4.5 62
t-15 37.5t-26.5 18t-38 4.5q-30 0 -49.5 -8t-34 -24.5t-25.5 -41.5t-23 -59l-67 -181q-11 -29 -21.5 -55t-22.5 -45.5t-25.5 -31t-29.5 -11.5q-18 0 -33.5 13.5t-28 34.5t-23 47t-19.5 50z" />
    <glyph glyph-name="N" unicode="N" horiz-adv-x="719" 
d="M437 312l-176 274q-29 45 -47.5 69t-33.5 35q-16 12 -31.5 14t-38.5 2q-27 0 -42 -12t-22 -31t-8 -43t-1 -47v-485q0 -37 11 -60.5t34 -23.5q15 0 24 9.5t14 23.5t7 29.5t2 28.5v262q0 72 13 101t36 29q21 0 45 -22t48 -60l206 -323q17 -27 31 -44.5t28.5 -28t29.5 -14.5
t35 -4q22 0 37 7.5t23 20.5t11.5 29.5t3.5 34.5v489q0 52 -10 86t-37 34q-26 0 -36 -27t-10 -61l1 -170q0 -55 -1.5 -94t-7 -63.5t-15.5 -36t-26 -11.5q-25 0 -48 21.5t-49 61.5z" />
    <glyph glyph-name="O" unicode="O" horiz-adv-x="774" 
d="M769 346q0 103 -31.5 176.5t-84 120.5t-122 69t-145.5 22q-89 0 -158 -30t-116 -82.5t-71.5 -123t-24.5 -152.5q0 -73 26 -139t74 -116t116.5 -79.5t153.5 -29.5q82 0 152 26t121.5 73.5t80.5 114.5t29 150zM116 346q0 75 23 132.5t60.5 96.5t86.5 59t100 20
q60 0 112 -20.5t90 -60t60 -97t22 -130.5q0 -57 -21 -108.5t-58.5 -90.5t-89.5 -62t-115 -23q-65 0 -115 26t-84.5 67.5t-52.5 92t-18 98.5z" />
    <glyph glyph-name="P" unicode="P" 
d="M527 509q0 66 -27 105t-70.5 60t-97 27.5t-106.5 6.5h-33q-48 0 -78 -3t-46 -16t-21.5 -38t-5.5 -69v-453q0 -66 8.5 -94.5t35.5 -28.5q16 0 25.5 9t14 23.5t5.5 32.5t1 35v65q0 33 7 59t24.5 44t47 27t74.5 9q50 0 94 10.5t77 34t52 61.5t19 93zM134 514q0 39 11.5 63
t29.5 37t39 17t39 4q20 0 49 -5t55.5 -18.5t45.5 -38t19 -63.5q0 -38 -16 -63.5t-40.5 -40.5t-55 -21.5t-58.5 -6.5q-54 0 -86 31t-32 105z" />
    <glyph glyph-name="Q" unicode="Q" horiz-adv-x="763" 
d="M757 360q0 80 -28.5 147t-79.5 116t-120 76t-150 27q-84 0 -152 -30t-116.5 -81t-74.5 -118t-26 -140q0 -71 25.5 -136.5t74.5 -115.5t121.5 -80t167.5 -30q27 0 49.5 3.5t43.5 3.5q14 0 26.5 -2.5t26.5 -9.5t23.5 -15.5t18.5 -15.5t19 -11.5t27 -4.5t22.5 10t5.5 27
q0 7 -1 19.5t-1.5 25t-1.5 21.5t-1 10q0 27 16 52.5t34.5 58.5t34.5 78.5t16 114.5zM111 356q0 69 21.5 123t58.5 91t86 56.5t104 19.5q64 0 115 -22.5t87 -60.5t55 -88t19 -104q0 -33 -5 -65.5t-16 -58.5t-28.5 -42.5t-43.5 -16.5t-38 6.5t-21 14.5t-19 14.5t-32 6.5
q-16 0 -21 -9.5t-5 -21.5q0 -13 2.5 -25t2.5 -17q0 -16 -2.5 -30.5t-10.5 -26t-23.5 -18t-40.5 -6.5q-32 0 -74 16.5t-80 51t-64.5 87t-26.5 125.5z" />
    <glyph glyph-name="R" unicode="R" horiz-adv-x="564" 
d="M546 513q0 45 -14.5 77t-39 53.5t-56 34t-66 19t-69.5 8t-66 1.5h-87q-26 0 -45 -3t-32 -16t-19 -38.5t-6 -70.5v-485q0 -45 14 -67t34 -22q21 0 32.5 22t11.5 82v48q0 23 3 48.5t12.5 47.5t28 36t49.5 14q25 0 45 -11.5t36.5 -29t29.5 -39t24 -41.5l52 -100
q20 -40 42 -62t48 -22q20 0 27 8.5t7 21.5q0 16 -7 33.5t-15 28.5l-47 74q-18 27 -30.5 57.5t-12.5 56.5q0 20 8.5 36t21.5 30.5t28 29.5t28 34.5t21.5 45t8.5 60.5zM140 500q0 76 31.5 105t103.5 29q3 0 16.5 -0.5t32 -4t39.5 -11.5t38.5 -22t29 -35.5t11.5 -52.5
q0 -30 -11 -50.5t-28.5 -34.5t-39 -22t-41 -12.5t-35.5 -5.5t-23 -1q-63 0 -93.5 32t-30.5 86z" />
    <glyph glyph-name="S" unicode="S" horiz-adv-x="497" 
d="M418 671q0 16 -11.5 28t-31 20t-46.5 12t-58 4q-30 0 -72.5 -9t-81.5 -32.5t-66.5 -63.5t-27.5 -102q0 -60 25 -95.5t63 -58t81.5 -37.5t81.5 -33t63 -45.5t25 -74.5q0 -51 -39 -84t-102 -33q-28 0 -47 5t-33.5 11.5t-28 12t-31.5 5.5q-10 0 -24.5 -7.5t-14.5 -29.5
q0 -20 16.5 -34.5t42.5 -24.5t56.5 -15t59.5 -5q53 0 99 14.5t80.5 41.5t54 66.5t19.5 90.5q0 46 -15 78.5t-38.5 55.5t-54.5 38t-62.5 27.5t-62 24.5t-54.5 27.5t-38.5 37t-14.5 53.5q0 28 10 49t28 35t42 21.5t51 7.5q33 0 47 -3t22.5 -6t17.5 -6t32 -3q16 0 27 11t11 25z
" />
    <glyph glyph-name="T" unicode="T" horiz-adv-x="509" 
d="M508 676q0 21 -30.5 28.5t-94.5 7.5h-259q-37 0 -60.5 -2t-36.5 -6t-18 -11t-5 -17q0 -20 22.5 -30.5t61.5 -10.5q16 0 37 -3t39 -14t30.5 -32.5t12.5 -57.5v-435q0 -13 2.5 -29t8 -29.5t15 -22.5t24.5 -9q14 0 23.5 8t15 21t7.5 29t2 32v435q0 36 9.5 57t25.5 32t38 14
t46 3q12 0 26.5 1.5t27.5 6t21.5 12.5t8.5 22z" />
    <glyph glyph-name="U" unicode="U" horiz-adv-x="637" 
d="M131 329v251q0 21 -2 43.5t-7 41.5t-14 31.5t-22 12.5q-16 0 -25.5 -11t-15 -29t-7 -41t-1.5 -48v-279q0 -94 26 -154.5t67 -95.5t90.5 -48.5t97.5 -13.5q46 0 96.5 13t93 48.5t70 98.5t27.5 164v267q0 23 -1.5 46t-6.5 41t-14.5 29.5t-25.5 11.5q-14 0 -23 -12.5
t-14 -31t-7 -41t-2 -43.5v-282q0 -56 -14 -97t-39 -68t-60.5 -40.5t-77.5 -13.5q-55 0 -91.5 18.5t-58 51.5t-30.5 79t-9 101z" />
    <glyph glyph-name="V" unicode="V" horiz-adv-x="582" 
d="M120 591q-14 39 -26.5 62t-24 35t-20.5 15t-15 3q-20 0 -30.5 -8.5t-10.5 -28.5q0 -11 3.5 -26.5t11.5 -36.5l194 -510q6 -15 12.5 -32.5t16.5 -31.5t24.5 -23.5t36.5 -9.5q30 0 48 27t33 65l192 492q9 23 15 44.5t6 38.5t-7 27.5t-24 10.5q-13 0 -24 -9.5t-20.5 -24.5
t-18 -34.5t-15.5 -39.5l-103 -283q-4 -12 -12 -28t-18 -31t-22 -25.5t-25 -10.5q-17 0 -30.5 12t-23.5 28.5t-17.5 35t-12.5 32.5z" />
    <glyph glyph-name="W" unicode="W" horiz-adv-x="922" 
d="M617 362l-52 180q-10 33 -19.5 62.5t-21 52t-26 36t-35.5 13.5q-22 0 -37 -12.5t-26.5 -34.5t-20 -50.5t-17.5 -59.5l-52 -184q-14 -49 -33.5 -79.5t-46.5 -30.5t-43 26.5t-29 77.5l-56 214q-10 38 -18.5 62.5t-17.5 38.5t-19.5 19.5t-23.5 5.5q-19 0 -27.5 -8.5
t-8.5 -30.5q0 -10 4.5 -34.5t14.5 -57.5l100 -337q8 -26 16.5 -55.5t18 -58t20.5 -53.5t24 -41q20 -23 39 -23q31 0 48 31t35 90l84 271q15 48 29.5 69t40.5 21t44 -22.5t29 -62.5l77 -280q9 -32 17.5 -55.5t19.5 -37.5q18 -25 48 -25q18 0 30 6.5t22 20.5q17 26 29.5 74.5
t33.5 120.5l102 350q9 29 13 51t4 33q0 40 -37 40q-19 0 -32.5 -19.5t-27.5 -70.5l-7 -26t-17 -63t-21 -78t-19 -70q-14 -57 -31 -86.5t-43 -29.5t-45 30.5t-33 79.5z" />
    <glyph glyph-name="X" unicode="X" horiz-adv-x="581" 
d="M288 486q-26 0 -47.5 24t-41.5 57l-24 40q-12 20 -24.5 39t-26.5 33.5t-30 23.5t-34 9q-15 0 -23 -9.5t-8 -17.5q0 -18 13.5 -42t33.5 -53l77 -110q20 -27 30.5 -54t10.5 -50q0 -22 -12 -50.5t-32 -58.5l-89 -132q-21 -32 -35.5 -57.5t-14.5 -40.5t5.5 -23t25.5 -8
q26 0 48 19.5t41 51.5l44 75q13 21 25.5 41t25.5 35.5t27 24.5t30 9q18 0 33.5 -8.5t29.5 -23t26.5 -33t24.5 -39.5l49 -83q19 -32 42 -53t51 -21q20 0 27 9.5t7 24.5q0 16 -11.5 39t-31.5 51l-88 125q-24 35 -39.5 67.5t-15.5 58.5q0 23 10.5 50t29.5 54l71 103
q20 29 33.5 52t13.5 38q0 17 -6 27.5t-24 10.5q-17 0 -31 -8.5t-26.5 -22.5t-24 -32.5t-22.5 -37.5l-28 -48q-18 -32 -41 -54t-54 -22z" />
    <glyph glyph-name="Y" unicode="Y" horiz-adv-x="528" 
d="M270 464q-18 0 -33 8.5t-28 22.5t-25 33t-23 39l-25 43q-22 39 -47 67.5t-60 28.5q-20 0 -26.5 -13t-6.5 -27q0 -17 14 -43t37 -58l83 -120q36 -52 61.5 -107t25.5 -104v-160q0 -31 13 -51t33 -20q23 0 35 23t12 51v165q0 45 26.5 99t63.5 108l86 126q21 30 34 54.5
t13 39.5q0 22 -11 27.5t-20 5.5q-29 0 -53.5 -26.5t-46.5 -62.5l-27 -46q-12 -20 -24 -39t-25 -33t-27 -22.5t-29 -8.5z" />
    <glyph glyph-name="Z" unicode="Z" horiz-adv-x="545" 
d="M526 655q0 22 -8.5 35.5t-27 20t-48.5 8.5t-73 2l-163 -1q-47 0 -79 -1t-52 -5.5t-29 -12.5t-9 -23q0 -13 9.5 -21t23 -12t28.5 -5t27 -1h93q30 0 55 -2t43.5 -9t29 -20t10.5 -35q0 -17 -15 -44t-42 -62l-220 -278q-29 -37 -48 -68t-19 -56q0 -22 8 -35t25 -20t43 -9
t61 -2h212q78 0 117 6t39 32q0 14 -8.5 22t-23.5 12.5t-35 6t-43 1.5h-96q-26 0 -49.5 2t-41.5 8t-28.5 17.5t-10.5 30.5q0 28 17 55.5t46 63.5l222 280q27 35 43.5 63.5t16.5 55.5z" />
    <glyph glyph-name="bracketleft" unicode="[" horiz-adv-x="327" 
d="M215 714q0 11 -8.5 19.5t-35.5 8.5q-23 0 -35.5 -10.5t-18 -28.5t-6 -41t-0.5 -48v-639q0 -67 10.5 -98t52.5 -31q46 0 46 28q0 9 -8 18.5t-18 23.5t-18 35.5t-8 55.5v565q0 35 7.5 58.5t16 39t16 25.5t7.5 19z" />
    <glyph glyph-name="backslash" unicode="\" horiz-adv-x="351" 
d="M47 625l228 -562q8 -18 19 -31.5t19 -13.5q4 4 5 11t1 14q0 8 -1.5 14.5t-2.5 8.5l-231 573q-13 30 -24.5 44t-19.5 14q-6 -7 -5.5 -25t12.5 -47z" />
    <glyph glyph-name="bracketright" unicode="]" horiz-adv-x="316" 
d="M100 716q0 -9 7 -19t15.5 -25.5t15.5 -39t7 -58.5v-562v-3q0 -34 -8 -55.5t-17 -35.5t-17 -23.5t-8 -18.5q0 -28 46 -28q42 0 52.5 31t10.5 98v640q0 25 -0.5 48t-6 40.5t-18 28t-35.5 10.5q-27 0 -35.5 -8.5t-8.5 -19.5z" />
    <glyph glyph-name="asciicircum" unicode="^" horiz-adv-x="544" 
d="M445 494l-62 110q-11 19 -21 38.5t-22 35t-27 25.5t-34 10q-20 0 -35 -12t-27.5 -30t-23 -38.5t-20.5 -36.5l-62 -102q-13 -21 -21 -39.5t-8 -29.5q0 -13 14 -13q23 0 34.5 16.5t23.5 33.5l38 58q8 12 16.5 23.5t18.5 20.5t22.5 14.5t29.5 5.5q16 0 28.5 -5t22 -14
t17.5 -20.5t16 -23.5l39 -61q13 -20 26.5 -34.5t38.5 -14.5q10 0 10 11t-9.5 30.5t-22.5 41.5z" />
    <glyph glyph-name="underscore" unicode="_" horiz-adv-x="460" 
d="M-5 -40q-5 0 -13 -1.5t-15 -6t-12 -12.5t-5 -21q0 -12 5 -19.5t11.5 -12t14.5 -6t14 -1.5h473q13 0 28 8t15 31q0 26 -14.5 33.5t-28.5 7.5h-473z" />
    <glyph glyph-name="grave" unicode="`" horiz-adv-x="252" 
d="M88 683q0 -13 7.5 -38.5t18 -50.5t23 -43.5t21.5 -18.5q17 0 23 10t6 36q0 12 -4.5 35.5t-12.5 46.5t-21 40.5t-29 17.5q-32 0 -32 -35z" />
    <glyph glyph-name="a" unicode="a" horiz-adv-x="466" 
d="M440 283q0 99 -46 149t-131 50q-43 0 -78 -7t-59.5 -16.5t-37.5 -18.5t-13 -12t4 -4.5t7 -1.5q18 0 51 10t84 10q14 0 34.5 -5.5t39 -17t32 -29t13.5 -40.5q0 -22 -11.5 -38t-28.5 -27t-38 -16.5t-39 -5.5q-34 0 -70.5 -5.5t-66.5 -20.5t-49.5 -41t-19.5 -68t17.5 -67.5
t40 -39.5t45 -18.5t33.5 -4.5t26 2.5t31 7t30 11.5t24 17q-23 -3 -49 1.5t-48 16.5t-36.5 32t-14.5 47q0 30 16 51t37.5 34.5t42.5 20t31 6.5q13 0 30.5 -6t33.5 -17.5t26.5 -27.5t10.5 -37q0 -23 -7.5 -42.5t-17 -35t-19 -25.5t-12.5 -13q8 -8 21.5 -13t27.5 -7.5
t26.5 -3.5t19.5 -1h1q31 0 43.5 20.5t12.5 45.5v201z" />
    <glyph glyph-name="b" unicode="b" horiz-adv-x="573" 
d="M211 446q-45 0 -61 37t-16 94v98q0 37 -14.5 53.5t-29.5 16.5q-17 0 -28 -20t-11 -55v-597q0 -9 1.5 -21t7 -23.5t15.5 -19.5t28 -8q20 0 27 2t12 4t13 4t29 2q28 0 42 -5.5t28.5 -12.5t36.5 -12.5t64 -5.5q25 0 60 13.5t67 43t55 75t23 108.5q0 61 -18 109t-48 80.5
t-70 49.5t-85 17q-22 0 -40 -4t-33.5 -9.5t-28.5 -9.5t-26 -4zM295 52q-34 0 -62.5 14.5t-49.5 38.5t-33 54.5t-12 61.5q0 40 13.5 73t35.5 57t50.5 37t58.5 13q35 0 66.5 -13t55.5 -36.5t37.5 -55.5t13.5 -70q0 -35 -12.5 -66.5t-35.5 -55.5t-55 -38t-71 -14z" />
    <glyph glyph-name="c" unicode="c" horiz-adv-x="424" 
d="M393 433q0 15 -14 25t-32.5 16t-38 9t-29.5 3q-46 0 -92 -15.5t-82.5 -46.5t-59 -78t-22.5 -110q0 -41 10.5 -73t24 -54.5t26.5 -36t18 -18.5q7 -8 22.5 -19t37 -21.5t49.5 -17.5t61 -7q15 0 34.5 2.5t37.5 8.5t30.5 16.5t12.5 26.5q0 17 -12 22.5t-29 5.5
q-18 0 -37 -3.5t-30 -3.5q-32 0 -62.5 13t-53.5 36t-37 53.5t-14 66.5q0 39 13 71.5t35 56t52 36t63 12.5q25 0 43 -4t35 -4q22 0 31 8.5t9 23.5z" />
    <glyph glyph-name="d" unicode="d" horiz-adv-x="572" 
d="M535 94v556q0 31 -4.5 50t-11 28.5t-15 12.5t-16.5 3q-18 0 -29 -19.5t-11 -60.5v-68q0 -30 -2 -56.5t-9.5 -47t-22.5 -32t-40 -11.5q-21 0 -34 3.5t-26 8t-28.5 8.5t-42.5 4q-33 0 -71.5 -13.5t-71.5 -43.5t-55 -77t-22 -114q0 -54 16.5 -99.5t45.5 -78t70 -51t91 -18.5
q31 0 50 5.5t34 12t30 12t38 5.5q22 0 31.5 -2t15.5 -4.5t13 -4.5t22 -2q29 0 42 24.5t13 69.5zM112 221q0 41 14.5 74.5t38.5 56.5t55 36t64 13q41 0 71.5 -18t50.5 -45t30 -57.5t10 -55.5q0 -33 -12 -64t-33.5 -55t-50.5 -38.5t-63 -14.5q-35 0 -66.5 12.5t-55.5 35
t-38.5 53.5t-14.5 67z" />
    <glyph glyph-name="e" unicode="e" horiz-adv-x="488" 
d="M489 284q0 44 -16.5 80.5t-44.5 62.5t-64.5 40.5t-76.5 14.5q-60 0 -109 -16.5t-84.5 -49t-54.5 -79.5t-19 -108q0 -48 21 -90t56 -73t80 -49t93 -18q39 0 66.5 6.5t44.5 15.5t25 19t8 16q0 14 -5 21t-19 7q-15 0 -28.5 -5t-28.5 -10.5t-31.5 -10.5t-36.5 -5t-42.5 6.5
t-41.5 18.5t-31.5 30.5t-12.5 42.5t11.5 39.5t29.5 24.5t39 12.5t40 3.5q29 0 51 -2t39 -4t31 -4t28 -2q40 0 61.5 18t21.5 47zM135 342q0 20 9.5 38.5t25 32.5t36.5 22.5t44 8.5q24 0 47.5 -7t42 -20.5t30.5 -32.5t12 -44q0 -21 -9.5 -36t-26 -24.5t-38.5 -14t-46 -4.5
q-19 0 -41 3.5t-41 12.5t-32 25t-13 40z" />
    <glyph glyph-name="f" unicode="f" horiz-adv-x="368" 
d="M340 720q0 18 -13 25t-43 7q-40 0 -69.5 -15.5t-48.5 -41t-28.5 -58t-9.5 -66.5q0 -47 -12.5 -69t-27 -34t-27 -22t-12.5 -33q0 -16 12.5 -26.5t27.5 -26t28 -41.5t13 -73v-175q0 -31 11.5 -50.5t31.5 -19.5q21 0 31.5 23t10.5 52v189q0 47 17 71t37 36.5t37 19.5t17 21
t-7.5 22t-19.5 13.5t-25 11t-25 16.5t-19.5 29t-7.5 48q0 35 9 57.5t22.5 37t29 23.5t29 15.5t22.5 14t9 19.5z" />
    <glyph glyph-name="g" unicode="g" horiz-adv-x="558" 
d="M387 457q-22 0 -36 5.5t-28.5 12t-33 12t-48.5 5.5q-62 0 -105 -25t-69.5 -61.5t-38.5 -79t-12 -77.5q0 -36 7.5 -66t18 -53t22 -39t19.5 -24q9 -9 22.5 -20.5t32.5 -21.5t43.5 -17t55.5 -7q29 0 46.5 3t29.5 7t22 7t24 3q32 0 49 -19.5t17 -46.5q0 -31 -14.5 -55.5
t-37.5 -41t-52.5 -25.5t-60.5 -9q-34 0 -56.5 5t-38.5 11t-28.5 10.5t-27.5 4.5q-22 0 -31.5 -6t-9.5 -26q0 -18 17 -31.5t44 -23t61.5 -14t69.5 -4.5q69 0 120 21t84 60t49 94t16 122v335q0 11 -1.5 26t-7.5 28.5t-17.5 23t-31.5 9.5q-18 0 -25.5 -2t-13.5 -4t-15 -4
t-30 -2zM107 248q0 42 15 74.5t40.5 54t59 33t71.5 11.5q34 0 62 -16.5t47.5 -42t30 -56t10.5 -59.5q0 -30 -12 -61.5t-33 -57t-50 -41.5t-63 -16q-39 0 -72 14.5t-56.5 39t-36.5 56.5t-13 67z" />
    <glyph glyph-name="h" unicode="h" horiz-adv-x="571" 
d="M146 650q0 49 -12 69.5t-33 20.5q-11 0 -19 -7.5t-13 -20t-7 -28t-2 -30.5v-574q0 -38 11.5 -59t31.5 -21q13 0 21.5 7.5t13 19.5t6.5 27.5t2 31.5v143q0 29 12 65t39 64l12.5 12.5t16 12t23 9.5t33.5 4q45 0 76.5 -14.5t50.5 -40t27.5 -60.5t8.5 -77v-121q0 -45 12 -64
t33 -19t31 23.5t10 62.5v179q0 30 -6 66t-25 67t-53.5 52t-92.5 21q-29 0 -46.5 -4t-30.5 -9.5t-25 -9.5t-30 -4q-32 0 -54 24.5t-22 67.5v114z" />
    <glyph glyph-name="i" unicode="i" horiz-adv-x="218" 
d="M155 389q0 12 -1.5 27.5t-6.5 29.5t-13.5 23.5t-22.5 9.5q-13 0 -21 -9.5t-12.5 -23.5t-6 -29.5t-1.5 -27.5v-308q0 -10 1.5 -23.5t6 -25.5t12.5 -20.5t21 -8.5t21.5 8t13.5 20t7 25.5t2 24.5v308zM111 625q17 0 28 11t11 25t-10 25.5t-29 11.5t-28.5 -11.5t-9.5 -25.5
t9 -25t29 -11z" />
    <glyph glyph-name="j" unicode="j" horiz-adv-x="235" 
d="M172 -51v450q0 42 -10.5 60.5t-31.5 18.5q-25 0 -34 -22.5t-9 -58.5v-386q0 -18 -0.5 -37t-4.5 -37.5t-11.5 -36t-20.5 -30.5q-14 -14 -28 -22t-25 -14.5t-18 -14.5t-7 -21q0 -24 18 -30t43 -6q29 0 54.5 12t44 36t29.5 59t11 80zM129 639q20 0 29.5 11t9.5 25t-9 26.5
t-30 12.5q-17 0 -26.5 -12.5t-9.5 -26.5t9.5 -25t26.5 -11z" />
    <glyph glyph-name="k" unicode="k" horiz-adv-x="446" 
d="M108 676q-14 0 -21.5 -6.5t-11.5 -17.5t-5 -25.5t-1 -30.5v-523q0 -32 10 -53.5t31 -21.5q12 0 20 8.5t12.5 20.5t6 23.5t1.5 17.5q0 49 16 72t39 23q26 0 48 -19t42 -45l29 -38q22 -29 45.5 -50t52.5 -21q26 0 26 24q0 17 -14 37t-34 43l-33 40q-20 23 -33.5 49
t-13.5 52q0 22 14 45t32 43l27 32q13 15 21.5 27.5t8.5 21.5q0 10 -5.5 16t-22.5 6q-14 0 -30 -10.5t-33 -27.5l-31 -30q-23 -23 -46 -41.5t-46 -18.5q-31 0 -46 33t-15 91v171q0 40 -8 61.5t-32 21.5z" />
    <glyph glyph-name="l" unicode="l" horiz-adv-x="219" 
d="M158 620q0 50 -10 76t-32 26q-26 0 -35 -25.5t-9 -76.5v-527q0 -43 9 -68t35 -25q23 0 32.5 26t9.5 67v527z" />
    <glyph glyph-name="m" unicode="m" horiz-adv-x="814" 
d="M631 480q-34 0 -54 -8t-35 -17t-29.5 -17t-37.5 -8q-22 0 -41.5 8t-39.5 17t-41.5 17t-48.5 8t-45.5 -5.5t-32.5 -11.5t-26.5 -11.5t-27.5 -5.5q-14 0 -24 2t-19 4.5t-18.5 4.5t-21.5 2q-32 0 -43 -22t-11 -61v-306q0 -35 11 -52.5t31 -17.5q21 0 31.5 21.5t10.5 50.5
v139q0 39 7.5 74.5t23 62.5t38.5 43t53 16q25 0 48 -8t41 -29t28.5 -56t10.5 -89v-150q0 -33 11 -54t31 -21q24 0 34 21.5t10 53.5v148q0 30 5.5 62.5t19 59.5t35.5 44t54 17q39 0 65.5 -15.5t42.5 -41.5t22.5 -60.5t6.5 -73.5l1 -148q0 -25 9 -46t29 -21q24 0 34.5 23.5
t10.5 50.5v204q0 39 -9.5 75.5t-29 64.5t-49.5 45t-71 17z" />
    <glyph glyph-name="n" unicode="n" horiz-adv-x="549" 
d="M512 279q0 61 -14.5 101t-38.5 64t-56 33.5t-67 9.5q-39 0 -59.5 -6t-35 -12.5t-28.5 -12.5t-40 -6q-15 0 -22 2t-14 4.5t-18 4.5t-33 2q-24 0 -35.5 -29.5t-10.5 -70.5v-291q0 -32 12 -51t28 -19q26 0 36.5 23.5t10.5 62.5v155q0 36 9 67t25.5 54.5t40.5 36.5t55 13
q32 0 63 -7t55 -29.5t38.5 -65.5t14.5 -114v-123q0 -73 41 -73q13 0 21.5 9t13 23t6.5 31.5t2 34.5v179z" />
    <glyph glyph-name="o" unicode="o" 
d="M520 238q0 60 -21.5 106.5t-57 78.5t-82 48.5t-96.5 16.5q-49 0 -95 -17t-81.5 -49t-57 -78.5t-21.5 -105.5q0 -57 20.5 -103t55.5 -78t81.5 -49t97.5 -17q59 0 106.5 20.5t81 55t51.5 79t18 92.5zM98 238q0 36 12.5 68t34.5 55.5t52.5 37.5t65.5 14q34 0 64 -12.5
t52.5 -36t36 -55.5t13.5 -71q0 -38 -14 -69t-37 -53.5t-53 -35t-62 -12.5q-38 0 -68.5 15t-52 39t-33 54.5t-11.5 61.5z" />
    <glyph glyph-name="p" unicode="p" horiz-adv-x="574" 
d="M340 497q-32 0 -54 -6t-38.5 -12.5t-31 -12.5t-32.5 -6q-15 0 -24 2.5t-16.5 5t-17 5t-24.5 2.5q-23 0 -39 -17.5t-16 -52.5v-542q0 -13 1 -27t5.5 -26t13.5 -19.5t24 -7.5q14 0 22.5 9t13 23t6 31.5t1.5 34.5v41q0 20 4 39t13 33.5t22.5 23.5t32.5 9q18 0 32 -4t28 -8.5
t30 -8.5t39 -4q46 0 87 18t71.5 50.5t48 78t17.5 101.5q0 64 -20.5 110.5t-53 77t-71 45t-74.5 14.5zM291 425q34 0 65.5 -12t56.5 -34.5t40 -55.5t15 -75q0 -36 -13 -67.5t-36.5 -54.5t-56 -36.5t-71.5 -13.5q-33 0 -61.5 15t-49 39.5t-32.5 56t-12 64.5t12.5 64t33.5 55.5
t49 39.5t60 15z" />
    <glyph glyph-name="q" unicode="q" horiz-adv-x="560" 
d="M241 500q-47 0 -88 -18.5t-71 -51t-47 -77t-17 -95.5q0 -67 21 -115t53 -79t70 -45.5t73 -14.5q31 0 48.5 3.5t30 8t24 8.5t29.5 4q25 0 40 -10.5t23 -26.5t10.5 -36.5t2.5 -39.5v-45q0 -38 9.5 -62t34.5 -24q13 0 22 8t14 20.5t7 27.5t2 30v508q0 42 -13 70.5t-42 28.5
q-25 0 -43.5 -6.5t-38.5 -6.5q-21 0 -36.5 5.5t-31 12.5t-35.5 12.5t-51 5.5zM283 426q42 0 71.5 -18t49 -44t28.5 -55.5t9 -52.5q0 -31 -10 -62t-30 -56.5t-49 -41.5t-67 -16q-51 0 -85 18.5t-54 46t-28.5 59t-8.5 57.5q0 30 13 60t36 53t55 37.5t70 14.5z" />
    <glyph glyph-name="r" unicode="r" horiz-adv-x="347" 
d="M301 477q-16 0 -26.5 -4t-21 -8.5t-23.5 -8.5t-33 -4q-23 0 -39 6t-39 6q-21 0 -33 -8.5t-18 -21.5t-7.5 -28.5t-1.5 -28.5v-299q0 -13 2.5 -26t8 -24t14 -18t20.5 -7q11 0 19 7t13.5 19t8 27.5t2.5 31.5v123q0 65 14.5 97.5t31.5 48.5q20 20 39.5 30t51.5 17
q25 5 43.5 12.5t18.5 31.5q0 12 -11 20.5t-34 8.5z" />
    <glyph glyph-name="s" unicode="s" horiz-adv-x="382" 
d="M202 490q-30 0 -62 -7.5t-59 -24t-44 -43t-17 -63.5q0 -42 18 -66.5t45.5 -40t59.5 -25t59.5 -22t45.5 -31.5t18 -52q0 -11 -5 -24.5t-16 -25t-27.5 -19.5t-40.5 -8q-29 0 -52.5 10t-40.5 10q-11 0 -20 -4t-9 -18q0 -13 12.5 -22t30.5 -14.5t38 -8t36 -2.5q50 0 87 10.5
t62 28t37 40.5t12 47q0 48 -18 76t-44.5 44.5t-58 26t-58 21t-44.5 29.5t-18 52q0 19 9 31t21.5 19t24.5 10t18 3q21 0 34.5 -3.5t30.5 -3.5q15 0 26 4.5t11 18.5q0 12 -11.5 20.5t-28 14.5t-34 9t-28.5 3z" />
    <glyph glyph-name="t" unicode="t" horiz-adv-x="315" 
d="M211 516q-14 13 -20.5 30t-13 32t-15.5 25t-26 10t-25.5 -10.5t-14.5 -25.5t-12.5 -32t-18.5 -29q-15 -15 -33.5 -31.5t-18.5 -35.5q0 -15 12 -26.5t27 -26t27 -35t12 -54.5v-129q0 -36 5.5 -69.5t21 -60t42.5 -42t69 -15.5q21 0 39.5 7t18.5 25q0 11 -6.5 18t-16 13
t-21 12.5t-20.5 15.5q-23 23 -32.5 46t-9.5 50v130q0 39 17 60t37 34t37 22t17 24q0 12 -5.5 17.5t-15.5 11t-24.5 13.5t-32.5 26z" />
    <glyph glyph-name="u" unicode="u" horiz-adv-x="510" 
d="M82 475q-17 0 -29 -16.5t-12 -51.5v-227q0 -100 43.5 -148.5t118.5 -48.5q30 0 48.5 5.5t32 12t26.5 12t33 5.5q16 0 26 -2t18.5 -4t18.5 -4t26 -2q28 0 38 28t10 79v259q0 21 -1.5 40t-6 33t-13 22t-23.5 8q-14 0 -22.5 -8.5t-13.5 -22t-7 -29t-2 -28.5v-148
q0 -31 -7 -63t-21.5 -58.5t-37 -43.5t-53.5 -17q-45 0 -73.5 15t-45 46t-23 76.5t-6.5 107.5v97q0 36 -10.5 56t-31.5 20z" />
    <glyph glyph-name="v" unicode="v" horiz-adv-x="427" 
d="M28 470q-16 0 -24 -7.5t-8 -28.5q0 -11 7 -34.5t18 -51.5l84 -215q10 -27 19.5 -51t21.5 -41.5t27.5 -28t38.5 -10.5t38.5 8.5t27.5 25.5t22 41t22 56l80 214q23 58 23 83q0 17 -5.5 25.5t-21.5 8.5q-14 0 -25 -9t-19.5 -23t-15.5 -31.5t-13 -34.5l-30 -77
q-7 -20 -15 -38.5t-17 -33t-20.5 -23.5t-26.5 -9t-27.5 9t-22 24t-18 34.5t-15.5 40.5l-28 78q-7 19 -14 36.5t-16 31.5t-20.5 22.5t-26.5 8.5z" />
    <glyph glyph-name="w" unicode="w" horiz-adv-x="723" 
d="M369 478q-28 0 -45 -14t-27 -36t-16 -49.5t-13 -54.5q-4 -17 -10 -37.5t-15 -39.5t-22 -31.5t-32 -12.5q-15 0 -27 12t-22 31.5t-18 44t-17 49.5q-7 21 -13.5 43.5t-15 41t-21 30.5t-30.5 12q-32 0 -32 -32q0 -20 11 -54t26 -79l46 -140q11 -35 21 -64.5t21.5 -51
t26.5 -34t36 -12.5q26 0 42 13t25.5 33.5t16 46t12.5 51.5q14 57 31.5 93t53.5 36q18 0 31.5 -12.5t24 -31t18 -39.5t12.5 -38q7 -24 14.5 -50t18.5 -48.5t27 -37t42 -14.5q21 0 35 12t24.5 33.5t19.5 51t21 64.5l45 137q13 39 24 74t11 57q0 29 -23 29q-22 0 -35 -15.5
t-20.5 -36.5t-12 -43.5t-9.5 -36.5q-5 -12 -11 -33t-15 -42t-23 -36t-34 -15q-17 0 -30 14t-22.5 34t-16 41t-10.5 35q-7 24 -14 50.5t-17.5 49t-26.5 37.5t-41 15z" />
    <glyph glyph-name="x" unicode="x" horiz-adv-x="442" 
d="M78 467q-14 0 -21.5 -4t-7.5 -16q0 -19 13.5 -40t29.5 -44.5t29.5 -50.5t13.5 -59q0 -25 -17.5 -56t-39 -61t-39 -55t-17.5 -38q0 -19 5 -26t23 -7q23 0 42 19.5t38 43t40 43t49 19.5t50 -19.5t41 -43t37.5 -43t39.5 -19.5q15 0 24.5 4t9.5 20q0 19 -17.5 45t-38.5 55.5
t-38.5 60.5t-17.5 60q0 31 12.5 57.5t27 49.5t27 43t12.5 37q0 22 -24 22q-20 0 -35 -15t-30.5 -32.5t-33.5 -32.5t-43 -15t-42.5 15.5t-33 33.5t-31.5 33.5t-37 15.5z" />
    <glyph glyph-name="y" unicode="y" horiz-adv-x="459" 
d="M42 474q-17 0 -23 -12.5t-6 -26.5q0 -18 12.5 -47.5t26.5 -64.5l102 -245q13 -30 18 -54.5t5 -47.5q0 -21 -5.5 -38.5t-13.5 -31t-16.5 -23.5t-14.5 -16q-16 -16 -35 -25t-36 -16t-28.5 -15t-11.5 -21t14.5 -24t40.5 -11q38 0 66 12t50.5 36.5t41 62.5t38.5 90l151 394
q25 65 25 87q0 11 -6.5 20.5t-21.5 9.5t-26 -8.5t-19.5 -22t-14.5 -29.5t-11 -30l-30 -85q-14 -39 -31.5 -65t-46.5 -26q-27 0 -46 27t-32 61l-35 87q-7 18 -15 36t-17.5 31.5t-21.5 22t-27 8.5z" />
    <glyph glyph-name="z" unicode="z" horiz-adv-x="408" 
d="M310 481l-135 -3q-52 -2 -83 -7.5t-31 -19.5q0 -12 12 -16.5t30.5 -7t39.5 -5t39.5 -9t30.5 -19t12 -35.5t-15.5 -47.5t-38.5 -50t-50 -51t-50 -51t-38 -49.5t-15 -45q0 -31 20.5 -46.5t52.5 -15.5h13l205 6q5 0 15.5 0.5t21 3t18 7.5t7.5 13q0 12 -14 16.5t-35 6.5
t-45.5 3.5t-45.5 7.5t-35 19t-14 38q0 23 15.5 47.5t38.5 49.5t50 51t50 51.5t38.5 50.5t15.5 49q0 31 -24.5 45t-55.5 13z" />
    <glyph glyph-name="braceleft" unicode="{" horiz-adv-x="380" 
d="M250 676q19 20 31 30t12 21q0 18 -22 18q-17 0 -39.5 -10.5t-38.5 -26.5q-20 -21 -26.5 -57t-6.5 -72v-74q0 -42 -6 -69t-14.5 -43.5t-18.5 -26.5t-18.5 -18t-14.5 -18t-6 -26q0 -21 12.5 -33t27.5 -30t27.5 -49.5t12.5 -90.5v-78q0 -38 8.5 -71t40.5 -65
q11 -11 29 -16.5t33 -5.5q10 0 16.5 2.5t6.5 7.5q0 11 -5.5 19t-13 14.5t-15.5 12.5t-14 12q-14 16 -20 40t-6 50v76q0 60 -6.5 90t-14 47t-13.5 29t-6 36q0 27 6 41l13.5 31.5t13.5 46t6 85.5v63q0 30 6.5 61t22.5 47z" />
    <glyph glyph-name="bar" unicode="|" horiz-adv-x="275" 
d="M135 720q-17 0 -23.5 -35.5t-6.5 -95.5v-475q0 -54 6.5 -84.5t23.5 -30.5q23 0 28 31t5 84v475q0 60 -5.5 95.5t-27.5 35.5z" />
    <glyph glyph-name="braceright" unicode="}" horiz-adv-x="378" 
d="M123 -62q-20 -20 -31.5 -30.5t-11.5 -21.5q0 -18 21 -18q17 0 40 11t39 27q12 12 18.5 31t9.5 40t3.5 43.5t0.5 42.5v47q0 42 6 69t14.5 43.5t19 26.5t19 18t14.5 17t6 26q0 20 -13 32t-28 29.5t-27.5 47.5t-12.5 87v49v47q0 23 -4.5 44t-14.5 41t-29 40
q-11 11 -29.5 16.5t-34.5 5.5q-9 0 -15.5 -2.5t-6.5 -7.5q0 -11 5 -19t12.5 -15t16 -12.5t14.5 -12.5q18 -19 22 -50.5t4 -76.5v-47q0 -56 6 -84.5t13.5 -44.5t14 -28t6.5 -36q0 -27 -6.5 -41t-14 -30.5t-13.5 -43.5t-6 -81v-52q0 -49 -6 -80t-21 -47z" />
    <glyph glyph-name="asciitilde" unicode="~" horiz-adv-x="385" 
d="M346 617q0 17 -12 22.5t-26 5.5q-13 0 -22.5 -4t-18 -8.5t-16.5 -8t-17 -3.5t-16.5 4t-17 9t-23 9t-32.5 4q-30 0 -50 -13t-32 -29t-17 -30t-5 -17q0 -17 11 -22.5t28 -5.5q16 0 24.5 4t15 9t13.5 9t20 4q7 0 16 -4.5l20 -10t24 -10t28 -4.5q23 0 42.5 9.5t33.5 23
t21.5 29.5t7.5 28z" />
    <glyph glyph-name="quotesinglbase" unicode="&#x201a;" horiz-adv-x="237" 
d="M188 66q0 35 -32 35q-17 0 -29.5 -17.5t-20.5 -40.5t-12.5 -46.5t-4.5 -35.5q0 -26 6 -36t23 -10q9 0 21.5 18.5t23 43.5t18 50.5t7.5 38.5z" />
    <glyph glyph-name="quotedblbase" unicode="&#x201e;" horiz-adv-x="433" 
d="M166 65q0 35 -32 35q-17 0 -29.5 -17.5t-21 -41t-12.5 -47t-4 -35.5q0 -46 29 -46q9 0 21.5 19t23 44t18 50.5t7.5 38.5zM370 64q0 22 -7.5 29t-24.5 7t-29 -17.5t-20.5 -41t-12.5 -47t-4 -35.5q0 -46 28 -46q10 0 22 19t22.5 44t18 50t7.5 38z" />
    <glyph glyph-name="ellipsis" unicode="&#x2026;" horiz-adv-x="467" 
d="M140 40q0 19 -14 32.5t-31 13.5q-19 0 -31 -14t-12 -32q0 -17 13 -30t30 -13t31 13t14 30zM419 40q0 19 -14 32.5t-31 13.5q-19 0 -31 -14t-12 -32q0 -17 13 -30t30 -13t31 13t14 30zM279 40q0 19 -14 32.5t-31 13.5q-19 0 -31 -14t-12 -32q0 -17 13 -30t30 -13t31 13
t14 30z" />
    <glyph glyph-name="dagger" unicode="&#x2020;" horiz-adv-x="577" 
d="M353 563q-24 24 -31 55t-9.5 58t-7.5 46t-24 19q-15 0 -18.5 -19t-6.5 -46.5t-11 -58t-31 -53.5q-20 -20 -47.5 -24.5t-52.5 -5.5t-42 -4.5t-17 -21.5q0 -19 17.5 -23t43 -6t55 -8.5t52.5 -29.5q10 -10 16 -40.5t10 -74.5t6.5 -96.5t4.5 -106.5t4 -104t5.5 -89t9 -62.5
t14.5 -23.5q8 0 12.5 23.5t7 62.5t3 89.5t1 104t1 106t3.5 96t8.5 74t14.5 39.5q22 22 52 29t56 9.5t44.5 6.5t18.5 20q0 19 -18.5 24t-44.5 7t-53.5 6.5t-45.5 21.5z" />
    <glyph glyph-name="daggerdbl" unicode="&#x2021;" horiz-adv-x="577" 
d="M356 232q-22 21 -29.5 47.5t-10.5 52.5q3 28 8 59.5t25 51.5q22 22 52 29t56 9.5t44.5 6.5t18.5 20q0 19 -18.5 24t-44.5 7t-53.5 6.5t-45.5 21.5q-24 24 -31 55t-9.5 58t-7.5 46t-24 19q-15 0 -18.5 -19t-6.5 -46.5t-11 -58t-31 -53.5q-20 -20 -47.5 -24.5t-52.5 -5.5
t-42 -4.5t-17 -21.5q0 -19 17.5 -23t43 -6t55 -8.5t52.5 -29.5q17 -17 23.5 -42t8.5 -49q-3 -29 -10.5 -62.5t-32.5 -58.5q-20 -20 -47.5 -24.5t-52.5 -5.5t-42 -4.5t-17 -21.5q0 -19 17.5 -23t43 -6t55 -8.5t52.5 -29.5q13 -13 19.5 -37.5t9.5 -53t4.5 -59t4.5 -55t8.5 -40
t17.5 -15.5q11 0 16 15.5t7 40.5t3 55t3.5 58.5t8.5 52.5t19 36q22 22 52 29t56 9.5t44.5 6.5t18.5 20q0 19 -18.5 24t-44.5 7t-53.5 6.5t-45.5 21.5z" />
    <glyph glyph-name="circumflex" unicode="&#x2c6;" horiz-adv-x="402" 
d="M303 608q7 0 7 9t-10.5 26.5t-27 35t-36 30.5t-38.5 13q-20 0 -38 -13.5t-32.5 -31t-23 -35.5t-8.5 -27q0 -7 4 -7q15 0 27.5 10t23.5 21.5t22.5 21.5t24.5 10q12 0 24.5 -10t25.5 -21.5t26.5 -21.5t28.5 -10z" />
    <glyph glyph-name="perthousand" unicode="&#x2030;" horiz-adv-x="921" 
d="M357 499q0 36 -13 68t-35.5 56.5t-53.5 38.5t-67 14q-35 0 -65 -14.5t-52 -39t-34.5 -56.5t-12.5 -67q0 -33 13.5 -61.5t36 -50t52.5 -33.5t62 -12q34 0 64.5 11.5t53.5 32.5t37 49.5t14 63.5zM899 478q0 25 -10.5 54.5t-31.5 55t-51.5 42.5t-70.5 17q-38 0 -68.5 -13
t-53 -35.5t-34.5 -54t-12 -68.5q0 -32 13 -61t35.5 -52t52.5 -36.5t64 -13.5t64.5 12t53 34t36 52.5t13.5 66.5zM682 99q0 25 -10.5 54.5t-31.5 55t-51.5 42.5t-70.5 17q-38 0 -68.5 -13t-53 -35.5t-34.5 -54t-12 -68.5q0 -32 13 -61t35.5 -52t52.5 -36.5t64 -13.5t64.5 12
t53 34t36 52.5t13.5 66.5zM622 470q0 52 29 86.5t80 34.5q49 0 81 -31.5t32 -80.5q0 -47 -28.5 -79t-84.5 -32q-25 0 -45 9t-34.5 24t-22 33t-7.5 36zM405 91q0 52 29 86.5t80 34.5q49 0 81 -31.5t32 -80.5q0 -47 -28.5 -79t-84.5 -32q-25 0 -45 9t-34.5 24t-22 33t-7.5 36z
M79 499q0 24 8 46t22.5 38.5t34.5 26.5t44 10q22 0 42.5 -10t36.5 -26.5t25 -38.5t9 -46q0 -21 -9 -39.5t-24.5 -32.5t-36 -22t-43.5 -8q-22 0 -41.5 8t-34.5 22t-24 32.5t-9 39.5zM533 588l18 32t15 29.5t8 23.5t-2 14q-5 0 -14.5 -10.5t-19 -25t-19 -30t-14.5 -25.5
l-263 -467q-3 -6 -12.5 -21t-18.5 -32.5t-14 -32.5t0 -20q7 0 17 10.5t19.5 24t17 26l10.5 17.5z" />
    <glyph glyph-name="Scaron" unicode="&#x160;" horiz-adv-x="497" 
d="M418 671q0 16 -11.5 28t-31 20t-46.5 12t-58 4q-30 0 -72.5 -9t-81.5 -32.5t-66.5 -63.5t-27.5 -102q0 -60 25 -95.5t63 -58t81.5 -37.5t81.5 -33t63 -45.5t25 -74.5q0 -51 -39 -84t-102 -33q-28 0 -47 5t-33.5 11.5t-28 12t-31.5 5.5q-10 0 -24.5 -7.5t-14.5 -29.5
q0 -20 16.5 -34.5t42.5 -24.5t56.5 -15t59.5 -5q53 0 99 14.5t80.5 41.5t54 66.5t19.5 90.5q0 46 -15 78.5t-38.5 55.5t-54.5 38t-62.5 27.5t-62 24.5t-54.5 27.5t-38.5 37t-14.5 53.5q0 28 10 49t28 35t42 21.5t51 7.5q33 0 47 -3t22.5 -6t17.5 -6t32 -3q16 0 27 11t11 25z
M136 872q-7 0 -7 -9t10.5 -26.5t27 -35t36 -30.5t38.5 -13t37.5 13.5t33 31t23 35.5t8.5 27q0 7 -4 7q-15 0 -27.5 -10t-23.5 -21.5t-22.5 -21.5t-24.5 -10q-12 0 -24.5 10t-25.5 21.5t-26.5 21.5t-28.5 10z" />
    <glyph glyph-name="guilsinglleft" unicode="&#x2039;" horiz-adv-x="281" 
d="M191 402l-82 -46q-14 -8 -28 -15.5t-25.5 -16.5t-19 -19.5t-7.5 -25.5q0 -14 9 -25.5t22 -20.5t28 -17t27 -15l76 -46q15 -9 29 -15t22 -6q9 0 9 10q0 17 -12 25.5t-25 17.5l-42 28q-17 12 -32.5 26t-15.5 38q0 25 14 37.5t33 24.5l45 29q14 10 25 20t11 28q0 8 -8 8
t-22.5 -7t-30.5 -17z" />
    <glyph glyph-name="OE" unicode="&#x152;" horiz-adv-x="977" 
d="M942 667q0 23 -22.5 31.5t-70.5 8.5h-232q-35 0 -60 -5q-79 32 -171 32q-89 0 -158 -30t-116 -82.5t-71.5 -123t-24.5 -152.5q0 -73 26 -139t74 -116t116.5 -79.5t153.5 -29.5q44 0 84 7.5t77 21.5q14 -5 35.5 -6.5t53.5 -1.5h202q59 0 90.5 6.5t31.5 28.5q0 27 -32 35.5
t-83 8.5h-113q-27 0 -51 4.5t-41.5 17t-28 35.5t-10.5 59q0 45 9 71t26 39t41 16.5t54 3.5h83q21 0 40.5 1t34.5 4.5t23.5 11t8.5 20.5q0 27 -28.5 34t-78.5 7h-75q-26 0 -50.5 2.5t-43.5 13t-30.5 31.5t-11.5 57q0 40 10 63.5t28.5 35.5t44.5 15t57 3h65q28 0 52.5 1
t42.5 5.5t28.5 12t10.5 21.5zM116 346q0 75 23 132.5t60.5 96.5t86.5 59t100 20q63 0 121 -25q-1 -131 -1 -221t-0.5 -149.5t-0.5 -92.5v-50t0.5 -22t0.5 -7q-56 -25 -120 -25q-65 0 -115 26t-84.5 67.5t-52.5 92t-18 98.5z" />
    <glyph glyph-name="quoteleft" unicode="&#x2018;" horiz-adv-x="244" 
d="M79 570q0 -22 7.5 -29t24.5 -7t29.5 17.5t21 41t12.5 47t4 35.5q0 46 -29 46q-9 0 -21.5 -19t-23 -44t-18 -50t-7.5 -38z" />
    <glyph glyph-name="quoteright" unicode="&#x2019;" horiz-adv-x="237" 
d="M188 683q0 35 -32 35q-17 0 -29.5 -17.5t-20.5 -40.5t-12.5 -46.5t-4.5 -35.5q0 -26 6 -36t23 -10q9 0 21.5 18.5t23 43.5t18 50.5t7.5 38.5z" />
    <glyph glyph-name="quotedblleft" unicode="&#x201c;" horiz-adv-x="420" 
d="M263 570q0 -22 7.5 -29t24.5 -7q16 0 29 17.5t21 41t12.5 47t4.5 35.5q0 46 -29 46q-9 0 -21.5 -19t-23 -44t-18 -50t-7.5 -38zM59 570q0 -22 7.5 -29t24.5 -7q16 0 28.5 17.5t21 41t12.5 47t4 35.5q0 23 -6 34.5t-22 11.5q-10 0 -22 -19t-22.5 -44t-18 -50t-7.5 -38z
" />
    <glyph glyph-name="quotedblright" unicode="&#x201d;" horiz-adv-x="433" 
d="M166 686q0 35 -32 35q-17 0 -29.5 -17.5t-21 -41t-12.5 -47t-4 -35.5q0 -46 29 -46q9 0 21.5 19t23 44t18 50.5t7.5 38.5zM370 685q0 22 -7.5 29t-24.5 7t-29 -17.5t-20.5 -41t-12.5 -47t-4 -35.5q0 -46 28 -46q10 0 22 19t22.5 44t18 50t7.5 38z" />
    <glyph glyph-name="bullet" unicode="&#x2022;" horiz-adv-x="278" 
d="M252 333q0 22 -8 42t-22.5 35t-34.5 23.5t-45 8.5q-50 0 -80 -31.5t-30 -77.5q0 -47 31 -78.5t79 -31.5q47 0 78.5 31t31.5 79zM160 333q0 -8 -5.5 -14t-13.5 -6t-13.5 6t-5.5 14t5.5 13.5t13.5 5.5t13.5 -5.5t5.5 -13.5z" />
    <glyph glyph-name="endash" unicode="&#x2013;" horiz-adv-x="617" 
d="M134 318q-27 0 -48 -6t-21 -23t21.5 -20.5t47.5 -3.5h350q26 0 48.5 5t22.5 19q0 9 -6.5 14.5t-16.5 9t-22.5 4.5t-25.5 1h-350z" />
    <glyph glyph-name="emdash" unicode="&#x2014;" horiz-adv-x="681" 
d="M95 318q-27 0 -48 -6t-21 -23t21.5 -20.5t47.5 -3.5h496q26 0 48.5 5t22.5 19q0 18 -22.5 23.5t-48.5 5.5h-496z" />
    <glyph glyph-name="tilde" unicode="&#x2dc;" horiz-adv-x="339" 
d="M246 615q-21 -3 -39 3t-35.5 14t-37.5 14t-45 2q-29 -5 -38 -19.5t-7 -28.5q2 -12 8.5 -15t15.5 -1t18 4.5t19 4.5q27 4 45 -2t34 -14t33 -14t43 -2q17 2 31 15.5t11 33.5q-2 11 -6.5 14t-12.5 2q-8 -2 -17.5 -5.5t-19.5 -5.5z" />
    <glyph glyph-name="trademark" unicode="&#x2122;" horiz-adv-x="1007" 
d="M507 721q-12 0 -22.5 -6.5t-18.5 -17t-13 -23t-5 -25.5q0 -15 1.5 -49.5t3 -73t3 -72.5t1.5 -48q0 -25 8.5 -34.5t21.5 -9.5q16 0 22.5 19.5t11.5 43.5t13.5 43.5t29.5 19.5q25 0 37 -20.5t22 -45t23 -45t40 -20.5q15 0 25.5 9.5t18.5 24.5t14.5 31.5t14 31.5t17.5 24.5
t25 9.5t24 -9t14.5 -23t8.5 -30t7 -30t10.5 -23t18.5 -9q9 0 14.5 6t8.5 15t4.5 19t1.5 18q0 12 0.5 35t1.5 51.5t1.5 58t0.5 55.5v9q0 12 -1 27t-7 28.5t-18.5 23t-34.5 9.5q-31 0 -48 -15t-27.5 -38t-17 -49.5t-15 -49.5t-23 -38.5t-40.5 -15.5q-29 0 -44 15.5t-24 38.5
t-15 50t-16.5 50t-28.5 38.5t-50 15.5zM216 725h-4q-23 0 -43 -1t-36 -4.5t-25 -9.5t-9 -16q0 -9 13.5 -17.5t30 -23.5t30.5 -39.5t14 -64.5v-125q0 -9 1.5 -19.5t5.5 -20t9.5 -15.5t14.5 -6q8 0 13.5 6t8.5 14.5t4.5 19t1.5 19.5v128q0 40 13 63.5t29 38t29 23.5t13 20
q0 10 -10.5 16t-27 9t-37 4t-39.5 1z" />
    <glyph glyph-name="scaron" unicode="&#x161;" horiz-adv-x="382" 
d="M202 490q-30 0 -62 -7.5t-59 -24t-44 -43t-17 -63.5q0 -42 18 -66.5t45.5 -40t59.5 -25t59.5 -22t45.5 -31.5t18 -52q0 -11 -5 -24.5t-16 -25t-27.5 -19.5t-40.5 -8q-29 0 -52.5 10t-40.5 10q-11 0 -20 -4t-9 -18q0 -13 12.5 -22t30.5 -14.5t38 -8t36 -2.5q50 0 87 10.5
t62 28t37 40.5t12 47q0 48 -18 76t-44.5 44.5t-58 26t-58 21t-44.5 29.5t-18 52q0 19 9 31t21.5 19t24.5 10t18 3q21 0 34.5 -3.5t30.5 -3.5q15 0 26 4.5t11 18.5q0 12 -11.5 20.5t-28 14.5t-34 9t-28.5 3zM80 646q-7 0 -7 -9t10.5 -26.5t27 -35t36 -30.5t38.5 -13
t37.5 13.5t33 31t23 35.5t8.5 27q0 7 -4 7q-15 0 -27.5 -10t-23.5 -21.5t-22.5 -21.5t-24.5 -10q-12 0 -24.5 10t-25.5 21.5t-26.5 21.5t-28.5 10z" />
    <glyph glyph-name="guilsinglright" unicode="&#x203a;" horiz-adv-x="281" 
d="M89 402q-16 10 -30.5 17t-22.5 7t-8 -8q0 -18 11 -28t25 -20l45 -29q19 -12 33 -24.5t14 -37.5q0 -24 -15.5 -38t-32.5 -26l-42 -28q-13 -9 -25 -17.5t-12 -25.5q0 -10 9 -10q8 0 22 6t29 15l76 46q12 7 27 15t28 17t22 20.5t9 25.5q0 15 -7.5 25.5t-19 19.5t-25.5 16.5
t-28 15.5z" />
    <glyph glyph-name="oe" unicode="&#x153;" horiz-adv-x="885" 
d="M865 293q0 44 -16.5 80.5t-44.5 62.5t-64.5 40.5t-76.5 14.5q-148 0 -198 -93q-36 44 -89.5 67t-112.5 23q-49 0 -95 -17t-81.5 -49t-57 -78.5t-21.5 -105.5q0 -57 20.5 -103t55.5 -78t81.5 -49t97.5 -17q72 0 126.5 29.5t87.5 77.5q27 -42 70 -66.5t99 -23.5
q39 0 66.5 6.5t44.5 15.5t25 19t8 16q0 14 -5 21t-19 7q-15 0 -28.5 -5t-28.5 -10.5t-31.5 -10.5t-36.5 -5t-42.5 6.5t-41.5 18.5t-31.5 30.5t-12.5 42.5t11.5 39.5t29.5 24.5t39 12.5t40 3.5q29 0 51 -2t39 -4t31 -4t28 -2q40 0 61.5 18t21.5 47zM98 238q0 36 12.5 68
t34.5 55.5t52.5 37.5t65.5 14q34 0 64 -12.5t52.5 -36t36 -55.5t13.5 -71q0 -38 -14 -69t-37 -53.5t-53 -35t-62 -12.5q-38 0 -68.5 15t-52 39t-33 54.5t-11.5 61.5zM511 351q0 20 9.5 38.5t25 32.5t36.5 22.5t44 8.5q24 0 47.5 -7t42 -20.5t30.5 -32.5t12 -44
q0 -21 -9.5 -36t-26 -24.5t-38.5 -14t-46 -4.5q-19 0 -41 3.5t-41 12.5t-32 25t-13 40z" />
    <glyph glyph-name="Ydieresis" unicode="&#x178;" horiz-adv-x="528" 
d="M270 464q-18 0 -33 8.5t-28 22.5t-25 33t-23 39l-25 43q-22 39 -47 67.5t-60 28.5q-20 0 -26.5 -13t-6.5 -27q0 -17 14 -43t37 -58l83 -120q36 -52 61.5 -107t25.5 -104v-160q0 -31 13 -51t33 -20q23 0 35 23t12 51v165q0 45 26.5 99t63.5 108l86 126q21 30 34 54.5
t13 39.5q0 22 -11 27.5t-20 5.5q-29 0 -53.5 -26.5t-46.5 -62.5l-27 -46q-12 -20 -24 -39t-25 -33t-27 -22.5t-29 -8.5zM385 874q-20 0 -29.5 -11t-9.5 -25q0 -15 10 -27.5t29 -12.5q20 0 31.5 12.5t11.5 27.5q0 14 -10 25t-33 11zM166 874q-20 0 -29.5 -11t-9.5 -25
q0 -15 10 -27.5t29 -12.5q20 0 31 12.5t11 27.5q0 14 -10 25t-32 11z" />
    <glyph glyph-name="exclamdown" unicode="&#xa1;" horiz-adv-x="246" 
d="M87 -39q0 -13 2 -28.5t6.5 -28.5t12.5 -22t21 -9q14 0 22.5 9t12.5 22.5t5 29t1 27.5v301q0 16 -2 33.5t-6.5 31t-12.5 22.5t-20 9t-20.5 -9t-13 -23t-6.5 -31t-2 -33v-301zM129 591q-18 0 -31.5 -11.5t-13.5 -29.5q0 -19 13 -32t32 -13q18 0 30.5 13.5t12.5 31.5
q0 17 -13 29t-30 12z" />
    <glyph glyph-name="cent" unicode="&#xa2;" horiz-adv-x="415" 
d="M262 600q-11 0 -23 -8t-23.5 -18t-22 -19.5t-19.5 -12.5q-16 -6 -42 -20t-50.5 -41t-42 -69.5t-17.5 -104.5q0 -45 10 -78.5t25.5 -58.5t34 -42t35 -27.5t28.5 -15.5t14 -7q25 -16 38 -28t22 -20t17.5 -12t23.5 -4q17 0 24.5 5.5t13.5 13.5t13 17.5t23 17.5
q17 8 32.5 18.5t15.5 31.5q0 12 -6.5 17.5t-16 8.5t-21 5.5t-20.5 8.5q-13 9 -17.5 17.5t-8 15.5t-9.5 11t-21 4t-20 -6t-10.5 -12.5t-16.5 -12.5t-38 -6q-8 0 -22.5 6.5t-29 22t-25.5 41.5t-11 66q0 27 6.5 53t18 46.5t26.5 33.5t32 13q25 0 34 -7t14.5 -15.5t13.5 -15.5
t31 -7q10 0 15.5 8.5t11 19t11.5 20.5t18 13q10 3 21 5t20 5t14.5 9.5t5.5 18.5t-6 20t-13.5 13.5t-16 9t-12.5 5.5q-8 4 -16.5 11.5t-18.5 15.5t-22 14t-25 6z" />
    <glyph glyph-name="sterling" unicode="&#xa3;" horiz-adv-x="571" 
d="M538 670q0 13 -14.5 23t-35.5 17.5t-44.5 11.5t-42.5 4q-36 0 -63.5 -7t-47 -16.5t-32.5 -20.5t-21 -19q-23 -23 -42 -62t-19 -83q0 -41 -10.5 -65t-23.5 -39.5t-23.5 -27.5t-10.5 -30q0 -16 9.5 -24t21.5 -21.5t22 -39t10 -74.5q0 -54 -11 -79.5t-24 -38.5t-24 -20.5
t-11 -25.5q0 -12 9 -20t23 -12t29.5 -5.5t29.5 -1.5q28 0 67 1t75 2.5t61 3l25 1.5q13 0 28.5 1t29.5 4t23.5 8t9.5 14q0 6 -8.5 10.5t-21 7t-27 3.5t-26.5 1q-38 0 -69 7t-53.5 24t-34.5 46.5t-12 74.5q0 39 11.5 64.5t28.5 41t37.5 23.5t37.5 12t28.5 7t11.5 8
q0 4 -11.5 7t-28.5 7.5t-37 11.5t-37 20.5t-28.5 34t-11.5 51.5q0 21 8 48.5t26 52t46.5 42t69.5 17.5q7 0 18.5 -2t24 -4l25 -4t21.5 -2q17 0 28 6t11 25z" />
    <glyph glyph-name="currency" unicode="&#xa4;" horiz-adv-x="674" 
d="M92 488q-27 0 -48 -9.5t-21 -27.5q0 -16 18.5 -23t42.5 -8q-2 -17 -3 -34.5t-1 -35.5q0 -19 1.5 -38t6.5 -39h-25q-27 0 -48 -9.5t-21 -27.5q0 -16 21.5 -23.5t47.5 -7.5h45q18 -43 47 -82.5t71 -70t98 -48.5t128 -18q56 0 96.5 10t67 24.5t39.5 29.5t13 26q0 18 -8 30.5
t-31 12.5q-21 0 -37.5 -8.5t-35.5 -18t-44.5 -18t-62.5 -8.5q-78 0 -136.5 39.5t-92.5 99.5h149q26 0 48.5 8.5t22.5 22.5q0 18 -22.5 27.5t-48.5 9.5h-177q-13 42 -13 89q0 15 1.5 29.5t3.5 28.5h214q26 0 48.5 8.5t22.5 22.5q0 18 -22.5 27.5t-48.5 9.5h-194
q17 39 43.5 70.5t59 53t69.5 33t76 11.5q31 0 53 -6t39.5 -13.5t32 -13.5t30.5 -6q40 0 40 38q0 13 -14.5 27.5t-40 26t-62 19t-79.5 7.5q-63 0 -119.5 -16t-102 -47.5t-79 -77.5t-51.5 -106h-7z" />
    <glyph glyph-name="currency" unicode="&#x20ac;" horiz-adv-x="674" 
d="M92 488q-27 0 -48 -9.5t-21 -27.5q0 -16 18.5 -23t42.5 -8q-2 -17 -3 -34.5t-1 -35.5q0 -19 1.5 -38t6.5 -39h-25q-27 0 -48 -9.5t-21 -27.5q0 -16 21.5 -23.5t47.5 -7.5h45q18 -43 47 -82.5t71 -70t98 -48.5t128 -18q56 0 96.5 10t67 24.5t39.5 29.5t13 26q0 18 -8 30.5
t-31 12.5q-21 0 -37.5 -8.5t-35.5 -18t-44.5 -18t-62.5 -8.5q-78 0 -136.5 39.5t-92.5 99.5h149q26 0 48.5 8.5t22.5 22.5q0 18 -22.5 27.5t-48.5 9.5h-177q-13 42 -13 89q0 15 1.5 29.5t3.5 28.5h214q26 0 48.5 8.5t22.5 22.5q0 18 -22.5 27.5t-48.5 9.5h-194
q17 39 43.5 70.5t59 53t69.5 33t76 11.5q31 0 53 -6t39.5 -13.5t32 -13.5t30.5 -6q40 0 40 38q0 13 -14.5 27.5t-40 26t-62 19t-79.5 7.5q-63 0 -119.5 -16t-102 -47.5t-79 -77.5t-51.5 -106h-7z" />
    <glyph glyph-name="yen" unicode="&#xa5;" horiz-adv-x="528" 
d="M111 358q-27 0 -48 -9.5t-21 -27.5q0 -17 21.5 -24t47.5 -7h98q4 -15 6 -28.5t2 -27.5v-16h-108q-27 0 -48 -9.5t-21 -27.5q0 -16 21.5 -23.5t47.5 -7.5h108v-76q0 -31 13 -51t33 -20q23 0 35 23t12 51v73h105q26 0 48.5 8.5t22.5 22.5q0 18 -22.5 27.5t-48.5 9.5h-105
v24q0 24 7 48h100q26 0 48.5 8.5t22.5 22.5q0 18 -22.5 27.5t-48.5 9.5h-73q25 46 56 91l86 126q21 30 34 54.5t13 39.5q0 22 -11 27.5t-20 5.5q-29 0 -53.5 -26.5t-46.5 -62.5l-27 -46q-12 -20 -24 -39t-25 -33t-27 -22.5t-29 -8.5q-18 0 -33 8.5t-28 22.5t-25 33t-23 39
l-25 43q-22 39 -47 67.5t-60 28.5q-20 0 -26.5 -13t-6.5 -27q0 -17 14 -43t37 -58l83 -120q29 -43 52 -87h-71z" />
    <glyph glyph-name="brokenbar" unicode="&#xa6;" horiz-adv-x="216" 
d="M181 115q0 31 -3 59t-11 50t-22.5 35t-38.5 13q-22 0 -36 -13t-22.5 -35t-12 -50t-3.5 -59t5 -59t14 -49.5t23 -34.5t32 -13q23 0 37.5 13t23 34.5t11.5 49.5t3 59zM181 564q0 31 -3 59t-11 50t-22.5 35t-38.5 13q-22 0 -36 -13t-22.5 -35t-12 -50t-3.5 -59
q0 -30 5 -58.5t14 -50t23 -34.5t32 -13q23 0 37.5 13t23 34.5t11.5 50t3 58.5z" />
    <glyph glyph-name="section" unicode="&#xa7;" horiz-adv-x="447" 
d="M261 707q-30 0 -62 -7.5t-59 -24t-44 -43t-17 -63.5q0 -34 11.5 -55.5t30.5 -36.5q-41 -14 -71 -44.5t-30 -80.5q0 -42 18 -66.5t45.5 -40t59.5 -25t59.5 -22t45.5 -31.5t18 -52q0 -11 -5 -24.5t-16 -25t-27.5 -19.5t-40.5 -8q-29 0 -52.5 10t-40.5 10q-11 0 -20 -4
t-9 -18q0 -13 12.5 -22t30.5 -14.5t38 -8t36 -2.5q50 0 87 10.5t62 28t37 40.5t12 47q0 38 -11.5 62.5t-29.5 41.5q51 17 75.5 47.5t24.5 65.5q0 48 -18 76t-44.5 44.5t-58 26t-58 21t-44.5 29.5t-18 52q0 19 9 31t21.5 19t24.5 10t18 3q21 0 34.5 -3.5t30.5 -3.5
q15 0 26 4.5t11 18.5q0 12 -11.5 20.5t-28 14.5t-34 9t-28.5 3zM129 364q0 19 9 31t21.5 19t24.5 10t18 3q14 0 24 -2t21 -4q32 -13 55 -32t23 -57q0 -20 -15.5 -43.5t-49.5 -31.5q-24 9 -47.5 16.5t-42 19t-30 28t-11.5 43.5z" />
    <glyph glyph-name="dieresis" unicode="&#xa8;" horiz-adv-x="506" 
d="M380 718q-20 0 -29.5 -11t-9.5 -25q0 -15 10 -27.5t29 -12.5q20 0 31.5 12.5t11.5 27.5q0 14 -10 25t-33 11zM161 718q-20 0 -29.5 -11t-9.5 -25q0 -15 10 -27.5t29 -12.5q20 0 31 12.5t11 27.5q0 14 -10 25t-32 11z" />
    <glyph glyph-name="copyright" unicode="&#xa9;" horiz-adv-x="875" 
d="M790 369q0 58 -16.5 107t-44.5 88t-64.5 68.5t-77.5 49t-83.5 29.5t-81.5 10q-54 0 -117 -22.5t-117 -67.5t-90 -112.5t-36 -157.5q0 -70 27 -135.5t75 -116.5t114.5 -81.5t146.5 -30.5q73 0 139 26.5t116.5 75.5t80 117.5t29.5 152.5zM424 700q78 0 139 -32t102.5 -82.5
t63 -111.5t21.5 -120q0 -61 -25 -121.5t-68.5 -108.5t-103 -78t-128.5 -30q-65 0 -122.5 29t-101 76.5t-68.5 107.5t-25 122q0 70 23 133.5t65 111.5t100 76t128 28zM427 551q-53 0 -85.5 -18.5t-51 -46.5t-25 -59.5t-6.5 -57.5q0 -40 10 -76t31 -63.5t54 -43.5t78 -16
q21 0 41 4.5t36 11.5t25.5 15t9.5 14q0 4 -3 8.5t-8 4.5q-6 0 -13 -5t-17.5 -10.5t-24.5 -10.5t-35 -5q-30 0 -55 13.5t-43 36t-28 51.5t-10 60q0 33 9 63t25.5 53t39.5 36.5t51 13.5q21 0 37.5 -4.5t29.5 -10.5t23 -10.5t16 -4.5q5 0 9 3t4 11q0 14 -34.5 28.5t-89.5 14.5z
" />
    <glyph glyph-name="ordfeminine" unicode="&#xaa;" horiz-adv-x="373" 
d="M335 575q0 71 -33 107t-94 36q-31 0 -56 -5t-42.5 -12t-27 -13t-9.5 -9q0 -2 3 -3t5 -1q13 0 36.5 7t60.5 7q10 0 25 -4t28.5 -12t23 -20.5t9.5 -29.5q0 -16 -8 -27.5t-21 -19.5t-28 -12t-28 -4q-24 0 -50.5 -4t-48 -14.5t-35.5 -29.5t-14 -49t12.5 -48.5t29 -28
t32.5 -13t24 -3.5t18.5 1.5t22 5t22 8.5t17.5 12q-17 -2 -35.5 1.5t-34.5 12t-26.5 22.5t-10.5 34q0 21 11.5 36.5t27 25t30.5 14t23 4.5q10 0 22.5 -4t23.5 -12.5t18.5 -20t7.5 -26.5q0 -17 -5.5 -31t-12 -25t-13 -18t-9.5 -9q6 -6 15.5 -9.5t19.5 -5.5t19 -2.5t14 -0.5h1
q23 0 31.5 14.5t8.5 32.5v145z" />
    <glyph glyph-name="guillemotleft" unicode="&#xab;" horiz-adv-x="463" 
d="M381 402l-82 -46q-14 -8 -28 -15.5t-25.5 -16.5t-19 -19.5t-7.5 -25.5q0 -14 9 -25.5t22 -20.5t28 -17t27 -15l76 -46q15 -9 29 -15t22 -6q9 0 9 10q0 17 -12 25.5t-25 17.5l-42 28q-17 12 -32.5 26t-15.5 38q0 25 14 37.5t33 24.5l45 29q14 10 25 20t11 28q0 8 -8 8
t-22.5 -7t-30.5 -17zM189 403l-82 -46q-14 -8 -28 -15.5t-25.5 -16.5t-19 -19.5t-7.5 -25.5q0 -14 9 -25.5t22 -20.5t28 -17t27 -15l76 -46q15 -9 29 -15t22 -6q9 0 9 10q0 17 -12 25.5t-25 17.5l-42 28q-17 12 -32.5 26t-15.5 38q0 25 14 37.5t33 24.5l45 29q14 10 25 20
t11 28q0 8 -8 8t-22.5 -7t-30.5 -17z" />
    <glyph glyph-name="logicalnot" unicode="&#xac;" horiz-adv-x="1024" 
d="M41 -4h824q33 0 59 8.5t44 23.5t27.5 34.5t9.5 41.5q0 43 -22.5 68t-59.5 37q25 12 40.5 34.5t15.5 53.5q0 17 -4 31.5t-15 27.5h3v140h-47l-4 -93h-292v188h-231v125h53v48h-415l-9 -106h49l4 58h109v-313h-139v-407zM230 356v360h108v-173h232v-139h-53v-48h2l75 -186
h-192l-20 -47h230l32 -79h-554v312h140zM699 44h-3l-128 312h266q30 0 48 -6.5t28.5 -16t14 -20t3.5 -18.5q0 -28 -25 -46.5t-60 -18.5h-114v-48h103q8 0 28 -1.5t40.5 -8t36.5 -21t16 -40.5t-12.5 -39.5t-32 -20t-42 -7.5t-43.5 -1h-124v1zM914 623h46l-3 140h-294v-221
h153v-51h47v151h-47v-52h-103v125h193zM338 405l13 -178h48l12 178h-73z" />
    <glyph glyph-name="registered" unicode="&#xae;" horiz-adv-x="479" 
d="M454 509q0 60 -18.5 102.5t-49 69.5t-71 40t-84.5 13q-51 0 -91 -17.5t-67.5 -48t-42 -71.5t-14.5 -88q0 -43 15 -81.5t43 -67.5t68 -46t89 -17q47 0 88 15t71 42.5t47 67t17 87.5zM74 509q0 43 13.5 76.5t35.5 56t50 34.5t58 12q35 0 65 -12t52.5 -35.5t35 -56.5
t12.5 -75q0 -34 -12 -64t-34 -52.5t-52.5 -35.5t-66.5 -13q-38 0 -67 15t-49 39t-30.5 53t-10.5 58zM305 648q-9 0 -15.5 -2t-12.5 -5t-13 -5t-19 -2q-14 0 -23 3.5t-23 3.5q-12 0 -19 -5t-10 -12.5t-4 -16.5t-1 -17v-173q0 -15 6 -29.5t19 -14.5q14 0 20 15t6 35v71
q0 38 8.5 57t17.5 27q12 13 23 18t30 10q14 3 25 7.5t11 18.5q0 16 -26 16z" />
    <glyph glyph-name="plusminus" unicode="&#xb1;" horiz-adv-x="524" 
d="M333 468q-24 24 -31 55t-9.5 58t-7.5 46t-24 19q-15 0 -18.5 -19t-6.5 -46.5t-11 -58t-31 -53.5q-20 -20 -47.5 -24.5t-52.5 -5.5t-42 -4.5t-17 -21.5q0 -19 17.5 -23t43 -6t55 -8.5t52.5 -29.5q19 -20 25 -48.5t8 -55t6.5 -45.5t22.5 -19q16 0 20.5 19t6.5 45.5t7.5 55
t24.5 46.5q22 22 52 29t56 9.5t44.5 6.5t18.5 20q0 19 -18.5 24t-44.5 7t-53.5 6.5t-45.5 21.5zM106 144q-27 0 -48 -9.5t-21 -26.5t21.5 -24t47.5 -7h318q26 0 48.5 8.5t22.5 22.5q0 18 -22.5 27t-48.5 9h-318z" />
    <glyph glyph-name="acute" unicode="&#xb4;" horiz-adv-x="237" 
d="M188 683q0 35 -32 35q-17 0 -29.5 -17.5t-20.5 -40.5t-12.5 -46.5t-4.5 -35.5q0 -26 6 -36t23 -10q9 0 21.5 18.5t23 43.5t18 50.5t7.5 38.5z" />
    <glyph glyph-name="paragraph" unicode="&#xb6;" horiz-adv-x="577" 
d="M484 -98v621q0 27 -17 39.5t-42 12.5h-167q-60 0 -99.5 -9t-63 -29t-32.5 -52.5t-9 -79.5q0 -45 14.5 -74t37.5 -46.5t51 -24.5t54 -7q13 0 18.5 -13.5t5.5 -31.5v-306q0 -20 11 -39.5t31 -19.5q21 0 29 19.5t8 39.5v502q0 28 14.5 52t34.5 24q16 0 29.5 -22t13.5 -54
v-502q0 -21 11 -40t29 -19q23 0 30.5 18.5t7.5 40.5zM236 407q0 -21 -13 -41t-36 -20q-24 0 -37 20t-13 41q0 10 3.5 22t10.5 22.5t16 17.5t21 7t21 -7t15 -17.5t9 -22.5t3 -22z" />
    <glyph glyph-name="periodcentered" unicode="&#xb7;" horiz-adv-x="196" 
d="M146 323q0 19 -14 32.5t-31 13.5q-19 0 -31 -14t-12 -32q0 -17 13 -30t30 -13t31 13t14 30z" />
    <glyph glyph-name="periodcentered" unicode="&#x2219;" horiz-adv-x="196" 
d="M146 323q0 19 -14 32.5t-31 13.5q-19 0 -31 -14t-12 -32q0 -17 13 -30t30 -13t31 13t14 30z" />
    <glyph glyph-name="ordmasculine" unicode="&#xba;" horiz-adv-x="353" 
d="M323 540q0 39 -12 66.5t-32 45t-46 26t-55 8.5q-33 0 -59 -11.5t-44 -31t-27 -46t-9 -57.5q0 -28 10 -53t28 -43.5t43.5 -29.5t57.5 -11q31 0 57.5 9.5t46 27.5t30.5 43.5t11 56.5zM108 543q0 41 22 62.5t51 21.5q33 0 55.5 -22t22.5 -62q0 -32 -21.5 -54.5t-56.5 -22.5
q-18 0 -31.5 7t-22.5 18.5t-14 25t-5 26.5zM112 288q-27 0 -48 -9.5t-21 -26.5t21.5 -24t47.5 -7h138q26 0 48.5 8.5t22.5 22.5q0 18 -22.5 27t-48.5 9h-138z" />
    <glyph glyph-name="guillemotright" unicode="&#xbb;" horiz-adv-x="463" 
d="M89 402q-16 10 -30.5 17t-22.5 7t-8 -8q0 -18 11 -28t25 -20l45 -29q19 -12 33 -24.5t14 -37.5q0 -24 -15.5 -38t-32.5 -26l-42 -28q-13 -9 -25 -17.5t-12 -25.5q0 -10 9 -10q8 0 22 6t29 15l76 46q12 7 27 15t28 17t22 20.5t9 25.5q0 15 -7.5 25.5t-19 19.5t-25.5 16.5
t-28 15.5zM281 403q-16 10 -30.5 17t-22.5 7t-8 -8q0 -18 11 -28t25 -20l45 -29q19 -12 33 -24.5t14 -37.5q0 -24 -15.5 -38t-32.5 -26l-42 -28q-13 -9 -25 -17.5t-12 -25.5q0 -10 9 -10q8 0 22 6t29 15l76 46q12 7 27 15t28 17t22 20.5t9 25.5q0 15 -7.5 25.5t-19 19.5
t-25.5 16.5t-28 15.5z" />
    <glyph glyph-name="questiondown" unicode="&#xbf;" horiz-adv-x="452" 
d="M28 70q0 -39 16 -70.5t43.5 -54t65 -35t80.5 -12.5q47 0 83 15t60 35t36.5 41t12.5 33q0 22 -9.5 30.5t-23.5 8.5q-22 0 -37.5 -12t-31.5 -26t-35.5 -26t-50.5 -12q-32 0 -53 11t-33.5 27.5t-18 35.5t-5.5 34q0 40 22 73t48 62t48 57t22 59q0 18 -7 33t-25 15
q-17 0 -27.5 -13t-20.5 -31.5t-21.5 -40.5t-29.5 -40q-10 -10 -28 -27t-36 -42t-31 -57t-13 -71zM241 620q-21 0 -33.5 -13t-12.5 -29q0 -17 11.5 -30.5t34.5 -13.5q20 0 30.5 13.5t10.5 30.5q0 16 -9 29t-32 13z" />
    <glyph glyph-name="Agrave" unicode="&#xc0;" horiz-adv-x="640" 
d="M442 523q-17 38 -29.5 70t-26 55.5t-29.5 36.5t-39 13q-21 0 -35.5 -12.5t-27.5 -34t-24.5 -51t-26.5 -62.5l-121 -277q-8 -17 -22 -47.5t-28 -63.5t-24.5 -63.5t-10.5 -47.5q0 -22 10 -30t31 -8q16 0 29 15t25 35.5t22.5 40.5t20.5 31q15 15 29 23t30.5 12t38 5t51.5 1
h68q26 0 46 -1t36.5 -5t30 -12t27.5 -21q16 -17 27.5 -38.5t22.5 -40.5t25.5 -32.5t38.5 -13.5q22 0 28.5 13.5t6.5 20.5v1q0 15 -9.5 42.5t-22 59t-26.5 62t-23 51.5zM208 317q0 11 8 43t22.5 66.5t33.5 61t42 26.5q16 0 30.5 -12.5t26.5 -31.5t21.5 -42t16 -44.5t10 -38
t3.5 -23.5q0 -41 -23.5 -65t-82.5 -24q-51 0 -79.5 19.5t-28.5 64.5zM267 893q0 -13 7.5 -38.5t18 -50.5t23 -43.5t21.5 -18.5q17 0 23 10t6 36q0 12 -4.5 35.5t-12.5 46.5t-21 40.5t-29 17.5q-32 0 -32 -35z" />
    <glyph glyph-name="Aacute" unicode="&#xc1;" horiz-adv-x="640" 
d="M442 523q-17 38 -29.5 70t-26 55.5t-29.5 36.5t-39 13q-21 0 -35.5 -12.5t-27.5 -34t-24.5 -51t-26.5 -62.5l-121 -277q-8 -17 -22 -47.5t-28 -63.5t-24.5 -63.5t-10.5 -47.5q0 -22 10 -30t31 -8q16 0 29 15t25 35.5t22.5 40.5t20.5 31q15 15 29 23t30.5 12t38 5t51.5 1
h68q26 0 46 -1t36.5 -5t30 -12t27.5 -21q16 -17 27.5 -38.5t22.5 -40.5t25.5 -32.5t38.5 -13.5q22 0 28.5 13.5t6.5 20.5v1q0 15 -9.5 42.5t-22 59t-26.5 62t-23 51.5zM208 317q0 11 8 43t22.5 66.5t33.5 61t42 26.5q16 0 30.5 -12.5t26.5 -31.5t21.5 -42t16 -44.5t10 -38
t3.5 -23.5q0 -41 -23.5 -65t-82.5 -24q-51 0 -79.5 19.5t-28.5 64.5zM366 895q0 35 -32 35q-17 0 -29.5 -17.5t-20.5 -40.5t-12.5 -46.5t-4.5 -35.5q0 -26 6 -36t23 -10q9 0 21.5 18.5t23 43.5t18 50.5t7.5 38.5z" />
    <glyph glyph-name="Acircumflex" unicode="&#xc2;" horiz-adv-x="640" 
d="M442 523q-17 38 -29.5 70t-26 55.5t-29.5 36.5t-39 13q-21 0 -35.5 -12.5t-27.5 -34t-24.5 -51t-26.5 -62.5l-121 -277q-8 -17 -22 -47.5t-28 -63.5t-24.5 -63.5t-10.5 -47.5q0 -22 10 -30t31 -8q16 0 29 15t25 35.5t22.5 40.5t20.5 31q15 15 29 23t30.5 12t38 5t51.5 1
h68q26 0 46 -1t36.5 -5t30 -12t27.5 -21q16 -17 27.5 -38.5t22.5 -40.5t25.5 -32.5t38.5 -13.5q22 0 28.5 13.5t6.5 20.5v1q0 15 -9.5 42.5t-22 59t-26.5 62t-23 51.5zM208 317q0 11 8 43t22.5 66.5t33.5 61t42 26.5q16 0 30.5 -12.5t26.5 -31.5t21.5 -42t16 -44.5t10 -38
t3.5 -23.5q0 -41 -23.5 -65t-82.5 -24q-51 0 -79.5 19.5t-28.5 64.5zM418 740q7 0 7 9t-10.5 26.5t-27 35t-36 30.5t-38.5 13q-20 0 -38 -13.5t-32.5 -31t-23 -35.5t-8.5 -27q0 -7 4 -7q15 0 27.5 10t23.5 21.5t22.5 21.5t24.5 10q12 0 24.5 -10t25.5 -21.5t26.5 -21.5
t28.5 -10z" />
    <glyph glyph-name="Atilde" unicode="&#xc3;" horiz-adv-x="640" 
d="M442 523q-17 38 -29.5 70t-26 55.5t-29.5 36.5t-39 13q-21 0 -35.5 -12.5t-27.5 -34t-24.5 -51t-26.5 -62.5l-121 -277q-8 -17 -22 -47.5t-28 -63.5t-24.5 -63.5t-10.5 -47.5q0 -22 10 -30t31 -8q16 0 29 15t25 35.5t22.5 40.5t20.5 31q15 15 29 23t30.5 12t38 5t51.5 1
h68q26 0 46 -1t36.5 -5t30 -12t27.5 -21q16 -17 27.5 -38.5t22.5 -40.5t25.5 -32.5t38.5 -13.5q22 0 28.5 13.5t6.5 20.5v1q0 15 -9.5 42.5t-22 59t-26.5 62t-23 51.5zM208 317q0 11 8 43t22.5 66.5t33.5 61t42 26.5q16 0 30.5 -12.5t26.5 -31.5t21.5 -42t16 -44.5t10 -38
t3.5 -23.5q0 -41 -23.5 -65t-82.5 -24q-51 0 -79.5 19.5t-28.5 64.5zM387 798q-21 -3 -39 3t-35.5 14t-37.5 14t-45 2q-29 -5 -38 -19.5t-7 -28.5q2 -12 8.5 -15t15.5 -1t18 4.5t19 4.5q27 4 45 -2t34 -14t33 -14t43 -2q17 2 31 15.5t11 33.5q-2 11 -6.5 14t-12.5 2
q-8 -2 -17.5 -5.5t-19.5 -5.5z" />
    <glyph glyph-name="Adieresis" unicode="&#xc4;" horiz-adv-x="640" 
d="M442 523q-17 38 -29.5 70t-26 55.5t-29.5 36.5t-39 13q-21 0 -35.5 -12.5t-27.5 -34t-24.5 -51t-26.5 -62.5l-121 -277q-8 -17 -22 -47.5t-28 -63.5t-24.5 -63.5t-10.5 -47.5q0 -22 10 -30t31 -8q16 0 29 15t25 35.5t22.5 40.5t20.5 31q15 15 29 23t30.5 12t38 5t51.5 1
h68q26 0 46 -1t36.5 -5t30 -12t27.5 -21q16 -17 27.5 -38.5t22.5 -40.5t25.5 -32.5t38.5 -13.5q22 0 28.5 13.5t6.5 20.5v1q0 15 -9.5 42.5t-22 59t-26.5 62t-23 51.5zM208 317q0 11 8 43t22.5 66.5t33.5 61t42 26.5q16 0 30.5 -12.5t26.5 -31.5t21.5 -42t16 -44.5t10 -38
t3.5 -23.5q0 -41 -23.5 -65t-82.5 -24q-51 0 -79.5 19.5t-28.5 64.5zM424 823q-20 0 -29.5 -11t-9.5 -25q0 -15 10 -27.5t29 -12.5q20 0 31.5 12.5t11.5 27.5q0 14 -10 25t-33 11zM205 823q-20 0 -29.5 -11t-9.5 -25q0 -15 10 -27.5t29 -12.5q20 0 31 12.5t11 27.5
q0 14 -10 25t-32 11z" />
    <glyph glyph-name="Aring" unicode="&#xc5;" horiz-adv-x="640" 
d="M442 523q-17 38 -29.5 70t-26 55.5t-29.5 36.5t-39 13q-21 0 -35.5 -12.5t-27.5 -34t-24.5 -51t-26.5 -62.5l-121 -277q-8 -17 -22 -47.5t-28 -63.5t-24.5 -63.5t-10.5 -47.5q0 -22 10 -30t31 -8q16 0 29 15t25 35.5t22.5 40.5t20.5 31q15 15 29 23t30.5 12t38 5t51.5 1
h68q26 0 46 -1t36.5 -5t30 -12t27.5 -21q16 -17 27.5 -38.5t22.5 -40.5t25.5 -32.5t38.5 -13.5q22 0 28.5 13.5t6.5 20.5v1q0 15 -9.5 42.5t-22 59t-26.5 62t-23 51.5zM208 317q0 11 8 43t22.5 66.5t33.5 61t42 26.5q16 0 30.5 -12.5t26.5 -31.5t21.5 -42t16 -44.5t10 -38
t3.5 -23.5q0 -41 -23.5 -65t-82.5 -24q-51 0 -79.5 19.5t-28.5 64.5zM311 869q-29 0 -45.5 -16t-16.5 -42q0 -11 5.5 -26t14.5 -28.5t20 -22.5t22 -9q10 0 22.5 10t23 24t17.5 29t7 26q0 24 -20.5 39.5t-49.5 15.5zM287 802q0 11 8 19t16 8q9 0 18.5 -8t9.5 -21q0 -9 -9 -17
t-19 -8t-17 7.5t-7 19.5z" />
    <glyph glyph-name="AE" unicode="&#xc6;" horiz-adv-x="1066" 
d="M633 719q-36 0 -60.5 -10.5t-45.5 -39.5l-360 -476q-14 -18 -30.5 -39.5t-31.5 -42.5t-25 -39t-10 -28q0 -11 6 -18t20 -7h2q17 0 33.5 12.5t31.5 29t27.5 32.5t20.5 24q21 21 41 33.5t40 19t39.5 8.5t40.5 2h52q55 0 84.5 -13.5t43.5 -33t18.5 -43t11.5 -43t21.5 -33
t48.5 -13.5h240q21 0 40.5 0.5t34.5 4.5t24 12t9 23q0 14 -11.5 22t-29 12t-39 5t-41.5 1h-73q-26 0 -51.5 3.5t-45 16.5t-31.5 39t-12 72q0 40 14 64t34.5 36.5t43 16t39.5 3.5h40q57 0 91 5.5t34 31.5q0 14 -11.5 22t-30.5 12.5t-43.5 5.5t-49.5 1h-50q-48 -1 -78.5 28.5
t-30.5 82.5q0 63 30 91t93 28q1 1 1.5 0.5l0.5 -0.5h62q24 0 47 1.5t41 5t28.5 11t10.5 19.5q0 15 -8 23.5t-21 12.5t-29.5 5t-33.5 1h-257zM519 480q19 0 29.5 -11t16 -28t7 -37.5t1.5 -39.5q0 -33 -10 -55t-25.5 -35.5t-34.5 -19t-36 -5.5q-6 0 -20 1t-29 7t-26.5 19.5
t-11.5 37.5q0 15 14.5 42.5t35.5 55t45 48t44 20.5z" />
    <glyph glyph-name="Ccedilla" unicode="&#xc7;" horiz-adv-x="620" 
d="M291 -147q14 0 28 12t25 31.5t16.5 43.5t2.5 48q8 -1 17 -1.5t18 -0.5q56 0 96.5 10t67 24.5t39.5 29.5t13 26q0 18 -8 30.5t-31 12.5q-21 0 -37.5 -8.5t-35.5 -18t-44.5 -18t-62.5 -8.5q-62 0 -112 26t-85 68t-54 95t-19 107q0 67 23 121.5t61.5 92.5t87.5 59t101 21
q31 0 53 -6t39.5 -13.5t32 -13.5t30.5 -6q40 0 40 38q0 13 -14.5 27.5t-40 26t-62 19t-79.5 7.5q-80 0 -147.5 -25.5t-117.5 -74.5t-78 -121t-28 -164q0 -49 14.5 -103t46 -103t81.5 -88t121 -57q9 -26 6 -44t-9.5 -31t-13.5 -22.5t-7 -17.5q0 -14 6.5 -22.5t19.5 -8.5z" />
    <glyph glyph-name="Egrave" unicode="&#xc8;" horiz-adv-x="503" 
d="M478 666q0 23 -22.5 31.5t-70.5 8.5h-232q-35 0 -56 -4t-33 -15q-16 -16 -19.5 -45t-3.5 -72v-451q0 -38 4.5 -60.5t17.5 -35.5q14 -14 39.5 -17.5t69.5 -3.5h202q59 0 90.5 6.5t31.5 28.5q0 27 -32 35.5t-83 8.5h-113q-27 0 -51 4.5t-41.5 17t-28 35.5t-10.5 59
q0 45 9 71t26 39t41 16.5t54 3.5h83q21 0 40.5 1t34.5 4.5t23.5 11t8.5 20.5q0 27 -28.5 34t-78.5 7h-75q-26 0 -50.5 2.5t-43.5 13t-30.5 31.5t-11.5 57q0 40 10 63.5t28.5 35.5t44.5 15t57 3h65q28 0 52.5 1t42.5 5.5t28.5 12t10.5 21.5zM215 920q0 -13 7.5 -38.5
t18 -50.5t23 -43.5t21.5 -18.5q17 0 23 10t6 36q0 12 -4.5 35.5t-12.5 46.5t-21 40.5t-29 17.5q-32 0 -32 -35z" />
    <glyph glyph-name="Eacute" unicode="&#xc9;" horiz-adv-x="503" 
d="M478 666q0 23 -22.5 31.5t-70.5 8.5h-232q-35 0 -56 -4t-33 -15q-16 -16 -19.5 -45t-3.5 -72v-451q0 -38 4.5 -60.5t17.5 -35.5q14 -14 39.5 -17.5t69.5 -3.5h202q59 0 90.5 6.5t31.5 28.5q0 27 -32 35.5t-83 8.5h-113q-27 0 -51 4.5t-41.5 17t-28 35.5t-10.5 59
q0 45 9 71t26 39t41 16.5t54 3.5h83q21 0 40.5 1t34.5 4.5t23.5 11t8.5 20.5q0 27 -28.5 34t-78.5 7h-75q-26 0 -50.5 2.5t-43.5 13t-30.5 31.5t-11.5 57q0 40 10 63.5t28.5 35.5t44.5 15t57 3h65q28 0 52.5 1t42.5 5.5t28.5 12t10.5 21.5zM323 918q0 35 -32 35
q-17 0 -29.5 -17.5t-20.5 -40.5t-12.5 -46.5t-4.5 -35.5q0 -26 6 -36t23 -10q9 0 21.5 18.5t23 43.5t18 50.5t7.5 38.5z" />
    <glyph glyph-name="Ecircumflex" unicode="&#xca;" horiz-adv-x="503" 
d="M478 666q0 23 -22.5 31.5t-70.5 8.5h-232q-35 0 -56 -4t-33 -15q-16 -16 -19.5 -45t-3.5 -72v-451q0 -38 4.5 -60.5t17.5 -35.5q14 -14 39.5 -17.5t69.5 -3.5h202q59 0 90.5 6.5t31.5 28.5q0 27 -32 35.5t-83 8.5h-113q-27 0 -51 4.5t-41.5 17t-28 35.5t-10.5 59
q0 45 9 71t26 39t41 16.5t54 3.5h83q21 0 40.5 1t34.5 4.5t23.5 11t8.5 20.5q0 27 -28.5 34t-78.5 7h-75q-26 0 -50.5 2.5t-43.5 13t-30.5 31.5t-11.5 57q0 40 10 63.5t28.5 35.5t44.5 15t57 3h65q28 0 52.5 1t42.5 5.5t28.5 12t10.5 21.5zM372 757q7 0 7 9t-10.5 26.5
t-27 35t-36 30.5t-38.5 13q-20 0 -38 -13.5t-32.5 -31t-23 -35.5t-8.5 -27q0 -7 4 -7q15 0 27.5 10t23.5 21.5t22.5 21.5t24.5 10q12 0 24.5 -10t25.5 -21.5t26.5 -21.5t28.5 -10z" />
    <glyph glyph-name="Edieresis" unicode="&#xcb;" horiz-adv-x="503" 
d="M478 666q0 23 -22.5 31.5t-70.5 8.5h-232q-35 0 -56 -4t-33 -15q-16 -16 -19.5 -45t-3.5 -72v-451q0 -38 4.5 -60.5t17.5 -35.5q14 -14 39.5 -17.5t69.5 -3.5h202q59 0 90.5 6.5t31.5 28.5q0 27 -32 35.5t-83 8.5h-113q-27 0 -51 4.5t-41.5 17t-28 35.5t-10.5 59
q0 45 9 71t26 39t41 16.5t54 3.5h83q21 0 40.5 1t34.5 4.5t23.5 11t8.5 20.5q0 27 -28.5 34t-78.5 7h-75q-26 0 -50.5 2.5t-43.5 13t-30.5 31.5t-11.5 57q0 40 10 63.5t28.5 35.5t44.5 15t57 3h65q28 0 52.5 1t42.5 5.5t28.5 12t10.5 21.5zM378 846q-20 0 -29.5 -11
t-9.5 -25q0 -15 10 -27.5t29 -12.5q20 0 31.5 12.5t11.5 27.5q0 14 -10 25t-33 11zM159 846q-20 0 -29.5 -11t-9.5 -25q0 -15 10 -27.5t29 -12.5q20 0 31 12.5t11 27.5q0 14 -10 25t-32 11z" />
    <glyph glyph-name="Igrave" unicode="&#xcc;" horiz-adv-x="241" 
d="M166 628q0 13 -1 28.5t-5.5 28t-14 21t-25.5 8.5t-25.5 -8.5t-14 -21.5t-5.5 -28t-1 -28v-528q0 -44 8 -72t39 -28q16 0 25 8t13.5 21.5t5.5 31.5t1 39v528zM63 917q0 -13 7.5 -38.5t18 -50.5t23 -43.5t21.5 -18.5q17 0 23 10t6 36q0 12 -4.5 35.5t-12.5 46.5t-21 40.5
t-29 17.5q-32 0 -32 -35z" />
    <glyph glyph-name="Iacute" unicode="&#xcd;" horiz-adv-x="241" 
d="M166 628q0 13 -1 28.5t-5.5 28t-14 21t-25.5 8.5t-25.5 -8.5t-14 -21.5t-5.5 -28t-1 -28v-528q0 -44 8 -72t39 -28q16 0 25 8t13.5 21.5t5.5 31.5t1 39v528zM178 922q0 35 -32 35q-17 0 -29.5 -17.5t-20.5 -40.5t-12.5 -46.5t-4.5 -35.5q0 -26 6 -36t23 -10
q9 0 21.5 18.5t23 43.5t18 50.5t7.5 38.5z" />
    <glyph glyph-name="Icircumflex" unicode="&#xce;" horiz-adv-x="241" 
d="M166 628q0 13 -1 28.5t-5.5 28t-14 21t-25.5 8.5t-25.5 -8.5t-14 -21.5t-5.5 -28t-1 -28v-528q0 -44 8 -72t39 -28q16 0 25 8t13.5 21.5t5.5 31.5t1 39v528zM211 775q7 0 7 9t-10.5 26.5t-27 35t-36 30.5t-38.5 13q-20 0 -38 -13.5t-32.5 -31t-23 -35.5t-8.5 -27
q0 -7 4 -7q15 0 27.5 10t23.5 21.5t22.5 21.5t24.5 10q12 0 24.5 -10t25.5 -21.5t26.5 -21.5t28.5 -10z" />
    <glyph glyph-name="Idieresis" unicode="&#xcf;" horiz-adv-x="241" 
d="M166 628q0 13 -1 28.5t-5.5 28t-14 21t-25.5 8.5t-25.5 -8.5t-14 -21.5t-5.5 -28t-1 -28v-528q0 -44 8 -72t39 -28q16 0 25 8t13.5 21.5t5.5 31.5t1 39v528zM183 858q-20 0 -29.5 -11t-9.5 -25q0 -15 10 -27.5t29 -12.5q20 0 31.5 12.5t11.5 27.5q0 14 -10 25t-33 11z
M55 859q-20 0 -29.5 -11t-9.5 -25q0 -15 10 -27.5t29 -12.5q20 0 31 12.5t11 27.5q0 14 -10 25t-32 11z" />
    <glyph glyph-name="Eth" unicode="&#xd0;" horiz-adv-x="754" 
d="M61 405q-27 0 -48 -9.5t-21 -26.5t21.5 -24t47.5 -7h48v-222q0 -27 3 -48.5t13 -36.5t27 -23t46 -8h121q47 0 91 4.5t85.5 17.5t80.5 36.5t77 61.5q16 16 32.5 39t29 53t20.5 67.5t8 84.5q0 85 -22.5 144t-69.5 106q-33 33 -70 53.5t-77 32.5t-82 16.5t-84 4.5h-132
q-32 0 -51 -8t-29.5 -21.5t-13.5 -31.5t-3 -39v-216h-48zM201 485q0 37 5 66t18.5 48.5t38.5 29.5t65 10q67 0 125.5 -15.5t101 -48.5t67 -85.5t24.5 -127.5q0 -71 -26 -124t-70 -88t-101.5 -52t-120.5 -17q-38 0 -63 9t-39 26.5t-19.5 43.5t-5.5 61v117h178q26 0 48.5 8.5
t22.5 22.5q0 18 -22.5 27t-48.5 9h-178v80z" />
    <glyph glyph-name="Ntilde" unicode="&#xd1;" horiz-adv-x="719" 
d="M437 312l-176 274q-29 45 -47.5 69t-33.5 35q-16 12 -31.5 14t-38.5 2q-27 0 -42 -12t-22 -31t-8 -43t-1 -47v-485q0 -37 11 -60.5t34 -23.5q15 0 24 9.5t14 23.5t7 29.5t2 28.5v262q0 72 13 101t36 29q21 0 45 -22t48 -60l206 -323q17 -27 31 -44.5t28.5 -28t29.5 -14.5
t35 -4q22 0 37 7.5t23 20.5t11.5 29.5t3.5 34.5v489q0 52 -10 86t-37 34q-26 0 -36 -27t-10 -61l1 -170q0 -55 -1.5 -94t-7 -63.5t-15.5 -36t-26 -11.5q-25 0 -48 21.5t-49 61.5zM455 813q-21 -3 -39 3t-35.5 14t-37.5 14t-45 2q-29 -5 -38 -19.5t-7 -28.5q2 -12 8.5 -15
t15.5 -1t18 4.5t19 4.5q27 4 45 -2t34 -14t33 -14t43 -2q17 2 31 15.5t11 33.5q-2 11 -6.5 14t-12.5 2q-8 -2 -17.5 -5.5t-19.5 -5.5z" />
    <glyph glyph-name="Ograve" unicode="&#xd2;" horiz-adv-x="774" 
d="M769 346q0 103 -31.5 176.5t-84 120.5t-122 69t-145.5 22q-89 0 -158 -30t-116 -82.5t-71.5 -123t-24.5 -152.5q0 -73 26 -139t74 -116t116.5 -79.5t153.5 -29.5q82 0 152 26t121.5 73.5t80.5 114.5t29 150zM116 346q0 75 23 132.5t60.5 96.5t86.5 59t100 20
q60 0 112 -20.5t90 -60t60 -97t22 -130.5q0 -57 -21 -108.5t-58.5 -90.5t-89.5 -62t-115 -23q-65 0 -115 26t-84.5 67.5t-52.5 92t-18 98.5zM345 953q0 -13 7.5 -38.5t18 -50.5t23 -43.5t21.5 -18.5q17 0 23 10t6 36q0 12 -4.5 35.5t-12.5 46.5t-21 40.5t-29 17.5
q-32 0 -32 -35z" />
    <glyph glyph-name="Oacute" unicode="&#xd3;" horiz-adv-x="774" 
d="M769 346q0 103 -31.5 176.5t-84 120.5t-122 69t-145.5 22q-89 0 -158 -30t-116 -82.5t-71.5 -123t-24.5 -152.5q0 -73 26 -139t74 -116t116.5 -79.5t153.5 -29.5q82 0 152 26t121.5 73.5t80.5 114.5t29 150zM116 346q0 75 23 132.5t60.5 96.5t86.5 59t100 20
q60 0 112 -20.5t90 -60t60 -97t22 -130.5q0 -57 -21 -108.5t-58.5 -90.5t-89.5 -62t-115 -23q-65 0 -115 26t-84.5 67.5t-52.5 92t-18 98.5zM449 950q0 35 -32 35q-17 0 -29.5 -17.5t-20.5 -40.5t-12.5 -46.5t-4.5 -35.5q0 -26 6 -36t23 -10q9 0 21.5 18.5t23 43.5t18 50.5
t7.5 38.5z" />
    <glyph glyph-name="Ocircumflex" unicode="&#xd4;" horiz-adv-x="774" 
d="M769 346q0 103 -31.5 176.5t-84 120.5t-122 69t-145.5 22q-89 0 -158 -30t-116 -82.5t-71.5 -123t-24.5 -152.5q0 -73 26 -139t74 -116t116.5 -79.5t153.5 -29.5q82 0 152 26t121.5 73.5t80.5 114.5t29 150zM116 346q0 75 23 132.5t60.5 96.5t86.5 59t100 20
q60 0 112 -20.5t90 -60t60 -97t22 -130.5q0 -57 -21 -108.5t-58.5 -90.5t-89.5 -62t-115 -23q-65 0 -115 26t-84.5 67.5t-52.5 92t-18 98.5zM494 796q7 0 7 9t-10.5 26.5t-27 35t-36 30.5t-38.5 13q-20 0 -38 -13.5t-32.5 -31t-23 -35.5t-8.5 -27q0 -7 4 -7q15 0 27.5 10
t23.5 21.5t22.5 21.5t24.5 10q12 0 24.5 -10t25.5 -21.5t26.5 -21.5t28.5 -10z" />
    <glyph glyph-name="Otilde" unicode="&#xd5;" horiz-adv-x="774" 
d="M769 346q0 103 -31.5 176.5t-84 120.5t-122 69t-145.5 22q-89 0 -158 -30t-116 -82.5t-71.5 -123t-24.5 -152.5q0 -73 26 -139t74 -116t116.5 -79.5t153.5 -29.5q82 0 152 26t121.5 73.5t80.5 114.5t29 150zM116 346q0 75 23 132.5t60.5 96.5t86.5 59t100 20
q60 0 112 -20.5t90 -60t60 -97t22 -130.5q0 -57 -21 -108.5t-58.5 -90.5t-89.5 -62t-115 -23q-65 0 -115 26t-84.5 67.5t-52.5 92t-18 98.5zM465 857q-21 -3 -39 3t-35.5 14t-37.5 14t-45 2q-29 -5 -38 -19.5t-7 -28.5q2 -12 8.5 -15t15.5 -1t18 4.5t19 4.5q27 4 45 -2
t34 -14t33 -14t43 -2q17 2 31 15.5t11 33.5q-2 11 -6.5 14t-12.5 2q-8 -2 -17.5 -5.5t-19.5 -5.5z" />
    <glyph glyph-name="Odieresis" unicode="&#xd6;" horiz-adv-x="774" 
d="M769 346q0 103 -31.5 176.5t-84 120.5t-122 69t-145.5 22q-89 0 -158 -30t-116 -82.5t-71.5 -123t-24.5 -152.5q0 -73 26 -139t74 -116t116.5 -79.5t153.5 -29.5q82 0 152 26t121.5 73.5t80.5 114.5t29 150zM116 346q0 75 23 132.5t60.5 96.5t86.5 59t100 20
q60 0 112 -20.5t90 -60t60 -97t22 -130.5q0 -57 -21 -108.5t-58.5 -90.5t-89.5 -62t-115 -23q-65 0 -115 26t-84.5 67.5t-52.5 92t-18 98.5zM491 876q-20 0 -29.5 -11t-9.5 -25q0 -15 10 -27.5t29 -12.5q20 0 31.5 12.5t11.5 27.5q0 14 -10 25t-33 11zM272 876
q-20 0 -29.5 -11t-9.5 -25q0 -15 10 -27.5t29 -12.5q20 0 31 12.5t11 27.5q0 14 -10 25t-32 11z" />
    <glyph glyph-name="multiply" unicode="&#xd7;" horiz-adv-x="378" 
d="M280 299q2 34 21 59.5t37.5 45.5t29.5 35.5t-2 30.5q-10 11 -26.5 1.5t-39 -25.5t-50.5 -30t-61 -12q-28 2 -49.5 19.5t-38.5 35.5t-31.5 29t-27.5 -1q-14 -12 -5.5 -28t23.5 -37t29.5 -47t12.5 -59q-2 -27 -19.5 -50t-36 -42.5t-30 -35.5t0.5 -29q11 -12 28 -3t38.5 25
t46.5 30.5t51 12.5q31 -2 56 -20t44 -36t34 -29.5t27 -0.5q10 8 9 19t-8.5 23.5t-18.5 26t-21 29t-17 31t-6 32.5z" />
    <glyph glyph-name="Oslash" unicode="&#xd8;" horiz-adv-x="774" 
d="M581 715q11 29 11.5 47t-5.5 25q-8 0 -19.5 -14t-23.5 -44l-8 -19q-71 24 -150 24q-89 0 -158 -30t-116 -82.5t-71.5 -123t-24.5 -152.5q0 -54 14.5 -105t42 -94.5t67.5 -78t90 -55.5l-16 -36q-1 -2 -2.5 -8.5t-1.5 -13.5q0 -8 1.5 -15t5.5 -11q8 0 18.5 13.5t18.5 31.5
l11 26q55 -18 121 -18q82 0 152 26t121.5 73.5t80.5 114.5t29 150q0 69 -14.5 124.5t-41 99t-62.5 74.5t-79 51zM116 346q0 75 23 132.5t60.5 96.5t86.5 59t100 20q60 0 115 -22l-237 -541q-36 19 -63.5 48t-46.5 63t-28.5 71t-9.5 73zM670 346q0 -57 -21 -108.5
t-58.5 -90.5t-89.5 -62t-115 -23q-24 0 -45.5 3.5t-41.5 10.5l237 538q61 -37 97.5 -104.5t36.5 -163.5z" />
    <glyph glyph-name="Ugrave" unicode="&#xd9;" horiz-adv-x="637" 
d="M131 329v251q0 21 -2 43.5t-7 41.5t-14 31.5t-22 12.5q-16 0 -25.5 -11t-15 -29t-7 -41t-1.5 -48v-279q0 -94 26 -154.5t67 -95.5t90.5 -48.5t97.5 -13.5q46 0 96.5 13t93 48.5t70 98.5t27.5 164v267q0 23 -1.5 46t-6.5 41t-14.5 29.5t-25.5 11.5q-14 0 -23 -12.5
t-14 -31t-7 -41t-2 -43.5v-282q0 -56 -14 -97t-39 -68t-60.5 -40.5t-77.5 -13.5q-55 0 -91.5 18.5t-58 51.5t-30.5 79t-9 101zM273 895q0 -13 7.5 -38.5t18 -50.5t23 -43.5t21.5 -18.5q17 0 23 10t6 36q0 12 -4.5 35.5t-12.5 46.5t-21 40.5t-29 17.5q-32 0 -32 -35z" />
    <glyph glyph-name="Uacute" unicode="&#xda;" horiz-adv-x="637" 
d="M131 329v251q0 21 -2 43.5t-7 41.5t-14 31.5t-22 12.5q-16 0 -25.5 -11t-15 -29t-7 -41t-1.5 -48v-279q0 -94 26 -154.5t67 -95.5t90.5 -48.5t97.5 -13.5q46 0 96.5 13t93 48.5t70 98.5t27.5 164v267q0 23 -1.5 46t-6.5 41t-14.5 29.5t-25.5 11.5q-14 0 -23 -12.5
t-14 -31t-7 -41t-2 -43.5v-282q0 -56 -14 -97t-39 -68t-60.5 -40.5t-77.5 -13.5q-55 0 -91.5 18.5t-58 51.5t-30.5 79t-9 101zM394 878q0 35 -32 35q-17 0 -29.5 -17.5t-20.5 -40.5t-12.5 -46.5t-4.5 -35.5q0 -26 6 -36t23 -10q9 0 21.5 18.5t23 43.5t18 50.5t7.5 38.5z" />
    <glyph glyph-name="Ucircumflex" unicode="&#xdb;" horiz-adv-x="637" 
d="M131 329v251q0 21 -2 43.5t-7 41.5t-14 31.5t-22 12.5q-16 0 -25.5 -11t-15 -29t-7 -41t-1.5 -48v-279q0 -94 26 -154.5t67 -95.5t90.5 -48.5t97.5 -13.5q46 0 96.5 13t93 48.5t70 98.5t27.5 164v267q0 23 -1.5 46t-6.5 41t-14.5 29.5t-25.5 11.5q-14 0 -23 -12.5
t-14 -31t-7 -41t-2 -43.5v-282q0 -56 -14 -97t-39 -68t-60.5 -40.5t-77.5 -13.5q-55 0 -91.5 18.5t-58 51.5t-30.5 79t-9 101zM417 735q7 0 7 9t-10.5 26.5t-27 35t-36 30.5t-38.5 13q-20 0 -38 -13.5t-32.5 -31t-23 -35.5t-8.5 -27q0 -7 4 -7q15 0 27.5 10t23.5 21.5
t22.5 21.5t24.5 10q12 0 24.5 -10t25.5 -21.5t26.5 -21.5t28.5 -10z" />
    <glyph glyph-name="Udieresis" unicode="&#xdc;" horiz-adv-x="637" 
d="M131 329v251q0 21 -2 43.5t-7 41.5t-14 31.5t-22 12.5q-16 0 -25.5 -11t-15 -29t-7 -41t-1.5 -48v-279q0 -94 26 -154.5t67 -95.5t90.5 -48.5t97.5 -13.5q46 0 96.5 13t93 48.5t70 98.5t27.5 164v267q0 23 -1.5 46t-6.5 41t-14.5 29.5t-25.5 11.5q-14 0 -23 -12.5
t-14 -31t-7 -41t-2 -43.5v-282q0 -56 -14 -97t-39 -68t-60.5 -40.5t-77.5 -13.5q-55 0 -91.5 18.5t-58 51.5t-30.5 79t-9 101zM432 818q-20 0 -29.5 -11t-9.5 -25q0 -15 10 -27.5t29 -12.5q20 0 31.5 12.5t11.5 27.5q0 14 -10 25t-33 11zM213 818q-20 0 -29.5 -11t-9.5 -25
q0 -15 10 -27.5t29 -12.5q20 0 31 12.5t11 27.5q0 14 -10 25t-32 11z" />
    <glyph glyph-name="Yacute" unicode="&#xdd;" horiz-adv-x="528" 
d="M270 464q-18 0 -33 8.5t-28 22.5t-25 33t-23 39l-25 43q-22 39 -47 67.5t-60 28.5q-20 0 -26.5 -13t-6.5 -27q0 -17 14 -43t37 -58l83 -120q36 -52 61.5 -107t25.5 -104v-160q0 -31 13 -51t33 -20q23 0 35 23t12 51v165q0 45 26.5 99t63.5 108l86 126q21 30 34 54.5
t13 39.5q0 22 -11 27.5t-20 5.5q-29 0 -53.5 -26.5t-46.5 -62.5l-27 -46q-12 -20 -24 -39t-25 -33t-27 -22.5t-29 -8.5zM337 854q0 35 -32 35q-17 0 -29.5 -17.5t-20.5 -40.5t-12.5 -46.5t-4.5 -35.5q0 -26 6 -36t23 -10q9 0 21.5 18.5t23 43.5t18 50.5t7.5 38.5z" />
    <glyph glyph-name="Thorn" unicode="&#xde;" 
d="M130 634q0 12 -1.5 27.5t-6.5 29.5t-13.5 23.5t-22.5 9.5q-13 0 -21.5 -9.5t-13 -23.5t-6.5 -29.5t-2 -27.5l-1 -531q0 -33 2 -52.5t6.5 -29t13 -12.5t22.5 -3q16 0 25.5 9t14 23.5t5.5 32.5t1 35q0 33 7 46t24.5 15.5t47 -1t74.5 -3.5q50 0 94 10.5t77 34t52 61.5t19 93
q0 66 -27 105t-70.5 60t-97 27.5t-106.5 6.5q-22 0 -39.5 -1t-29.5 0.5t-19 7.5t-8 21v45zM134 367q0 39 11.5 63t29.5 37t39 17t39 4q20 0 49 -5t55.5 -18.5t45.5 -38t19 -63.5q0 -38 -16 -63.5t-40.5 -40.5t-55 -21.5t-58.5 -6.5q-54 0 -86 31t-32 105z" />
    <glyph glyph-name="agrave" unicode="&#xe0;" horiz-adv-x="479" 
d="M242 499q-25 -1 -56.5 -8.5t-49.5 -18.5q-11 -6 -14.5 -11.5t-3.5 -10.5t1.5 -8t1.5 -5q0 -1 -0.5 -1.5l-0.5 -0.5q27 1 53.5 3.5t49.5 2.5q38 0 66.5 -11.5t43.5 -47.5q3 -8 5.5 -16.5t2.5 -16.5q0 -14 -8 -26q-12 -20 -31.5 -28.5t-43 -11.5t-48.5 -4t-47 -4
q-11 -2 -26.5 -7t-31.5 -12t-29 -15t-20 -14q-6 -5 -15 -18t-12 -19q-2 -7 -6 -20.5t-4 -17.5q-1 -5 -1.5 -9.5t-0.5 -9.5q0 -33 13 -56.5t34.5 -39t49.5 -23t58 -7.5q40 0 76 12q0 2 -0.5 6.5t-0.5 9.5v5q-17 6 -39.5 11.5t-39.5 15.5q-16 9 -30 30t-14 50v8t1 8
q3 16 16 30.5t31.5 26t41 18.5t44.5 7q5 0 11 -0.5t11 -1.5q29 -6 46.5 -30.5t17.5 -56.5q0 -22 -11 -46q-4 -8 -16.5 -19t-15.5 -19q0 -1 -0.5 -2t-0.5 -3q0 -4 1 -8t1 -8t-1 -5q14 -5 27 -8.5t32 -7.5q10 -2 19.5 -5.5t20.5 -3.5q9 0 18 3q10 4 16.5 21t10.5 41.5t5.5 54
t1.5 59.5q0 45 -2.5 84.5t-4.5 59.5t-11.5 45t-20.5 40q-11 16 -30 29t-42 22t-47.5 14t-46.5 5h-5zM185 693q0 -13 7.5 -38.5t18 -50.5t23 -43.5t21.5 -18.5q17 0 23 10t6 36q0 12 -4.5 35.5t-12.5 46.5t-21 40.5t-29 17.5q-32 0 -32 -35z" />
    <glyph glyph-name="aacute" unicode="&#xe1;" horiz-adv-x="477" 
d="M248 501q-12 0 -27.5 -2.5t-31.5 -6.5t-30 -8.5t-23 -9.5q-11 -6 -14.5 -11.5t-3.5 -10.5t1.5 -8.5t1.5 -5.5l-1 -1q27 1 53 3.5t50 2.5q38 0 66.5 -11.5t43.5 -48.5q3 -8 5.5 -16t2.5 -16q0 -14 -8 -26q-14 -22 -37.5 -31t-51 -12t-56 -4t-52.5 -7q-25 -6 -48 -23
t-37 -35q-9 -11 -19.5 -26.5t-12.5 -32.5q-1 -5 -1.5 -9.5t-0.5 -9.5q0 -33 13 -56.5t34.5 -39t49.5 -23t58 -7.5q40 0 76 12q0 2 -0.5 6.5t-0.5 9.5v5q-16 5 -37.5 12t-36.5 15q-18 10 -33.5 31t-15.5 49q0 17 7 32q11 28 45 45t71 17q24 0 45.5 -8t35.5 -28q2 -3 8 -7
t8 -8q1 -5 1.5 -9.5t0.5 -9.5q0 -26 -10.5 -51t-18.5 -37q-2 -2 -8.5 -5t-7.5 -6q0 -1 -0.5 -2t-0.5 -3q0 -4 1 -8t1 -8t-1 -5q17 -6 43 -16.5t48 -10.5h5q26 2 37.5 23.5t15.5 45.5q-3 8 -4 8t-1 -2l4 64t2 63q0 57 -8 108t-30 88.5t-60 59.5t-98 22h-7zM327 703
q0 35 -32 35q-17 0 -29.5 -17.5t-20.5 -40.5t-12.5 -46.5t-4.5 -35.5q0 -26 6 -36t23 -10q9 0 21.5 18.5t23 43.5t18 50.5t7.5 38.5z" />
    <glyph glyph-name="acircumflex" unicode="&#xe2;" horiz-adv-x="489" 
d="M208 495q-17 -2 -38 -10.5t-36 -15.5q1 -5 1 -9v-5v-9q0 -6 3 -8.5t14 -2.5q5 0 10.5 0.5t13.5 1.5l27 10q5 1 9 1.5t9 0.5q29 0 60.5 -11.5t49.5 -32.5q8 -9 14.5 -19t6.5 -27v-8q0 -2 -2 -6.5t-3 -4.5v1q-4 -6 -3 -11t-3 -11q-3 -5 -9 -5.5t-12 -4.5q-5 -4 -12.5 -12
t-14.5 -10q-18 -6 -38.5 -7.5t-41.5 -3t-41 -3t-38 -7.5q-11 -3 -23.5 -9.5t-24.5 -14.5t-22.5 -17t-15.5 -18q-10 -15 -14 -31t-4 -32q0 -23 8 -45t21 -40t29.5 -30.5t34.5 -18.5q10 -3 20 -4t21 -1q26 0 50 5.5t42 10.5q0 4 -0.5 10t-0.5 12q0 7 1 10q-19 2 -32.5 4.5
t-24 6.5t-20 10t-19.5 16q-24 25 -24 51q0 14 5.5 29t13.5 32h11v11q11 6 24 14.5t24 11.5q10 4 20.5 5.5t21.5 1.5q37 0 66.5 -17t34.5 -48q1 -5 1 -14q0 -28 -13.5 -52t-24.5 -41l-11 -5v-4q0 -3 0.5 -6.5t0.5 -6.5t-1 -4q16 -6 27.5 -8.5t31.5 -7.5q10 -2 21 -4.5
t22 -2.5t20.5 3.5t16.5 13.5q8 13 11.5 51.5t3.5 86.5q0 31 -1 63t-3.5 60t-5 49t-5.5 31q-3 9 -9 21t-13.5 23t-15.5 21t-15 15q-22 17 -60 26t-81 9q-24 0 -46 -3zM371 569q7 0 7 9t-10.5 26.5t-27 35t-36 30.5t-38.5 13q-20 0 -38 -13.5t-32.5 -31t-23 -35.5t-8.5 -27
q0 -7 4 -7q15 0 27.5 10t23.5 21.5t22.5 21.5t24.5 10q12 0 24.5 -10t25.5 -21.5t26.5 -21.5t28.5 -10z" />
    <glyph glyph-name="atilde" unicode="&#xe3;" horiz-adv-x="498" 
d="M230 495q-25 -2 -50.5 -11.5t-44.5 -20.5v-16q5 0 5 -2q0 -1 -0.5 -2t-0.5 -3t1 -3q8 0 16 -0.5t16 -0.5h8t8 1q17 2 35.5 4.5t37.5 2.5q24 0 44 -7q7 -3 17 -10.5t18.5 -16.5t15 -19t8.5 -18v-7q0 -11 -4 -18t-7 -13q-15 -30 -39.5 -40.5t-54 -13.5t-60.5 -4t-59 -11
q-8 -3 -21 -10.5t-26 -17t-23.5 -19.5t-14.5 -17q-8 -14 -11.5 -29t-3.5 -30q0 -43 23.5 -78.5t55.5 -48.5q13 -5 27.5 -7.5t29.5 -2.5q25 0 49 4.5t43 10.5q0 2 -0.5 6.5t-0.5 9.5v5q-11 4 -24 7.5t-26 8t-25 10t-20 12.5q-5 3 -4 7t-1 9q-2 2 -8.5 5t-7.5 5q-5 8 -7 16.5
t-2 16.5q0 15 5.5 28t14 24t18.5 19t18 13q16 9 34 15t38 6q15 0 31 -5t31 -16q17 -12 24 -27.5t7 -32.5q0 -20 -7.5 -40.5t-18.5 -37.5q-2 -2 -8.5 -5t-7.5 -6q-1 -1 -1 -5t1 -8t1 -8t-1 -5q12 -5 29 -12.5t30 -9.5q6 -1 12.5 -1.5t13.5 -0.5q17 0 32 5t22 19q6 12 9 51.5
t3 87.5q0 28 -1 57t-2.5 54.5t-3.5 45t-5 29.5q-3 12 -10 26t-16 27.5t-19 24.5t-19 18q-20 14 -54.5 21t-72.5 7h-20q-9 0 -19 -2zM360 638q-21 -3 -39 3t-35.5 14t-37.5 14t-45 2q-29 -5 -38 -19.5t-7 -28.5q2 -12 8.5 -15t15.5 -1t18 4.5t19 4.5q27 4 45 -2t34 -14
t33 -14t43 -2q17 2 31 15.5t11 33.5q-2 11 -6.5 14t-12.5 2q-8 -2 -17.5 -5.5t-19.5 -5.5z" />
    <glyph glyph-name="adieresis" unicode="&#xe4;" horiz-adv-x="506" 
d="M225 495q-17 -2 -37.5 -10t-37.5 -16v-32q29 2 52.5 5t43.5 3q21 0 40 -5t40 -19q9 -6 18 -10t14 -12q4 -5 3 -10.5t2 -10.5v1h1q1 0 3 -5t2 -7v-7q0 -19 -8 -31t-19 -20q-14 -12 -30 -17t-34.5 -7.5t-39.5 -3.5t-45 -4q-26 -4 -52.5 -16.5t-43.5 -26.5
q-21 -17 -35 -44.5t-14 -59.5q0 -15 4 -30.5t13 -30.5q16 -26 52 -46t81 -20q26 0 48 7q12 4 16.5 7t6 7t3 9.5t6.5 14.5q-19 4 -33 6.5t-25 7t-21 11t-22 17.5q-13 12 -18 25.5t-5 27.5q0 18 8 34.5t20.5 30.5t29 24t34.5 13q7 2 13 2h14q43 0 72.5 -23.5t29.5 -62.5
q0 -8 -1 -12q-2 -18 -15 -39.5t-22 -35.5l-11 -5q0 -1 -0.5 -2t-0.5 -2q0 -3 1 -6.5t1 -6.5t-1 -4q16 -6 22 -9t21 -7q11 -3 24.5 -5.5t26.5 -2.5q14 0 26 3.5t19 14.5q8 13 11 50t3 83q0 31 -1 63t-3 59.5t-4.5 49t-5.5 31.5q-5 19 -19.5 43.5t-28.5 36.5q-11 9 -28.5 16.5
t-38 13t-43.5 8t-44 2.5q-22 0 -38 -3zM380 718q-20 0 -29.5 -11t-9.5 -25q0 -15 10 -27.5t29 -12.5q20 0 31.5 12.5t11.5 27.5q0 14 -10 25t-33 11zM161 718q-20 0 -29.5 -11t-9.5 -25q0 -15 10 -27.5t29 -12.5q20 0 31 12.5t11 27.5q0 14 -10 25t-32 11z" />
    <glyph glyph-name="aring" unicode="&#xe5;" horiz-adv-x="466" 
d="M440 283q0 99 -46 149t-131 50q-43 0 -78 -7t-59.5 -16.5t-37.5 -18.5t-13 -12t4 -4.5t7 -1.5q18 0 51 10t84 10q14 0 34.5 -5.5t39 -17t32 -29t13.5 -40.5q0 -22 -11.5 -38t-28.5 -27t-38 -16.5t-39 -5.5q-34 0 -70.5 -5.5t-66.5 -20.5t-49.5 -41t-19.5 -68t17.5 -67.5
t40 -39.5t45 -18.5t33.5 -4.5t26 2.5t31 7t30 11.5t24 17q-23 -3 -49 1.5t-48 16.5t-36.5 32t-14.5 47q0 30 16 51t37.5 34.5t42.5 20t31 6.5q13 0 30.5 -6t33.5 -17.5t26.5 -27.5t10.5 -37q0 -23 -7.5 -42.5t-17 -35t-19 -25.5t-12.5 -13q8 -8 21.5 -13t27.5 -7.5
t26.5 -3.5t19.5 -1h1q31 0 43.5 20.5t12.5 45.5v201zM252 665q-29 0 -45.5 -16t-16.5 -42q0 -11 5.5 -26t14.5 -28.5t20 -22.5t22 -9q10 0 22.5 10t23 24t17.5 29t7 26q0 24 -20.5 39.5t-49.5 15.5zM228 598q0 11 8 19t16 8q9 0 18.5 -8t9.5 -21q0 -9 -9 -17t-19 -8t-17 7.5
t-7 19.5z" />
    <glyph glyph-name="ae" unicode="&#xe6;" horiz-adv-x="1059" 
d="M528 449q-26 0 -43.5 5t-34 10.5t-36.5 10.5t-51 5q-58 0 -97 -10.5t-39 -29.5q0 -4 4.5 -6.5t9.5 -2.5q14 0 37 8t48 8q17 0 38.5 -5.5t40.5 -18.5t32 -33t13 -50q0 -26 -10.5 -35.5t-20.5 -19.5q-17 -17 -42 -20.5t-50 -3.5h-2q-56 0 -94 -9.5t-61 -27.5t-33.5 -44.5
t-10.5 -61.5q0 -22 12.5 -43.5t32.5 -38t46 -26.5t52 -10q42 0 68.5 8t48 17.5t42.5 17.5t53 8q33 0 54.5 -7.5t43 -17t47 -17t66.5 -7.5q23 0 47.5 4t45 11.5t33.5 17t13 20.5q0 20 -16 20q-11 0 -22 -5t-24 -10.5t-30 -10.5t-39 -5q-26 0 -49.5 8t-41.5 22.5t-28.5 34.5
t-10.5 43q0 42 33.5 66.5t99.5 24.5q31 0 47.5 -3t27.5 -6t22.5 -6t33.5 -3t36 6t22.5 15t12 20t3.5 21q0 35 -15.5 70t-42.5 63t-64.5 45.5t-81.5 17.5q-38 0 -57 -5.5t-33.5 -11.5t-32.5 -11.5t-53 -5.5zM684 440q19 0 40 -5t39 -16.5t29.5 -30.5t11.5 -47q0 -37 -26 -61
t-80 -24q-21 0 -43 4t-39.5 14.5t-29 28t-11.5 44.5q0 38 31 65.5t78 27.5zM355 236q4 0 20 -3t32.5 -12t30 -25.5t13.5 -43.5q0 -14 -6 -32.5t-18.5 -36t-33 -29.5t-48.5 -12q-29 0 -51 8.5t-36.5 21.5t-21.5 29.5t-7 33.5q0 21 13.5 39.5t33 32t41 21.5t38.5 8z" />
    <glyph glyph-name="ccedilla" unicode="&#xe7;" horiz-adv-x="421" 
d="M23 244q0 -62 17 -101t41 -64.5t50 -42.5t45 -36q10 -10 17 -15.5t13.5 -11.5t13 -15t15.5 -24q9 -16 18 -28.5t15.5 -23.5t11 -22.5t4.5 -24.5q0 -12 4 -26.5t19 -14.5q10 0 12.5 8t2.5 19v8q0 16 -9 27t-19 22t-18.5 24.5t-8.5 33.5q0 13 9 23.5t22 19t29 16.5t29 15.5
t22 17t9 20.5q0 17 -9.5 22.5t-26.5 5.5q-14 0 -33.5 -2t-42.5 -2q-39 0 -69.5 14.5t-51.5 39t-32 56.5t-11 67q0 42 16 73t39.5 51.5t51 31t50.5 10.5q8 0 30.5 -4.5t44.5 -4.5q20 0 34 6t14 23q0 5 -3 14.5t-15.5 18.5t-36.5 15.5t-66 6.5q-38 0 -81.5 -13.5t-80 -43.5
t-61 -76.5t-24.5 -112.5z" />
    <glyph glyph-name="egrave" unicode="&#xe8;" horiz-adv-x="488" 
d="M489 284q0 44 -16.5 80.5t-44.5 62.5t-64.5 40.5t-76.5 14.5q-60 0 -109 -16.5t-84.5 -49t-54.5 -79.5t-19 -108q0 -48 21 -90t56 -73t80 -49t93 -18q39 0 66.5 6.5t44.5 15.5t25 19t8 16q0 14 -5 21t-19 7q-15 0 -28.5 -5t-28.5 -10.5t-31.5 -10.5t-36.5 -5t-42.5 6.5
t-41.5 18.5t-31.5 30.5t-12.5 42.5t11.5 39.5t29.5 24.5t39 12.5t40 3.5q29 0 51 -2t39 -4t31 -4t28 -2q40 0 61.5 18t21.5 47zM135 342q0 20 9.5 38.5t25 32.5t36.5 22.5t44 8.5q24 0 47.5 -7t42 -20.5t30.5 -32.5t12 -44q0 -21 -9.5 -36t-26 -24.5t-38.5 -14t-46 -4.5
q-19 0 -41 3.5t-41 12.5t-32 25t-13 40zM203 677q0 -13 7.5 -38.5t18 -50.5t23 -43.5t21.5 -18.5q17 0 23 10t6 36q0 12 -4.5 35.5t-12.5 46.5t-21 40.5t-29 17.5q-32 0 -32 -35z" />
    <glyph glyph-name="eacute" unicode="&#xe9;" horiz-adv-x="488" 
d="M489 284q0 44 -16.5 80.5t-44.5 62.5t-64.5 40.5t-76.5 14.5q-60 0 -109 -16.5t-84.5 -49t-54.5 -79.5t-19 -108q0 -48 21 -90t56 -73t80 -49t93 -18q39 0 66.5 6.5t44.5 15.5t25 19t8 16q0 14 -5 21t-19 7q-15 0 -28.5 -5t-28.5 -10.5t-31.5 -10.5t-36.5 -5t-42.5 6.5
t-41.5 18.5t-31.5 30.5t-12.5 42.5t11.5 39.5t29.5 24.5t39 12.5t40 3.5q29 0 51 -2t39 -4t31 -4t28 -2q40 0 61.5 18t21.5 47zM135 342q0 20 9.5 38.5t25 32.5t36.5 22.5t44 8.5q24 0 47.5 -7t42 -20.5t30.5 -32.5t12 -44q0 -21 -9.5 -36t-26 -24.5t-38.5 -14t-46 -4.5
q-19 0 -41 3.5t-41 12.5t-32 25t-13 40zM314 678q0 35 -32 35q-17 0 -29.5 -17.5t-20.5 -40.5t-12.5 -46.5t-4.5 -35.5q0 -26 6 -36t23 -10q9 0 21.5 18.5t23 43.5t18 50.5t7.5 38.5z" />
    <glyph glyph-name="ecircumflex" unicode="&#xea;" horiz-adv-x="488" 
d="M489 284q0 44 -16.5 80.5t-44.5 62.5t-64.5 40.5t-76.5 14.5q-60 0 -109 -16.5t-84.5 -49t-54.5 -79.5t-19 -108q0 -48 21 -90t56 -73t80 -49t93 -18q39 0 66.5 6.5t44.5 15.5t25 19t8 16q0 14 -5 21t-19 7q-15 0 -28.5 -5t-28.5 -10.5t-31.5 -10.5t-36.5 -5t-42.5 6.5
t-41.5 18.5t-31.5 30.5t-12.5 42.5t11.5 39.5t29.5 24.5t39 12.5t40 3.5q29 0 51 -2t39 -4t31 -4t28 -2q40 0 61.5 18t21.5 47zM135 342q0 20 9.5 38.5t25 32.5t36.5 22.5t44 8.5q24 0 47.5 -7t42 -20.5t30.5 -32.5t12 -44q0 -21 -9.5 -36t-26 -24.5t-38.5 -14t-46 -4.5
q-19 0 -41 3.5t-41 12.5t-32 25t-13 40zM366 541q7 0 7 9t-10.5 26.5t-27 35t-36 30.5t-38.5 13q-20 0 -38 -13.5t-32.5 -31t-23 -35.5t-8.5 -27q0 -7 4 -7q15 0 27.5 10t23.5 21.5t22.5 21.5t24.5 10q12 0 24.5 -10t25.5 -21.5t26.5 -21.5t28.5 -10z" />
    <glyph glyph-name="edieresis" unicode="&#xeb;" horiz-adv-x="488" 
d="M489 284q0 44 -16.5 80.5t-44.5 62.5t-64.5 40.5t-76.5 14.5q-60 0 -109 -16.5t-84.5 -49t-54.5 -79.5t-19 -108q0 -48 21 -90t56 -73t80 -49t93 -18q39 0 66.5 6.5t44.5 15.5t25 19t8 16q0 14 -5 21t-19 7q-15 0 -28.5 -5t-28.5 -10.5t-31.5 -10.5t-36.5 -5t-42.5 6.5
t-41.5 18.5t-31.5 30.5t-12.5 42.5t11.5 39.5t29.5 24.5t39 12.5t40 3.5q29 0 51 -2t39 -4t31 -4t28 -2q40 0 61.5 18t21.5 47zM135 342q0 20 9.5 38.5t25 32.5t36.5 22.5t44 8.5q24 0 47.5 -7t42 -20.5t30.5 -32.5t12 -44q0 -21 -9.5 -36t-26 -24.5t-38.5 -14t-46 -4.5
q-19 0 -41 3.5t-41 12.5t-32 25t-13 40zM377 620q-20 0 -29.5 -11t-9.5 -25q0 -15 10 -27.5t29 -12.5q20 0 31.5 12.5t11.5 27.5q0 14 -10 25t-33 11zM158 620q-20 0 -29.5 -11t-9.5 -25q0 -15 10 -27.5t29 -12.5q20 0 31 12.5t11 27.5q0 14 -10 25t-32 11z" />
    <glyph glyph-name="igrave" unicode="&#xec;" horiz-adv-x="218" 
d="M155 389q0 12 -1.5 27.5t-6.5 29.5t-13.5 23.5t-22.5 9.5q-13 0 -21 -9.5t-12.5 -23.5t-6 -29.5t-1.5 -27.5v-308q0 -10 1.5 -23.5t6 -25.5t12.5 -20.5t21 -8.5t21.5 8t13.5 20t7 25.5t2 24.5v308zM54 683q0 -13 7.5 -38.5t18 -50.5t23 -43.5t21.5 -18.5q17 0 23 10t6 36
q0 12 -4.5 35.5t-12.5 46.5t-21 40.5t-29 17.5q-32 0 -32 -35z" />
    <glyph glyph-name="iacute" unicode="&#xed;" horiz-adv-x="218" 
d="M155 389q0 12 -1.5 27.5t-6.5 29.5t-13.5 23.5t-22.5 9.5q-13 0 -21 -9.5t-12.5 -23.5t-6 -29.5t-1.5 -27.5v-308q0 -10 1.5 -23.5t6 -25.5t12.5 -20.5t21 -8.5t21.5 8t13.5 20t7 25.5t2 24.5v308zM164 683q0 35 -32 35q-17 0 -29.5 -17.5t-20.5 -40.5t-12.5 -46.5
t-4.5 -35.5q0 -26 6 -36t23 -10q9 0 21.5 18.5t23 43.5t18 50.5t7.5 38.5z" />
    <glyph glyph-name="icircumflex" unicode="&#xee;" horiz-adv-x="218" 
d="M155 389q0 12 -1.5 27.5t-6.5 29.5t-13.5 23.5t-22.5 9.5q-13 0 -21 -9.5t-12.5 -23.5t-6 -29.5t-1.5 -27.5v-308q0 -10 1.5 -23.5t6 -25.5t12.5 -20.5t21 -8.5t21.5 8t13.5 20t7 25.5t2 24.5v308zM210 549q7 0 7 9t-10.5 26.5t-27 35t-36 30.5t-38.5 13q-20 0 -38 -13.5
t-32.5 -31t-23 -35.5t-8.5 -27q0 -7 4 -7q15 0 27.5 10t23.5 21.5t22.5 21.5t24.5 10q12 0 24.5 -10t25.5 -21.5t26.5 -21.5t28.5 -10z" />
    <glyph glyph-name="idieresis" unicode="&#xef;" horiz-adv-x="218" 
d="M155 389q0 12 -1.5 27.5t-6.5 29.5t-13.5 23.5t-22.5 9.5q-13 0 -21 -9.5t-12.5 -23.5t-6 -29.5t-1.5 -27.5v-308q0 -10 1.5 -23.5t6 -25.5t12.5 -20.5t21 -8.5t21.5 8t13.5 20t7 25.5t2 24.5v308zM178 611q-20 0 -29.5 -11t-9.5 -25q0 -15 10 -27.5t29 -12.5
q20 0 31.5 12.5t11.5 27.5q0 14 -10 25t-33 11zM44 611q-20 0 -29.5 -11t-9.5 -25q0 -15 10 -27.5t29 -12.5q20 0 31 12.5t11 27.5q0 14 -10 25t-32 11z" />
    <glyph glyph-name="eth" unicode="&#xf0;" horiz-adv-x="534" 
d="M370 613q10 16 8 26.5t-16 20.5q-10 6 -23.5 3.5t-27.5 -10.5q-19 25 -39 40.5t-41 15.5q-17 0 -22.5 -8.5t-5.5 -22.5q0 -19 13 -38.5t27 -42.5q-10 -12 -14 -17q-14 -23 -14.5 -34t13.5 -21q5 -4 17.5 0t27.5 12q3 -12 3 -25q0 -32 -16.5 -45t-42.5 -21t-57 -19
t-59 -39q-11 -11 -22 -25.5t-21 -34.5t-16 -46.5t-6 -60.5q0 -49 17.5 -91t49 -73t76 -48.5t98.5 -17.5q57 0 102 16.5t76.5 46.5t48 73t16.5 96q0 41 -10 78t-26 71t-36 66t-41 65l-56 89l11 11t8 10zM427 231q0 -32 -12 -60.5t-32.5 -50.5t-48 -34.5t-59.5 -12.5t-59.5 12
t-47.5 33t-32 48.5t-12 57.5q0 45 16.5 75t39.5 48.5t48.5 26.5t43.5 8q34 0 63 -14.5t49 -36.5t31.5 -48.5t11.5 -51.5z" />
    <glyph glyph-name="ntilde" unicode="&#xf1;" horiz-adv-x="549" 
d="M512 279q0 61 -14.5 101t-38.5 64t-56 33.5t-67 9.5q-39 0 -59.5 -6t-35 -12.5t-28.5 -12.5t-40 -6q-15 0 -22 2t-14 4.5t-18 4.5t-33 2q-24 0 -35.5 -29.5t-10.5 -70.5v-291q0 -32 12 -51t28 -19q26 0 36.5 23.5t10.5 62.5v155q0 36 9 67t25.5 54.5t40.5 36.5t55 13
q32 0 63 -7t55 -29.5t38.5 -65.5t14.5 -114v-123q0 -73 41 -73q13 0 21.5 9t13 23t6.5 31.5t2 34.5v179zM346 620q-21 -3 -39 3t-35.5 14t-37.5 14t-45 2q-29 -5 -38 -19.5t-7 -28.5q2 -12 8.5 -15t15.5 -1t18 4.5t19 4.5q27 4 45 -2t34 -14t33 -14t43 -2q17 2 31 15.5
t11 33.5q-2 11 -6.5 14t-12.5 2q-8 -2 -17.5 -5.5t-19.5 -5.5z" />
    <glyph glyph-name="ograve" unicode="&#xf2;" 
d="M520 238q0 60 -21.5 106.5t-57 78.5t-82 48.5t-96.5 16.5q-49 0 -95 -17t-81.5 -49t-57 -78.5t-21.5 -105.5q0 -57 20.5 -103t55.5 -78t81.5 -49t97.5 -17q59 0 106.5 20.5t81 55t51.5 79t18 92.5zM98 238q0 36 12.5 68t34.5 55.5t52.5 37.5t65.5 14q34 0 64 -12.5
t52.5 -36t36 -55.5t13.5 -71q0 -38 -14 -69t-37 -53.5t-53 -35t-62 -12.5q-38 0 -68.5 15t-52 39t-33 54.5t-11.5 61.5zM209 691q0 -13 7.5 -38.5t18 -50.5t23 -43.5t21.5 -18.5q17 0 23 10t6 36q0 12 -4.5 35.5t-12.5 46.5t-21 40.5t-29 17.5q-32 0 -32 -35z" />
    <glyph glyph-name="oacute" unicode="&#xf3;" 
d="M520 238q0 60 -21.5 106.5t-57 78.5t-82 48.5t-96.5 16.5q-49 0 -95 -17t-81.5 -49t-57 -78.5t-21.5 -105.5q0 -57 20.5 -103t55.5 -78t81.5 -49t97.5 -17q59 0 106.5 20.5t81 55t51.5 79t18 92.5zM98 238q0 36 12.5 68t34.5 55.5t52.5 37.5t65.5 14q34 0 64 -12.5
t52.5 -36t36 -55.5t13.5 -71q0 -38 -14 -69t-37 -53.5t-53 -35t-62 -12.5q-38 0 -68.5 15t-52 39t-33 54.5t-11.5 61.5zM309 687q0 35 -32 35q-17 0 -29.5 -17.5t-20.5 -40.5t-12.5 -46.5t-4.5 -35.5q0 -26 6 -36t23 -10q9 0 21.5 18.5t23 43.5t18 50.5t7.5 38.5z" />
    <glyph glyph-name="ocircumflex" unicode="&#xf4;" 
d="M520 238q0 60 -21.5 106.5t-57 78.5t-82 48.5t-96.5 16.5q-49 0 -95 -17t-81.5 -49t-57 -78.5t-21.5 -105.5q0 -57 20.5 -103t55.5 -78t81.5 -49t97.5 -17q59 0 106.5 20.5t81 55t51.5 79t18 92.5zM98 238q0 36 12.5 68t34.5 55.5t52.5 37.5t65.5 14q34 0 64 -12.5
t52.5 -36t36 -55.5t13.5 -71q0 -38 -14 -69t-37 -53.5t-53 -35t-62 -12.5q-38 0 -68.5 15t-52 39t-33 54.5t-11.5 61.5zM359 546q7 0 7 9t-10.5 26.5t-27 35t-36 30.5t-38.5 13q-20 0 -38 -13.5t-32.5 -31t-23 -35.5t-8.5 -27q0 -7 4 -7q15 0 27.5 10t23.5 21.5t22.5 21.5
t24.5 10q12 0 24.5 -10t25.5 -21.5t26.5 -21.5t28.5 -10z" />
    <glyph glyph-name="otilde" unicode="&#xf5;" 
d="M520 238q0 60 -21.5 106.5t-57 78.5t-82 48.5t-96.5 16.5q-49 0 -95 -17t-81.5 -49t-57 -78.5t-21.5 -105.5q0 -57 20.5 -103t55.5 -78t81.5 -49t97.5 -17q59 0 106.5 20.5t81 55t51.5 79t18 92.5zM98 238q0 36 12.5 68t34.5 55.5t52.5 37.5t65.5 14q34 0 64 -12.5
t52.5 -36t36 -55.5t13.5 -71q0 -38 -14 -69t-37 -53.5t-53 -35t-62 -12.5q-38 0 -68.5 15t-52 39t-33 54.5t-11.5 61.5zM332 609q-21 -3 -39 3t-35.5 14t-37.5 14t-45 2q-29 -5 -38 -19.5t-7 -28.5q2 -12 8.5 -15t15.5 -1t18 4.5t19 4.5q27 4 45 -2t34 -14t33 -14t43 -2
q17 2 31 15.5t11 33.5q-2 11 -6.5 14t-12.5 2q-8 -2 -17.5 -5.5t-19.5 -5.5z" />
    <glyph glyph-name="odieresis" unicode="&#xf6;" 
d="M520 238q0 60 -21.5 106.5t-57 78.5t-82 48.5t-96.5 16.5q-49 0 -95 -17t-81.5 -49t-57 -78.5t-21.5 -105.5q0 -57 20.5 -103t55.5 -78t81.5 -49t97.5 -17q59 0 106.5 20.5t81 55t51.5 79t18 92.5zM98 238q0 36 12.5 68t34.5 55.5t52.5 37.5t65.5 14q34 0 64 -12.5
t52.5 -36t36 -55.5t13.5 -71q0 -38 -14 -69t-37 -53.5t-53 -35t-62 -12.5q-38 0 -68.5 15t-52 39t-33 54.5t-11.5 61.5zM373 622q-20 0 -29.5 -11t-9.5 -25q0 -15 10 -27.5t29 -12.5q20 0 31.5 12.5t11.5 27.5q0 14 -10 25t-33 11zM154 622q-20 0 -29.5 -11t-9.5 -25
q0 -15 10 -27.5t29 -12.5q20 0 31 12.5t11 27.5q0 14 -10 25t-32 11z" />
    <glyph glyph-name="divide" unicode="&#xf7;" horiz-adv-x="567" 
d="M134 283q-27 0 -48 -9.5t-21 -26.5t21.5 -24t47.5 -7h318q26 0 48.5 8.5t22.5 22.5q0 18 -22.5 27t-48.5 9h-318zM341 375q0 19 -14 32.5t-31 13.5q-19 0 -31 -14t-12 -32q0 -17 13 -30t30 -13t31 13t14 30zM337 111q0 19 -14 32.5t-31 13.5q-19 0 -31 -14t-12 -32
q0 -17 13 -30t30 -13t31 13t14 30z" />
    <glyph glyph-name="oslash" unicode="&#xf8;" 
d="M396 503q11 29 11.5 47t-5.5 25q-8 0 -19.5 -14t-23.5 -44l-17 -40q-39 11 -79 11q-49 0 -95 -17t-81.5 -49t-57 -78.5t-21.5 -105.5q0 -83 41 -141t105 -85l-27 -68q-1 -2 -2.5 -8.5t-1.5 -13.5q0 -8 1.5 -15t5.5 -11q8 0 18.5 13.5t18.5 31.5l24 59q34 -9 72 -9
q59 0 106.5 20.5t81 55t51.5 79t18 92.5q0 84 -40 140.5t-101 84.5zM98 238q0 36 12.5 68t34.5 55.5t52.5 37.5t65.5 14q24 0 50 -8l-128 -317q-42 23 -64.5 64t-22.5 86zM429 238q0 -38 -14 -69t-37 -53.5t-53 -35t-62 -12.5q-20 0 -42 5l128 315q35 -22 57.5 -60.5
t22.5 -89.5z" />
    <glyph glyph-name="ugrave" unicode="&#xf9;" horiz-adv-x="510" 
d="M82 475q-17 0 -29 -16.5t-12 -51.5v-227q0 -100 43.5 -148.5t118.5 -48.5q30 0 48.5 5.5t32 12t26.5 12t33 5.5q16 0 26 -2t18.5 -4t18.5 -4t26 -2q28 0 38 28t10 79v259q0 21 -1.5 40t-6 33t-13 22t-23.5 8q-14 0 -22.5 -8.5t-13.5 -22t-7 -29t-2 -28.5v-148
q0 -31 -7 -63t-21.5 -58.5t-37 -43.5t-53.5 -17q-45 0 -73.5 15t-45 46t-23 76.5t-6.5 107.5v97q0 36 -10.5 56t-31.5 20zM197 680q0 -13 7.5 -38.5t18 -50.5t23 -43.5t21.5 -18.5q17 0 23 10t6 36q0 12 -4.5 35.5t-12.5 46.5t-21 40.5t-29 17.5q-32 0 -32 -35z" />
    <glyph glyph-name="uacute" unicode="&#xfa;" horiz-adv-x="510" 
d="M82 475q-17 0 -29 -16.5t-12 -51.5v-227q0 -100 43.5 -148.5t118.5 -48.5q30 0 48.5 5.5t32 12t26.5 12t33 5.5q16 0 26 -2t18.5 -4t18.5 -4t26 -2q28 0 38 28t10 79v259q0 21 -1.5 40t-6 33t-13 22t-23.5 8q-14 0 -22.5 -8.5t-13.5 -22t-7 -29t-2 -28.5v-148
q0 -31 -7 -63t-21.5 -58.5t-37 -43.5t-53.5 -17q-45 0 -73.5 15t-45 46t-23 76.5t-6.5 107.5v97q0 36 -10.5 56t-31.5 20zM307 687q0 35 -32 35q-17 0 -29.5 -17.5t-20.5 -40.5t-12.5 -46.5t-4.5 -35.5q0 -26 6 -36t23 -10q9 0 21.5 18.5t23 43.5t18 50.5t7.5 38.5z" />
    <glyph glyph-name="ucircumflex" unicode="&#xfb;" horiz-adv-x="510" 
d="M82 475q-17 0 -29 -16.5t-12 -51.5v-227q0 -100 43.5 -148.5t118.5 -48.5q30 0 48.5 5.5t32 12t26.5 12t33 5.5q16 0 26 -2t18.5 -4t18.5 -4t26 -2q28 0 38 28t10 79v259q0 21 -1.5 40t-6 33t-13 22t-23.5 8q-14 0 -22.5 -8.5t-13.5 -22t-7 -29t-2 -28.5v-148
q0 -31 -7 -63t-21.5 -58.5t-37 -43.5t-53.5 -17q-45 0 -73.5 15t-45 46t-23 76.5t-6.5 107.5v97q0 36 -10.5 56t-31.5 20zM357 545q7 0 7 9t-10.5 26.5t-27 35t-36 30.5t-38.5 13q-20 0 -38 -13.5t-32.5 -31t-23 -35.5t-8.5 -27q0 -7 4 -7q15 0 27.5 10t23.5 21.5t22.5 21.5
t24.5 10q12 0 24.5 -10t25.5 -21.5t26.5 -21.5t28.5 -10z" />
    <glyph glyph-name="udieresis" unicode="&#xfc;" horiz-adv-x="510" 
d="M82 475q-17 0 -29 -16.5t-12 -51.5v-227q0 -100 43.5 -148.5t118.5 -48.5q30 0 48.5 5.5t32 12t26.5 12t33 5.5q16 0 26 -2t18.5 -4t18.5 -4t26 -2q28 0 38 28t10 79v259q0 21 -1.5 40t-6 33t-13 22t-23.5 8q-14 0 -22.5 -8.5t-13.5 -22t-7 -29t-2 -28.5v-148
q0 -31 -7 -63t-21.5 -58.5t-37 -43.5t-53.5 -17q-45 0 -73.5 15t-45 46t-23 76.5t-6.5 107.5v97q0 36 -10.5 56t-31.5 20zM363 627q-20 0 -29.5 -11t-9.5 -25q0 -15 10 -27.5t29 -12.5q20 0 31.5 12.5t11.5 27.5q0 14 -10 25t-33 11zM144 627q-20 0 -29.5 -11t-9.5 -25
q0 -15 10 -27.5t29 -12.5q20 0 31 12.5t11 27.5q0 14 -10 25t-32 11z" />
    <glyph glyph-name="yacute" unicode="&#xfd;" horiz-adv-x="459" 
d="M42 474q-17 0 -23 -12.5t-6 -26.5q0 -18 12.5 -47.5t26.5 -64.5l102 -245q13 -30 18 -54.5t5 -47.5q0 -21 -5.5 -38.5t-13.5 -31t-16.5 -23.5t-14.5 -16q-16 -16 -35 -25t-36 -16t-28.5 -15t-11.5 -21t14.5 -24t40.5 -11q38 0 66 12t50.5 36.5t41 62.5t38.5 90l151 394
q25 65 25 87q0 11 -6.5 20.5t-21.5 9.5t-26 -8.5t-19.5 -22t-14.5 -29.5t-11 -30l-30 -85q-14 -39 -31.5 -65t-46.5 -26q-27 0 -46 27t-32 61l-35 87q-7 18 -15 36t-17.5 31.5t-21.5 22t-27 8.5zM297 678q0 35 -32 35q-17 0 -29.5 -17.5t-20.5 -40.5t-12.5 -46.5t-4.5 -35.5
q0 -26 6 -36t23 -10q9 0 21.5 18.5t23 43.5t18 50.5t7.5 38.5z" />
    <glyph glyph-name="thorn" unicode="&#xfe;" horiz-adv-x="574" 
d="M340 497q-41 1 -71 -11t-52 -25.5t-38 -22t-29 0.5q-8 5 -10 30t-1 58.5t2 71.5t-0.5 70t-9 53t-23.5 21q-23 0 -39 -17.5t-16 -52.5l-4 -810q0 -13 1 -27t5 -26t12.5 -19.5t23.5 -7.5q14 0 22.5 9t13 23t6 31.5t1.5 34.5v41q0 20 4 39t13 33.5t22.5 23.5t32.5 9
q18 0 32 -4t28 -8.5t30 -8.5t39 -4q46 0 87 18t71.5 50.5t48 78t17.5 101.5q0 64 -20.5 110.5t-53 77t-71 45t-74.5 14.5zM291 425q34 0 65.5 -12t56.5 -34.5t40 -55.5t15 -75q0 -36 -13 -67.5t-36.5 -54.5t-56 -36.5t-71.5 -13.5q-33 0 -61.5 15t-49 39.5t-32.5 56
t-12 64.5t12.5 64t33.5 55.5t49 39.5t60 15z" />
    <glyph glyph-name="ydieresis" unicode="&#xff;" horiz-adv-x="459" 
d="M42 474q-17 0 -23 -12.5t-6 -26.5q0 -18 12.5 -47.5t26.5 -64.5l102 -245q13 -30 18 -54.5t5 -47.5q0 -21 -5.5 -38.5t-13.5 -31t-16.5 -23.5t-14.5 -16q-16 -16 -35 -25t-36 -16t-28.5 -15t-11.5 -21t14.5 -24t40.5 -11q38 0 66 12t50.5 36.5t41 62.5t38.5 90l151 394
q25 65 25 87q0 11 -6.5 20.5t-21.5 9.5t-26 -8.5t-19.5 -22t-14.5 -29.5t-11 -30l-30 -85q-14 -39 -31.5 -65t-46.5 -26q-27 0 -46 27t-32 61l-35 87q-7 18 -15 36t-17.5 31.5t-21.5 22t-27 8.5zM337 620q-20 0 -29.5 -11t-9.5 -25q0 -15 10 -27.5t29 -12.5q20 0 31.5 12.5
t11.5 27.5q0 14 -10 25t-33 11zM118 620q-20 0 -29.5 -11t-9.5 -25q0 -15 10 -27.5t29 -12.5q20 0 31 12.5t11 27.5q0 14 -10 25t-32 11z" />
  </font>
</defs>
</svg>
